<?xml version="1.0" encoding="UTF-8" standalone="no"?>
<svg
   xmlns:dc="http://purl.org/dc/elements/1.1/"
   xmlns:cc="http://creativecommons.org/ns#"
   xmlns:rdf="http://www.w3.org/1999/02/22-rdf-syntax-ns#"
   xmlns:svg="http://www.w3.org/2000/svg"
   xmlns="http://www.w3.org/2000/svg"
   xmlns:sodipodi="http://sodipodi.sourceforge.net/DTD/sodipodi-0.dtd"
   xmlns:inkscape="http://www.inkscape.org/namespaces/inkscape"
   width="400mm"
   height="400mm"
   viewBox="0 0 400 400"
   version="1.1"
   id="svg8"
   inkscape:version="1.0.2 (e86c870879, 2021-01-15, custom)"
   sodipodi:docname="cdeshmukh.svg">
  <defs
     id="defs2" />
  <sodipodi:namedview
     id="base"
     pagecolor="#ffffff"
     bordercolor="#666666"
     borderopacity="1.0"
     inkscape:pageopacity="0.0"
     inkscape:pageshadow="2"
     inkscape:zoom="0.33173887"
     inkscape:cx="-9.6540379"
     inkscape:cy="419.54685"
     inkscape:document-units="mm"
     inkscape:current-layer="layer1"
     inkscape:document-rotation="0"
     showgrid="false"
     inkscape:window-width="1920"
     inkscape:window-height="1017"
     inkscape:window-x="-8"
     inkscape:window-y="-8"
     inkscape:window-maximized="1" />
  <metadata
     id="metadata5">
    <rdf:RDF>
      <cc:Work
         rdf:about="">
        <dc:format>image/svg+xml</dc:format>
        <dc:type
           rdf:resource="http://purl.org/dc/dcmitype/StillImage" />
        <dc:title />
      </cc:Work>
    </rdf:RDF>
  </metadata>
  <g
     inkscape:label="Layer 1"
     inkscape:groupmode="layer"
     id="layer1">
    <g
       id="g1225">
      <ellipse
         style="opacity:0.5;fill:#916f6f;fill-opacity:0.482353;stroke-width:0;stroke-linecap:round;stroke-linejoin:round;stroke-miterlimit:4;stroke-dasharray:none;paint-order:markers fill stroke"
         id="path1091"
         cx="183.44774"
         cy="185.41003"
         rx="162.67258"
         ry="150.63712" />
      <g
         id="g1139">
        <path
           style="fill:none;stroke:#000000;stroke-width:1.2;stroke-linecap:butt;stroke-linejoin:miter;stroke-miterlimit:4;stroke-dasharray:none;stroke-opacity:1"
           d="m 193.80372,60.805106 c -4.83754,-2.576428 -5.19543,-2.078918 -10.15751,-0.274526 -0.97717,0.355335 -2.06286,0.440806 -3.0198,0.823581 -0.55003,0.220015 -1.12133,0.782611 -1.64716,1.098109 -2.55072,1.530432 -5.10916,3.022261 -7.41223,4.941487 -3.44376,2.869798 -6.45323,6.178699 -9.60845,9.333923 -0.97897,0.97897 -2.76311,1.47604 -3.84338,2.19622 -3.78881,2.52587 -10.50213,4.59686 -14.27541,0.82358"
           id="path847" />
        <path
           style="fill:none;stroke:#000000;stroke-width:1.2;stroke-linecap:butt;stroke-linejoin:miter;stroke-miterlimit:4;stroke-dasharray:none;stroke-opacity:1"
           d="m 205.88291,66.844705 c 7.60104,0.09274 15.32727,0.0051 22.78575,-0.823582 1.54304,-0.17145 2.88326,0.156668 4.39244,-0.274526 1.559,-0.445429 2.82048,-1.528705 4.39243,-1.92169 1.0852,-0.271301 6.83198,-1.129308 7.68676,-0.274529"
           id="path849" />
        <path
           style="fill:none;stroke:#000000;stroke-width:1.2;stroke-linecap:butt;stroke-linejoin:miter;stroke-miterlimit:4;stroke-dasharray:none;stroke-opacity:1"
           d="m 245.14029,63.550378 c -0.0915,1.92169 -0.27453,3.841202 -0.27453,5.765069 0,0.86772 2.41058,3.723042 2.74528,4.392436 0.12277,0.245543 -0.12278,0.578037 0,0.823581 0.33652,0.673056 0.94108,1.274366 1.37263,1.921686 0.80991,1.21487 1.44667,4.34001 1.92169,5.76507 0.0819,0.24555 0.46721,0.30351 0.54906,0.54906 0.0868,0.26044 -0.12278,0.57803 0,0.82358 1.3652,2.73041 3.01979,6.24689 3.01979,9.33392"
           id="path851" />
        <path
           style="fill:none;stroke:#000000;stroke-width:1.2;stroke-linecap:butt;stroke-linejoin:miter;stroke-miterlimit:4;stroke-dasharray:none;stroke-opacity:1"
           d="m 143.0162,86.61066 c -3.53305,2.93378 -8.28012,-0.63072 -12.35373,0.27453 -0.79899,0.17755 -1.42368,0.82772 -2.19621,1.0981 -3.74311,1.31009 -7.68905,1.65175 -9.60845,5.49055"
           id="path853" />
        <path
           style="fill:none;stroke:#000000;stroke-width:1.2;stroke-linecap:butt;stroke-linejoin:miter;stroke-miterlimit:4;stroke-dasharray:none;stroke-opacity:1"
           d="m 132.85869,95.121 c -0.18302,0.54905 -0.16455,1.2146 -0.54905,1.64716 -0.40783,0.45881 -1.09811,0.54906 -1.64717,0.82358 -2.43504,1.21753 -3.29432,3.10601 -3.29432,5.76507"
           id="path855" />
        <path
           style="fill:none;stroke:#000000;stroke-width:1.2;stroke-linecap:butt;stroke-linejoin:miter;stroke-miterlimit:4;stroke-dasharray:none;stroke-opacity:1"
           d="m 127.36815,103.35681 c 4.99324,4.95394 -4.66696,5.94819 -4.66696,9.0594"
           id="path857" />
        <path
           style="fill:none;stroke:#000000;stroke-width:1.2;stroke-linecap:butt;stroke-linejoin:miter;stroke-miterlimit:4;stroke-dasharray:none;stroke-opacity:1"
           d="m 127.26938,116.472 c -0.97141,6.18377 -3.1138,12.2027 -5.24124,18.05316 -0.77365,2.12753 -1.69606,4.33722 -2.52356,6.40596 -0.2153,0.53826 -0.19412,3.82714 -0.19412,4.65888"
           id="path859" />
        <path
           style="fill:none;stroke:#000000;stroke-width:1.2;stroke-linecap:butt;stroke-linejoin:miter;stroke-miterlimit:4;stroke-dasharray:none;stroke-opacity:1"
           d="m 188.6113,40.57108 c -1.1966,0.331528 -2.48273,-0.241109 -3.68828,0 -1.4402,0.288041 -5.60545,3.034837 -6.98832,3.882401 -5.15452,3.159222 -14.14091,8.39793 -20.18848,9.12364 -2.41699,0.290039 -9.706,0.316555 -9.706,-3.494162"
           id="path861" />
        <path
           style="fill:none;stroke:#000000;stroke-width:1.2;stroke-linecap:butt;stroke-linejoin:miter;stroke-miterlimit:4;stroke-dasharray:none;stroke-opacity:1"
           d="m 242.18842,47.365281 c 0.48598,0.01558 3.67223,-0.01606 3.8824,0.194119 0.71471,0.714709 1.84255,0.581301 2.71768,1.16472 0.20402,0.136012 0.81402,0.884158 1.16472,1.16472 1.75963,1.407705 3.03218,3.125475 3.49416,5.435362 0.42278,2.11388 -0.49446,4.534339 0.19412,6.600078 0.17291,0.518721 0.20273,1.190551 0.38824,1.747081 0.51455,1.543643 1.15083,3.050365 1.55296,4.658879 0.32292,1.291666 0.14241,6.418693 -0.19412,7.7648 -0.54376,2.17504 0.38824,5.07535 0.38824,7.18244"
           id="path863" />
        <path
           style="fill:none;stroke:#000000;stroke-width:1.2;stroke-linecap:butt;stroke-linejoin:miter;stroke-miterlimit:4;stroke-dasharray:none;stroke-opacity:1"
           d="m 242.18842,47.365281 c -1.10002,-0.582361 -2.29102,-1.018347 -3.30004,-1.747081 -0.23925,-0.172794 -1.83149,-5.186386 -3.49416,-6.01772 -0.40686,-0.203433 -1.80709,-0.557657 -2.13532,-0.776481 -0.12039,-0.08026 -0.0737,-0.30798 -0.19412,-0.388239 -0.38166,-0.254439 -3.89252,-0.681106 -4.46476,-0.77648 -0.90581,-0.150969 -2.30618,-0.764853 -3.10592,-1.16472 -3.37372,-1.686862 -2.27641,-4.104738 -6.98832,-5.04712 -2.42863,-0.485725 -5.12537,-0.09781 -7.57068,0 -1.89698,0.07588 -3.92507,0 -5.8236,0 -3.3635,0 -7.55232,0.438687 -10.87072,-0.582359 -1.18296,-0.363987 -2.31617,-1.009176 -3.30004,-1.74708 -0.61568,-0.461759 -0.85497,-1.203966 -1.55296,-1.552962"
           id="path865" />
        <path
           style="fill:none;stroke:#000000;stroke-width:1.2;stroke-linecap:butt;stroke-linejoin:miter;stroke-miterlimit:4;stroke-dasharray:none;stroke-opacity:1"
           d="m 202.1997,36.882802 c -2.47292,-1.495028 -5.20991,-3.279513 -8.15304,-3.688281 -5.87809,-0.816401 -11.7891,0.388239 -17.66492,0.388239 -0.84119,0 -1.69481,0.144131 -2.52356,0 -0.90567,-0.15751 -3.68828,-1.188231 -3.68828,-2.523559"
           id="path867" />
        <path
           style="fill:none;stroke:#000000;stroke-width:1.2;stroke-linecap:butt;stroke-linejoin:miter;stroke-miterlimit:4;stroke-dasharray:none;stroke-opacity:1"
           d="m 178.32294,25.2356 c -2.5,0.122473 -4.91931,-0.561057 -7.37656,-0.9706 -0.90264,-0.15044 -1.84118,-0.125291 -2.71768,-0.388239 -0.1753,-0.05259 -0.22454,-0.306393 -0.38824,-0.388242 -0.60546,-0.302731 -1.84512,-0.640791 -2.52356,-0.776478 -2.44848,-0.489696 -6.98279,0.20759 -9.51188,0.388239 -0.77451,0.05532 -1.55896,-0.09631 -2.32944,0 -0.97437,0.121796 -1.93351,0.774944 -2.9118,0.9706 -5.23795,1.047592 -7.40377,2.632522 -12.03544,4.658882 -1.50611,0.658921 -3.17472,1.062079 -4.65888,1.747078 -0.173,0.07985 -1.67666,0.953468 -1.74708,1.164719 -0.11463,0.343892 -0.42335,2.00691 -0.77648,2.13532 -2.11531,0.769205 -4.24473,1.506598 -6.40596,2.135322 -1.40174,0.407779 -2.85886,0.599078 -4.27064,0.970601 -1.04897,0.276042 -2.05007,0.722164 -3.10592,0.970597 -3.19873,0.752644 -5.81518,0.883798 -8.7354,2.135323 -0.49197,0.210843 -1.11436,0.253407 -1.55296,0.582358 -1.3985,1.048877 -3.03291,2.490928 -4.07652,3.882401 -0.9972,1.329602 -1.63744,3.046976 -2.52356,4.464759 -0.701989,1.123193 -1.350689,2.253863 -2.135319,3.300042 -0.42551,0.567343 0.0128,0.33728 -0.19412,1.164719 -0.24884,0.995373 -1.031196,1.928868 -1.35884,2.911801 -0.458507,1.375518 -0.9706,3.835923 -0.9706,5.241239"
           id="path871" />
        <path
           style="fill:none;stroke:#000000;stroke-width:1.2;stroke-linecap:butt;stroke-linejoin:miter;stroke-miterlimit:4;stroke-dasharray:none;stroke-opacity:1"
           d="m 158.5227,35.912201 c 0,0.323533 0.19029,0.708946 0,0.970601 -1.61379,2.218962 -7.44542,3.64123 -9.90012,4.270639 -4.74858,1.217584 -9.56084,2.508716 -14.36488,3.494159 -1.29094,0.264808 -2.81232,0.23468 -4.07652,0.776481 -0.4795,0.205499 -0.88517,0.557866 -1.35884,0.77648 -2.80949,1.296689 -3.8711,1.44938 -6.40596,2.911801 -0.80833,0.466346 -1.53174,1.068641 -2.32944,1.552958 -2.48636,1.509578 -5.24124,2.39046 -5.24124,5.629482 0,0.867986 -0.18302,0.59346 0.19412,0.9706"
           id="path873" />
        <path
           style="fill:none;stroke:#000000;stroke-width:1.2;stroke-linecap:butt;stroke-linejoin:miter;stroke-miterlimit:4;stroke-dasharray:none;stroke-opacity:1"
           d="m 123.5811,60.1772 c -0.12941,0.388241 -0.12909,0.847986 -0.38824,1.164722 -1.06133,1.29718 -6.2109,2.911403 -6.21184,2.911798 -4.46886,1.881629 -9.42593,4.009657 -12.6178,7.764801 -1.32073,1.553802 -0.76968,3.862019 -1.35884,5.629479"
           id="path875" />
        <path
           style="fill:none;stroke:#000000;stroke-width:1.2;stroke-linecap:butt;stroke-linejoin:miter;stroke-miterlimit:4;stroke-dasharray:none;stroke-opacity:1"
           d="m 93.686622,69.883201 c -0.127175,2.124707 0.176715,4.285377 0,6.405959 -0.08078,0.96939 -0.08046,1.94571 -0.19412,2.9118 -0.09352,0.7949 -0.502719,1.53304 -0.582361,2.32944 -0.146825,1.46826 -0.254003,3.70275 0.194119,5.04712 0.246753,0.74026 -0.128399,1.75316 0,2.52356 0.34462,2.06771 0.82753,4.18869 1.164723,6.21184 0.04526,0.27155 0.342982,0.69906 0.388239,0.9706 0.222975,1.33785 -0.07265,2.74265 0.194119,4.07652 0.541642,2.7082 1.320223,5.36021 1.552961,8.15304 0.0832,0.99839 0.267272,7.86043 0,8.92952 -0.07019,0.28074 -0.331488,0.49272 -0.388241,0.77648 -0.321718,1.60859 -0.377928,3.25879 -0.776478,4.853 -0.183364,0.73345 0.124992,1.57949 0,2.32944 -0.136644,0.81986 -0.375685,1.50274 -0.582361,2.32944 -0.116084,0.46434 0.06606,1.09054 0,1.55296 -0.175536,1.22874 -0.19412,2.4245 -0.19412,3.68828"
           id="path877" />
        <path
           style="fill:none;stroke:#000000;stroke-width:1.2;stroke-linecap:butt;stroke-linejoin:miter;stroke-miterlimit:4;stroke-dasharray:none;stroke-opacity:1"
           d="m 119.31046,145.59 c -2.05714,-3.56052 -3.98628,-3.56341 -6.7942,-5.43536 -0.4205,-0.28033 -0.74422,-0.69027 -1.16472,-0.9706 -0.23239,-0.15493 -0.8222,-0.27694 -0.9706,-0.38824 -1.05801,-0.7935 0.2225,-0.37121 -0.77648,-0.9706 -4.35068,-2.61041 -8.52505,-4.46476 -13.782519,-4.46476 -0.681376,0 -0.858821,0.0559 -1.358839,-0.19412 -0.684908,-0.34245 -6.176592,0.3353 -6.600081,0.38824 -1.466014,0.18325 -3.435252,3.19963 -3.688279,4.46476 -0.140507,0.70253 -0.980797,1.20551 -1.164719,1.9412 -0.389123,1.55649 -0.968817,2.90466 -1.358842,4.46476 -0.208243,0.83298 0,2.06571 0,2.9118 0,2.05957 -0.05175,4.42603 0.388242,6.40596 0.26658,1.19962 1.037346,2.48268 1.358839,3.68828 0.716266,2.686 1.505667,5.49819 2.9118,7.95892 0.388239,0.67942 0.291179,0.14559 0.582359,0.58236 0.44373,0.66559 0.66108,1.50577 1.164722,2.13532 0.285824,0.35728 0.728099,0.5826 0.970597,0.9706 0.86853,1.38965 1.678829,2.97207 2.717681,4.27064 0.281887,0.35236 0.6999,0.60967 0.9706,0.9706 0.502672,0.67023 0.826072,1.46936 1.358839,2.13532 0.773849,0.96731 2.189086,2.24285 2.717681,3.30004 0.05788,0.11575 -0.05787,0.27249 0,0.38824 0.239361,0.47872 3.826059,4.60254 4.270639,5.04712 0.5112,0.5112 0.88283,1.37742 1.16472,1.9412 0.46665,0.9333 1.55546,1.99161 2.52356,2.71768 0.2283,0.17123 0.50321,0.63984 0.77648,0.77648 2.01495,1.00748 8.9587,1.55296 11.6472,1.55296 0.16072,0 1.74389,0.19731 1.9412,0 0.38722,-0.38722 1.58029,-0.60969 2.13532,-1.16472 0.15922,-0.15922 0.14438,-0.3385 0.38824,-0.58236"
           id="path879" />
        <path
           style="fill:none;stroke:#000000;stroke-width:1.2;stroke-linecap:butt;stroke-linejoin:miter;stroke-miterlimit:4;stroke-dasharray:none;stroke-opacity:1"
           d="m 105.91618,145.97824 c -0.78648,-1.78354 -1.07565,-4.18158 -2.52356,-5.62948 -0.42813,-0.42813 -1.22348,-0.51468 -1.74708,-0.77648 -3.222389,-1.6112 -7.694542,-2.84987 -11.064838,-1.16472 -1.280711,0.64036 -2.482538,0.90907 -3.30004,2.13532"
           id="path881" />
        <path
           style="fill:none;stroke:#000000;stroke-width:1.2;stroke-linecap:butt;stroke-linejoin:miter;stroke-miterlimit:4;stroke-dasharray:none;stroke-opacity:1"
           d="m 107.27502,154.90776 c -2.12223,1.25384 -5.40911,2.11426 -6.01772,4.853 -0.25422,1.14398 -0.20733,2.33632 -0.38824,3.49416 -0.14302,0.91535 -0.45718,1.79972 -0.58236,2.71768 -0.0787,0.57702 0,2.32944 0,1.74708"
           id="path883" />
        <path
           style="fill:none;stroke:#000000;stroke-width:1.2;stroke-linecap:butt;stroke-linejoin:miter;stroke-miterlimit:4;stroke-dasharray:none;stroke-opacity:1"
           d="m 254.47421,92.92478 c 0.24008,0.3431 0.53056,0.65597 0.72025,1.0293 0.11725,0.23075 -0.0628,0.52538 0,0.77648 0.29167,1.16668 0.13525,2.48219 0.38824,3.49416 0.12643,0.5057 0.40108,1.96688 0.58236,2.32944 0.30196,0.60393 0.0251,1.84727 0.19412,2.52356 0.67106,2.68425 0.96643,5.40612 1.35884,8.15304 0.38499,2.69489 -0.0587,5.47128 0.38824,8.15304 0.4512,2.70719 -0.4512,5.63997 0,8.34716 0.2785,1.67098 0.60477,3.7331 1.35884,5.24124 0.26295,0.52589 -0.43372,4.70436 -0.77648,5.04712 -0.2547,0.2547 -0.82285,1.35022 -0.9706,1.9412 -0.20618,0.82473 -0.2298,1.23607 -0.58236,1.9412 -0.37694,0.75388 0,2.79496 0,3.68828 0,1.55535 -0.3755,3.54511 0,5.04712 0.28119,1.12475 0.11167,2.38789 0.38824,3.49416 0.0895,0.358 0.24727,0.49453 0.38824,0.77648 0.22288,0.44576 0,1.41492 0,1.9412 -0.10483,5.09781 -0.58236,10.04753 -0.58236,15.14136 0,1.60714 0.26298,3.46925 0,5.04712 -0.44121,2.64728 -0.89733,5.28505 -1.16472,7.95892 -0.16506,1.65062 0.0781,3.41384 -0.19412,5.04712 -0.13296,0.79778 -0.49086,1.70014 -0.58236,2.52356 -0.14051,1.26468 -0.0974,3.68988 -0.38824,4.853 -0.49906,1.99628 -0.97165,4.08179 -1.35884,6.01772 -0.22116,1.10582 -0.7524,2.20909 -0.9706,3.30004 -0.20104,1.00521 -0.41239,2.08614 -0.58236,3.10592 -0.0426,0.25531 0.0819,0.53094 0,0.77648 -0.20291,0.60874 -0.3832,2.12526 -0.58236,2.52356 -0.51315,1.02631 -0.59525,2.174 -0.9706,3.30004 -0.69581,2.08743 -1.32352,4.18235 -2.13532,6.21184 -0.69062,1.72656 -2.88391,5.21734 -4.27064,6.40596 -0.21971,0.18833 -0.55417,0.20299 -0.77648,0.38824 -0.23559,0.19633 -2.80427,4.20642 -3.10592,4.65888 -0.71486,1.07231 -1.07198,2.34676 -1.35884,3.49416 -0.19423,0.77695 -0.83496,1.51562 -0.9706,2.32944 -0.072,0.43191 0.004,1.15704 -0.19412,1.55296 -0.24658,0.49318 -0.232,-0.1988 -0.38824,0.58236 -0.18495,0.9248 -0.30997,1.62969 -0.77648,2.32944 -0.06,0.09 -0.1341,0.88058 -0.19412,0.9706 -0.0802,0.12039 -0.30142,0.0784 -0.38824,0.19412 -0.50851,0.67802 -0.50873,1.47934 -1.16472,2.13533 -1.57495,1.57495 -4.97909,1.7701 -6.98832,2.52356 -0.21844,0.0819 -0.36792,0.29633 -0.58236,0.38824 -0.81488,0.34923 -1.71662,0.1865 -2.52356,0.38824 -0.93321,0.2333 -1.79084,0.71314 -2.71768,0.9706 -0.86077,0.40623 -1.81888,0.35766 -2.71768,0.58236 -4.21343,1.05335 -8.84779,1.51464 -13.20016,0.9706 -0.49655,-0.0621 -1.12242,-0.51061 -1.55296,-0.58236 -0.50664,-0.0845 -1.08651,0.15571 -1.55296,-0.19412 -0.11575,-0.0868 -0.0811,-0.29786 -0.19412,-0.38824 -0.46184,-0.36948 -1.2609,-0.5334 -1.74708,-0.77648 -1.49599,-0.748 -2.78824,-2.0753 -4.07652,-3.10592 -0.60106,-0.48086 -1.40343,-0.82108 -1.9412,-1.35884 -0.47538,-0.47539 -0.68121,-1.26358 -1.16472,-1.74709"
           id="path885" />
        <path
           style="fill:none;stroke:#000000;stroke-width:1.2;stroke-linecap:butt;stroke-linejoin:miter;stroke-miterlimit:4;stroke-dasharray:none;stroke-opacity:1"
           d="m 130.18118,207.32016 c 0.38824,0.38824 0.8312,0.72857 1.16472,1.16472 1.40075,1.83175 2.35609,4.0261 3.49416,6.01772 0.52889,0.92556 1.25417,1.78663 1.74708,2.71768 1.29879,2.45327 2.57344,4.92225 3.8824,7.37656 0.36793,0.68987 0.57665,1.45997 0.9706,2.13532 1.06528,1.8262 2.40989,3.43413 3.49416,5.24124 1.17663,1.96105 2.1545,4.03906 3.30004,6.01772 1.06117,1.83293 2.34122,3.4734 3.49416,5.24124 4.61103,7.07025 10.43088,15.33549 19.80024,15.33549"
           id="path887" />
        <path
           style="fill:none;stroke:#000000;stroke-width:1.2;stroke-linecap:butt;stroke-linejoin:miter;stroke-miterlimit:4;stroke-dasharray:none;stroke-opacity:1"
           d="m 121.6399,190.43172 c 0.25883,1.16472 0.61879,2.31149 0.77648,3.49416 0.1726,1.29451 -0.12798,3.59642 -0.19412,4.853 -0.0893,1.69593 -0.0637,3.35166 -0.19412,5.04712 -0.12367,1.60766 0.1339,3.24626 0,4.853 -0.30361,3.64333 -1.16472,7.22804 -1.16472,10.87072 0,0.67955 -0.50411,1.90358 -0.19412,2.52356 0.71841,1.43682 0.36628,0.55601 1.35884,1.74708 1.87236,2.24683 3.30004,4.853 5.04712,7.18244 0.16472,0.21962 0.44404,0.34523 0.58236,0.58236 0.32111,0.55048 0.46699,1.18999 0.77648,1.74708 0.49686,0.89435 1.26203,1.62275 1.74708,2.52356 1.34262,2.49344 2.55093,4.9792 4.07652,7.37656 0.73804,1.15977 1.94923,2.14336 2.9118,3.10592 0.75533,0.75533 1.40525,1.79347 2.13532,2.52357 0.22877,0.22875 0.51765,0.38822 0.77648,0.58234 0.32353,0.32354 0.66026,0.6344 0.9706,0.9706 1.7745,1.92238 3.09837,4.23789 4.853,6.21186 2.40209,2.70235 6.02511,5.19824 8.92952,7.37656 1.33562,1.00171 2.45004,2.36847 3.68828,3.49414 1.58354,1.4396 3.50316,2.66576 5.24124,3.88242 2.50366,1.75254 5.65485,2.75717 8.54128,3.68826 7.49874,1.99967 1.06301,-0.0509 3.49416,1.16472 1.33272,0.66638 3.89952,0.59378 5.04712,1.35885 0.66842,0.44561 0.0891,0.42389 0.9706,0.77647 0.61681,0.24673 0.2632,-0.12504 0.58236,0.19413 0.28681,0.28681 6.05384,-2.34149 6.60008,-2.52355 2.24771,-0.74924 5.30519,-1.09963 7.37656,-2.13534 0.44884,-0.22439 1.14944,-0.47384 1.55296,-0.77647 0.81203,-0.60902 1.3371,-1.32178 2.32944,-1.74707 0.49044,-0.21019 1.05335,-0.2009 1.55296,-0.38825 1.11071,-0.41651 3.23187,-2.06714 4.07652,-2.9118 0.71158,-0.71157 2.08547,-0.73908 2.9118,-1.35884 1.64333,-1.23249 2.78622,-2.43224 3.8824,-4.07652 0.0803,-0.12038 0.32353,-0.0647 0.38824,-0.19412 1.00159,-2.00316 2.13532,-5.67907 2.13532,-7.95891"
           id="path889" />
        <path
           style="fill:none;stroke:#000000;stroke-width:1.2;stroke-linecap:butt;stroke-linejoin:miter;stroke-miterlimit:4;stroke-dasharray:none;stroke-opacity:1"
           d="m 120.6693,208.87312 c -1.32973,2.04189 -4.09416,2.27647 -5.04712,4.65888 -0.22798,0.56996 -0.34626,1.18044 -0.58236,1.74708 -0.17946,0.43072 -0.64829,0.71607 -0.77648,1.16472 -0.0711,0.24887 0.0321,0.51965 0,0.77648 -0.1374,1.09922 -0.40078,2.21058 -0.58236,3.30004 -0.38512,2.31072 -0.0168,6.41483 0.19412,8.7354 0.19047,2.09518 -0.0707,4.34063 0.38824,6.40596 0.21012,0.94554 0.8814,1.991 1.16472,2.9118 0.29386,0.95505 0.4565,1.95187 0.77648,2.91181 0.37619,1.12858 1.25099,2.63139 1.55296,3.68826 0.0711,0.24887 -0.0909,0.53415 0,0.7765 0.1136,0.30292 0.45792,0.47781 0.58236,0.77648 0.20523,0.49254 0.20589,1.0515 0.38824,1.55294 0.33361,0.91742 0.85305,1.78268 1.16472,2.7177 0.58628,1.75884 0.67153,3.64093 0.9706,5.43536 0.5895,3.537 1.58397,7.27548 2.71768,10.6766 0.77973,2.33918 1.81518,4.62706 2.52356,6.9883 1.46617,4.88725 -1.5069,-3.5501 0.58236,2.7177 1.10543,3.31629 2.57206,6.51907 3.49416,9.90012 0.67219,2.46468 1.13615,5.06979 1.55296,7.57066 0.19034,1.14202 0.16178,2.36188 0.38824,3.49417 0.337,1.68499 0.41882,0.27524 0.58236,1.74709 0.18423,1.65804 0.63724,3.07642 1.16472,4.65887 0.80032,2.40096 1.17927,5.11018 1.74708,7.57068 0.0607,0.26286 -0.0404,0.68752 0,0.97059 0.22944,1.60608 0.84696,4.99396 1.55296,6.40596 0.27921,0.55843 -0.3217,1.61952 0.19412,2.13532 0.17521,0.17521 2.78225,-1.30701 2.9118,-1.35882 0.88197,-0.35279 1.91733,-0.39894 2.71768,-0.97059 1.17695,-0.84069 -0.0135,-0.32793 1.16472,-1.35885 1.11612,-0.97661 2.46285,-1.36335 3.49416,-2.52357 1.10101,-1.23865 1.90618,-2.57509 2.9118,-3.88239 0.97686,-1.26992 2.37929,-2.18517 3.49416,-3.30004 2.62013,-2.62015 5.2648,-5.37364 7.37656,-8.54128 2.86052,-4.2908 -1.49619,2.17011 0.9706,-1.9412 1.48957,-2.48261 3.16966,-4.89452 4.65888,-7.37658 0.42986,-0.71641 1.18128,-2.77966 1.55296,-3.30002 0.42882,-0.60036 0.90589,-1.16472 1.35884,-1.74709 0.82756,-1.064 2.0256,-2.21972 2.9118,-3.10592 0.33926,-0.33925 1.16299,-0.58063 1.55296,-0.9706 0.55714,-0.55713 0.99061,-1.56297 1.74708,-1.94119 1.01556,-0.50779 1.79796,-0.43913 2.52356,-1.16472"
           id="path891" />
        <path
           style="fill:none;stroke:#000000;stroke-width:1.2;stroke-linecap:butt;stroke-linejoin:miter;stroke-miterlimit:4;stroke-dasharray:none;stroke-opacity:1"
           d="m 194.4349,274.48568 c 0.31491,1.60687 1.41968,2.80284 2.32944,4.07652 0.8,1.12001 1.1214,2.56106 1.9412,3.68829 0.32294,0.44402 0.88224,0.6939 1.16472,1.16472 0.51463,0.8577 0.77509,1.57496 1.35884,2.52354 0.4575,0.74343 1.18465,1.59282 1.55296,2.32945 1.01923,2.03845 2.9543,3.78661 4.27064,5.62949 0.53955,0.75535 0.88897,2.27867 1.16472,3.10591 0.47611,1.42833 1.13912,2.82221 1.55296,4.27064 0.0635,0.22238 0.57148,1.96297 0.58236,1.9412 0.31089,-0.62177 0.29225,-3.01205 0.58236,-3.88239 0.16497,-0.49493 0.58273,-0.87448 0.77648,-1.35885 0.55451,-1.38626 0.88905,-2.86126 1.35884,-4.27064 0.17176,-0.51528 0.51452,-0.81605 0.58236,-1.35885 0.21473,-1.71786 0.46634,-3.61169 1.16472,-5.24123 1.1749,-2.74143 2.74597,-5.29783 4.07652,-7.95891 0.36259,-0.72519 0.88004,-1.37618 1.16472,-2.13532 0.0682,-0.18177 -0.0558,-0.39642 0,-0.58237 0.31772,-1.05908 0.74372,-2.08349 1.16472,-3.10592 0.77207,-1.87502 1.7313,-3.60937 2.13532,-5.62949 0.20085,-1.00425 0.44728,-5.52841 0.19412,-6.79418 -0.10141,-0.50707 -0.32713,-1.06407 -0.38824,-1.55297 -0.0481,-0.38523 0.0873,-0.78642 0,-1.16472 -0.10699,-0.46361 -1.57377,-5.11638 -1.55296,-5.24124 0.0573,-0.34372 0.25883,-0.64706 0.38824,-0.9706"
           id="path893" />
        <path
           style="fill:none;stroke:#000000;stroke-width:1.2;stroke-linecap:butt;stroke-linejoin:miter;stroke-miterlimit:4;stroke-dasharray:none;stroke-opacity:1"
           d="m 168.61694,290.40352 c 2.48851,1.92852 4.63381,4.19685 6.60008,6.60008 1.04825,1.28119 0.93178,0.81532 1.74708,1.74707 0.97695,1.11652 1.60305,2.24894 2.32944,3.49417 0.48906,0.83839 1.28692,1.47487 1.74708,2.32944 0.86108,1.59915 1.47461,3.6643 1.74708,5.43537 0.28672,1.86364 0.51484,5.06402 0.19412,6.9883 -0.0336,0.20185 -0.19412,0.37775 -0.19412,0.58238 0,0.38822 0.77648,0 1.16472,0 1.42355,0 2.84709,0 4.27064,0 0.76229,0 4.35574,0.73922 4.46476,0.19412 0.45941,-2.29706 1.07157,-4.54252 1.74708,-6.79421 0.61757,-2.05856 0.37731,-4.44288 1.35884,-6.40596 1.64102,-3.28205 3.46796,-6.54769 5.04712,-9.706 0.43372,-0.86743 2.76699,-4.08728 2.32944,-4.85301 -0.58005,-1.01507 -1.48111,-1.93048 -2.13532,-2.91179 -0.26864,-0.40296 -0.33237,-0.92136 -0.58236,-1.35885 -0.74351,-1.30114 -1.66076,-2.54503 -2.32944,-3.88239 -0.44525,-0.89051 -1.05249,-2.60546 -1.74708,-3.30004 -0.45063,-0.45064 -1.18597,0.47434 -1.74708,0.77647 -1.97037,1.06098 -3.78372,2.15397 -5.8236,3.10594 -3.97666,1.85577 -7.22116,3.15585 -11.6472,2.52355 -0.29577,-0.0423 -1.08988,-0.0148 -1.35884,-0.19413 -0.72942,-0.48628 -2.72018,-0.97308 -3.10592,-1.35882 -0.31497,-0.31498 -1.18811,-0.60576 -1.55296,-0.9706 -0.0457,-0.0458 0.0647,-0.19412 0,-0.19412 -0.28938,0 -0.21461,0.54496 -0.38824,0.77647 -0.0868,0.11576 -0.32353,0.0647 -0.38824,0.19413 -0.0868,0.17362 0.0381,0.392 0,0.58234 -0.19386,0.96931 -0.95347,1.90696 -1.35884,2.7177 -0.11575,0.23148 0.0961,0.53615 0,0.77647 -0.16512,0.4128 -0.9706,1.93172 -0.9706,2.13532"
           id="path895" />
        <path
           style="fill:none;stroke:#000000;stroke-width:1.2;stroke-linecap:butt;stroke-linejoin:miter;stroke-miterlimit:4;stroke-dasharray:none;stroke-opacity:1"
           d="m 182.98182,317.19208 c -0.1679,0.85473 0.24918,1.88709 0,2.71769 -1.31157,4.37192 -4.5979,8.22296 -7.18244,11.84132 -0.56906,0.79669 -0.73252,1.85328 -1.16472,2.71767 -0.57925,1.15851 -1.11494,2.55043 -1.74708,3.68829 -0.86608,1.55893 -1.75274,2.92876 -2.32944,4.65887 -0.39717,1.19149 -0.41272,3.30173 -0.58236,4.65888 -0.39511,3.16085 -0.38824,6.30971 -0.38824,9.51188 0,0.57923 -0.0962,3.39799 0.19412,3.68829 0.26679,0.26678 0.37307,-0.65667 0.58236,-0.97059"
           id="path897" />
        <path
           style="fill:none;stroke:#000000;stroke-width:1.2;stroke-linecap:butt;stroke-linejoin:miter;stroke-miterlimit:4;stroke-dasharray:none;stroke-opacity:1"
           d="m 193.27018,317.77445 c -0.33525,3.29922 1.18942,6.24356 2.13532,9.31775 0.81224,2.63981 1.35964,5.37279 2.32944,7.95891 0.4253,1.13416 1.0894,2.2184 1.55296,3.30004 0.53387,1.24569 0.85808,2.69118 1.55296,3.88242 1.76432,3.02453 5.24661,6.86594 7.7648,9.12362 1.37651,1.23413 3.61766,2.72942 4.65888,4.46477 0.28576,0.47628 0,3.35539 0,4.27064"
           id="path899" />
        <path
           style="fill:none;stroke:#000000;stroke-width:1.2;stroke-linecap:butt;stroke-linejoin:miter;stroke-miterlimit:4;stroke-dasharray:none;stroke-opacity:1"
           d="m 220.6411,279.5328 c 0.14861,1.64576 0.44106,3.4585 0.9706,5.04713 1.00491,3.01472 1.6229,6.13474 1.9412,9.31776 0.28214,2.82141 -0.0628,5.71465 0.19412,8.54127 0.0185,0.20379 0.12942,0.38825 0.19412,0.58235 0.0647,0.38825 0.16794,0.772 0.19412,1.16473 0.0387,0.58107 -0.0447,1.16644 0,1.74709 0.0566,0.7356 0.49085,1.40325 0.58236,2.13532 0.0722,0.57785 -0.0415,1.16618 0,1.74707 0.0331,0.46278 0.54381,2.31794 0.58236,2.52357 0.3793,2.02293 0.27132,4.19002 0.58236,6.21184 0.0622,0.40446 0.32096,0.76104 0.38824,1.16472 0.30353,1.82115 0.0527,3.79087 0.19412,5.62948 0.15472,2.01134 0.40721,4.00341 0.58236,6.01771 0.19924,2.29122 0,4.68794 0,6.98831 0,2.41689 0.17048,4.98123 0.38824,7.37658 0.20208,2.22287 0.26024,7.36383 0,9.70598 -0.1852,1.66679 -0.77648,3.12846 -0.77648,4.85301"
           id="path901" />
        <path
           style="fill:none;stroke:#000000;stroke-width:1.2;stroke-linecap:butt;stroke-linejoin:miter;stroke-miterlimit:4;stroke-dasharray:none;stroke-opacity:1"
           d="m 239.66486,240.70879 c 6.08662,8.85436 14.85278,15.70911 22.90616,22.71204 3.05699,2.65827 5.91989,5.509 9.12365,7.95894 1.22785,0.93892 1.38994,1.36662 2.71767,2.13532 2.76796,1.6025 5.68039,3.03432 8.54128,4.46476 1.27825,0.63913 2.68703,0.44749 3.88241,1.16472 0.94814,0.56888 -0.69392,2.10545 -1.16472,3.10592 -0.59158,1.25706 -1.25486,2.48034 -1.94122,3.68826 -0.93194,1.64024 -1.97141,3.21758 -2.91179,4.85302 -1.02455,1.78183 -1.7394,3.74711 -2.91179,5.43536 -1.07797,1.55223 -2.38491,2.93473 -3.49417,4.46476 -0.56113,0.77399 -2.26846,4.01553 -3.30004,5.04712"
           id="path903" />
        <path
           style="fill:none;stroke:#000000;stroke-width:1.2;stroke-linecap:butt;stroke-linejoin:miter;stroke-miterlimit:4;stroke-dasharray:none;stroke-opacity:1"
           d="m 245.48846,281.66812 c 1.52956,3.16883 2.56144,6.71507 4.46476,9.706 1.82804,2.87263 8.19216,8.37324 11.06484,10.28837 0.84272,0.56179 1.84572,0.84357 2.71768,1.35882 0.55708,0.3292 0.9742,0.87535 1.55297,1.16473 1.04336,0.52167 2.22785,0.70522 3.30004,1.16472 1.94813,0.83492 3.83477,1.77776 5.82359,2.52357 1.49918,0.56218 3.13462,0.55488 4.65889,0.97059 0.91387,0.24924 1.818,0.67072 2.71767,0.9706 0.31302,0.10433 0.73731,-0.0392 0.97059,0.19413 0.36888,0.36888 -0.0768,1.04462 -0.1941,1.55294 -0.69794,3.02435 -1.64203,5.93228 -2.52357,8.92953 -2.12341,7.21958 -2.95134,14.87525 -3.88241,22.3238 -0.31639,2.53132 -0.74782,5.06931 -1.1647,7.57068 -0.27463,1.6478 -0.0568,3.38992 -0.38825,5.04711 -0.0294,0.14716 0.0838,4.18682 0,4.27067 -0.25881,0.25881 -0.19412,-0.32356 -0.19412,0.19409"
           id="path905" />
        <path
           style="fill:none;stroke:#000000;stroke-width:1.2;stroke-linecap:butt;stroke-linejoin:miter;stroke-miterlimit:4;stroke-dasharray:none;stroke-opacity:1"
           d="m 242.18842,231.0028 c 1.96726,2.89137 6.47009,4.73298 9.51188,6.40596 3.09599,1.70279 6.18288,3.62653 9.51188,4.853 1.68293,0.62003 2.66969,0.69932 4.46475,1.16472 1.94734,0.50486 3.84006,1.19232 5.82362,1.55295 0.83735,0.15227 1.70246,0.16431 2.52354,0.38825 1.40287,0.38261 2.69161,1.10979 4.07654,1.55297 5.1462,1.64677 10.0538,3.77944 15.14136,5.62946 2.55217,0.92808 5.2006,1.61856 7.76478,2.52357 1.83185,0.64654 3.57193,1.58726 5.43536,2.13532 1.75665,0.51665 3.70703,0.58859 5.43537,1.16472 1.68957,0.56319 3.3311,1.2568 5.04711,1.74707 1.25828,0.35952 2.44007,1.13689 3.68829,1.55297 2.36762,0.7892 3.90549,1.34758 5.82361,2.71767 0.63402,0.45289 1.11694,1.09469 1.74707,1.55297 0.35042,0.25485 2.52357,1.25892 2.52357,1.74707"
           id="path907" />
        <path
           style="fill:none;stroke:#000000;stroke-width:1.2;stroke-linecap:butt;stroke-linejoin:miter;stroke-miterlimit:4;stroke-dasharray:none;stroke-opacity:1"
           d="m 120.08694,199.74948 c -2.08704,4.18861 -3.79545,8.75854 -6.7942,12.42368 -1.30021,1.58914 -2.6279,2.6091 -3.68828,4.46476 -0.23372,0.40901 -0.21329,0.92146 -0.38824,1.35884 -0.30163,0.75408 -0.76039,1.62187 -1.16472,2.32944 -0.49595,0.86792 -1.63158,1.5947 -1.9412,2.52356 -0.0614,0.18416 0.0614,0.3982 0,0.58236 -0.13066,0.39199 -0.75826,1.00494 -0.9706,1.35884 -0.4117,0.68616 -0.72282,1.47246 -1.16472,2.13532 -0.40039,0.60059 -0.96532,1.11745 -1.35884,1.74708 -0.48563,0.77701 -0.81652,1.84567 -1.35884,2.52356 -0.54744,0.6843 -2.943559,2.62537 -3.688278,2.9118 -0.556802,0.21416 -1.175673,0.21682 -1.747081,0.38824 -0.770525,0.23116 -2.990588,1.149 -3.8824,1.35884 -1.394468,0.32811 -2.879066,0.39696 -4.27064,0.77648 -1.92982,0.52631 0.06348,0.45558 -2.717681,0.77648 -1.596226,0.18418 -3.809365,-0.043 -5.435359,0.58236 -3.132397,1.20477 -6.215406,2.44735 -9.31776,3.68829 -0.895307,0.35812 -3.765735,2.04783 -4.658881,2.71767 -0.46609,0.34957 -0.703707,1.16472 -1.358839,1.16472"
           id="path909" />
        <path
           style="fill:none;stroke:#000000;stroke-width:1.2;stroke-linecap:butt;stroke-linejoin:miter;stroke-miterlimit:4;stroke-dasharray:none;stroke-opacity:1"
           d="m 233.33563,136.5746 c 0.96101,-1.11271 2.03518,-2.19545 3.15706,-3.15706 0.58915,-0.50499 1.11871,-0.42725 1.64716,-0.82359 0.30523,-0.22892 0.58246,-0.74462 0.96085,-0.96084 0.44057,-0.25176 0.95757,-0.37502 1.37263,-0.68632 0.86163,-0.64622 1.71005,-1.40798 2.74527,-1.78442 0.24906,-0.0906 1.70997,-0.3324 1.92169,-0.4118 0.46264,-0.17348 1.46309,-0.84273 2.05895,-1.0981 0.48131,-0.20628 1.03441,-0.20801 1.5099,-0.41179 1.72854,-0.74081 3.60242,-0.82359 5.49055,-0.82359 0.82787,0 2.08707,-0.26515 2.88253,0 0.19412,0.0647 0.35231,0.21832 0.54906,0.27453 0.19609,0.056 0.52604,-0.10315 0.68631,0.13726 0.16473,0.24709 0.36447,1.14072 0.54906,1.5099"
           id="path913" />
        <path
           style="fill:none;stroke:#000000;stroke-width:1.2;stroke-linecap:butt;stroke-linejoin:miter;stroke-miterlimit:4;stroke-dasharray:none;stroke-opacity:1"
           d="m 243.49313,133.96659 c 3.82285,-0.93278 8.48651,-0.54905 12.49098,-0.54905 0.84298,0 2.63915,0.24338 3.15707,-0.27453 0.0971,-0.0971 0.27862,0.0333 0.41179,0 0.77759,-0.1944 1.5099,-0.33985 1.5099,-1.23538"
           id="path915" />
        <path
           style="fill:none;stroke:#000000;stroke-width:1.2;stroke-linecap:butt;stroke-linejoin:miter;stroke-miterlimit:4;stroke-dasharray:none;stroke-opacity:1"
           d="m 253.65063,130.94679 c 0.61716,0.86034 3.78843,2.25117 4.66696,1.37264"
           id="path917" />
        <path
           style="fill:none;stroke:#000000;stroke-width:1.2;stroke-linecap:butt;stroke-linejoin:miter;stroke-miterlimit:4;stroke-dasharray:none;stroke-opacity:1"
           d="m 253.65063,130.94679 c 2.87081,-1.2747 2.61247,0.74212 4.39244,1.09811 0.59602,0.1192 2.23393,-0.008 1.5099,0.13726 -0.40629,0.0813 -0.82359,0.0915 -1.23538,0.13727"
           id="path919" />
        <path
           style="fill:none;stroke:#000000;stroke-width:1.2;stroke-linecap:butt;stroke-linejoin:miter;stroke-miterlimit:4;stroke-dasharray:none;stroke-opacity:1"
           d="m 258.86665,128.33878 c -0.36604,0.64056 -1.17534,1.18798 -1.09811,1.92169 0.046,0.43735 2.85872,1.29344 3.29433,1.37264 0.18006,0.0327 0.41964,0.12941 0.54905,0 0.0723,-0.0724 0.21911,-0.33591 0.13726,-0.27453 -0.23437,0.17578 -0.45754,0.36603 -0.68631,0.54905"
           id="path921" />
        <path
           style="fill:none;stroke:#000000;stroke-width:1.2;stroke-linecap:butt;stroke-linejoin:miter;stroke-miterlimit:4;stroke-dasharray:none;stroke-opacity:1"
           d="m 258.86665,128.33878 c 0.13726,0.45755 0.0608,1.04863 0.41179,1.37264 0.79176,0.73086 2.2829,0.0939 3.0198,-0.27453"
           id="path923" />
        <path
           style="fill:none;stroke:#000000;stroke-width:1.2;stroke-linecap:butt;stroke-linejoin:miter;stroke-miterlimit:4;stroke-dasharray:none;stroke-opacity:1"
           d="m 238.27711,136.43733 c 0.37214,-1.49439 3.0573,-1.81898 4.39244,-1.92169 0.7484,-0.0576 0.89706,0.17979 1.37263,-0.13726 0.5511,-0.3674 0.87933,-1.11309 1.23537,-1.64716 0.69663,-1.04494 -1.46365,0.98333 -1.78442,1.23537"
           id="path925" />
        <path
           style="fill:none;stroke:#000000;stroke-width:1.2;stroke-linecap:butt;stroke-linejoin:miter;stroke-miterlimit:4;stroke-dasharray:none;stroke-opacity:1"
           d="m 243.49313,133.96659 c 0.22877,-0.41179 0.32173,-0.93707 0.68632,-1.23537 0.43696,-0.35752 6.43528,1.38873 7.54949,0.27453"
           id="path927" />
        <path
           style="fill:none;stroke:#000000;stroke-width:1.2;stroke-linecap:butt;stroke-linejoin:miter;stroke-miterlimit:4;stroke-dasharray:none;stroke-opacity:1"
           d="m 246.78745,132.0449 c 2.16838,-0.33931 4.0721,1.09811 6.17686,1.09811 0.36795,0 2.87692,0.20353 2.60801,-0.27453 -0.44412,-0.78955 -1.28113,-1.28113 -1.92169,-1.92169"
           id="path929" />
        <path
           style="fill:none;stroke:#000000;stroke-width:1.2;stroke-linecap:butt;stroke-linejoin:miter;stroke-miterlimit:4;stroke-dasharray:none;stroke-opacity:1"
           d="m 246.78745,132.0449 c 1.09811,-0.27453 2.17304,-0.66892 3.29433,-0.82358 0.23289,-0.0321 2.08661,0.61183 2.60801,0.68631 1.91923,0.27418 3.68511,0.4118 5.6278,0.4118"
           id="path931" />
        <path
           style="fill:none;stroke:#000000;stroke-width:1.2;stroke-linecap:butt;stroke-linejoin:miter;stroke-miterlimit:4;stroke-dasharray:none;stroke-opacity:1"
           d="m 240.61059,132.18216 c 1.88483,-1.59557 3.97956,-2.74472 6.17686,-3.84338 0.34059,-0.17029 0.69134,-0.54905 1.09811,-0.54905"
           id="path933" />
        <path
           style="fill:none;stroke:#000000;stroke-width:1.2;stroke-linecap:butt;stroke-linejoin:miter;stroke-miterlimit:4;stroke-dasharray:none;stroke-opacity:1"
           d="m 246.78745,132.0449 c 0.27453,-0.86934 0.2909,-1.86817 0.82359,-2.60801 0.35868,-0.49817 1.12078,-0.50775 1.64716,-0.82358 0.87564,-0.52538 1.51787,-1.23537 2.60801,-1.23537"
           id="path935" />
        <path
           style="fill:none;stroke:#000000;stroke-width:1.2;stroke-linecap:butt;stroke-linejoin:miter;stroke-miterlimit:4;stroke-dasharray:none;stroke-opacity:1"
           d="m 201.61734,217.4144 c 2.0702,0.29654 4.10117,0.11154 6.11478,-0.29118 1.28906,-0.25781 2.73868,-0.16876 3.97946,-0.58236 0.54972,-0.18324 1.05512,-0.45016 1.65002,-0.58236 0.81899,-0.182 -1.04184,0.4767 0.67942,-0.0971 0.49399,-0.16466 0.96082,-0.41733 1.4559,-0.58236 0.78792,-0.26264 1.64528,-0.35915 2.4265,-0.58236 1.0198,-0.29137 -0.22439,-0.12437 0.77648,-0.29118 0.40311,-0.0672 0.86983,-0.0961 1.26178,-0.19412 0.0738,-0.0185 0.60746,-0.35226 0.67942,-0.38824 0.17602,-0.088 0.39144,-0.0493 0.58236,-0.0971 0.32924,-0.0823 0.59839,-0.27818 0.87354,-0.38824 0.5064,-0.20256 1.14228,-0.12193 1.65002,-0.29118 0.0868,-0.0289 0.10534,-0.17193 0.19412,-0.19412 1.36441,-0.3411 2.1617,0.64408 3.20298,1.16472 0.27668,0.13834 1.76575,-0.005 2.13532,-0.0971 0.10145,-0.0254 1.61324,-0.7397 1.65002,-0.77648 0.0512,-0.0512 0.0459,-0.14296 0.0971,-0.19412 0.36429,-0.36429 1.10258,-0.49228 1.55296,-0.58236 0.15794,-0.0316 0.39259,-0.32498 0.58236,-0.38824 0.75761,-0.25254 1.40831,-0.50744 2.23238,-0.58236 0.52033,-0.0473 2.24763,0.0152 2.52356,0.29118 0.0944,0.0944 0.42463,-0.0225 0.58236,0 0.46633,0.0666 0.52141,0.1237 0.87354,0.19412 0.39063,0.0781 0.97109,1.2e-4 1.35884,0.0971 1.05217,0.26304 2.20668,0.19412 3.30004,0.19412"
           id="path941" />
        <path
           style="fill:none;stroke:#000000;stroke-width:1.2;stroke-linecap:butt;stroke-linejoin:miter;stroke-miterlimit:4;stroke-dasharray:none;stroke-opacity:1"
           d="m 210.4498,218.77324 c 1.29176,-0.18293 2.58206,-0.19412 3.8824,-0.19412 2.22029,0 4.46108,-0.0971 6.69714,-0.0971 0.80898,0 1.72284,-0.13345 2.52356,0 0.20184,0.0336 0.37876,0.17376 0.58236,0.19412 0.47752,0.0478 1.27218,-0.1583 1.74708,0 0.39217,0.13072 0.90648,0.14386 1.35884,0.19412 0.32056,0.0356 0.76043,-0.10241 1.06766,0 0.28059,0.0935 1.0303,0.22848 1.35884,0.0971 0.53416,-0.21366 1.14192,-0.37455 1.65002,-0.67942 0.3059,-0.18354 0.46414,-0.47119 0.77648,-0.67942 0.35529,-0.23686 0.86409,-0.44979 1.26178,-0.58236 1.04019,-0.34673 4.64287,-0.76047 5.04712,-1.16472"
           id="path943" />
        <path
           style="fill:none;stroke:#000000;stroke-width:1.2;stroke-linecap:butt;stroke-linejoin:miter;stroke-miterlimit:4;stroke-dasharray:none;stroke-opacity:1"
           d="m 210.15862,223.43212 c 0.77908,0.57776 1.54236,1.49049 2.4265,1.84414 0.15573,0.0623 0.10554,0.27685 0.29118,0.38824 0.49085,0.29451 0.11141,-0.16322 0.67942,0.29118 0.41351,0.33081 0.79386,0.85277 1.26178,1.16472 0.36109,0.24073 0.79397,0.37051 1.16472,0.58236 0.42117,0.24067 0.82719,0.50641 1.35884,0.58236 0.61711,0.0882 2.5529,0.12289 3.10592,0 0.92145,-0.20477 1.97091,-0.4853 2.81474,-0.4853 1.3667,0 2.63168,0.59069 3.97946,0.29118 0.37768,-0.0839 1.11646,-0.19419 1.4559,-0.29118 0.32527,-0.0929 0.62924,-0.29071 0.9706,-0.38824 0.37595,-0.10741 0.80783,-0.11273 1.16472,-0.29118 0.39998,-0.19999 0.74325,-0.48784 1.16472,-0.67942 0.6831,-0.3105 1.4335,-0.61409 2.03826,-1.06766 0.27809,-0.20857 0.41177,-0.55344 0.67942,-0.77648 0.11923,-0.0994 0.91416,-0.81214 1.06766,-0.87354 0.24629,-0.0985 0.62315,-0.12425 0.87354,-0.29118 0.17458,-0.11638 0.15488,-0.34899 0.29118,-0.4853 0.0472,-0.0472 0.27906,-0.16987 0.29118,-0.19412 0.26412,-0.52824 0.29118,-1.24725 0.29118,-1.84414"
           id="path945" />
        <path
           style="fill:none;stroke:#000000;stroke-width:1.2;stroke-linecap:butt;stroke-linejoin:miter;stroke-miterlimit:4;stroke-dasharray:none;stroke-opacity:1"
           d="m 215.49692,138.01932 c -0.10016,-0.46624 0.20679,-1.13937 0,-1.55296 -0.38104,-0.76209 -1.41413,-1.34318 -2.23238,-1.65002 -0.15447,-0.0579 -0.33367,-0.0321 -0.4853,-0.0971 -0.67072,-0.28745 -1.23479,-0.6195 -1.9412,-0.77648 -0.41482,-0.0922 -0.86475,0.0309 -1.26178,0.0971 -0.73563,0.12261 -1.58496,0 -2.32944,0 -1.64886,0 -3.38699,-0.28152 -5.04712,-0.0971 -1.89595,0.21066 -3.90302,0.32216 -5.8236,0.19412 -3.1551,-0.21034 -6.12572,-0.35771 -9.2207,-0.87354 -0.36602,-0.061 -0.80765,0.0357 -1.16472,0 -1.2554,-0.12554 -2.52673,-0.58236 -3.78534,-0.58236"
           id="path947" />
        <path
           style="fill:none;stroke:#000000;stroke-width:1.2;stroke-linecap:butt;stroke-linejoin:miter;stroke-miterlimit:4;stroke-dasharray:none;stroke-opacity:1"
           d="m 186.6701,134.4281 c -0.9615,0.13736 -0.7012,0.1503 -1.9412,0 -0.64955,-0.0787 -1.28915,-0.23684 -1.9412,-0.29118 -1.4697,-0.12247 -2.98504,-0.0971 -4.46476,-0.0971 -0.007,0 -1.10614,-0.0586 -1.16472,0 -0.0996,0.0996 -0.38824,0.55341 -0.38824,0.77648"
           id="path949" />
        <path
           style="fill:none;stroke:#000000;stroke-width:1.2;stroke-linecap:butt;stroke-linejoin:miter;stroke-miterlimit:4;stroke-dasharray:none;stroke-opacity:1"
           d="m 180.07002,135.30164 c -2.8594,0.72726 -5.51682,2.0101 -8.34716,2.71768 -0.56286,0.14072 -1.10875,0.57966 -1.65002,0.77648 -0.73775,0.26827 -2.21279,0.67942 -3.00886,0.67942"
           id="path951" />
        <path
           style="fill:none;stroke:#000000;stroke-width:1.2;stroke-linecap:butt;stroke-linejoin:miter;stroke-miterlimit:4;stroke-dasharray:none;stroke-opacity:1"
           d="m 170.84932,140.2517 c -1.70865,0.41135 -3.48233,0.58236 -5.24124,0.58236"
           id="path953" />
        <path
           style="fill:none;stroke:#000000;stroke-width:1.2;stroke-linecap:butt;stroke-linejoin:miter;stroke-miterlimit:4;stroke-dasharray:none;stroke-opacity:1"
           d="m 175.21702,138.69874 c 0.71979,-0.27182 1.497,-0.27519 2.23238,-0.4853 0.30318,-0.0866 0.56326,-0.29959 0.87354,-0.38824 1.35408,-0.38688 2.65668,-0.64306 4.07652,-0.4853 0.52323,0.0581 1.1333,0.0109 1.65002,0.0971 0.45516,0.0759 0.86051,0.24135 1.35884,0.29118 1.07303,0.1073 2.22303,0 3.30004,0 0.56708,0 1.69669,0.24451 2.13532,-0.19412"
           id="path955" />
        <path
           style="fill:none;stroke:#000000;stroke-width:1.2;stroke-linecap:butt;stroke-linejoin:miter;stroke-miterlimit:4;stroke-dasharray:none;stroke-opacity:1"
           d="m 190.84368,137.53406 c 0.0971,-0.2912 -0.0132,-0.83387 0.29118,-0.87358 0.66988,-0.0874 1.28814,0.40949 1.9412,0.58236 0.0894,0.0237 3.61136,0.9706 3.78534,0.9706"
           id="path957" />
        <path
           style="fill:none;stroke:#000000;stroke-width:1.2;stroke-linecap:butt;stroke-linejoin:miter;stroke-miterlimit:4;stroke-dasharray:none;stroke-opacity:1"
           d="m 195.11432,136.3693 c 3.01148,1.02781 6.33578,1.26178 9.51188,1.26178"
           id="path959" />
        <path
           style="fill:none;stroke:#000000;stroke-width:1.2;stroke-linecap:butt;stroke-linejoin:miter;stroke-miterlimit:4;stroke-dasharray:none;stroke-opacity:1"
           d="m 204.6262,137.63108 c -0.35589,-0.22648 -0.84119,-1.0353 -1.06766,-0.67942 -0.22647,0.35589 0.69036,0.49077 1.06766,0.67942 0.83905,0.41952 2.5867,0.4853 3.49416,0.4853"
           id="path961" />
        <path
           style="fill:none;stroke:#000000;stroke-width:1.2;stroke-linecap:butt;stroke-linejoin:miter;stroke-miterlimit:4;stroke-dasharray:none;stroke-opacity:1"
           d="m 208.12036,138.11638 c -0.16177,-0.38824 -0.69397,-0.79955 -0.4853,-1.16472 0.0971,-0.17 0.99694,0.72055 1.74708,0.9706 0.62312,0.20771 3.56149,0.25752 4.07652,0"
           id="path963" />
        <path
           style="fill:none;stroke:#000000;stroke-width:1.2;stroke-linecap:butt;stroke-linejoin:miter;stroke-miterlimit:4;stroke-dasharray:none;stroke-opacity:1"
           d="m 208.12036,138.11638 c 0.29118,-0.45295 0.40082,-1.10099 0.87354,-1.35884 0.61878,-0.33751 2.15052,0.5274 2.81474,0.77648 0.4908,0.18405 1.03364,0.0903 1.55296,0.19412 0.53646,0.10729 0.12102,0.0971 0.38824,0.0971 0.0324,0 0.12775,-0.0102 0.0971,0 -0.12655,0.0422 -0.25883,0.0647 -0.38824,0.0971"
           id="path965" />
        <path
           style="fill:none;stroke:#000000;stroke-width:1.2;stroke-linecap:butt;stroke-linejoin:miter;stroke-miterlimit:4;stroke-dasharray:none;stroke-opacity:1"
           d="m 177.06116,145.59 c 0.87705,-0.0964 1.86768,-0.0791 2.71768,-0.38824 0.31755,-0.11547 0.61903,-0.54758 0.9706,-0.67942 0.98648,-0.36993 1.90351,-0.73156 2.9118,-1.06766 0.30229,-0.10076 0.59688,-0.23015 0.87354,-0.38824 0.22036,-0.12592 0.23184,-0.30375 0.4853,-0.38824 2.44499,-0.81499 5.16213,-1.49005 7.7648,-1.16472 0.70264,0.0878 2.39092,0.17633 3.00886,0.4853 0.27814,0.13907 0.51176,0.43529 0.77648,0.58236 0.81329,0.45183 1.79652,0.55855 2.62062,0.9706 1.06348,0.53174 -1.13171,-0.29739 1.06766,0.58236 0.24629,0.0985 0.62315,0.12426 0.87354,0.29118 0.13032,0.0869 1.05247,0.85835 1.16472,0.9706 0.0512,0.0512 0.0369,0.15399 0.0971,0.19412 0.0538,0.0359 0.13404,-0.024 0.19412,0 0.40239,0.16096 0.78451,0.39225 1.16472,0.58236 0.18521,0.0926 0.77648,0.25742 0.77648,0.4853"
           id="path967" />
        <path
           style="fill:none;stroke:#000000;stroke-width:1.2;stroke-linecap:butt;stroke-linejoin:miter;stroke-miterlimit:4;stroke-dasharray:none;stroke-opacity:1"
           d="m 179.00236,148.5018 c 0.0971,-0.12941 0.16177,-0.29118 0.29118,-0.38824 0.55449,-0.41586 2.31517,-0.98095 3.00886,-1.06766 0.45295,-0.0566 0.15098,0.0755 0.67942,0 0.26272,0.16496 0.25098,-0.14837 0.38824,-0.19412 0.4543,-0.15143 1.00997,-0.30692 1.4559,-0.4853 0.26136,-0.10454 0.41602,-0.30044 0.67942,-0.38824 0.53718,-0.17906 1.19689,-0.16891 1.74708,-0.29118 0.40009,-0.0889 0.75561,-0.24004 1.16472,-0.29118 0.50855,-0.0636 1.04567,0.0725 1.55296,0 0.96816,-0.13831 1.91833,-0.24387 2.9118,-0.29118 0.48475,-0.0231 0.99551,0.15347 1.4559,0 0.25262,-0.0842 0.21768,-0.0971 0.4853,-0.0971"
           id="path969" />
        <path
           style="fill:none;stroke:#000000;stroke-width:1.2;stroke-linecap:butt;stroke-linejoin:miter;stroke-miterlimit:4;stroke-dasharray:none;stroke-opacity:1"
           d="m 181.91416,151.99596 c 0.82518,1.10583 2.2747,0.79764 3.3971,1.35884 0.59982,0.29991 1.03148,0.33067 1.65002,0.4853 0.0314,0.008 -0.0229,0.0742 0,0.0971 0.10153,0.10153 1.39575,0.44292 1.65002,0.4853 1.09122,0.18187 2.17764,0.19412 3.30004,0.19412 0.39345,0 0.98895,0.10568 1.35884,0 0.11216,-0.032 0.18052,-0.15723 0.29118,-0.19412 0.22483,-0.0749 0.63475,-0.15432 0.87354,-0.19412 0.54883,-0.0915 1.23753,-0.0364 1.74708,-0.29118 0.13917,-0.0696 0.50823,-0.7994 0.67942,-0.9706 0.12274,-0.12274 0.35304,-0.12799 0.4853,-0.19412 0.1553,-0.0777 0.23295,-0.31059 0.38824,-0.38824 0.52455,-0.26227 0.63832,-0.29613 1.06766,-0.58236 0.43141,-0.2876 2.74634,-0.63967 2.9118,-0.9706 0.5665,-1.133 -0.67942,-1.63765 -0.67942,-1.74708"
           id="path971" />
        <path
           style="fill:none;stroke:#000000;stroke-width:1.2;stroke-linecap:butt;stroke-linejoin:miter;stroke-miterlimit:4;stroke-dasharray:none;stroke-opacity:1"
           d="m 206.0821,151.99596 c -0.0288,0.85482 -0.4605,1.72229 -1.06766,2.32944 -0.73749,0.73749 -2.17252,1.36523 -3.10592,1.74708 -1.2896,0.52757 -0.36549,-0.31068 -1.74708,0.87354 -0.15729,0.13482 -0.24175,0.33882 -0.38824,0.4853 -0.45337,0.45337 -1.0374,0.77353 -1.4559,1.26178 -0.4227,0.49315 -0.77969,1.02202 -1.26178,1.4559 -1.01235,0.91112 -0.17142,-0.11976 -1.06766,0.77648 -0.19637,0.19637 -0.97162,1.06766 -1.26178,1.06766"
           id="path973" />
        <path
           style="fill:#333333;stroke:#000000;stroke-width:1.16348;stroke-linecap:butt;stroke-linejoin:miter;stroke-miterlimit:4;stroke-dasharray:none;stroke-opacity:1"
           d="m 188.65983,145.92601 c -0.0647,0.0305 -0.14296,0.0431 -0.19412,0.0913 -0.25998,0.2444 -0.25209,1.17481 -0.29118,1.50548 -0.0601,0.50852 -0.241,1.73746 -0.0485,2.1898 0.18697,0.4394 0.27304,0.95952 0.58236,1.323 0.10437,0.0368 0.0115,0.13031 0.0485,0.18248 0.0201,0.0283 0.0715,0.0216 0.0971,0.0456 0.0767,0.0721 0.0778,0.19406 0.14559,0.27372 0.0226,0.0265 0.0647,0.0304 0.0971,0.0456 0.0324,0.0305 0.0696,0.0569 0.0971,0.0913 0.0905,0.11342 -0.001,0.13617 0.14559,0.2281 0.22832,0.14309 0.80548,0.54379 1.06766,0.59307 0.87526,0.16456 1.7771,0.30229 2.66915,0.18249 0.16511,-0.0222 0.37689,0.0492 0.53383,0 0.11657,-0.0365 0.08,-0.13662 0.24265,-0.18249 0.23801,-0.0671 0.60452,-0.12446 0.82501,-0.2281 0.11301,-0.0531 0.16043,-0.18354 0.24265,-0.27372 0.14279,-0.15661 0.34006,-0.25455 0.4853,-0.41059 0.21843,-0.23467 0.26177,-0.43755 0.43677,-0.68431 0.27373,-0.38598 0.43645,-0.8664 0.72795,-1.23176 0.0217,-0.0272 0.077,-0.0173 0.0971,-0.0456 0.0497,-0.0701 0,-0.70852 0,-0.82118 0,-0.47494 0.0616,-0.99409 -0.0485,-1.45986 -0.0623,-0.26357 -0.27626,-0.49136 -0.33971,-0.72993 -0.0403,-0.1514 -0.004,-0.14246 -0.0971,-0.27373 -0.0768,-0.10826 -0.33208,-0.37778 -0.43677,-0.41058 -0.0307,-0.01 -0.0712,0.0182 -0.0971,0 -0.0467,-0.0329 -0.0558,-0.0981 -0.0971,-0.13687 -0.009,-0.008 -0.13665,-0.0372 -0.14559,-0.0456 -0.5162,-0.48525 -2.40422,-0.12355 -3.20298,-0.27372 -1.11235,-0.20914 -2.37348,-0.21776 -3.49416,0.0456 -0.0865,0.0203 -0.16518,0.13394 -0.24265,0.18248"
           id="path979" />
        <path
           style="fill:#000000;stroke:#000000;stroke-width:1.2;stroke-linecap:butt;stroke-linejoin:miter;stroke-miterlimit:4;stroke-dasharray:none;stroke-opacity:1"
           d="m 193.63229,148.19097 c -0.28024,-0.19354 -0.55378,-0.11361 -0.87354,-0.14559 -0.15448,-0.0154 0.0918,-0.12767 -0.14559,-0.0485 -0.13286,0.0443 -0.35581,0.0901 -0.4853,0.14559 -0.35029,0.15012 -0.47468,0.58463 -0.33971,0.92207 0.0701,0.17519 0.20776,0.46164 0.38824,0.53383 0.14648,0.0586 0.99443,0.23074 1.16472,0.14559 0.0205,-0.0102 0.0324,-0.0324 0.0485,-0.0485 0.0647,-0.0324 0.12549,-0.0742 0.19412,-0.0971 0.3547,-0.11823 0.43677,-0.18047 0.43677,-0.53383 0,-0.38233 -0.12478,-0.61008 -0.38824,-0.87354 z"
           id="path981" />
        <path
           style="fill:#ffffff;stroke:#000000;stroke-width:0;stroke-linecap:butt;stroke-linejoin:miter;stroke-miterlimit:4;stroke-dasharray:none;stroke-opacity:1"
           d="m 194.63427,147.33464 c -0.13563,0.032 -0.64719,-0.13607 -0.78595,-0.0422 -0.0535,0.0362 -0.0956,0.0917 -0.14971,0.1266 -0.0427,0.0275 -0.19046,0.069 -0.22456,0.12659 -0.0378,0.0639 -0.0374,0.2519 -0.0374,0.3376 0,0.47587 0.0181,0.59046 0.48654,0.80178 0.29184,0.13162 0.82279,0.21266 0.97309,-0.211 0.0282,-0.0795 0.0166,-0.17093 0.0374,-0.25319 0.0366,-0.14457 0.0627,-0.33531 0.0374,-0.50639 -0.004,-0.0268 -0.29969,-0.32743 -0.33684,-0.37979 z"
           id="path983" />
        <path
           style="fill:none;stroke:#000000;stroke-width:1.2;stroke-linecap:butt;stroke-linejoin:miter;stroke-miterlimit:4;stroke-dasharray:none;stroke-opacity:1"
           d="m 235.46321,142.88872 c 0.3217,-0.71807 1.07891,-0.71927 1.64716,-1.09811 0.0677,-0.0451 0.29068,-0.0162 0.34316,-0.0686 0.46568,-0.46568 0.84273,-0.52431 1.44127,-0.82358 0.0579,-0.0289 0.0759,-0.1168 0.13726,-0.13726 0.0868,-0.0289 0.18575,0.0222 0.27453,0 0.13443,-0.0336 1.07528,-0.29743 1.16674,-0.34316 0.0135,-0.007 0.15461,-0.18026 0.2059,-0.2059 0.28694,-0.14347 0.71916,-0.21246 1.02947,-0.27452 0.35382,-0.0708 0.68806,-0.22936 1.02948,-0.34316 0.62476,-0.20826 1.45584,-0.0686 2.12758,-0.0686"
           id="path985" />
        <path
           style="fill:none;stroke:#000000;stroke-width:1.2;stroke-linecap:butt;stroke-linejoin:miter;stroke-miterlimit:4;stroke-dasharray:none;stroke-opacity:1"
           d="m 234.84552,144.67315 c -0.51145,0.24889 -0.42531,0.5007 -0.68631,0.89221 -0.20617,0.30926 -0.76687,0.78783 -0.61769,1.23537 0.24841,0.74523 0.85255,0.9067 1.5099,1.23538 0.41405,0.20702 0.78052,0.51356 1.16674,0.75494 0.194,0.12125 0.34907,0.3007 0.54905,0.4118 0.28205,0.15669 0.60483,0.26809 0.89222,0.41179 0.20155,0.10077 0.24344,0.21689 0.41179,0.34316 0.4942,0.37065 1.09613,0.68533 1.64716,0.96084 0.74917,0.37458 1.7969,0.3182 2.60801,0.48042 1.06088,0.21218 2.19177,0.13727 3.29432,0.13727 0.53511,0 1.11998,0.0753 1.64717,0 0.34709,-0.0496 0.68605,-0.29737 1.02948,-0.34316 0.46759,-0.0623 0.81126,-0.0161 1.23537,-0.13727 0.41117,-0.11747 0.80542,-0.37293 1.23537,-0.48042 0.1654,-0.0413 1.366,-0.33652 1.37263,-0.34316 0.0162,-0.0162 0,-0.0457 0,-0.0686 0.0686,-0.0457 0.13212,-0.10037 0.2059,-0.13726 0.39065,-0.19533 0.76008,-0.37876 1.16674,-0.48042 0.19042,-0.0476 -0.006,-0.0626 0.0686,-0.13727 0.35552,-0.35552 1.304,-0.59177 1.304,-1.16674"
           id="path987" />
        <path
           style="fill:none;stroke:#000000;stroke-width:1.2;stroke-linecap:butt;stroke-linejoin:miter;stroke-miterlimit:4;stroke-dasharray:none;stroke-opacity:1"
           d="m 238.07122,143.43778 c 1.5931,-0.0628 3.08795,-0.80384 4.59833,-1.23538 0.41408,-0.11831 0.8815,-0.112 1.304,-0.20589 0.97678,-0.21706 2.01132,-0.44167 2.95117,-0.75495 0.42939,-0.14313 1.2577,-0.0114 1.71579,-0.0686 1.14784,-0.14348 2.62813,-0.28059 3.77475,-0.13727 0.61213,0.0765 1.19503,0.31968 1.78443,0.48043 0.82057,0.22379 1.62138,0.28022 2.33348,0.75495"
           id="path989" />
        <path
           style="fill:#333333;stroke:#000000;stroke-width:1.2;stroke-linecap:butt;stroke-linejoin:miter;stroke-miterlimit:4;stroke-dasharray:none;stroke-opacity:1"
           d="m 242.42684,143.67118 c -0.3216,0.87648 -0.37042,2.12101 0.13726,2.88253 0.0127,0.019 0,0.0458 0,0.0686 0.0229,0.0686 0.0252,0.14802 0.0686,0.20589 0.0761,0.10152 0.25151,0.18287 0.34316,0.27453 0.32561,0.32561 0.67832,0.74695 1.02948,1.09811 0.004,0.19325 0.15474,0.0175 0.20589,0.0686 0.0162,0.0162 0,0.0458 0,0.0686 0.13727,0.11439 0.26105,0.24723 0.41179,0.34316 0.0883,0.0562 0.68339,0.25664 0.75495,0.27453 0.17321,0.0433 0.44436,0 0.61769,0 0.39512,0 0.92723,0.057 1.304,-0.0686 0.14907,-0.0497 0.32741,-0.22352 0.48043,-0.27452 0.0651,-0.0217 0.13726,0 0.20589,0 0.0686,-0.0229 0.13873,-0.0418 0.2059,-0.0686 0.16568,-0.0663 0.26669,-0.20197 0.41179,-0.27452 0.33019,-0.1651 1.00454,-0.34945 1.16674,-0.75495 0.0708,-0.17704 0.21479,-0.43847 0.27453,-0.61769 0.29191,-0.87574 0.21948,-2.48503 0,-3.36295 -0.0317,-0.12672 0.0412,-0.28825 0,-0.4118 -0.0873,-0.26181 -0.16206,-0.71111 -0.34316,-0.89221 -0.15179,-0.15179 -0.32863,-0.26 -0.48043,-0.41179 -0.31271,-0.31272 -2.98862,0.0898 -3.56885,0.2059 -0.44291,0.0886 -0.82492,0.20634 -1.23537,0.34316 -0.14952,-0.0257 -0.0229,0.11438 -0.0686,0.13726 -0.29772,0.14886 -0.74921,0.13439 -1.02948,0.27453 -0.0409,0.0204 0.0324,0.10491 0,0.13726 -0.35285,0.35285 -0.61727,0.20506 -0.89221,0.75495 z"
           id="path991" />
        <path
           style="fill:#000000;stroke:#000000;stroke-width:1.2;stroke-linecap:butt;stroke-linejoin:miter;stroke-miterlimit:4;stroke-dasharray:none;stroke-opacity:1"
           d="m 247.41378,143.76215 c -0.45404,-0.20945 -0.80265,0.0832 -1.23538,0.13727 -0.0908,0.0113 -0.18479,-0.0179 -0.27452,0 -0.57154,0.1143 -0.80196,1.7519 -0.2059,1.99032 0.0833,0.0333 0.55853,0.12881 0.61769,0.13726 0.68835,0.0983 1.47821,0.0317 1.99032,-0.48042 0.0448,-0.0448 0.0686,-0.65049 0.0686,-0.75495 0,-0.14016 0.0588,-0.43144 0,-0.54905 -0.16423,-0.32846 -0.67231,-0.36501 -0.96084,-0.48043 z"
           id="path993" />
        <path
           style="fill:#ffffff;stroke:#000000;stroke-width:0;stroke-linecap:butt;stroke-linejoin:miter;stroke-miterlimit:4;stroke-dasharray:none;stroke-opacity:1"
           d="m 247.41378,143.76215 c 0.0915,-0.32028 0.37248,-0.64248 0.27452,-0.96084 -0.0542,-0.17629 -0.37239,0.0156 -0.54905,0.0686 -0.49898,0.14969 -0.81045,1.34817 -0.41179,1.64716 0.3162,0.23715 0.80502,0.13727 1.16674,0.13727 0.731,0 0.69615,-0.31388 0.82358,-0.82358 0.1475,-0.59002 0.0243,-0.96085 -0.68632,-0.96085 -0.47504,0 -0.11557,-0.0403 -0.61768,0.89221"
           id="path995" />
        <path
           style="fill:none;stroke:#000000;stroke-width:1.2;stroke-linecap:butt;stroke-linejoin:miter;stroke-miterlimit:4;stroke-dasharray:none;stroke-opacity:1"
           d="m 113.97216,153.93716 c 1.43158,2.83432 1.26178,4.93672 1.26178,7.95892 0,0.91822 0.11338,1.90773 0,2.81474 -0.14303,1.14425 -0.8472,2.39944 -0.58236,3.59122 0.08,0.3601 0.14136,0.73057 0.29118,1.06766 0.0558,0.12543 0.21749,0.17538 0.29118,0.29118 0.34835,0.54741 1.74708,3.4481 1.74708,3.68828"
           id="path997" />
        <path
           style="fill:none;stroke:#000000;stroke-width:1.2;stroke-linecap:butt;stroke-linejoin:miter;stroke-miterlimit:4;stroke-dasharray:none;stroke-opacity:1"
           d="m 204.6262,137.63108 c -0.40468,-0.48943 -0.64404,-1.18825 -1.21403,-1.46827 -1.6014,-0.78673 -4.50168,-0.10972 -6.31413,-0.41179 -0.98122,-0.16354 -1.57144,-1.2995 -2.33348,-1.78443 -0.29398,-0.18708 -0.65493,-0.24493 -0.96084,-0.41179 -0.80528,-0.43924 -0.27636,-0.41179 -0.68632,-0.41179"
           id="path999" />
        <path
           style="fill:none;stroke:#000000;stroke-width:1.2;stroke-linecap:butt;stroke-linejoin:miter;stroke-miterlimit:4;stroke-dasharray:none;stroke-opacity:1"
           d="m 195.11432,136.3693 c -0.43687,-0.16034 -0.86903,-0.33414 -1.3106,-0.48102 -0.68485,-0.2278 -1.72878,-0.70805 -2.47075,-0.54906 -1.9743,0.42307 -2.39791,0.70713 -4.39243,0.13727 -0.18139,-0.0518 -0.50193,0.0454 -0.54906,-0.13727 -0.0793,-0.30752 0.18575,-0.60741 0.27862,-0.91112"
           id="path1001" />
        <path
           style="fill:none;stroke:#000000;stroke-width:1.2;stroke-linecap:butt;stroke-linejoin:miter;stroke-miterlimit:4;stroke-dasharray:none;stroke-opacity:1"
           d="m 190.84368,137.53406 c -0.47747,-0.091 -0.9469,-0.24963 -1.4324,-0.27315 -0.45929,-0.0223 -0.91281,0.13727 -1.37263,0.13727 -1.68012,0 -2.94356,-0.42705 -4.5297,-0.82358 -2.15696,-0.53924 -2.12242,0.62198 -3.43893,-1.27296"
           id="path1003" />
        <path
           style="fill:none;stroke:#000000;stroke-width:1.2;stroke-linecap:butt;stroke-linejoin:miter;stroke-miterlimit:4;stroke-dasharray:none;stroke-opacity:1"
           d="m 228.79414,138.98992 c 0.0828,1.29511 -0.28727,2.50793 -0.58236,3.68828 -0.10749,0.42997 0,1.00784 0,1.4559 0,0.77361 -0.18106,2.0905 0,2.81474 0.12085,0.48339 0.19311,0.96552 0.29118,1.4559 0.0179,0.0897 0.17193,0.10535 0.19412,0.19412 0.11023,0.44092 0.14901,0.93232 0.29118,1.35884 0.11969,0.35906 0.31192,0.58458 0.4853,0.87354 0.19152,0.3192 0.23466,0.7605 0.38824,1.06766 0.0723,0.14469 0.24003,0.23478 0.29118,0.38824 0.0205,0.0614 -0.0359,0.14028 0,0.19412 0.0401,0.0602 0.15071,0.0392 0.19412,0.0971 0.12693,0.16923 0.19415,0.58242 0.29118,0.77648 0.14259,0.28518 0.44776,0.50728 0.58236,0.77648 0.66363,1.32726 1.59119,2.39634 2.32944,3.68828 0.65589,1.14781 0.69616,2.41983 1.16472,3.59122 0.55741,1.39353 1.31102,2.75192 1.84414,4.17358 0.5193,1.38479 1.02422,2.85173 1.55296,4.17358 0.1195,0.29873 0.3584,0.57745 0.4853,0.87354 0.81151,1.89351 1.66642,3.74569 2.23238,5.72654 0.20156,0.70547 0.60019,1.3331 0.77648,2.03826 0.11094,0.44375 0.67919,1.06708 0.87354,1.55296 0.036,0.0901 -0.0434,0.20437 0,0.29118 0.21054,0.42109 0.29602,0.80069 0.38824,1.26178 0.0728,0.36409 0.31305,0.69169 0.38824,1.06766 0.10633,0.53162 0.0877,1.11785 0.19412,1.65002 0.0251,0.12545 0.1636,0.3327 0.19412,0.4853 0.11012,0.5506 0.0459,1.15955 0.29118,1.65002 0.19356,0.38711 0,1.51538 0,1.9412 0,1.12124 0.13671,2.65822 -0.4853,3.59122 -0.22133,0.332 -0.52657,0.68554 -0.67942,1.06766 -0.0721,0.18034 -0.0266,0.41481 -0.19412,0.58236 -0.35325,0.35326 -0.9169,1.05692 -1.4559,1.16472 -0.1269,0.0254 -0.26059,-0.0213 -0.38824,0 -0.18408,0.0307 -0.33604,0.21655 -0.4853,0.29118 -0.26616,0.13308 -0.97923,0.20275 -1.16472,0.38824 -0.1649,0.16491 -3.485,1.26178 -3.97946,1.26178"
           id="path1005" />
        <path
           style="fill:none;stroke:#000000;stroke-width:1.2;stroke-linecap:butt;stroke-linejoin:miter;stroke-miterlimit:4;stroke-dasharray:none;stroke-opacity:1"
           d="m 207.92624,187.3258 c -0.7524,1.5126 -0.22233,1.98183 0.4853,3.3971 0.15268,0.30535 0.23683,0.8192 0.4853,1.06766 0.73767,0.73767 1.66056,0.90862 2.71768,0.77648 0.0744,-0.009 0.56704,-0.34635 0.77648,-0.38824 0.77842,-0.15568 2.78398,-0.26042 3.20298,-0.67942 0.87389,-0.87389 3.31563,-1.19188 4.56182,-0.77648 0.051,0.017 0.82941,0.50294 1.06766,0.58236 2.50402,0.83467 3.59381,2.16153 5.62948,3.68828 0.41647,0.31235 0.9157,0.5106 1.35884,0.77648 0.39986,0.23991 0.89624,0.28544 1.35884,0.38824 0.67319,0.1496 1.26028,0.44618 1.9412,0.58236 0.62409,0.12482 1.30968,0.0889 1.9412,0.19412 0.49127,0.0819 0.9456,0.0971 1.4559,0.0971 0.53681,0 1.51922,0.20395 1.06766,-0.0971 -0.25539,-0.17024 -0.58236,-0.1941 -0.87354,-0.29114"
           id="path1007" />
        <path
           style="fill:none;stroke:#000000;stroke-width:1.2;stroke-linecap:butt;stroke-linejoin:miter;stroke-miterlimit:4;stroke-dasharray:none;stroke-opacity:1"
           d="m 219.472,236.50248 c 2.01399,-0.96665 4.26796,-0.96085 6.45139,-0.96085"
           id="path1009" />
      </g>
      <text
         xml:space="preserve"
         style="font-size:14.1111px;line-height:1.25;font-family:sans-serif;letter-spacing:0px;word-spacing:0px;stroke-width:0.264583"
         x="99.695633"
         y="382.03366"
         id="text1143"><tspan
           sodipodi:role="line"
           id="tspan1141"
           x="99.695633"
           y="382.03366"
           style="font-style:italic;font-variant:normal;font-weight:normal;font-stretch:normal;font-size:14.1111px;font-family:sans-serif;-inkscape-font-specification:'sans-serif Italic';fill:#000000;stroke:#040404;stroke-width:0.264583;stroke-opacity:1">Sir C D Deshmukh  1943-49</tspan></text>
    </g>
  </g>
</svg>
