<?xml version="1.0" encoding="UTF-8" standalone="no"?>
<svg
   xmlns:dc="http://purl.org/dc/elements/1.1/"
   xmlns:cc="http://creativecommons.org/ns#"
   xmlns:rdf="http://www.w3.org/1999/02/22-rdf-syntax-ns#"
   xmlns:svg="http://www.w3.org/2000/svg"
   xmlns="http://www.w3.org/2000/svg"
   xmlns:sodipodi="http://sodipodi.sourceforge.net/DTD/sodipodi-0.dtd"
   xmlns:inkscape="http://www.inkscape.org/namespaces/inkscape"
   width="400mm"
   height="400mm"
   viewBox="0 0 400 400"
   version="1.1"
   id="svg8"
   inkscape:version="1.0.2 (e86c870879, 2021-01-15, custom)"
   sodipodi:docname="igpatel.svg">
  <defs
     id="defs2" />
  <sodipodi:namedview
     id="base"
     pagecolor="#ffffff"
     bordercolor="#666666"
     borderopacity="1.0"
     inkscape:pageopacity="0.0"
     inkscape:pageshadow="2"
     inkscape:zoom="0.16159398"
     inkscape:cx="1458.1844"
     inkscape:cy="259.62621"
     inkscape:document-units="mm"
     inkscape:current-layer="layer1"
     inkscape:document-rotation="0"
     showgrid="false"
     inkscape:window-width="1267"
     inkscape:window-height="1040"
     inkscape:window-x="637"
     inkscape:window-y="0"
     inkscape:window-maximized="0" />
  <metadata
     id="metadata5">
    <rdf:RDF>
      <cc:Work
         rdf:about="">
        <dc:format>image/svg+xml</dc:format>
        <dc:type
           rdf:resource="http://purl.org/dc/dcmitype/StillImage" />
        <dc:title />
      </cc:Work>
    </rdf:RDF>
  </metadata>
  <g
     inkscape:label="Layer 1"
     inkscape:groupmode="layer"
     id="layer1">
    <g
       id="g1050">
      <g
         id="g1281"
         transform="matrix(0.95448555,0,0,0.94202716,62.394879,111.14833)">
        <ellipse
           style="opacity:0.667742;fill:#bcd35f;fill-opacity:0.482353;stroke:none;stroke-width:1.34817;stroke-linecap:round;stroke-linejoin:round;stroke-miterlimit:4;stroke-dasharray:none;paint-order:markers fill stroke"
           id="path1173"
           cx="145.47513"
           cy="74.842514"
           rx="183.75784"
           ry="185.16112" />
        <g
           id="g1171">
          <path
             style="fill:none;stroke:#000000;stroke-width:1.2;stroke-linecap:butt;stroke-linejoin:miter;stroke-miterlimit:4;stroke-dasharray:none;stroke-opacity:1"
             d="m 179.26622,-103.2222 c 6.92781,4.877812 10.99106,10.451963 14.54994,17.569734 0.61367,1.227344 0.39869,2.843218 0.82358,4.117906 0.81985,2.459543 1.05337,5.037063 1.64716,7.412233 0.88619,3.544753 -0.0454,7.139551 0.54906,10.706558 0.0906,0.543383 0.46034,1.203627 0.54905,1.647163 0.57179,2.858924 -0.55091,11.810233 -1.37263,14.275411 -0.21963,0.658866 0.21962,1.537351 0,2.196217 -1.39324,4.17972 0.22551,10.804591 -1.37264,14.000884 -0.14641,0.292828 0.14641,0.805281 0,1.098108 -0.52892,1.057839 -1.91907,7.409614 -2.19622,7.686761 -0.41379,0.413798 -0.36335,0.682292 -0.82358,1.372635 -1.13755,1.706322 -1.89237,3.206377 -2.47074,4.941489 -0.20281,0.608422 -0.22461,2.320982 -0.54906,3.294326 -0.0819,0.245544 -0.48628,0.297955 -0.54905,0.549054 -0.38508,1.540322 0.49272,0.112661 -0.27453,1.647163 -1.08852,2.1770447 -3.29432,5.9676756 -3.29432,8.5103409 -0.66642,1.75838791 0.0987,4.420318 -0.54906,6.0395971 -0.44154,1.1038521 -1.72811,2.3581249 -2.19621,3.2943257 -1.29153,2.5830457 -2.43608,5.1640173 -4.11791,7.6867603 -0.29892,0.448374 -1.0634,0.634254 -1.37264,1.098108 -0.10152,0.15228 0.0579,0.375428 0,0.549055 -0.26576,0.797309 -1.09565,1.365266 -1.37263,2.196217 -0.14616,0.438478 -1.17963,1.179632 -1.37264,1.372635 -0.80054,0.800541 -2.10137,2.682041 -3.01979,3.294326 -2.57826,1.718839 -5.13852,3.517183 -7.68676,5.216016 -0.32729,0.218192 -2.39529,2.395289 -2.74528,2.745271 -0.0647,0.06471 0,0.183018 0,0.274527 -0.0915,0.183018 -0.12984,0.404366 -0.27452,0.549055 -0.31114,0.311134 -0.87062,0.368588 -1.09811,0.823581 -0.21661,0.433211 -0.77236,1.321409 -1.09811,1.647163 -0.56426,0.56426 -1.62595,0.802371 -2.19622,1.372636 -0.0647,0.06471 0,0.183018 0,0.274527 -0.18302,0.183018 -0.34199,0.393758 -0.54905,0.549054 -0.7143,0.535722 -1.92615,0.825067 -2.74527,1.098109 -6.46688,2.155626 -12.73994,0.905003 -18.39332,-1.92169 -0.313,-0.156501 -1.39349,-0.379938 -1.64716,-0.549055 -0.17026,-0.113503 -0.10428,-0.435551 -0.27453,-0.549054 -0.15228,-0.10152 -0.38536,0.08185 -0.54906,0 -0.19203,-0.09602 -3.35636,-2.594819 -3.56885,-3.019799 -0.21257,-0.425141 0.15365,-0.395401 -0.27453,-0.823581"
             id="path847" />
          <path
             style="fill:none;stroke:#000000;stroke-width:1.2;stroke-linecap:butt;stroke-linejoin:miter;stroke-miterlimit:4;stroke-dasharray:none;stroke-opacity:1"
             d="m 171.30493,-108.71275 c -2.65655,-3.54586 -4.70798,-5.76507 -9.33392,-5.76507"
             id="path849" />
          <path
             style="fill:none;stroke:#000000;stroke-width:1.2;stroke-linecap:butt;stroke-linejoin:miter;stroke-miterlimit:4;stroke-dasharray:none;stroke-opacity:1"
             d="m 161.97101,-114.47782 c 0.0915,0.82358 0.91112,1.94026 0.27453,2.47075 -0.30172,0.25143 -5.04624,-2.73227 -5.76507,-3.0198 -3.06782,-1.22713 -6.81115,0.27453 -9.88298,0.27453"
             id="path851" />
          <path
             style="fill:none;stroke:#000000;stroke-width:1.2;stroke-linecap:butt;stroke-linejoin:miter;stroke-miterlimit:4;stroke-dasharray:none;stroke-opacity:1"
             d="m 155.65689,-110.90896 c -5.24115,-1.54391 -10.36238,-1.23556 -15.64805,-0.27453 -0.56262,0.10229 -1.90175,0.82358 -2.19622,0.82358"
             id="path853" />
          <path
             style="fill:none;stroke:#000000;stroke-width:1.2;stroke-linecap:butt;stroke-linejoin:miter;stroke-miterlimit:4;stroke-dasharray:none;stroke-opacity:1"
             d="m 147.6956,-108.43822 c -6.46745,1.41954 -13.35181,-1.71044 -19.76595,0 -7.61921,2.03179 0.0893,-0.0775 -3.29433,1.37264 -1.77083,0.75892 -0.54208,-0.2815 -1.64716,0.82358"
             id="path855" />
          <path
             style="fill:none;stroke:#000000;stroke-width:1.2;stroke-linecap:butt;stroke-linejoin:miter;stroke-miterlimit:4;stroke-dasharray:none;stroke-opacity:1"
             d="m 137.81262,-110.35991 c -1.64716,1.55565 -3.0452,3.42708 -4.94149,4.66696 -0.61272,0.40063 -1.46461,-0.0261 -2.19621,0 -1.8313,0.0654 -3.67113,0.0562 -5.49055,0.27453 -2.1529,0.25835 -4.58703,2.11629 -6.03959,3.56885"
             id="path857" />
          <path
             style="fill:none;stroke:#000000;stroke-width:1.2;stroke-linecap:butt;stroke-linejoin:miter;stroke-miterlimit:4;stroke-dasharray:none;stroke-opacity:1"
             d="m 122.98816,-106.242 c -0.0915,1.0066 0.37254,2.24332 -0.27453,3.0198 -0.53049,0.63658 -1.67577,0.0407 -2.47074,0.27452 -2.39734,0.7051 -4.37927,2.11771 -6.31413,3.568856 -1.4511,1.088329 -1.37263,0.252666 -1.37263,1.098108"
             id="path859" />
          <path
             style="fill:none;stroke:#000000;stroke-width:1.2;stroke-linecap:butt;stroke-linejoin:miter;stroke-miterlimit:4;stroke-dasharray:none;stroke-opacity:1"
             d="m 119.14478,-101.84957 c 1.0066,0.45755 2.88265,0.27547 3.0198,1.37264 0.1185,0.948002 -1.82215,0.577414 -2.74528,0.823579 -1.65828,0.442209 -3.62613,0.977739 -5.21601,1.647164 -1.24524,0.524309 -2.44466,1.172226 -3.56885,1.92169 -0.44397,0.295979 -1.16518,1.782545 -0.82358,1.372634 0.96082,-1.152993 1.83018,-2.379234 2.74527,-3.568851"
             id="path861" />
          <path
             style="fill:none;stroke:#000000;stroke-width:1.2;stroke-linecap:butt;stroke-linejoin:miter;stroke-miterlimit:4;stroke-dasharray:none;stroke-opacity:1"
             d="m 127.65512,-97.457134 c -1.71152,2.28202 -0.34213,1.036505 -5.21602,1.372637 -1.1903,0.08209 -2.39387,0.06718 -3.56885,0.274526 -1.20959,0.213458 -3.54157,1.272032 -4.66696,1.647164 -0.31919,0.106394 -5.29603,1.018095 -3.56885,2.745271"
             id="path863" />
          <path
             style="fill:none;stroke:#000000;stroke-width:1.2;stroke-linecap:butt;stroke-linejoin:miter;stroke-miterlimit:4;stroke-dasharray:none;stroke-opacity:1"
             d="m 127.65512,-97.457132 c -4.77897,4.832266 -5.89912,5.765067 -11.53014,5.765067 -0.90456,0 -3.0931,-0.135395 -4.11791,0.274529 -1.03711,0.414846 -1.85166,1.251482 -2.74527,1.92169 -0.31059,0.232942 -1.06194,1.130038 -0.82358,0.823579 0.71947,-0.925031 1.46414,-1.830178 2.19622,-2.745269"
             id="path865" />
          <path
             style="fill:none;stroke:#000000;stroke-width:1.2;stroke-linecap:butt;stroke-linejoin:miter;stroke-miterlimit:4;stroke-dasharray:none;stroke-opacity:1"
             d="m 121.06647,-89.495846 c -3.76553,1.737937 -3.01571,1.66075 -6.86318,2.470743 -3.66829,0.772271 -5.65807,0.692798 -8.23581,3.84338 -0.80613,0.985263 -1.37264,2.293069 -1.37264,3.568853"
             id="path867" />
          <path
             style="fill:none;stroke:#000000;stroke-width:1.2;stroke-linecap:butt;stroke-linejoin:miter;stroke-miterlimit:4;stroke-dasharray:none;stroke-opacity:1"
             d="m 114.47782,-83.181723 c -4.06653,-0.168725 -7.60695,1.474239 -9.33393,5.216017 -0.44884,0.972502 -1.18025,4.087727 -1.0981,3.019798 0.12013,-1.56177 0.36603,-3.111307 0.54905,-4.666962"
             id="path869" />
          <path
             style="fill:none;stroke:#000000;stroke-width:1.2;stroke-linecap:butt;stroke-linejoin:miter;stroke-miterlimit:4;stroke-dasharray:none;stroke-opacity:1"
             d="m 113.37971,-77.416654 c -0.64057,0.183018 -1.33387,0.235551 -1.92169,0.549056 -0.80744,0.43063 -1.41153,1.176353 -2.19622,1.647163 -2.35315,1.411888 -5.31738,2.023055 -7.1377,3.84338"
             id="path871" />
          <path
             style="fill:none;stroke:#000000;stroke-width:1.2;stroke-linecap:butt;stroke-linejoin:miter;stroke-miterlimit:4;stroke-dasharray:none;stroke-opacity:1"
             d="m 113.37971,-77.416654 c -2.35651,2.703026 -4.48542,6.583701 -8.23582,7.68676 -0.89529,0.263321 -1.926,0.995926 -2.74527,0.549055 -0.64768,-0.353282 -0.18301,-1.464143 -0.27452,-2.196216"
             id="path873" />
          <path
             style="fill:none;stroke:#000000;stroke-width:1.2;stroke-linecap:butt;stroke-linejoin:miter;stroke-miterlimit:4;stroke-dasharray:none;stroke-opacity:1"
             d="m 112.55613,-71.92611 c -2.03712,4.145798 -5.92136,4.719058 -9.88298,6.039596"
             id="path875" />
          <path
             style="fill:none;stroke:#000000;stroke-width:1.2;stroke-linecap:butt;stroke-linejoin:miter;stroke-miterlimit:4;stroke-dasharray:none;stroke-opacity:1"
             d="m 112.55613,-71.926108 c -1.09811,1.830179 -1.78512,3.981334 -3.29433,5.490541 -0.81848,0.81848 -2.19055,0.749546 -3.29432,1.098108 -0.4895,0.15458 -2.97904,0.856194 -3.0198,0.823582 -0.36436,-0.291486 -0.18302,-0.915091 -0.27453,-1.372637"
             id="path877" />
          <path
             style="fill:none;stroke:#000000;stroke-width:1.2;stroke-linecap:butt;stroke-linejoin:miter;stroke-miterlimit:4;stroke-dasharray:none;stroke-opacity:1"
             d="m 112.83065,-66.435567 c 0.43957,2.171311 -7.86997,5.673161 -8.23581,4.941488 -0.71471,-1.429417 -1.28113,-2.928289 -1.92169,-4.392435"
             id="path879" />
          <path
             style="fill:none;stroke:#000000;stroke-width:1.2;stroke-linecap:butt;stroke-linejoin:miter;stroke-miterlimit:4;stroke-dasharray:none;stroke-opacity:1"
             d="m 101.30051,-60.395971 c 0.0746,-1.072531 -0.20419,-2.949464 -0.82358,-3.568853 -0.892625,-0.892628 -2.685746,-0.866582 -3.843377,-1.098109 -0.373319,-0.07466 -0.773634,-0.532405 -0.823582,-0.549052 -2.492251,-0.830752 -4.696857,1.584637 -5.490543,3.568853 -1.062874,2.657184 -2.677679,8.366834 -2.196217,11.25561 0.343742,2.062451 0.875843,4.052425 1.372635,6.039599 0.549055,2.196216 -1.098108,-2.196219 0,1.647164 0.09064,0.317243 0.444719,0.510571 0.549055,0.823579 0.348464,1.045392 0.07618,2.348579 0.549056,3.294327 0.366932,0.733867 0,4.485952 0,5.490543 0,2.867372 0.639498,5.945957 1.92169,8.51034 1.102217,2.204435 2.081995,4.291841 4.392432,5.216016 0.568211,0.227284 3.019798,0.0798 3.019798,-0.274527"
             id="path881" />
          <path
             style="fill:none;stroke:#000000;stroke-width:1.2;stroke-linecap:butt;stroke-linejoin:miter;stroke-miterlimit:4;stroke-dasharray:none;stroke-opacity:1"
             d="m 99.927877,-20.040481 c -0.640564,1.647163 -1.493049,3.226924 -1.92169,4.941488 -0.19645,0.785806 -0.344575,12.8971052 0,14.27541158 0.258019,1.03206788 3.385273,8.05223082 3.843383,8.51034122"
             id="path883" />
          <path
             style="fill:none;stroke:#000000;stroke-width:1.2;stroke-linecap:butt;stroke-linejoin:miter;stroke-miterlimit:4;stroke-dasharray:none;stroke-opacity:1"
             d="m 101.02599,-55.934906 c -0.67323,-1.036076 -1.388239,-2.074553 -2.264851,-2.951165 -0.263337,-0.263337 -0.573069,-0.479385 -0.823582,-0.754949 -0.209312,-0.230243 -0.340897,-0.523663 -0.549055,-0.754951 -0.423405,-0.47045 -1.189311,-1.209051 -1.715794,-1.509898 -0.42893,-0.245104 -1.430041,-0.608451 -1.92169,-0.411792 -0.15317,0.06127 -0.264237,0.20075 -0.41179,0.274526 -0.129415,0.06471 -0.287724,0.06282 -0.411792,0.137266 -0.110971,0.06658 -0.172373,0.195075 -0.274526,0.274527 -0.105297,0.0819 -0.242769,0.118054 -0.34316,0.205896 -0.693377,0.606705 -1.304004,1.889101 -1.304004,2.813902"
             id="path885" />
          <path
             style="fill:none;stroke:#000000;stroke-width:1.2;stroke-linecap:butt;stroke-linejoin:miter;stroke-miterlimit:4;stroke-dasharray:none;stroke-opacity:1"
             d="m 91.486169,-46.326454 c -0.422331,1.726542 -0.144622,3.480541 0,5.216015 0.02648,0.317815 -0.03173,0.643567 0,0.960845 0.03057,0.305742 0.162787,0.590447 0.205896,0.892214 0.120168,0.84118 0.107458,1.783051 0.343159,2.608006 0.261607,0.915623 1.083125,1.956803 1.784427,2.608009 0.167642,0.155667 0.380949,0.256619 0.549052,0.411789 0.131295,0.121195 0.19449,0.31268 0.34316,0.411792 0.43098,0.287319 1.089459,0.205897 1.57853,0.205897"
             id="path887" />
          <path
             style="fill:none;stroke:#000000;stroke-width:1.2;stroke-linecap:butt;stroke-linejoin:miter;stroke-miterlimit:4;stroke-dasharray:none;stroke-opacity:1"
             d="m 102.32999,-47.767721 c 0.0403,0.963827 -0.28712,1.921372 -0.61769,2.813902 -0.34511,0.931812 -0.77583,1.900198 -1.304,2.745272 -0.28737,0.459798 -0.14536,0.08483 -0.41179,0.617685 -0.08351,0.167029 -0.07893,0.374066 -0.137263,0.549056 -0.327647,0.98294 -0.680199,1.630108 -0.754949,2.676638 -0.06702,0.938223 0.113736,2.057004 0.411789,2.951168 0.18296,0.548878 0.686323,1.646074 0.686323,2.196216"
             id="path889" />
          <path
             style="fill:none;stroke:#000000;stroke-width:1.2;stroke-linecap:butt;stroke-linejoin:miter;stroke-miterlimit:4;stroke-dasharray:none;stroke-opacity:1"
             d="m 101.84957,7.6867598 c -1.71722,0.9176213 1.76924,5.8567932 2.19622,7.1377052 1.64689,4.940695 4.71227,9.813678 7.68676,14.275412 0.56313,0.844699 1.63308,1.351519 2.19621,2.196217 0.27261,0.408911 0.37118,0.920226 0.82358,1.372634 1.14226,1.142257 2.84675,2.572221 4.11791,3.843383 0.72222,0.722222 3.95129,3.019798 4.94149,3.019798 0.16407,0 0.54905,-0.06471 0.54905,0.274526 0,2.070555 -3.28596,3.082158 -4.66696,4.117906 -0.86796,0.65097 -1.00318,1.391248 -1.64716,2.196219 -0.80184,1.002292 -2.26075,2.215907 -3.29433,3.019798 -2.21055,1.719318 -4.96125,2.699642 -7.1377,4.392435 -3.29491,2.562704 -6.04292,4.602475 -8.510342,7.68676 -0.730456,0.913069 -1.488744,2.153901 -1.92169,3.019798 -0.04496,0.08991 -0.940125,1.372634 -0.823582,1.372634 0.09151,0 0,-0.183017 0,-0.274526 0,-0.732073 0,-1.464146 0,-2.196216 0,-1.372637 0,-2.745272 0,-4.117909 0,-3.719417 0.549053,-7.49718 0.549053,-11.255613 0,-9.11438 -0.917501,-18.227172 -2.196216,-27.178186 -0.103024,-0.721156 -0.536869,-1.348262 -0.823582,-1.92169 -0.369096,-0.738192 -0.383476,-2.191911 -0.549053,-3.019798 -0.205192,-1.025957 -0.896601,-2.012258 -1.098111,-3.019799 -0.629068,-3.1453417 -0.19627,-6.4333934 -0.549052,-9.6084494 -0.184537,-1.660824 -0.749036,-4.1042958 -0.274529,-5.76507 0.412924,-1.445233 1.199078,-2.4991242 1.647163,-3.84338 0.08681,-0.2604392 -0.101957,-0.5686894 0,-0.8235813 0.211672,-0.5291814 4.066374,-5.2160153 4.117909,-5.2160153"
             id="path891" />
          <path
             style="fill:none;stroke:#000000;stroke-width:1.2;stroke-linecap:butt;stroke-linejoin:miter;stroke-miterlimit:4;stroke-dasharray:none;stroke-opacity:1"
             d="m 137.26357,39.806435 c 0.27453,0.732073 0.44027,1.514774 0.82358,2.196216 1.1268,2.0032 3.09772,3.724691 4.11791,5.76507 1.16145,2.322901 2.04937,4.711639 3.0198,7.137707 0.38251,0.956286 1.41045,3.294324 1.64716,3.294324 0.40708,0 0.92468,-2.860754 1.09811,-3.294324 0.19817,-0.495422 0.64123,-0.871175 0.82358,-1.372635 0.42296,-1.163145 0.62319,-2.641004 0.82358,-3.843382 0.12229,-0.733721 0.65192,-1.235025 0.82358,-1.92169 0.55293,-2.211726 0.48535,-4.412139 1.09811,-6.863178 0.10927,-0.437054 -0.20326,-1.240639 0,-1.647163 0.0357,-0.07147 0.48913,-0.33445 0.27453,-0.549053 -0.72345,-0.723442 -2.01657,0.348406 -3.0198,0.549053 -3.6151,0.723021 -7.96738,1.974162 -11.53014,0.549055 z"
             id="path893" />
          <path
             style="fill:none;stroke:#000000;stroke-width:1.2;stroke-linecap:butt;stroke-linejoin:miter;stroke-miterlimit:4;stroke-dasharray:none;stroke-opacity:1"
             d="m 116.94856,48.316776 c 0.41131,3.529579 1.09811,7.131982 1.09811,10.706558 0,0.603094 0.23241,2.871626 0,3.568853 -0.25368,0.761048 -2.45468,4.133967 -1.64716,4.941488 10e-4,0.0013 3.62311,0.164627 4.39243,0.274529 1.0655,0.152212 5.64922,1.018768 6.58865,0.549053 1.26606,-0.633026 1.81025,-3.5111 2.47075,-4.666962 1.18286,-2.07001 2.21461,-4.28276 3.56885,-6.314122 0.20929,-0.313936 0.0652,-0.784175 0.27453,-1.098111 0.1135,-0.170254 0.42123,-0.114744 0.54905,-0.274526 2.85709,-3.571354 -0.44652,0.343995 0.54905,-1.647164 0.48446,-0.968906 2.86399,-3.101427 3.29433,-4.392432 0.25726,-0.771763 -0.0851,-2.026036 0.27453,-2.745272 0.48921,-0.978418 2.03598,-0.92293 1.37263,-2.470745 -0.38913,-0.907976 -2.575,-4.222165 -3.29432,-4.941488 -0.63534,-0.635341 -2.21911,0.715735 -2.47075,0.823582 -1.0282,0 -0.57803,-0.122772 -1.37263,0.274526 -3.20806,1.604029 -7.33443,1.882791 -10.70656,3.568854 -0.64482,0.32241 -1.98383,-0.965177 -2.19622,-0.823582 -0.83082,0.553881 -3.38169,3.194534 -3.84338,4.117906"
             id="path895" />
          <path
             style="fill:none;stroke:#000000;stroke-width:1.2;stroke-linecap:butt;stroke-linejoin:miter;stroke-miterlimit:4;stroke-dasharray:none;stroke-opacity:1"
             d="m 116.39951,67.533675 c -0.45755,0.457544 -1.08326,0.793883 -1.37264,1.372637 -0.53201,1.064025 0.16824,2.391191 0,3.568854 -0.27665,1.936578 -0.7376,3.842334 -1.09811,5.765069 -0.40663,2.168684 -1.49638,4.187566 -1.92169,6.314123 -0.0897,0.448662 0.0897,0.923975 0,1.372637 -0.41617,2.080882 -0.63856,0.620511 -0.82358,2.470743 -0.27487,2.748669 -0.43547,5.519033 -0.82358,8.235815 -0.3739,2.617303 -0.63903,1.669481 -1.09811,4.117907 -0.37382,1.99373 -0.73407,4.03737 -1.09811,6.0396 -0.35317,1.94247 -0.18866,4.05743 -0.54905,6.03959 -0.19799,1.08894 -0.89447,2.37793 -1.09811,3.29433 -0.54687,2.46094 -0.48966,5.64628 -1.64716,7.96129 -0.11575,0.2315 -0.43331,0.31755 -0.54906,0.54905 -1.00687,2.01376 -1.36345,4.63021 -1.92169,6.86318 -0.58098,2.32394 -1.37398,4.67236 -1.92169,6.86318 -0.1527,0.61083 -1.372632,3.35253 -1.372632,3.56885"
             id="path897" />
          <path
             style="fill:none;stroke:#000000;stroke-width:1.2;stroke-linecap:butt;stroke-linejoin:miter;stroke-miterlimit:4;stroke-dasharray:none;stroke-opacity:1"
             d="m 128.20417,68.357257 c 0,0.823582 -0.0457,1.648431 0,2.470745 -0.43621,1.295699 0.41614,2.372601 0.54906,3.568854 0.39106,3.519588 -0.0387,7.257253 0.82358,10.706557 0.0993,0.397021 0.39707,0.718138 0.54905,1.098108 0.27845,0.696124 -0.18148,1.744803 0,2.470746 0.0974,0.389591 0.45604,0.907542 0.54906,1.372634 0.33547,1.677377 0.20885,3.515029 0.54905,5.216017 0.84045,4.202234 1.86339,8.376782 2.47075,12.628252 0.45864,3.21049 0.16628,7.89542 -0.27453,10.98108 -0.39598,2.77188 0.46014,5.74947 0,8.51034 -0.18212,1.09273 -0.43914,2.19515 -0.54906,3.29433 -0.45983,4.59836 0.65308,9.42939 0,14.00088 -0.55922,3.9146 -1.05811,7.9186 -1.92169,11.80467 -0.32611,1.4675 0.13645,3.16606 0,4.66696 0.21831,1.07926 -0.43607,2.00295 -0.54905,3.0198 -0.21075,1.89673 0.19059,4.17911 -0.27453,6.0396 -0.33331,1.33325 -0.48941,2.78123 -0.82358,4.1179 -0.18975,0.75899 0.11008,1.70023 0,2.47075 -0.216,1.51201 -0.46539,3.23421 -0.82358,4.66696 -0.36781,1.47124 0.13526,3.45362 0,4.94149 -0.53769,5.91463 -0.54905,11.89512 -0.54905,17.84426"
             id="path901" />
          <path
             style="fill:none;stroke:#000000;stroke-width:1.2;stroke-linecap:butt;stroke-linejoin:miter;stroke-miterlimit:4;stroke-dasharray:none;stroke-opacity:1"
             d="m 93.613755,-22.511225 c -3.2986,0 0.643485,-0.235406 -2.745272,0.823581 -0.976532,0.305166 -2.030383,0.288682 -3.019798,0.549054 -2.980674,0.784388 -1.286873,0.569654 -3.294327,1.372636 -0.802047,0.320819 -1.943857,0.281916 -2.745272,0.549054 -0.777954,0.259319 -1.56152,0.896615 -2.196216,1.372636 -0.951611,0.713709 -3.545173,1.747502 -4.666962,2.196217 -1.281512,0.512605 -2.626238,0.764065 -3.843379,1.372636 -0.704086,0.352042 -1.217605,1.020593 -1.92169,1.372636 -1.292072,0.646036 -2.783531,1.20237 -4.117906,1.647162 -1.293826,0.431275 -2.481694,2.0168494 -3.84338,2.4707445 -1.447255,0.482418 -3.115397,0.7533166 -4.666962,1.0981087 -2.083297,0.4629546 -3.938026,1.6708241 -6.039598,2.196217 -0.26633,0.066583 -0.563142,-0.086813 -0.823582,0 -0.562446,0.1874827 -2.39399,1.021356 -2.745269,1.3726358 -0.403167,0.403165 -1.163024,2.196217 -2.196219,2.196217 C 43.091871,-0.27216441 40.67718,0.31372225 38.4338,0.82358143 33.610194,1.9198554 28.491163,2.5969215 23.609334,3.2943257 c -0.634125,0.090589 -1.287564,-0.090589 -1.92169,0 C 20.115647,3.5188968 17.600589,3.9652175 16.197101,4.6669614 15.9656,4.7827122 15.888362,5.1198899 15.648047,5.2160157 14.907748,5.5121352 13.415142,5.5683466 12.628249,5.76507 12.347512,5.8352542 12.079194,5.9480881 11.804667,6.0395971 11.438631,6.2226152 11.100053,6.4762243 10.706559,6.5886514 8.9455724,7.0917903 6.7718981,7.5036847 4.9414886,7.9612871 c -1.0051766,0.2512942 -8.4740123,1.8490317 -8.5103414,1.92169 -0.5325988,1.0651979 2.060925,6.8207099 2.74527137,7.9612869 0.13316523,0.221942 0.45292848,0.30874 0.54905429,0.549054 0.45158276,1.128957 0.68610687,3.430957 1.09810857,4.666962 -0.12749827,0.981119 0.81072037,1.429849 1.09810857,2.196217 0.6202621,1.654032 0.8569383,3.539999 1.3726357,5.216016 1.4506595,4.714643 2.1849248,8.442587 3.0197986,13.45183 0.4727286,2.836372 1.4462038,5.657424 1.92169,8.510341 0.5235958,3.141575 1.011399,6.574147 1.9216897,9.60845 0.200256,0.667521 0.603199,1.260541 0.823582,1.92169 0.682397,2.047193 0.971128,4.286021 1.647163,6.314124 0.755883,2.267652 2.070065,4.177226 3.019798,6.314125 0.389264,0.875843 0.395071,1.88825 0.823582,2.745271 1.023817,2.047635 3.568852,6.604598 3.568852,8.784868"
             id="path903" />
          <path
             style="fill:none;stroke:#000000;stroke-width:1.2;stroke-linecap:butt;stroke-linejoin:miter;stroke-miterlimit:4;stroke-dasharray:none;stroke-opacity:1"
             d="m -8.2358142,17.29521 c 0,2.072086 0.054784,4.612785 -0.2745271,6.588651 -0.1427197,0.856319 -0.6247453,1.625691 -0.8235815,2.470744 -0.3852527,1.637324 -0.5676038,3.552162 -0.8235812,5.216015 -0.170825,1.110366 -0.667557,2.202154 -0.823582,3.294327 -0.452878,3.170145 0.06683,6.491999 -0.823581,9.60845 -0.522254,1.827887 -2.236474,3.455355 -2.745271,5.490543 -0.538663,2.154647 0.402834,5.233929 -0.549055,7.137704 -0.718462,1.436926 -1.933617,1.625939 -3.019798,2.470745 -1.090314,0.848022 -4.122631,3.339619 -4.941489,4.392435 -0.23164,0.297823 -0.155214,0.740167 -0.274527,1.098109 -0.606155,1.818465 -1.453377,3.617288 -1.92169,5.49054 -0.362208,1.448835 -0.274527,4.396036 -0.274527,6.039599"
             id="path905" />
          <path
             style="fill:none;stroke:#000000;stroke-width:1.2;stroke-linecap:butt;stroke-linejoin:miter;stroke-miterlimit:4;stroke-dasharray:none;stroke-opacity:1"
             d="m -25.531024,76.593072 c 1.674924,2.124173 2.526872,6.58254 1.92169,9.608449 -0.411337,2.056686 -1.2782,4.109128 -1.92169,6.039596 -0.463422,1.390269 -0.566212,2.974047 -1.098108,4.392436 -0.546669,1.457785 -1.476706,2.909152 -1.92169,4.392437 -0.599535,1.99845 -1.268386,4.07968 -1.92169,6.03959 -0.147555,0.44267 -0.06586,0.9553 -0.274526,1.37264 -0.173628,0.34725 -0.617816,0.49435 -0.823582,0.82358 -0.542245,0.86759 -1.005364,1.79036 -1.372637,2.74527 -0.809914,2.10578 -2.172428,7.74655 -3.568854,9.60845 -0.671663,0.89555 -1.273175,2.20916 -1.921689,3.0198 -0.885339,1.10667 -1.436291,1.22542 -2.196217,2.74527 -0.835136,1.67028 -1.078267,3.72434 -1.372634,5.49054 -0.304366,1.8262 -1.050579,3.4447 -1.372637,5.21602 -0.502129,2.76172 0.196482,5.24112 -0.823582,7.96129 -0.996776,2.65807 -7.412231,10.90486 -7.412231,12.62824"
             id="path909" />
          <path
             style="fill:none;stroke:#000000;stroke-width:1.2;stroke-linecap:butt;stroke-linejoin:miter;stroke-miterlimit:4;stroke-dasharray:none;stroke-opacity:1"
             d="m -5.2160156,88.946793 c 4.78675685,6.418257 10.8017015,10.957933 17.2952096,15.373517 1.198896,0.81525 2.064532,1.92169 3.568853,1.92169"
             id="path911" />
          <path
             style="fill:none;stroke:#000000;stroke-width:1.2;stroke-linecap:butt;stroke-linejoin:miter;stroke-miterlimit:4;stroke-dasharray:none;stroke-opacity:1"
             d="m 27.72724,82.632668 c -0.213164,11.716279 0.66007,23.603312 -1.647162,35.139472 -0.886656,4.43328 -1.782997,8.70695 -2.470744,13.1773 -0.553409,3.59716 -1.718316,7.04583 -1.92169,10.70656 -0.625599,11.26077 0.579602,22.54137 -0.823582,33.76684 -0.18541,1.48328 -1.599334,7.36823 -2.196217,9.0594 -0.463892,1.31436 -1.264249,2.50318 -1.647162,3.84338 -0.550459,1.9266 -1.301252,3.97514 -2.196218,5.76507"
             id="path913" />
          <path
             style="fill:none;stroke:#000000;stroke-width:1.2;stroke-linecap:butt;stroke-linejoin:miter;stroke-miterlimit:4;stroke-dasharray:none;stroke-opacity:1"
             d="m -33.49231,183.1096 c 0.713661,-2.85465 0.135379,-1.70131 5.490541,-3.84338 9.753334,-3.90133 19.6997593,-3.56885 29.923459,-3.56885"
             id="path915" />
          <path
             style="fill:none;stroke:#000000;stroke-width:1.2;stroke-linecap:butt;stroke-linejoin:miter;stroke-miterlimit:4;stroke-dasharray:none;stroke-opacity:1"
             d="m -28.001769,185.58035 c 5.333746,-2.38047 11.1167,-3.0789 16.746156,-4.39244 4.6296812,-1.08026 9.2359162,-2.37873 14.0008844,-2.74527 3.7026863,-0.28482 7.5374416,0 11.2556126,0"
             id="path917" />
          <path
             style="fill:none;stroke:#000000;stroke-width:1.2;stroke-linecap:butt;stroke-linejoin:miter;stroke-miterlimit:4;stroke-dasharray:none;stroke-opacity:1"
             d="m 0.82358142,183.38413 c 4.93275908,4.42496 9.62890758,8.98152 15.09899258,12.62825 0.761722,0.50781 3.052609,0.75941 4.117907,1.64716 1.800065,1.50005 3.00012,3.79234 4.941489,5.21601 0.951691,0.69791 5.46253,3.65103 6.863179,4.11791 5.311587,1.77053 10.744028,2.24079 16.197101,3.0198 2.295303,0.3279 4.673068,0.28962 7.137704,0.54905 1.747771,0.18398 3.460631,0.64805 5.216017,0.82359 1.920634,0.19206 3.252407,0.25356 4.941488,1.0981 0.08185,0.0409 0.339233,-0.0647 0.274526,0 -1.112062,1.11207 -8.177133,2.05152 -8.784867,2.19622 -3.980641,0.94777 -7.280796,3.88926 -9.882976,6.86318 -3.100189,3.54307 -6.539378,10.31237 -7.137707,15.09899 -0.158996,1.27196 0.160581,11.91862 0,12.0792 -0.140385,0.14038 -4.977045,-1.51583 -5.76507,-1.64717 -2.418619,-0.4031 -8.093302,-0.29036 -10.706558,0 -2.020529,0.22451 -5.377386,0.71043 -6.863179,2.19622 -2.722967,2.72297 1.077471,4.94149 -3.294325,4.94149 -0.82865,0 -1.658187,-0.11201 -2.470745,-0.27453 -4.8122746,-0.96245 -9.3160464,-5.16147 -12.9027751,-8.23581 -1.4215512,-1.21847 -3.1892594,-1.88311 -4.6669612,-3.0198 -0.975822,-0.75063 -1.8301811,-1.64716 -2.7452714,-2.47074 -1.4586513,-1.31279 -2.7459003,-2.7459 -4.1179073,-4.11791 -0.233303,-0.2333 -0.631807,-0.28057 -0.823581,-0.54905 -0.286429,-0.40101 -0.275703,-0.96261 -0.549055,-1.37264 -0.609157,-0.91374 -2.088607,-2.39901 -3.019798,-3.0198 -2.266825,-1.51121 -4.938379,-2.52009 -7.68676,-3.0198 -0.450165,-0.0819 -0.925985,0.0993 -1.372637,0 -1.646356,-0.36586 -5.929632,-4.11791 -6.863177,-4.11791"
             id="path919" />
          <path
             style="fill:none;stroke:#000000;stroke-width:1.2;stroke-linecap:butt;stroke-linejoin:miter;stroke-miterlimit:4;stroke-dasharray:none;stroke-opacity:1"
             d="m 96.084497,65.062933 c -0.395779,3.240071 0.624396,6.421466 0.823582,9.608449 0.345236,5.523754 -0.234736,10.985095 0.549055,16.471627 0.498968,3.492775 -0.319693,7.189923 0,10.706561 0.603668,6.64035 1.340657,13.59301 0.823582,20.31501 -0.217712,2.83024 -1.372637,5.35069 -1.372637,8.23581 0,3.22589 -0.650441,6.77428 -0.274526,10.1575 0.04167,0.375 0.2125,0.72595 0.274526,1.09811 0.03009,0.18053 -0.181605,0.52636 0,0.54906 0.732073,0.0915 1.464146,-0.18302 2.196219,-0.27453"
             id="path921" />
          <path
             style="fill:none;stroke:#000000;stroke-width:1.2;stroke-linecap:butt;stroke-linejoin:miter;stroke-miterlimit:4;stroke-dasharray:none;stroke-opacity:1"
             d="m 99.104298,141.93053 c -0.915091,0.45754 -2.329752,0.43771 -2.745272,1.37264 -0.07094,0.15962 0.765046,4.55397 0.823582,5.49054 0.05137,0.82198 -0.102153,1.65352 0,2.47074 0.08263,0.66105 0.429879,1.26624 0.549053,1.92169 0.404995,2.22747 0,4.90248 0,7.13771 0,3.12047 0.165391,6.2545 -0.274527,9.33392 -0.23052,1.61364 0.180052,3.32102 0,4.94149 -0.192288,1.7306 -0.649126,3.47146 -0.823581,5.21602 -0.190762,1.90762 -0.03681,3.86335 -0.274527,5.76507 -0.229812,1.83848 -0.381386,1.00778 -0.549055,3.01979 -0.334896,4.01877 0.169241,8.12857 -0.549053,12.0792 -0.477771,2.62773 -1.58016,7.82728 -2.745271,10.1575 -0.389941,0.77988 -0.43356,2.78881 -0.823582,3.56885 -0.718516,1.43704 -1.92169,2.71346 -1.92169,4.39244"
             id="path923" />
          <path
             style="fill:none;stroke:#000000;stroke-width:1.2;stroke-linecap:butt;stroke-linejoin:miter;stroke-miterlimit:4;stroke-dasharray:none;stroke-opacity:1"
             d="m 88.397738,-14.275411 c -0.09151,0.91509 0.09668,1.903863 -0.274527,2.745271 -1.890392,4.2848872 -5.310812,8.9270646 -7.961286,12.9027757 -1.239213,1.8588173 -2.396521,3.7883548 -3.843379,5.4905426 -3.826624,4.5019077 -2.210446,1.4693657 -5.765073,6.0395967 -1.607129,2.06631 -3.009318,4.615617 -4.392432,6.863179 -3.148177,5.115788 0.657296,-1.149615 -1.647164,3.84338 -0.276529,0.599145 -0.803,1.056947 -1.098108,1.647163 -0.334716,0.669431 -0.879279,2.943628 -1.098108,3.568851 -1.910482,5.458521 -3.805211,10.93411 -5.490543,16.47163 -1.238779,4.070276 -1.92169,7.624485 -1.92169,11.804666 0,0.549055 -0.388239,1.258925 0,1.647164 2.103665,2.103665 5.24212,2.641523 7.412233,4.666961 0.830696,0.775317 8.317971,9.882976 10.157505,9.882976"
             id="path925" />
          <path
             style="fill:none;stroke:#000000;stroke-width:1.2;stroke-linecap:butt;stroke-linejoin:miter;stroke-miterlimit:4;stroke-dasharray:none;stroke-opacity:1"
             d="m 79.338344,61.768606 c 0,2.2075 0.236654,3.095545 -0.823582,5.216017 -1.455685,2.911366 -4.497366,4.56081 -6.863178,6.588651 -4.241636,3.635684 -9.055282,6.653511 -13.177303,10.432031 -0.171492,0.1572 -5.009549,3.979497 -5.216017,4.392433 -1.020122,2.040247 3.316748,13.919672 4.117909,15.922572 1.811737,4.52935 2.040911,3.95248 3.294324,8.51034 0.823913,2.99605 1.2915,6.08676 2.196217,9.0594 1.311127,4.30799 2.956996,8.47085 3.843379,12.90277 1.202534,6.01267 1.371487,12.07077 2.196219,18.11879 0.197329,1.44709 0.720355,2.94729 0.823582,4.39244 0.117353,1.64298 -0.136789,3.30002 0,4.94149 0.108143,1.29774 0.69505,2.55807 0.823579,3.84338 0.375801,3.75799 0.836684,7.50395 1.372637,11.25561 0.319326,2.23529 -0.129344,4.64188 0.274527,6.86318 0.518419,2.8513 1.091152,5.74188 1.92169,8.51034 0.22697,0.75656 -0.208119,1.70764 0,2.47075 1.438783,5.27553 4.025397,10.29026 5.216017,15.64804 0.259413,1.16736 0,2.6382 0,3.84338 0,0.98413 0.409577,3.4338 -0.274529,4.11791"
             id="path927" />
          <path
             style="fill:none;stroke:#000000;stroke-width:1.2;stroke-linecap:butt;stroke-linejoin:miter;stroke-miterlimit:4;stroke-dasharray:none;stroke-opacity:1"
             d="m 175.14831,20.589535 c 0.58567,2.447815 1.61979,4.886736 2.74528,7.137705 0.92569,1.851393 2.0941,3.364624 3.01979,5.216017 1.16677,2.333538 2.06591,4.834409 3.29433,7.137704 0.42825,0.802966 1.01165,1.353908 1.37264,2.196219 0.18301,0.457544 0.36603,0.915091 0.54905,1.372635 0,0.274526 -0.0964,0.566534 0,0.823582 0.18735,0.49961 0.63204,0.874617 0.82358,1.372634 1.54448,4.015653 2.41951,8.426236 3.0198,12.62825 0.26447,1.851261 2.76228,7.189531 2.19622,8.510342 -1.13145,2.640049 -0.92852,1.619453 -3.84338,4.117906 -1.26486,1.084167 -3.55978,3.269789 -4.94149,4.392435 -2.14949,1.746456 -4.3445,3.24639 -6.31413,5.216014 -0.86289,0.862896 -2.48262,1.396394 -3.01979,2.470745 -0.086,0.171982 3.36637,2.14902 3.84338,2.745272 1.06942,1.336784 1.99345,2.749444 3.01979,4.117906 0.68092,0.907891 1.61821,1.459222 2.19622,2.470746 1.13129,1.979752 2.00025,4.000486 3.0198,6.039596"
             id="path929" />
          <path
             style="fill:none;stroke:#000000;stroke-width:1.2;stroke-linecap:butt;stroke-linejoin:miter;stroke-miterlimit:4;stroke-dasharray:none;stroke-opacity:1"
             d="m 158.40216,53.532793 c 0.45754,1.281126 0.71198,2.654192 1.37264,3.84338 0.72888,1.311987 1.92275,2.31344 2.74527,3.568851 2.82005,4.304297 4.9589,9.087265 7.68676,13.451832 0.0727,0.116289 4.39243,5.800156 4.39243,6.039596"
             id="path931" />
          <path
             style="fill:none;stroke:#000000;stroke-width:1.2;stroke-linecap:butt;stroke-linejoin:miter;stroke-miterlimit:4;stroke-dasharray:none;stroke-opacity:1"
             d="m 186.1294,98.555243 c -0.49013,2.205587 -0.7862,3.848067 -1.64716,6.039597 -1.98728,5.05853 -4.17007,10.0962 -6.31413,15.09899 -0.45596,1.06392 -0.61913,2.24057 -1.09811,3.29433 -0.18933,0.41653 -0.64334,0.67756 -0.82358,1.09811 -0.37634,0.87813 -0.44724,1.86713 -0.82358,2.74527 -0.45167,1.05389 -1.17814,1.97351 -1.64716,3.0198 -5.71775,12.75498 -0.1884,0.88278 -2.47075,6.58865 -2.08309,5.20773 -4.54441,10.27224 -6.86317,15.37352 -1.86673,4.1068 -4.28754,7.91805 -6.0396,12.07919 -1.11813,2.65556 -1.56949,5.53205 -2.47074,8.23582 -1.34508,4.03522 -3.21747,7.92561 -4.94149,11.80466 -2.66085,5.98689 -5.94515,11.73583 -8.23582,17.84427 -1.03962,2.77232 -2.74527,5.26699 -2.74527,8.23581"
             id="path933" />
          <path
             style="fill:none;stroke:#000000;stroke-width:1.2;stroke-linecap:butt;stroke-linejoin:miter;stroke-miterlimit:4;stroke-dasharray:none;stroke-opacity:1"
             d="m 147.97013,59.572389 c -0.0915,0.640564 -0.18302,1.281126 -0.27453,1.92169 -0.27453,1.0066 -0.67068,1.987698 -0.82358,3.019798 -0.9488,6.404406 -0.42079,13.114258 -1.64716,19.491428 -0.28501,1.48205 -0.8233,2.908459 -1.09811,4.392433 -1.91723,10.353013 1.91287,-5.782956 -1.09811,6.86318 -0.57,2.393974 -1.43815,4.720008 -1.92169,7.137702 -0.96262,4.81309 -1.98235,9.71811 -2.74527,14.54994 -0.17186,1.08843 -0.0584,2.21381 -0.27453,3.29433 -0.2441,1.22048 -0.86306,2.34659 -1.09811,3.56885 -0.14065,0.73139 -0.53542,8.11313 -0.54905,8.23581 -0.49688,4.47193 -1.04968,8.97068 -1.64717,13.45183 -0.185,1.38754 -0.66002,2.72768 -0.82358,4.11791 -0.37039,3.14838 -0.10906,6.38183 -0.54905,9.60845 -0.46151,3.3844 -0.95114,6.78555 -1.37264,10.1575 -0.38603,3.08825 -1.99126,5.98504 -2.19621,9.0594 -0.12411,1.86161 0.26545,3.90689 0,5.76507 -0.2583,1.80809 -1.09811,3.10155 -1.09811,4.94149"
             id="path935" />
          <path
             style="fill:none;stroke:#000000;stroke-width:1.2;stroke-linecap:butt;stroke-linejoin:miter;stroke-miterlimit:4;stroke-dasharray:none;stroke-opacity:1"
             d="m 184.48224,-2.1962171 c 5.75449,0.3027622 11.38444,1.25684388 17.02068,2.1962171 3.07162,0.51193747 6.26706,0.54049638 9.33392,1.0981086 0.32462,0.059022 0.51902,0.422154 0.82358,0.5490542 1.63139,0.6797436 3.33682,1.1810745 4.94149,1.9216901 1.13102,0.5220097 2.16083,1.4179129 3.29433,1.9216899 1.41218,0.6276374 2.95317,1.071458 4.39243,1.6471627 1.75288,0.7011511 3.47777,1.9895127 5.21602,2.7452714 3.40817,1.4818121 6.89179,2.6981031 9.88298,4.9414881 0.52251,0.391886 0.57559,0.706223 1.0981,1.098109 0.59306,0.44479 6.86318,3.23323 6.86318,3.568853"
             id="path937" />
          <path
             style="fill:none;stroke:#000000;stroke-width:1.2;stroke-linecap:butt;stroke-linejoin:miter;stroke-miterlimit:4;stroke-dasharray:none;stroke-opacity:1"
             d="m 240.21125,31.845149 c 0.27135,9.876229 -5.36829,18.423324 -9.60845,26.903659 -2.4865,4.972986 -4.48816,11.423991 -7.41224,15.922574 -2.43104,3.740063 -5.70933,6.782673 -8.23581,10.432031 -4.35627,6.292392 -7.97091,13.291257 -10.98109,20.315007 -3.30066,7.70156 -3.96029,15.91633 -4.94149,24.15839 -0.52637,4.42154 -1.64716,9.47742 -1.64716,14.00088"
             id="path939" />
          <path
             style="fill:none;stroke:#000000;stroke-width:1.2;stroke-linecap:butt;stroke-linejoin:miter;stroke-miterlimit:4;stroke-dasharray:none;stroke-opacity:1"
             d="m 247.34895,19.491427 c 2.58029,2.336211 4.12819,4.982631 4.94149,8.235813 0.20482,0.819275 -0.1389,1.911895 0,2.745272 1.08128,6.487678 -0.86794,12.619863 -1.92169,18.942372 -0.55453,3.327173 -0.28067,6.877908 -1.64716,10.157505 -0.71208,1.708986 -2.01877,3.246308 -2.74527,4.941488 -0.14863,0.346795 -0.0873,0.77052 -0.27453,1.098108 -0.19262,0.337087 -0.63504,0.484198 -0.82358,0.823582 -2.46424,4.435634 0.9725,-0.567708 -1.09811,2.745272 -1.66734,2.667741 -3.56885,5.200607 -3.56885,8.510341"
             id="path941" />
          <path
             style="fill:none;stroke:#000000;stroke-width:1.2;stroke-linecap:butt;stroke-linejoin:miter;stroke-miterlimit:4;stroke-dasharray:none;stroke-opacity:1"
             d="m 248.72159,61.219553 c 0.462,6.022689 -0.674,11.905818 -1.37264,17.844262 -0.19783,1.681596 -0.38929,3.072116 -1.09811,4.666961 -0.70115,1.577597 -1.90423,2.64609 -2.74527,4.117909 -0.8412,1.472105 0.16522,0.383836 -0.54905,1.098108"
             id="path943" />
          <path
             style="fill:none;stroke:#000000;stroke-width:1.2;stroke-linecap:butt;stroke-linejoin:miter;stroke-miterlimit:4;stroke-dasharray:none;stroke-opacity:1"
             d="m 250.09422,77.142125 c 0.0397,3.826168 -0.28306,7.780914 -1.09811,11.530142 -0.18441,0.848315 -0.60444,1.630725 -0.82358,2.470742 -1.81454,6.955756 -0.19011,1.196944 -1.09811,6.039599 -1.20051,6.402742 -2.89087,12.343162 -2.19621,18.942372 0.76623,7.27917 0.39991,-1.0136 0.82358,5.76507 0.1562,2.49923 -0.0538,4.89536 0.27453,7.41223 0.16946,1.29921 0.70496,2.53855 0.82358,3.84338 0.42667,4.69343 0.82358,9.28118 0.82358,14.00089 0,0.53358 0.20827,2.39499 0,3.0198 -0.50769,1.52306 -1.21919,2.16384 -1.92169,3.56885 -0.2633,0.5266 -0.25418,1.33194 -0.54905,1.92169"
             id="path945" />
          <path
             style="fill:none;stroke:#000000;stroke-width:1.2;stroke-linecap:butt;stroke-linejoin:miter;stroke-miterlimit:4;stroke-dasharray:none;stroke-opacity:1"
             d="m 195.46332,165.81439 c 2.19622,0.64057 4.32302,1.6045 6.58865,1.92169 5.93306,0.83063 14.74969,-0.16973 20.58954,-1.92169"
             id="path947" />
          <path
             style="fill:none;stroke:#000000;stroke-width:1.2;stroke-linecap:butt;stroke-linejoin:miter;stroke-miterlimit:4;stroke-dasharray:none;stroke-opacity:1"
             d="m 196.2869,171.85399 c 5.76136,4.00792 13.76142,2.74527 20.31501,2.74527"
             id="path949" />
          <path
             style="fill:none;stroke:#000000;stroke-width:1.2;stroke-linecap:butt;stroke-linejoin:miter;stroke-miterlimit:4;stroke-dasharray:none;stroke-opacity:1"
             d="m 193.54163,180.36433 c -0.0393,3.42862 -1.50222,6.58649 -2.19621,9.88298 -0.45384,2.15574 -0.66987,4.48034 -1.37264,6.58865 -0.5323,1.5969 -1.19912,3.20634 -1.37264,4.94149 -0.43106,4.31059 0.26542,8.73933 1.09811,12.90277 0.37174,1.85871 -0.37023,5.12031 1.09811,6.58865 0.76031,0.76031 6.14791,-7.21264 7.41223,-7.68676 1.11756,-0.41908 2.18917,-0.30977 2.19622,-0.27452 0.53896,2.69478 -0.80175,5.84317 -1.09811,8.51034 -0.72327,6.50949 1.68456,12.91524 8.23582,15.09899"
             id="path951" />
          <path
             style="fill:none;stroke:#000000;stroke-width:1.2;stroke-linecap:butt;stroke-linejoin:miter;stroke-miterlimit:4;stroke-dasharray:none;stroke-opacity:1"
             d="m 188.87467,220.71982 c 0.27481,4.14282 -1.21855,7.894 -2.19622,11.80466"
             id="path953" />
          <path
             style="fill:none;stroke:#000000;stroke-width:1.2;stroke-linecap:butt;stroke-linejoin:miter;stroke-miterlimit:4;stroke-dasharray:none;stroke-opacity:1"
             d="m 238.01503,162.79459 c 2.46986,0.82448 4.93251,-0.24797 7.41223,0 1.01914,0.10192 1.30988,0.99278 2.19622,1.37264 2.36441,1.01332 1.88238,1.10363 4.11791,3.0198 0.33056,0.28334 0.87569,0.37876 1.0981,0.82358 0.34216,0.6843 0.48144,1.51191 0.82359,2.19622 0.19906,0.39813 0.54905,0.57404 0.54905,1.0981"
             id="path955" />
          <path
             style="fill:none;stroke:#000000;stroke-width:1.2;stroke-linecap:butt;stroke-linejoin:miter;stroke-miterlimit:4;stroke-dasharray:none;stroke-opacity:1"
             d="m 236.36787,175.14831 c 1.70431,-0.17919 3.48357,0.44777 5.21601,0.27453 5.09049,-0.50905 7.82587,-3.06125 10.43203,3.0198 0.66368,1.54858 1.28695,3.0801 1.92169,4.66696 0.33472,0.8368 1.09811,3.372 1.09811,2.47075"
             id="path957" />
          <path
             style="fill:none;stroke:#000000;stroke-width:1.2;stroke-linecap:butt;stroke-linejoin:miter;stroke-miterlimit:4;stroke-dasharray:none;stroke-opacity:1"
             d="m 212.75853,194.36521 c -2.38651,2.90469 -1.59702,1.79524 1.64716,0.27453 3.60249,-1.68866 7.35553,-3.11315 10.98109,-4.66696 0.67812,-0.29062 1.24067,-0.81435 1.92169,-1.09811 0.43071,-0.17946 0.93263,-0.11923 1.37264,-0.27453 4.66985,-1.64818 8.97939,-3.20177 14.00088,-2.74527 1.64866,0.14988 3.28473,0.65791 4.94149,0.82358 2.0846,0.20846 4.2679,0.0375 6.31412,0.54906 2.35239,0.58809 10.59475,8.94758 12.35372,10.70656 3.63252,3.6325 8.43608,5.36621 12.62825,8.51034 0.80986,0.6074 1.41671,1.57261 2.19622,2.19621 0.86911,0.69529 1.72093,1.17188 2.47073,1.92169 0.15513,0.15512 0.34457,0.89361 0.54907,1.09811 0.28937,0.28938 0.80872,0.25968 1.0981,0.54906 0.46821,0.4682 1.49566,1.77017 1.92169,2.19621 0.27454,0.27453 1.17084,0.64996 0.8236,0.82359 -0.24556,0.12277 -0.54906,0 -0.8236,0 -1.55564,0 -3.11131,0 -4.66696,0 -5.39906,0 -10.81968,-0.0484 -16.1971,0.54905 -4.70322,0.52258 -9.24148,2.49792 -13.72635,3.84338 -3.1905,0.95715 -6.42477,1.76568 -9.60845,2.74527 -6.86692,2.1129 -0.92333,0.55196 -7.13771,2.74527 -4.12726,1.45668 1.45947,-1.04519 -2.74527,0.82358 -1.97246,0.87666 -6.41517,2.67283 -7.41223,4.66697 -0.75454,1.50908 -0.67996,4.45979 -0.82358,6.03959 -0.10667,1.17332 -0.47979,2.33727 -0.27453,3.56886 0.19449,1.16691 3.77397,7.35422 3.0198,7.41223 -1.99397,0.15338 -5.81481,0.84864 -7.68676,-0.27453 -0.72344,-0.43406 -1.19825,-1.21309 -1.92169,-1.64716 -2.56849,-1.54109 -4.46694,-3.64336 -6.58865,-5.76507 -0.77653,-0.77653 -2.05262,-2.00898 -2.74528,-2.47074 -0.50206,-0.33472 -1.65088,0.004 -1.0981,-0.54906"
             id="path959" />
          <path
             style="fill:none;stroke:#000000;stroke-width:1.2;stroke-linecap:butt;stroke-linejoin:miter;stroke-miterlimit:4;stroke-dasharray:none;stroke-opacity:1"
             d="m 181.5997,-84.417095 c 0.87992,-0.981083 2.00649,-1.129405 3.15706,-1.647163 0.42958,-0.19331 0.798,-0.511366 1.23538,-0.686319 2.43013,-0.972053 5.76786,0.07831 8.09855,0.686319 1.39159,0.363024 2.82394,1.235371 4.25517,1.235371"
             id="path961" />
          <path
             style="fill:none;stroke:#000000;stroke-width:1.2;stroke-linecap:butt;stroke-linejoin:miter;stroke-miterlimit:4;stroke-dasharray:none;stroke-opacity:1"
             d="m 181.5997,-84.417095 c 0.5033,-0.869336 0.83259,-1.866185 1.5099,-2.608008 0.70608,-0.773319 4.50727,-1.361763 5.62781,-1.098108 0.19742,0.04645 1.64716,0.60543 1.64716,0.823581"
             id="path963" />
          <path
             style="fill:none;stroke:#000000;stroke-width:1.2;stroke-linecap:butt;stroke-linejoin:miter;stroke-miterlimit:4;stroke-dasharray:none;stroke-opacity:1"
             d="m 169.65777,-89.907638 c 0.29542,-2.137069 -0.76341,-3.508679 -2.19622,-4.941488"
             id="path965" />
          <path
             style="fill:none;stroke:#000000;stroke-width:1.2;stroke-linecap:butt;stroke-linejoin:miter;stroke-miterlimit:4;stroke-dasharray:none;stroke-opacity:1"
             d="m 169.65777,-89.907638 c 1.38674,-3.235709 1.83588,-2.060893 0.41179,-4.117906 -0.87045,-1.257327 -0.49748,-0.823582 -2.60801,-0.823582"
             id="path967" />
          <path
             style="fill:none;stroke:#000000;stroke-width:1.2;stroke-linecap:butt;stroke-linejoin:miter;stroke-miterlimit:4;stroke-dasharray:none;stroke-opacity:1"
             d="m 173.08936,-90.73122 c -0.6326,-3.245969 -2.87155,-5.18546 -5.62781,-6.863178 -0.98008,-0.326694 -0.5828,-0.114009 -1.23537,-0.549055"
             id="path969" />
          <path
             style="fill:none;stroke:#000000;stroke-width:1.2;stroke-linecap:butt;stroke-linejoin:miter;stroke-miterlimit:4;stroke-dasharray:none;stroke-opacity:1"
             d="m 105.50422,-61.34192 c 1.08035,1.095063 2.00494,2.249755 3.00886,3.397099 0.0901,0.103008 0.12409,0.415272 0.19412,0.485302 0.10667,0.106666 0.36012,0.318391 0.4853,0.485298 0.33378,0.44504 0.57458,1.059881 0.9706,1.455902 1.1319,1.131901 2.07393,2.485945 2.9118,3.882398 0.60258,1.004302 1.04031,2.080625 1.55296,3.10592 0.0847,0.169497 0.30349,0.315804 0.38824,0.485301 0.0289,0.05787 -0.0359,0.140279 0,0.194119 0.0401,0.0602 0.14297,0.04591 0.19412,0.09706 0.34028,0.340276 0.50924,0.957972 0.77648,1.358842 0.097,0.145521 0.31064,0.233032 0.38824,0.388239 0.24259,0.48518 -0.30016,-0.108286 0.0971,0.388239 0.46946,0.586822 0.74575,1.200322 1.06766,1.844141 0.44058,0.881152 1.44941,1.831152 1.9412,2.81474 0.91054,1.821082 2.30204,5.116777 3.68828,6.503019 0.0458,0.04576 -0.0289,0.136245 0,0.19412 0.097,0.194106 0.50626,0.555733 0.67942,0.679421 0.33597,0.239979 0.62695,0.27369 0.9706,0.388239 0.0307,0.01024 -0.0229,0.07418 0,0.09706 0.11665,0.116649 0.32526,0.05705 0.4853,0.09706 1.03296,0.258238 1.93702,0.09706 3.00886,0.09706 0.93982,0 2.13698,0.193567 3.00886,-0.09706 0.60639,-0.202131 1.41895,0.154826 2.03826,0 0.39158,-0.0979 0.79298,-0.458446 1.16472,-0.582361 0.80821,-0.269404 2.18084,0.241646 2.9118,0.485301 1.07367,0.357889 2.38083,0.206968 3.49416,0.485299 2.20805,0.552011 4.50107,1.119632 6.69714,1.747081 0.86276,0.246501 1.62615,0.649186 2.52356,0.87354 0.89663,0.224155 3.89193,0.688943 4.46476,1.261779 0.0583,0.05826 0.0794,0.214712 0.19412,0.29118 0.22838,0.152251 0.58465,0.196402 0.77648,0.388239 0.1605,0.160504 0.5052,0.60226 0.67942,0.77648 0.14624,0.146243 0.24375,0.58383 0.38824,0.776481 0.17776,0.237016 1.00275,1.326386 1.26178,1.4559 0.48852,0.244259 1.04991,0.524956 1.55296,0.77648 0.11185,0.05592 0.25327,0.272225 0.29118,0.29118 0.38255,0.191276 0.90179,0.208245 1.26178,0.38824 0.0289,0.01447 0,0.06471 0,0.09706 0.0324,0.03235 0.0537,0.08259 0.0971,0.09706 0.27231,0.09077 0.39619,0.149567 0.67942,0.29118 0.37359,0.186795 1.57289,0.19412 2.03826,0.19412 1.13316,0 2.29559,0.0603 3.3971,-0.09706 0.20257,-0.02894 0.38052,-0.160481 0.58236,-0.19412 0.15957,-0.02659 0.37091,0.114386 0.4853,0 0.31887,-0.318869 1.87973,-0.861246 2.4265,-0.9706 1.16457,-0.232915 2.42488,0.09733 3.59122,-0.09706 1.04702,-0.174503 2.0344,-0.19412 3.10592,-0.19412 0.82381,0 1.71472,-0.01849 2.52356,0.09706 0.17248,0.02464 0.31553,0.154943 0.4853,0.19412 0.72186,0.166583 1.52598,0.05571 2.23238,0.29118 0.11067,0.03689 0.17731,0.168815 0.29118,0.19412 0.34286,0.07619 1.31915,0.111402 1.65002,0.19412 0.14037,0.03509 0.24787,0.159028 0.38824,0.19412 0.67455,0.168637 1.43935,0.249046 2.13532,0.38824 2.38927,0.477854 6.36406,0.716194 8.34716,2.03826 0.11371,0.07581 0.37369,0.08251 0.4853,0.19412 0.24355,0.243549 0.62507,0.722126 0.87354,0.9706 0.40115,0.401148 0.81151,0.827017 1.26178,1.16472 0.22819,0.171142 0.57866,0.287482 0.77648,0.4853 0.11153,0.111529 0.0971,0.171653 0.0971,0.29118"
             id="path971" />
          <path
             style="fill:none;stroke:#000000;stroke-width:1.2;stroke-linecap:butt;stroke-linejoin:miter;stroke-miterlimit:4;stroke-dasharray:none;stroke-opacity:1"
             d="m 101.30051,-60.395971 c 1.6373,0.714285 2.84492,1.383588 3.62135,2.936452 0.0388,0.07765 -0.0388,0.213532 0,0.291179 0.17186,0.343707 0.39191,1.073168 0.58236,1.358839 0.62832,0.942485 -0.51439,-1.239898 0.58236,0.679421 0.0503,0.08809 0.0339,0.293537 0.0971,0.388239 0.6937,1.040553 1.05556,2.08693 1.35884,3.300042 0.0549,0.21971 -0.025,0.454332 0,0.679418 0.0525,0.472273 0.14478,1.016691 0.29118,1.455902 0.054,0.162062 -0.0761,0.430164 0,0.582358 0.0145,0.02894 0.0647,0 0.0971,0 0.0324,0.06471 0.0742,0.125489 0.0971,0.19412 0.12943,0.388281 0.14113,0.891108 0.38824,1.261782 0.0179,0.02692 0.0647,0 0.0971,0 0.0323,0.03235 0.0766,0.05613 0.0971,0.09706 0.0434,0.08681 -0.019,0.196004 0,0.29118 0.0627,0.313293 0.34384,1.123069 0.4853,1.358839 0.17319,0.288647 0.42649,0.56179 0.58236,0.87354 0.0597,0.119314 0.0231,0.277249 0.0971,0.388242 0.0647,0.09706 0.2165,0.104505 0.29118,0.194119 0.39188,0.470257 0.60136,1.008605 0.87354,1.552959 0.1563,0.3126 0.50014,0.574744 0.67942,0.87354 0.19689,0.328144 0.33186,0.760778 0.4853,1.06766 0.11301,0.226013 0.35529,0.365683 0.4853,0.582361 0.48524,0.808726 -0.0544,-0.0298 0.29118,0.776481 0.19289,0.450067 0.62313,0.844434 0.87354,1.261779 1.00025,1.667084 1.97096,3.319066 3.00886,4.950061 0.30251,0.475371 0.66482,1.150114 1.06766,1.552958 0.29727,0.297265 0.62577,0.598943 0.87354,0.970601 0.0935,0.140305 0.30421,0.179144 0.38824,0.291179 0.0614,0.08185 0.0357,0.209333 0.0971,0.291182 0.17874,0.238318 0.63457,0.634568 0.87354,0.87354 0.15543,0.155427 0.1695,0.420124 0.29118,0.582359 0.18222,0.242966 1.4559,1.427442 1.4559,1.650021 0.40894,0.405438 0.27026,0.888047 0.38796,1.358838 0.6614,2.645598 -0.57089,4.567985 -0.29118,7.08538 0.0438,0.393753 0.31958,0.736216 0.4853,1.06766 0.0408,0.08154 0.0437,0.431944 0.0971,0.4853 0.37578,0.375782 0.56791,1.081083 1.06766,1.4559 0.20688,0.155157 0.63269,0.324729 0.87354,0.4853 0.15228,0.10152 0.23596,0.28672 0.38824,0.38824 0.54416,0.362772 1.19828,0.75312 1.74708,1.16472 0.10981,0.08236 0.16841,0.229794 0.29118,0.29118 0.0868,0.04341 0.20106,-0.03605 0.29118,0 0.0344,0.01378 0.84877,0.460531 0.87354,0.4853 0.0512,0.05115 0.0392,0.150713 0.0971,0.19412 0.41271,0.309533 1.01392,0.405567 1.4559,0.58236 0.88614,0.354456 1.74441,0.886261 2.62062,1.26178 0.36098,0.154704 0.88297,0.16491 1.26178,0.29118 0.0307,0.01023 -0.0229,0.07418 0,0.09706 0.0775,0.0775 2.46586,0.5631266 2.81474,0.6794198 0.70137,0.2337881 1.23849,0.6765091 2.03826,0.77648 1.46336,0.1829194 2.87638,0.19412 4.3677,0.19412 0.71626,0 3.19753,0.1712184 3.8824,0 0.43729,-0.1093225 0.92749,-0.3415163 1.35884,-0.4853 0.18279,-0.060929 0.40302,-0.025325 0.58236,-0.09706 0.085,-0.033986 0.11798,-0.1433599 0.19412,-0.19412 0.14397,-0.095978 0.50652,-0.1076697 0.67942,-0.19412 0.16775,-0.083873 0.3121,-0.2218979 0.4853,-0.29118 0.26557,-0.1062266 0.8449,-0.1241068 1.06766,-0.29118 0.14642,-0.1098108 0.23596,-0.2867198 0.38824,-0.3882398 0.14497,-0.09665 0.34592,-0.08958 0.4853,-0.19412 0.005,-0.0036 0.57007,-0.545483 0.58236,-0.58236 0.0205,-0.06139 -0.0457,-0.148366 0,-0.19412 0.0458,-0.04576 0.12942,0 0.19412,0 0.0971,-0.09706 0.20544,-0.183995 0.29118,-0.29118 0.5152,-0.643994 1.07051,-1.167566 1.65002,-1.74708 0.23574,-0.23574 -0.0289,-0.142525 0.19412,-0.29118 0.61693,-0.411285 1.17332,-1.023428 1.84414,-1.35884 0.70392,-0.351957 1.68851,-0.650136 2.32944,-0.9706 0.22885,-0.114425 0.62136,0.06305 0.87354,0 0.39851,-0.09963 1.10737,-0.208458 1.55296,-0.09706 0.11957,0.02989 1.15844,1.534125 1.26178,1.84414 0.0737,0.221148 -0.006,0.666673 0.0971,0.87354 0.18971,0.379413 0.18656,0.746227 0.29118,1.16472 0.0474,0.189729 0.14669,0.198511 0.19412,0.38824 0.2761,1.104379 0.39557,2.2763416 0.58236,3.3970998 0.0335,0.2012452 0.0742,0.924895 0.19412,1.1647201 0.2678,0.5355878 0.49125,1.1766226 0.77648,1.74708 0.10496,0.2099074 -0.002,0.5805275 0.19412,0.77648 0.92233,0.9223268 1.78484,1.7585432 3.00886,2.5235601 0.42858,0.2678595 1.01482,0.3382727 1.4559,0.4853 0.11067,0.036888 0.18287,0.1507967 0.29118,0.19412 1.17599,0.4703935 0.1903,-0.030265 1.26178,0.29118 1.17166,0.35149692 2.46635,0.73791057 3.78534,1.06766 0.54816,0.1370391 1.11399,0.20956288 1.65002,0.38824 0.0307,0.010231 -0.0314,0.0892132 0,0.09706 0.64983,0.16245577 1.37346,0.20807931 2.03826,0.29118 1.42346,0.1779325 2.79449,0.38824001 4.27064,0.38824001 0.33741,0 1.33675,0.10442599 1.65002,0 0.30038,-0.10012526 0.6842,-0.39062686 0.87354,-0.48530001 0.48295,-0.24147157 1.13799,-0.42340529 1.65002,-0.67942001 0.32054,-0.16026634 0.60455,-0.38061636 0.87354,-0.58236001 0.68463,-0.51346718 1.67325,-0.88515288 2.4265,-1.26177998 0.25638,-0.1281867 1.34725,-1.5002198 1.55296,-1.7470801 0.25707,-0.3084753 0.87518,-0.5848144 1.06766,-0.87354 0.0568,-0.085127 0.0247,-0.2188357 0.0971,-0.29118 0.0724,-0.072344 0.19967,-0.051305 0.29118,-0.09706 0.14866,-0.074327 0.0759,-0.1729625 0.19412,-0.29118 0.64281,-0.6428113 1.44881,-1.1367972 2.03826,-1.84414 0.54242,-0.6509004 1.07348,-1.3464123 1.65002,-2.0382601 0.24085,-0.2890147 0.41287,-0.3404355 0.58236,-0.67942 0.49365,-0.9872948 2.02616,-1.2496808 2.71768,-1.9411998 0.23135,-0.231343 -0.12423,-1.467549 -0.19412,-1.74708 -0.17107,-0.684301 0.25127,-2.409261 0,-2.9118 -0.12897,-0.257941 -2.04283,-2.724917 -1.1646,-1.261782"
             id="path973" />
          <path
             style="fill:none;stroke:#000000;stroke-width:1.2;stroke-linecap:butt;stroke-linejoin:miter;stroke-miterlimit:4;stroke-dasharray:none;stroke-opacity:1"
             d="m 128.79862,-29.409181 c -0.01,0.161814 -0.76767,0.379431 -0.87354,0.485302 -0.14426,0.144261 -1.10696,2.234758 -1.16472,2.523559 -0.0254,0.1269 0.0579,0.272489 0,0.38824 -0.23167,0.463338 -0.65389,1.062582 -0.77648,1.55296 -0.053,0.212104 -0.0251,0.366597 -0.0971,0.58236 -0.21298,0.638955 0.0867,2.176624 -0.0971,2.9118 -0.13233,0.529324 -0.33369,2.383988 0.0971,2.81474 0.30062,0.300623 0.57122,0.84522 0.9706,1.16472 0.14731,0.117849 0.3519,0.157784 0.4853,0.29118 0.0825,0.08249 0.10451,0.216501 0.19412,0.29118 0.48686,0.405719 0.24595,0.0311 0.67942,0.29118 0.61364,0.368183 1.18077,0.802311 1.84414,1.06766 0.77903,0.31161 1.7062,0.607328 2.52356,0.9706 0.30072,0.133653 0.44225,0.346037 0.77648,0.4853 0.54039,0.225163 1.01619,0.375372 1.4559,0.4853 0.17824,0.04456 0.5067,0.330667 0.67942,0.38824 0.85745,0.285818 1.74017,0.459306 2.62062,0.67942 0.63367,0.158416 -0.36671,0.05212 0.4853,0.19412 0.76384,0.127306 1.56149,-0.01265 2.32944,0.09706 1.81986,0.25998 3.66358,0.738097 5.53242,0.58236 0.6099,-0.05083 1.15052,-0.411915 1.74708,-0.58236 0.55364,-0.158184 1.21316,-0.210266 1.74708,-0.38824 0.73611,-0.245369 3.38842,-3.335544 3.8824,-4.07652 0.27356,-0.410339 0.49161,-1.171023 0.77648,-1.4559 0.0458,-0.04575 -0.024,-0.134041 0,-0.19412 0.0806,-0.20151 0.22255,-0.376465 0.29118,-0.58236 0.068,-0.203934 -0.0523,-0.470242 0,-0.67942 0.16787,-0.671494 0.0971,-1.427789 0.0971,-2.13532 0,-1.035561 0.1046,-2.415198 -0.4853,-3.30004 -0.23471,-0.352075 -0.65744,-0.779527 -0.87354,-1.06766 -0.61664,-0.822183 -0.89694,-1.42099 -2.03826,-1.747081 -0.45407,-0.129733 -0.99944,-0.312163 -1.4559,-0.388239 -0.79727,-0.132879 -1.62027,-0.15681 -2.4265,-0.291181 -0.11407,-0.01902 -0.28751,0.05037 -0.38824,0 -0.33864,-0.169318 -0.79335,-0.167389 -1.16472,-0.29118 -1.00549,-0.335161 -2.20808,-0.788606 -3.30004,-0.9706 -0.40057,-0.06676 -0.96345,-0.06232 -1.35884,-0.194119 -0.69242,-0.230807 -1.48159,-0.529262 -2.23238,-0.679421 -0.22207,-0.04441 -0.45603,0.03723 -0.67942,0 -0.65306,-0.108842 -1.25151,-0.190696 -1.84414,-0.388239 -0.18524,-0.06175 -1.885,-0.08344 -2.13532,0 -0.0434,0.01447 -0.0647,0.06471 -0.0971,0.09706 -0.12941,0.03235 -0.25743,0.0709 -0.38824,0.09706 -0.2991,0.05982 -0.68252,-0.09602 -0.9706,0 -0.39825,0.132752 -0.74306,0.282824 -1.16472,0.388242 -0.74088,0.185219 -2.48285,0.638712 -2.9118,1.06766 -0.18159,0.181591 -0.67942,-0.06856 -0.67942,-0.291182"
             id="path975" />
          <path
             style="fill:none;stroke:#000000;stroke-width:1.2;stroke-linecap:butt;stroke-linejoin:miter;stroke-miterlimit:4;stroke-dasharray:none;stroke-opacity:1"
             d="m 166.74908,-16.88844 c 0.16241,-0.674809 0.57296,-1.006208 0.9706,-1.55296 0.29643,-0.40759 0.46215,-0.96593 0.77648,-1.35884 0.11643,-0.145531 0.35563,-0.21534 0.4853,-0.38824 0.15766,-0.210209 0.021,-0.226145 0.29118,-0.38824 0.68882,-0.413293 1.44628,-0.723138 2.13532,-1.06766 0.11575,-0.05788 0.25912,0.0086 0.38824,0 0.38872,-0.02592 0.77728,-0.05628 1.16472,-0.09706 0.38058,0.06874 0.70873,-0.149254 1.06766,-0.19412 1.2814,-0.160175 2.58776,0.0025 3.8824,-0.09706 0.69019,-0.05309 1.34368,-0.09706 2.03826,-0.09706 0.93175,0 2.11566,0.338761 3.00886,0.58236 1.15956,0.316242 2.40818,0.30937 3.59122,0.38824 0.16177,0.03235 0.32353,0.06471 0.4853,0.09706 0.0324,0.03235 0.0527,0.08596 0.0971,0.09706 0.26812,0.06703 0.60202,0.02918 0.87354,0.09706 0.75593,0.188981 1.46229,0.681018 2.23238,0.87354 0.69301,0.173252 1.43899,0.253189 2.13532,0.4853 0.34806,0.116019 0.67383,0.481575 0.9706,0.67942 0.0851,0.05675 0.24543,0.0056 0.29118,0.09706 0.0289,0.05787 -0.0289,0.136245 0,0.19412 0.0892,0.178345 0.43905,0.537629 0.58236,0.77648 0.14831,0.247183 -0.009,0.466842 0.0971,0.67942 0.44421,0.88841 0.72135,3.423498 0.4853,4.3677 -0.21107,0.844284 -0.32808,0.947345 -0.67942,1.65002 -0.13282,0.265642 -0.0962,0.581081 -0.29118,0.87354 -0.31209,0.4681388 -0.7139,0.942505 -0.9706,1.4558999 -0.35595,0.7118969 -0.80789,1.454486 -1.26178,2.13532 -0.58667,0.8800023 -1.71857,1.5092161 -2.52356,2.13532 -1.11439,0.8667517 -1.67701,1.464896 -3.10592,1.9412001 -0.21485,0.071617 -0.45433,-0.02501 -0.67942,0 -0.54339,0.060377 -1.0337,0.2843889 -1.55296,0.38824 -0.38202,0.076404 -0.78043,0.033012 -1.16472,0.09706 -1.71897,0.2864952 -3.59108,0.5338642 -5.3383,0.09706 -0.72297,-0.180743 -1.41757,-0.4401698 -2.13532,-0.67942 -0.32726,-0.1090881 -0.61752,-0.3377997 -0.9706,-0.3882401 -0.665,-0.095 -1.12039,-0.3286276 -1.74708,-0.4852999 -0.54482,-0.1362059 -0.23879,0.171785 -0.77648,-0.09706 -0.0819,-0.040924 -0.10916,-0.1601345 -0.19412,-0.19412 -0.21158,-0.084632 -0.55559,-0.033949 -0.77648,-0.09706 -0.36789,-0.1051105 -0.94632,-0.3720536 -1.26178,-0.5823601 -0.42468,-0.2831227 -0.63638,-0.8088921 -1.06766,-1.0676599 -0.39666,-0.2379943 -1.61315,-1.2783428 -1.74708,-1.7470799 -0.0444,-0.1555428 0.0179,-0.3245229 0,-0.4853001 -0.0555,-0.499083 -0.31721,-0.9586653 -0.38824,-1.4558999 -0.29583,-2.0708191 -0.27825,-4.2220331 0,-6.3089001 0.009,-0.0699 -2e-5,-1.06764 0.0971,-1.16472 0.1232,-0.123198 0.32947,-0.116203 0.4853,-0.19412 z"
             id="path979" />
          <path
             style="fill:none;stroke:#000000;stroke-width:1.2;stroke-linecap:butt;stroke-linejoin:miter;stroke-miterlimit:4;stroke-dasharray:none;stroke-opacity:1"
             d="m 144.1341,-7.1824399 c -0.64403,0.1904632 -1.06841,0.6480619 -1.4559,1.1647199 -0.0388,0.051765 0.0289,0.1362445 0,0.19412 -0.56435,1.1286992 -0.103,3.5028693 0.4853,4.56182 0.35241,0.63434138 1.6335,1.93293869 2.23238,2.23238 0.69447,0.3472344 1.48683,0.581505 2.13532,0.9706 0.15694,0.094162 0.23596,0.2867199 0.38824,0.38824 0.33941,0.2262722 0.77203,0.3837911 1.06766,0.6794201 0.63375,0.6337478 1.22845,1.1748519 1.9412,1.65002 0.31969,0.2131272 0.35497,0.4686636 0.77648,0.6794198 0.19606,0.098028 0.25346,0.3505203 0.38824,0.4853001 0.15303,0.1530321 0.43345,0.2393302 0.58236,0.3882401 0.4545,0.4545004 0.76277,0.887522 1.26178,1.2617799 0.68839,0.5162886 1.51786,0.5779722 2.32944,0.6794201 1.83539,0.2294236 3.52378,0.2044327 5.14418,-0.6794201 0.17964,-0.097983 0.41211,-0.080617 0.58236,-0.1941201 0.21181,-0.1412031 0.63232,-0.680563 0.87354,-0.8735398 0.26838,-0.2147028 0.61123,-0.5430316 0.77648,-0.8735401 0.0767,-0.1534388 0.0408,-0.4134887 0.0971,-0.5823598 0.24438,-0.7331255 0.3992,-1.457484 0.4853,-2.2323801 0.0798,-0.7185845 -0.2285,-1.74100667 0,-2.42650009 0.18713,-0.56139383 0.0971,-1.24211716 0.0971,-1.84414001"
             id="path983" />
          <path
             style="fill:none;stroke:#000000;stroke-width:1.2;stroke-linecap:butt;stroke-linejoin:miter;stroke-miterlimit:4;stroke-dasharray:none;stroke-opacity:1"
             d="m 130.0604,9.0265802 c 0.64519,-0.1140862 1.27785,0.1496065 1.84414,0.2911798 0.31388,0.078468 0.6484,-0.029291 0.9706,0 0.85563,0.077784 1.68382,0.4144123 2.52356,0.58236 0.66452,0.132904 1.38885,0.171772 2.03826,0.38824 0.78161,0.260535 1.5911,0.637246 2.4265,0.77648 0.41427,0.06905 2.5914,0.616278 2.9118,0.77648 0.71311,0.356552 1.39985,0.538615 2.23238,0.77648 0.23498,0.06714 0.582,0.193939 0.77648,0.29118 0.0819,0.04092 0.10731,0.165182 0.19412,0.19412 0.12277,0.04092 0.26059,-0.02127 0.38824,0 0.17874,0.02979 0.89878,0.721572 1.16472,0.87354 0.54386,0.310777 1.14464,0.461872 1.74708,0.58236 1.06448,0.212896 2.16673,-0.161649 3.20298,-0.29118 0.34595,-0.04324 1.05563,-0.10107 1.35884,0 0.28113,0.09371 0.13185,0.143628 0.4853,0.19412 0.28826,0.04118 0.58529,-0.04118 0.87354,0 0.40803,0.05829 0.84093,0.311721 1.26178,0.38824 0.44911,0.08166 0.92095,0.106541 1.35884,0.19412 0.98383,0.196766 1.90757,0.58236 2.9118,0.58236"
             id="path985" />
          <path
             style="fill:none;stroke:#000000;stroke-width:1.2;stroke-linecap:butt;stroke-linejoin:miter;stroke-miterlimit:4;stroke-dasharray:none;stroke-opacity:1"
             d="m 132.29278,10.96778 c 0.53039,0.72132 1.32483,1.130704 1.9412,1.74708 0.1893,0.1893 0.54662,0.31676 0.67942,0.58236 0.25583,0.511648 0.92991,1.166923 1.35884,1.55296 0.10242,0.09217 0.74209,0.482246 0.87354,0.67942 0.0359,0.05384 -0.0289,0.136245 0,0.19412 0.0671,0.134277 0.40351,0.459675 0.4853,0.58236 0.73408,1.101115 1.53891,2.353546 2.62062,3.30004 0.10889,0.09528 0.27249,0.107307 0.38824,0.19412 0.17794,0.133456 0.55357,0.616494 0.87354,0.77648 1.812,0.906 2.43566,0.87354 4.46476,0.87354 0.53586,0 1.31346,-0.132671 1.84414,0 0.65267,0.163167 1.42809,0.02634 2.13532,0.09706 1.42258,0.142258 4.05497,0.544605 5.3383,-0.09706 0.20296,-0.10148 0.37287,-0.380555 0.58236,-0.4853 0.63447,-0.317237 0.91892,-0.735136 1.4559,-1.16472 0.38956,-0.311645 1.12253,-0.346048 1.4559,-0.67942 0.0458,-0.04575 -0.0457,-0.148365 0,-0.19412 0.0723,-0.07234 0.20933,-0.03567 0.29118,-0.09706 0.067,-0.05029 0.32677,-0.393094 0.38824,-0.4853 0.17083,-0.25624 0.25552,-0.64376 0.4853,-0.87354 0.22185,-0.221847 -0.0199,0.650355 0.29118,-0.19412 0.19819,-0.537955 0.32353,-1.100013 0.4853,-1.65002"
             id="path987" />
          <path
             style="fill:none;stroke:#000000;stroke-width:1.2;stroke-linecap:butt;stroke-linejoin:miter;stroke-miterlimit:4;stroke-dasharray:none;stroke-opacity:1"
             d="m 135.59282,11.84132 c 0.25883,0.161767 0.51147,0.333868 0.77648,0.4853 0.63051,0.360291 1.29425,0.647126 1.9412,0.9706 0.98754,0.493768 1.86797,1.258583 2.9118,1.65002 0.0909,0.03408 0.19702,-0.02354 0.29118,0 0.2576,0.0644 0.6266,0.229445 0.87354,0.29118 0.21453,0.05363 0.46363,-0.04795 0.67942,0 0.33214,0.07381 0.9115,0.174421 1.26178,0.29118 0.7929,0.2643 1.561,0.714453 2.32944,0.9706 0.76315,0.254383 1.55971,0.389928 2.32944,0.58236 0.5144,0.128599 3.34722,0.0892 3.8824,0 1.02048,-0.17008 1.74218,-0.4853 2.81474,-0.4853"
             id="path989" />
          <path
             style="fill:none;stroke:#000000;stroke-width:1.2;stroke-linecap:butt;stroke-linejoin:miter;stroke-miterlimit:4;stroke-dasharray:none;stroke-opacity:1"
             d="m 139.37816,-5.3382999 c -1.42383,1.5538275 -3.64107,1.6989906 -5.53242,2.3294398 -1.03008,0.3433611 -1.84388,0.8799423 -2.9118,1.1647201 -0.56556,0.1508167 -2.9606,0.4977638 -3.49416,1.16471999 -0.48798,0.60997254 0.0523,-0.0596817 -0.19412,0.67942001 -0.0289,0.0868131 -0.16127,0.10871043 -0.19412,0.19412 -0.36744,0.9553336 -0.4853,1.9953045 -0.4853,3.0088599"
             id="path991" />
          <path
             style="fill:none;stroke:#000000;stroke-width:1.2;stroke-linecap:butt;stroke-linejoin:miter;stroke-miterlimit:4;stroke-dasharray:none;stroke-opacity:1"
             d="m 166.55496,2.4265 c 1.48434,0.8284888 1.72266,2.765891 2.4265,4.1735801 0.42886,0.8577141 0.20262,0.1014495 0.58236,1.1647199 0.32812,0.9187254 0.95201,3.978097 0.4853,4.75594 -0.35389,0.589819 -0.82318,1.121457 -1.35884,1.55296 -0.64384,0.518646 -1.42407,0.8403 -2.13532,1.26178 -0.23054,0.136617 -0.9706,0.467618 -0.9706,0.77648"
             id="path993" />
          <path
             style="fill:none;stroke:#000000;stroke-width:1.2;stroke-linecap:butt;stroke-linejoin:miter;stroke-miterlimit:4;stroke-dasharray:none;stroke-opacity:1"
             d="m 152.29393,-33.49231 c -0.95765,-0.22533 -1.2368,-0.208941 -2.05895,-0.686319 -1.62713,-0.944784 -2.86842,-2.394465 -4.5297,-3.294327 -0.31486,-0.170547 -0.65379,-0.296187 -0.96085,-0.480422 -0.8149,-0.488937 -0.007,-0.222425 -0.82358,-0.549053 -0.72466,-0.289867 -1.43215,-0.592677 -2.12758,-0.960845 -0.45429,-0.240506 -0.107,-0.14506 -0.48042,-0.411792 -0.0833,-0.05947 -0.19754,-0.06989 -0.27453,-0.137263 -0.11614,-0.101619 -0.36612,-0.484328 -0.48043,-0.617686 -0.6746,-0.787045 0.22363,0.292259 -0.41179,-0.343159 -0.38133,-0.381331 -0.72101,-0.717468 -1.16674,-1.029475 -0.34067,-0.238472 -0.57049,-0.573355 -0.89221,-0.823582 -0.27808,-0.216289 -1.092,-0.70716 -1.44127,-0.823582 -0.42906,-0.14302 -0.87895,0.224351 -1.23537,0.34316 -0.22133,0.07378 -0.46263,0.07099 -0.68632,0.137263 -0.39543,0.117165 -0.77067,0.296801 -1.16674,0.411789 -0.94325,0.273849 -1.93077,0.435856 -2.88253,0.686319 -0.5628,0.148106 -1.08279,0.416261 -1.64717,0.549055 -1.00968,0.237572 -2.01718,0.478367 -3.01979,0.754949 -0.15894,0.04384 -1.78443,0.447572 -1.78443,0.549055"
             id="path995" />
          <path
             style="fill:none;stroke:#000000;stroke-width:1.2;stroke-linecap:butt;stroke-linejoin:miter;stroke-miterlimit:4;stroke-dasharray:none;stroke-opacity:1"
             d="m 126.35112,-39.806435 c 1.32789,-0.04771 2.63878,-0.111382 3.91201,-0.549055 0.37783,-0.129879 0.74075,-0.301744 1.09811,-0.480423 0.30688,-0.15344 0.0183,-0.137263 0.20589,-0.137263 1.17295,0.06952 2.31662,0.137264 3.50022,0.137264"
             id="path997" />
          <path
             style="fill:none;stroke:#000000;stroke-width:1.2;stroke-linecap:butt;stroke-linejoin:miter;stroke-miterlimit:4;stroke-dasharray:none;stroke-opacity:1"
             d="m 135.06735,-40.83591 c 0.0915,-0.160142 0.0937,-0.444252 0.27453,-0.480425 0.0173,-0.0035 1.63769,1.372637 2.26485,1.372637"
             id="path999" />
          <path
             style="fill:none;stroke:#000000;stroke-width:1.2;stroke-linecap:butt;stroke-linejoin:miter;stroke-miterlimit:4;stroke-dasharray:none;stroke-opacity:1"
             d="m 136.92041,-41.17907 c 0.0915,0.04575 0.19973,0.06745 0.27453,0.137264 2.10508,1.96474 -0.92032,-0.440233 1.99032,1.715793 0.0536,0.03967 0.54328,0.549056 0.82358,0.549056"
             id="path1001" />
          <path
             style="fill:none;stroke:#000000;stroke-width:1.2;stroke-linecap:butt;stroke-linejoin:miter;stroke-miterlimit:4;stroke-dasharray:none;stroke-opacity:1"
             d="m 137.60673,-39.943698 c 0.54905,-0.06863 1.09574,-0.251846 1.64716,-0.205896 1.10816,0.09235 2.46826,2.056466 3.22569,2.813904 1.05807,1.058066 2.37114,1.934242 3.77475,2.402113 0.25003,0.08334 0.24055,0.165915 0.48043,0.205893 0.45666,0.07611 0.85579,0.220922 1.304,0.343159 0.37699,0.102815 0.79003,0.180351 1.16674,0.274527 0.0666,0.01664 0.14451,-0.03069 0.20589,0 0.13233,0.06616 0.3532,0.121081 0.48043,0.205896 0.32251,0.215008 0.57329,0.480422 1.02947,0.480422"
             id="path1003" />
          <path
             style="fill:none;stroke:#000000;stroke-width:1.2;stroke-linecap:butt;stroke-linejoin:miter;stroke-miterlimit:4;stroke-dasharray:none;stroke-opacity:1"
             d="m 174.05021,-26.14871 c 0.18301,-0.160141 0.36603,-0.32028 0.54905,-0.480422 0.13726,-0.06863 0.29015,-0.112326 0.41179,-0.205896 0.3164,-0.243382 0.65624,-0.774227 1.02948,-0.960845 0.31862,-0.159311 0.88478,-0.210783 1.23537,-0.274527 0.75507,-0.137284 1.50697,-0.385688 2.26485,-0.480422 0.33806,-0.04226 0.6908,0.03763 1.02947,0 0.31034,-0.03448 0.58151,-0.174826 0.89222,-0.205896 0.3079,-0.03079 0.66072,0.0064 0.96084,-0.06863 0.40206,-0.100516 0.87309,-0.202708 1.30401,-0.274529 0.15499,0.04046 0.019,-0.124857 0.0686,-0.137264 0.7817,-0.195423 1.39485,0.04736 1.99032,0.480423 0.2797,0.203417 0.50568,0.567994 0.75495,0.754949 0.0579,0.04341 0.14802,0.02521 0.2059,0.06863 0.0915,0.06863 0.12501,0.193643 0.20589,0.274526 0.37693,0.376933 0.73468,0.734679 1.09811,1.098108 0.17227,0.172272 0.46266,0.294399 0.61769,0.480424 0.28446,0.341362 1.31929,1.92169 1.71579,1.92169"
             id="path1005" />
          <path
             style="fill:none;stroke:#000000;stroke-width:1.2;stroke-linecap:butt;stroke-linejoin:miter;stroke-miterlimit:4;stroke-dasharray:none;stroke-opacity:1"
             d="m 174.05021,-26.14871 c 0.20589,0.183018 0.36094,0.449208 0.61768,0.549054 0.459,0.178502 2.00065,-0.451922 2.53938,-0.617686 1.1871,-0.36526 2.33765,-0.480423 3.56885,-0.480423"
             id="path1007" />
          <path
             style="fill:none;stroke:#000000;stroke-width:1.2;stroke-linecap:butt;stroke-linejoin:miter;stroke-miterlimit:4;stroke-dasharray:none;stroke-opacity:1"
             d="m 177.41316,-27.384081 c 1.53321,0.274349 4.35405,-0.352465 5.62781,0.41179 0.18561,0.111365 0.19872,0.335986 0.34316,0.480422"
             id="path1009" />
          <path
             style="fill:none;stroke:#000000;stroke-width:1.2;stroke-linecap:butt;stroke-linejoin:miter;stroke-miterlimit:4;stroke-dasharray:none;stroke-opacity:1"
             d="m 183.38413,-26.491869 c -0.0915,-0.388914 -0.27453,-0.767207 -0.27453,-1.166741 0,-0.102309 0.1857,0.08651 0.27453,0.137263 0.29306,0.167463 0.2406,0.195694 0.54905,0.480423 0.64489,0.595284 1.25854,0.797952 2.05896,1.098109 0.0231,0.0087 0.52101,0.343159 0.61768,0.343159"
             id="path1011" />
          <path
             style="fill:none;stroke:#000000;stroke-width:1.2;stroke-linecap:butt;stroke-linejoin:miter;stroke-miterlimit:4;stroke-dasharray:none;stroke-opacity:1"
             d="m 184.89403,-27.452714 c 1.19146,1.173097 2.60809,2.102701 3.84338,3.225694 0.0846,0.07694 0.1204,0.198533 0.20589,0.274527 0.41653,0.370248 1.14164,0.889075 1.7158,0.960845 0.26029,0.03254 0.55803,0 0.82358,0"
             id="path1013" />
          <path
             style="fill:none;stroke:#000000;stroke-width:1.2;stroke-linecap:butt;stroke-linejoin:miter;stroke-miterlimit:4;stroke-dasharray:none;stroke-opacity:1"
             d="m 131.71042,-28.923879 c 0.17252,0.01291 0.12095,0.236302 0.19412,0.291179 0.90981,0.682352 1.66813,1.621861 2.4265,2.47503 0.14861,0.167189 0.27771,0.423298 0.43677,0.58236 0.47031,0.470304 0.88338,1.036708 1.40737,1.4559 0.17007,-0.0016 0.11548,0.17524 0.19412,0.24265 0.0886,0.07592 0.20339,0.117304 0.29118,0.19412 0.19369,0.169482 0.32992,0.412434 0.53383,0.58236 0.56027,0.466893 1.19774,0.863488 1.89267,1.11619 0.24373,0.08863 0.37425,0.0376 0.58236,0.09706 0.0838,0.02393 0.15686,0.08192 0.24265,0.09706 0.35324,0.06234 1.74891,0.134399 2.13532,0.04853 0.20999,-0.04666 0.41627,-0.151197 0.63089,-0.19412 0.15942,-0.03188 0.32589,-0.01665 0.4853,-0.04853 0.43988,-0.08798 0.87973,-0.350655 1.31031,-0.43677 0.095,-0.019 0.16425,-0.106391 0.24265,-0.14559 0.37261,-0.186304 0.74786,-0.349667 1.11619,-0.53383 0.17567,-0.08784 0.34351,-0.268341 0.53383,-0.33971 0.0454,-0.01704 0.0995,0.01535 0.14559,0 0.15994,-0.05331 0.32217,-0.177399 0.4853,-0.24265 0.17299,-0.06919 0.43027,-0.06954 0.58236,-0.14559 0.19855,-0.09928 -0.27355,-0.03254 0.24265,-0.09706 0.67919,-0.0849 0.87192,0.195739 1.40737,-0.33971 0.10217,-0.102172 0.0971,-0.258917 0.0971,-0.38824 0,-0.194465 0.0485,-0.485465 0,-0.67942 -0.0846,-0.338489 -0.45731,-0.457309 -0.67942,-0.67942 -0.12682,-0.126822 -0.24569,-0.391285 -0.38824,-0.53383 -0.0915,-0.09145 -0.25041,-0.15335 -0.33971,-0.242649 -0.056,-0.05599 -0.10009,-0.222936 -0.14559,-0.291182 -0.12382,-0.185738 -0.30139,-0.353325 -0.43677,-0.533829 -0.04,-0.05336 0.0111,-0.164293 -0.0485,-0.194119 -0.0289,-0.01447 -0.0742,0.02289 -0.0971,0 -0.0229,-0.02289 0.0145,-0.06812 0,-0.09706 -0.0229,-0.04575 -0.10303,-0.02016 -0.14559,-0.04853 -0.0688,-0.0459 -0.0599,-0.108458 -0.0971,-0.145592 -0.0274,-0.02738 -0.3681,0 -0.38824,0"
             id="path1015" />
          <path
             style="fill:#333333;stroke:#000000;stroke-width:1.2;stroke-linecap:butt;stroke-linejoin:miter;stroke-miterlimit:4;stroke-dasharray:none;stroke-opacity:1"
             d="m 136.46636,-30.379781 c -0.28451,0.282165 -0.32534,0.699217 -0.4853,1.01913 -0.0953,0.190527 0.0527,0.517258 0,0.727951 -0.16903,0.676122 -0.0549,1.20046 0.24265,1.795611 0.0409,0.08185 0.14336,0.117977 0.19412,0.194119 0.0284,0.04256 0.0178,0.104667 0.0485,0.14559 0.11903,0.158709 0.34391,0.246854 0.4853,0.38824 0.34281,0.342807 0.7922,0.685709 1.26178,0.87354 0.4277,0.171079 2.53016,0.168204 3.00886,0.04853 0.0157,-0.0039 -0.0114,-0.03709 0,-0.04853 0.0412,-0.04124 0.0971,-0.06471 0.14559,-0.09706 0.18118,-0.120788 0.45834,-0.299262 0.58236,-0.4853 0.0401,-0.06019 0.0459,-0.142965 0.0971,-0.19412 0.0591,-0.05911 0.10843,-0.02273 0.14559,-0.09706 0.0312,-0.06237 0.0879,-0.184936 0.14559,-0.24265 0.0256,-0.02558 0.077,-0.01843 0.0971,-0.04853 0.0503,-0.07543 0.06,-0.177054 0.14559,-0.29118 0.10932,-0.145764 0.25757,-0.608406 0.29118,-0.77648 0.0221,-0.110493 0.0368,-1.64342 0,-1.698551 -0.0622,-0.0933 -0.20056,-0.133705 -0.29118,-0.19412 -0.26487,-0.17658 -0.65355,-0.163388 -0.9706,-0.242649 -0.16747,-0.04187 -0.36635,0.04187 -0.53383,0 -0.50937,-0.127341 -1.04241,-0.212074 -1.55296,-0.339709 -0.0845,-0.02114 -0.15723,-0.07998 -0.24265,-0.09706 -0.11104,-0.0222 -0.23228,0.03581 -0.33971,0 -0.10526,-0.03509 -0.26587,-0.08483 -0.38824,-0.09706 -0.88137,-0.08814 -1.3055,0.147994 -2.08679,-0.24265 z"
             id="path1017" />
          <path
             style="fill:#000000;stroke:#000000;stroke-width:1.2;stroke-linecap:butt;stroke-linejoin:miter;stroke-miterlimit:4;stroke-dasharray:none;stroke-opacity:1"
             d="m 139.62081,-28.972409 c -0.24083,0.02 -0.48729,-0.02188 -0.72795,0 -0.092,0.0084 -0.33082,0.04408 -0.43677,0.09706 -0.33014,0.165068 -0.49477,1.194308 -0.33971,1.504428 0.28832,0.576639 1.47205,0.388329 1.65002,-0.145589 0.0546,-0.163825 0.18297,-0.70172 0.0971,-0.873541 -0.14213,-0.284268 -0.31115,-0.308356 -0.24265,-0.582358 z"
             id="path1019" />
          <path
             style="fill:#ffffff;stroke:#000000;stroke-width:0;stroke-linecap:butt;stroke-linejoin:miter;stroke-miterlimit:4;stroke-dasharray:none;stroke-opacity:1"
             d="m 138.69874,-29.74889 c -0.75858,-0.07588 -1.25109,0.671185 -0.82501,1.31031 0.10918,0.163761 0.33336,0.166682 0.4853,0.242649 0.0864,0.04318 0.3251,-0.185354 0.33971,-0.19412 0.31446,-0.188671 0.40763,-0.815361 0.29118,-1.164719 -0.0352,-0.105722 -0.0431,-0.01617 -0.0971,-0.04853 -0.0694,-0.04161 -0.12941,-0.09706 -0.19412,-0.14559 z"
             id="path1021" />
          <path
             style="fill:none;stroke:#000000;stroke-width:1.2;stroke-linecap:butt;stroke-linejoin:miter;stroke-miterlimit:4;stroke-dasharray:none;stroke-opacity:1"
             d="m 169.17735,-19.354163 c 0.43516,0.333976 0.86868,0.668232 1.37264,0.892213 0.0862,0.03831 0.20782,0.0019 0.27452,0.06863 2.60829,2.608291 6.60076,3.668775 10.29477,2.745271 0.0628,-0.01569 0.0759,-0.116801 0.13726,-0.137264 0.17441,-0.05814 0.3745,-0.08952 0.54906,-0.205895 0.10295,-0.06863 0.0686,-0.137263 0.20589,-0.205895 0.10948,-0.05474 0.29799,-0.08036 0.41179,-0.137264 0.0458,-0.02288 0.0229,-0.114386 0.0686,-0.137263 0.0409,-0.02046 0.0992,0.02538 0.13727,0 0.30645,-0.2043 0.52706,-0.804256 0.61769,-1.166741 0.10459,-0.418359 0.0236,0.181262 0.20589,-0.274527 0.038,-0.09496 0.007,-0.319854 0.0686,-0.411791 0.16132,-0.24198 0.21139,-0.491408 0.34316,-0.754949 0.38466,-0.769307 0.48042,-0.899218 0.48042,-1.784426"
             id="path1023" />
          <path
             style="fill:#333333;stroke:#000000;stroke-width:1.2;stroke-linecap:butt;stroke-linejoin:miter;stroke-miterlimit:4;stroke-dasharray:none;stroke-opacity:1"
             d="m 172.96092,-21.74144 c -0.28169,0.596531 -0.28335,1.192973 -0.28335,1.838223 0,0.309169 -0.0507,0.656675 0,0.960844 0.0261,0.156455 0.12289,0.150024 0.2059,0.274528 0.0589,0.08834 0.058,0.332558 0.13726,0.41179 0.14017,0.140172 0.32726,0.446947 0.48042,0.549055 1.12775,0.751828 2.65212,0.718412 3.84338,0.06863 0.1907,-0.104019 0.51509,-0.240562 0.68632,-0.41179 0.54198,-0.541981 0.82358,-1.467118 0.82358,-2.196218 0,-0.388537 0.003,-1.576326 0,-1.57853 -0.64846,-0.432309 -3.90263,-0.10919 -4.66696,0 -0.48328,0.06904 -0.73895,0.161923 -1.22655,0.08347 z"
             id="path1027" />
          <path
             style="fill:#000000;stroke:#000000;stroke-width:1.2;stroke-linecap:butt;stroke-linejoin:miter;stroke-miterlimit:4;stroke-dasharray:none;stroke-opacity:1"
             d="m 176.45232,-20.658167 c -0.47645,-0.06232 -1.02848,-0.148868 -1.5099,-0.06863 -0.39855,0.06642 -0.41462,1.15825 -0.34316,1.372636 0.0521,0.156179 0.3084,0.164539 0.41179,0.205895 0.54022,0.216089 0.90421,0.193897 1.30401,-0.205895 0.10357,-0.103581 0.27764,-0.143506 0.34315,-0.274527 0.0949,-0.189814 0.0686,-0.736603 0.0686,-0.960845"
             id="path1029" />
          <path
             style="fill:#ffffff;stroke:#000000;stroke-width:0;stroke-linecap:butt;stroke-linejoin:miter;stroke-miterlimit:4;stroke-dasharray:none;stroke-opacity:1"
             d="m 174.94242,-21.619012 c -0.60791,-0.02928 -1.16457,0.349676 -0.96085,0.960845 0.0145,0.04341 -0.0254,0.09919 0,0.137263 0.0735,0.110184 0.40959,0.409591 0.48043,0.480423 0.0626,0.06255 0.68547,0 0.75495,0 0.40306,0 0.48982,-0.882809 0.20589,-1.16674 -0.10931,-0.109307 -0.3189,-0.250271 -0.48042,-0.411791 z"
             id="path1031" />
          <path
             style="fill:none;stroke:#000000;stroke-width:1.2;stroke-linecap:butt;stroke-linejoin:miter;stroke-miterlimit:4;stroke-dasharray:none;stroke-opacity:1"
             d="m 55.906561,214.69672 c 1.634278,0 1.446318,-0.0451 3.300039,0.19412 1.77147,-0.90903 3.244223,0.54666 4.853001,0.77648 1.306526,0.18665 2.809512,-0.12263 4.07652,0.19412 0.918049,0.22952 1.777614,0.79968 2.717678,0.9706 1.334133,0.24257 2.738274,0.19706 4.07652,0.38824 0.844206,0.1206 1.972329,0.64227 2.911801,0.77648 2.320742,0.33154 4.480581,0.97324 6.794201,1.35884 1.903253,0.31721 4.121888,-0.0826 6.01772,-0.19412 3.178095,-0.18695 6.466025,-0.59737 9.511879,-1.35884 0.37665,-0.0942 0.78176,0.0638 1.16472,0 2.38188,-0.39698 4.80625,-1.33079 6.7942,-2.52356 0.6793,-0.40758 1.5914,-0.53046 2.32944,-0.77648 0.89538,-0.29846 2.18481,-1.31063 2.9118,-1.55296 0.18416,-0.0614 0.40212,0.0721 0.58236,0 1.36287,-0.54515 3.06632,-2.63977 4.46476,-3.10592 0.49162,-0.16387 1.05815,-0.0952 1.55296,-0.19412 5.05011,-1.01002 6.36543,1.72971 10.48248,3.49416 1.22817,0.52636 2.42971,1.24365 3.68828,1.74708 0.76958,0.30783 1.78824,0.48038 2.52356,0.9706 1.90829,1.2722 5.5745,2.55835 7.7648,3.10592 0.30086,0.0752 0.6897,0.0537 0.9706,0.19412 0.24555,0.12277 0.34696,0.44112 0.58236,0.58236 0.78188,0.46913 1.7435,0.50257 2.52356,0.9706 2.47482,1.48489 5.32166,2.46671 7.7648,3.68828 1.34009,0.67005 3.06977,1.12634 4.46476,1.35884 0.42979,0.0716 0.44327,0.47129 0.77648,0.58236 2.48162,0.82721 3.5738,1.31155 5.8236,2.71768 0.6077,0.37981 1.09686,0.70862 1.55296,1.16472 0.2614,0.2614 0.32503,1.26853 0.38824,1.55296 0.39552,1.77982 0.95046,3.70171 -0.77648,4.853 -0.38403,0.25602 -0.47573,0.80564 -0.9706,0.9706 -4.98152,1.66051 -16.01266,-1.30919 -20.77084,-3.68828 -0.5811,-0.29055 -0.88845,-0.16674 -1.55296,-0.38824 -3.00697,-1.00232 -6.18083,-1.45647 -9.12364,-2.71768 -0.41503,-0.17787 -1.38431,-0.51736 -1.74708,-0.77648 -0.29786,-0.21275 -0.46608,-0.58248 -0.77648,-0.77648 -0.62752,-0.3922 -1.16869,-0.19809 -1.74708,-0.77648 -0.37909,-0.37909 -1.68548,-2.13532 -2.13532,-2.13532"
             id="path1033" />
          <path
             style="fill:none;stroke:#000000;stroke-width:1.2;stroke-linecap:butt;stroke-linejoin:miter;stroke-miterlimit:4;stroke-dasharray:none;stroke-opacity:1"
             d="m 128.1192,241.29116 c 2.15245,0.0794 4.23774,1.11793 6.40596,1.35884 1.82999,0.20333 3.60901,0.21709 5.43536,0.58236 1.84234,0.36847 3.5406,1.27339 5.43536,1.74708 4.1459,1.03647 8.13655,1.01272 12.22956,0.19412 0.45215,-0.0904 1.17538,-0.3989 1.35884,-0.58236 0.18302,-0.18302 0.52268,0.0508 0.77648,0 0.65279,-0.13056 0.17089,-0.30804 0.58236,-0.58236 0.17025,-0.1135 0.43767,-0.0494 0.58236,-0.19412 0.12726,-0.12726 0.0969,-0.67922 0.19412,-0.77648 1.01967,-1.01967 -0.93648,-3.26592 -1.74708,-4.07652"
             id="path1035" />
          <path
             style="fill:none;stroke:#000000;stroke-width:1.2;stroke-linecap:butt;stroke-linejoin:miter;stroke-miterlimit:4;stroke-dasharray:none;stroke-opacity:1"
             d="m 119.77204,252.356 c 2.46246,0.44269 4.90359,1.15729 7.37656,1.55296 0.8968,0.14349 1.82184,0.0448 2.71768,0.19412 0.40367,0.0673 0.76105,0.32096 1.16472,0.38824 2.79957,0.4666 5.4117,1.06175 8.15304,1.74708 0.48509,0.12128 1.05293,-0.0556 1.55296,0 2.51875,0.27986 3.5796,-0.12501 6.21184,-0.38824 2.41221,-0.24122 4.9649,-1.0825 6.60008,-2.71768 0.31021,-0.31021 0.38824,-3.00554 0.38824,-3.68828"
             id="path1037" />
          <path
             style="fill:none;stroke:#000000;stroke-width:1.2;stroke-linecap:butt;stroke-linejoin:miter;stroke-miterlimit:4;stroke-dasharray:none;stroke-opacity:1"
             d="m 40.7652,248.4736 c 2.311051,0.41147 4.697392,0.66358 6.988321,1.16472 1.337408,-0.12821 2.307891,0.84838 3.494159,1.16472 2.594162,0.69178 5.499187,1.02711 8.15304,1.35884 1.385181,0.17315 2.688444,0.77231 4.07652,0.9706 1.878523,0.26836 3.767359,0.70458 5.629481,0.9706 0.448395,0.0641 0.915948,-0.0949 1.358839,0 1.107856,0.2374 2.510991,0.83979 3.688281,0.9706 2.353321,0.26148 -0.02421,-0.32891 2.329439,0.19412 3.235085,0.71891 6.440065,1.7531 9.706002,2.32944 1.191842,0.21033 2.51102,0.26129 3.688278,0.58236 0.690002,0.18818 0.992611,0.55234 1.552961,0.77648 0.651161,0.26047 1.64093,0.21611 2.32944,0.38824 0.338053,0.0845 0.647067,0.25883 0.9706,0.38824 0.388239,0 0.782743,-0.0694 1.16472,0 0.543935,0.0989 1.010843,0.47394 1.552961,0.58236 1.121471,0.2243 2.361702,0.1995 3.494158,0.38824 1.70592,0.28432 3.31282,1.18541 5.04712,1.35884 1.4404,0.14404 3.02446,0 4.46476,0 2.19219,0 4.41109,0.10945 6.60008,0 3.11525,-0.15576 6.22148,-0.52827 9.31776,-0.9706 0.91589,-0.13084 1.85223,-0.6683 2.71768,-0.77648 0.38524,-0.0481 0.77948,0.0482 1.16472,0 0.48847,-0.0611 1.2864,-0.68434 1.74708,-0.77648 0.2427,-0.0485 1.95272,-0.39976 2.13532,-0.58236 0.35508,-0.35507 0.90052,-1.16472 1.55296,-1.16472"
             id="path1041" />
          <path
             style="fill:none;stroke:#000000;stroke-width:1.2;stroke-linecap:butt;stroke-linejoin:miter;stroke-miterlimit:4;stroke-dasharray:none;stroke-opacity:1"
             d="m 135.884,215.66732 c 1.81179,0 3.62357,0 5.43536,0 2.28888,0 4.35172,-0.9706 6.60008,-0.9706 0.46009,0 1.71368,-0.0668 1.74708,0 0.0579,0.11575 -0.0481,0.26808 0,0.38824 0.25503,0.63758 1.02426,1.04476 1.16472,1.74708 0.0381,0.19035 -0.0868,0.40874 0,0.58236 0.0647,0.12941 0.28593,0.0918 0.38824,0.19412 0.10671,0.10671 0.11258,0.80752 0.19412,0.9706 0.51389,1.02778 1.01076,1.86756 1.35884,2.9118 0.0948,0.28437 0.68206,0.9706 0.9706,0.9706"
             id="path1043" />
          <path
             style="fill:none;stroke:#000000;stroke-width:1.2;stroke-linecap:butt;stroke-linejoin:miter;stroke-miterlimit:4;stroke-dasharray:none;stroke-opacity:1"
             d="m 280.69751,216.24968 c 2.34874,0.5818 4.51872,1.55296 6.98834,1.55296"
             id="path1045" />
          <path
             style="fill:none;stroke:#000000;stroke-width:1.2;stroke-linecap:butt;stroke-linejoin:miter;stroke-miterlimit:4;stroke-dasharray:none;stroke-opacity:1"
             d="m 260.50904,219.16148 c -2.83834,5.6809 -6.81223,10.84808 -9.31776,16.69432 -0.19718,0.46009 -0.19106,0.89875 -0.38824,1.35884 -0.49039,1.14425 -1.17065,2.46507 -1.35884,3.68828 -0.11042,0.71775 -0.49841,5.81611 0.19412,6.21184 1.04027,0.59444 2.31335,0.8394 3.49416,0.9706 0.15495,0.0172 2.18091,-0.0456 1.9412,0.19412 -4.31152,4.31153 -10.71005,1.1203 -15.5296,-0.19412 -0.89181,-0.24322 -1.6237,-0.0816 -2.52356,-0.19412 -1.11529,-0.13941 -2.63902,-0.52092 -3.68828,-0.9706 -0.824,-0.35314 -2.05824,-0.6994 -2.71768,-1.35884 -0.45336,-0.45336 -1.56814,-1.74708 -2.13532,-1.74708"
             id="path1047" />
          <path
             style="fill:none;stroke:#000000;stroke-width:1.2;stroke-linecap:butt;stroke-linejoin:miter;stroke-miterlimit:4;stroke-dasharray:none;stroke-opacity:1"
             d="m 279.14457,224.01448 c 2.05443,-0.58698 0.9375,-0.17757 3.30004,-1.35884 1.40409,-0.70204 2.63999,-1.65906 4.07651,-2.32944 2.38753,-1.11417 4.32737,-1.65666 6.79421,-2.32944 1.63105,-0.44483 3.21612,-1.25601 4.85299,-1.74708 1.27087,-0.38126 2.63686,-0.4651 3.88239,-0.77648 2.53812,-0.63453 6.04692,-1.07555 8.34718,0.38824 3.84273,2.44538 2.15638,5.54066 2.91179,9.31776 0.1279,0.63957 0.53928,1.15408 0.77648,1.74708 0.72337,1.80843 -0.24974,-0.6107 0.19412,1.16472 0.10126,0.40507 0.6277,0.79274 0.77647,1.16472 0.0721,0.18024 -0.0533,0.39571 0,0.58236 0.48229,1.68796 1.78819,3.22922 2.32945,4.853 0.52239,1.56719 0.38825,3.71241 0.38825,5.43536 0,0.51445 -0.16105,1.26393 0,1.74708 0.21587,0.64767 1.51932,5.89089 1.16472,6.60008 -0.57206,1.14412 -1.49595,2.23855 -1.7471,3.49416 -0.30342,1.5171 0.15203,8.43134 -0.19412,9.12364 -1.29701,2.59408 -7.01045,5.31332 -9.70598,6.21185 -1.09564,0.3652 -2.05456,1.13241 -3.10594,1.55294 -0.41915,0.16767 -1.46817,0.16587 -2.13532,0.38825 -0.90104,0.30036 -2.93386,-0.58235 -4.07651,-0.58235"
             id="path1049" />
          <path
             style="fill:none;stroke:#000000;stroke-width:1.2;stroke-linecap:butt;stroke-linejoin:miter;stroke-miterlimit:4;stroke-dasharray:none;stroke-opacity:1"
             d="m 283.80343,230.80868 c -2.40165,1.57896 -4.63857,3.4023 -6.98831,5.04712 -0.30908,0.21637 -0.70381,0.31557 -0.97059,0.58236 -0.4734,0.47338 -0.69136,1.07958 -1.16473,1.55296 -1.53032,1.53033 -3.1669,3.05969 -4.85301,4.46476 -0.66638,0.55532 -1.191,1.052 -1.74707,1.74708 -0.58063,0.72579 -1.56371,5.04174 -0.38825,5.62948 0.92755,0.46377 2.9927,-0.13404 3.88242,-0.38824 2.48131,-0.70895 4.21801,-2.37551 6.40596,-3.68828 1.65994,-0.99597 3.59592,-1.91042 5.43536,-2.52356 1.2065,-0.40216 2.62165,-0.9546 3.88239,-1.16472 0.42465,-0.0708 0.93969,0.10479 1.35884,0 1.12496,-0.28124 2.59083,-0.55905 3.68827,-0.9706 0.21847,-0.0819 0.36105,-0.31446 0.58237,-0.38824 0.89467,-0.29822 1.03664,-0.033 1.74707,-0.38824 1.77427,-0.88713 3.44509,-2.28035 4.85302,-3.68828"
             id="path1051" />
          <path
             style="fill:none;stroke:#000000;stroke-width:1.2;stroke-linecap:butt;stroke-linejoin:miter;stroke-miterlimit:4;stroke-dasharray:none;stroke-opacity:1"
             d="m 303.60368,246.5324 c -2.15135,2.00748 -4.99634,3.07857 -7.57068,4.46476 -0.19412,0.12941 -0.38825,0.25883 -0.58235,0.38824 0,0.0647 0.0457,0.14837 0,0.19412 -0.40806,0.40805 -1.87923,1.14406 -2.52357,1.35884 -1.00642,0.33547 -1.925,0.74181 -2.91179,1.16472 -0.87085,0.37322 -1.85838,0.40821 -2.71769,0.77648 -0.39897,0.17099 -0.74734,0.46312 -1.16473,0.58236 -0.90217,0.25777 -1.83517,0.44555 -2.71766,0.77648 -1.27738,0.47902 -2.54955,1.02563 -3.88242,1.35884 -3.55878,0.8897 -7.16423,1.45135 -10.6766,2.32944 -1.06397,0.266 -2.22239,0.17271 -3.30004,0.38824 -1.45634,0.29127 -7.74196,1.57579 -8.54127,0.77648 -3.89592,-3.89592 1.19186,-5.54599 4.07652,-6.98832 2.15472,-1.07736 3.2126,-1.79005 5.62947,-2.13532 1.34967,-0.19281 1.76665,-0.72305 3.10592,-0.38824"
             id="path1053" />
          <path
             style="fill:none;stroke:#000000;stroke-width:1.2;stroke-linecap:butt;stroke-linejoin:miter;stroke-miterlimit:4;stroke-dasharray:none;stroke-opacity:1"
             d="m 304.96253,257.40312 c -0.64707,0.19412 -1.31763,0.32253 -1.9412,0.58236 -4.37647,1.82352 -1.06484,0.8774 -4.65888,2.13532 -1.10829,0.52067 -2.34739,0.58834 -3.49417,0.9706 -1.22828,0.40943 -2.43785,1.497 -3.68827,1.74708 -0.38071,0.0761 -0.78404,-0.0761 -1.16472,0 -0.46305,-0.0239 -0.73909,0.49723 -1.16472,0.58236 -1.23682,0.24736 -2.66467,0.0838 -3.88242,0.38824 -1.51667,0.37917 -3.23868,0.65729 -4.85298,0.38824 -1.50974,-0.25162 -3.1894,-0.44993 -4.65889,-0.77648 -1.07233,-0.2383 -2.06074,-0.90342 -3.10592,-1.16472 -1.20838,-0.30209 -2.45475,-0.27397 -3.68827,-0.58236 -0.53348,-0.13337 -1.21605,-0.77648 -1.74709,-0.77648"
             id="path1055" />
          <path
             style="fill:none;stroke:#000000;stroke-width:1.2;stroke-linecap:butt;stroke-linejoin:miter;stroke-miterlimit:4;stroke-dasharray:none;stroke-opacity:1"
             d="m 283.41521,265.36205 c 0.88664,1.09871 1.88023,1.71659 3.10591,2.32942 1.80523,0.90263 7.53359,0.38825 9.90013,0.38825 0.77647,0 1.55295,0 2.32942,0 0.32356,0 0.64709,0 0.97062,0 0.0647,0 0.25551,-0.0204 0.1941,0 -0.64087,0.21362 -1.29413,0.38825 -1.94119,0.58237"
             id="path1057" />
          <path
             style="fill:none;stroke:#000000;stroke-width:1.2;stroke-linecap:butt;stroke-linejoin:miter;stroke-miterlimit:4;stroke-dasharray:none;stroke-opacity:1"
             d="m 135.884,215.66732 c 0.002,-0.32903 0.16139,-0.69656 0.007,-0.9871 -0.17603,-0.33111 -2.64063,-1.49019 -3.29432,-2.47074 -1.40891,-2.11336 -6.57752,-6.85761 -8.78487,-7.96129 -0.38328,-0.19164 -2.18949,-2.46401 -2.74527,-3.0198 -0.51125,-0.51124 -0.99112,-0.99111 -1.37264,-1.37263 -0.20455,-0.20456 -0.46285,-2.61973 -0.27453,-2.74527 1.31517,-0.87678 3.64473,0.86151 4.66696,1.37263 1.27007,0.63503 3.3568,1.16058 4.39244,2.19622 0.14469,0.14469 0.10427,0.43555 0.27453,0.54905 0.47712,0.31809 1.62469,0.44257 2.19621,0.82358 1.68299,1.122 3.3292,2.27902 4.94149,3.56886 0.89719,0.71774 1.94485,2.61958 2.74527,3.01979 0.1637,0.0818 0.38536,-0.0818 0.54906,0 0.18301,0.0915 0.12984,0.40437 0.27452,0.54906 0.41894,0.41893 1.5923,1.15308 1.92169,1.64716 0.25584,0.38376 1.01483,1.46826 1.37264,1.64716 0.30137,0.15069 1.41794,0.31984 1.64716,0.54906 0.63091,0.6309 -0.0712,0.54905 0.54906,0.54905"
             id="path1059" />
          <path
             style="fill:none;stroke:#000000;stroke-width:1.2;stroke-linecap:butt;stroke-linejoin:miter;stroke-miterlimit:4;stroke-dasharray:none;stroke-opacity:1"
             d="m 153.74304,222.46152 c 0.1804,-0.48906 0.0471,-1.30102 0.54121,-1.46717 1.17215,-0.39418 1.37557,1.23757 1.92169,1.64716 0.14642,0.10981 0.38536,-0.0819 0.54905,0 0.32505,0.16252 1.09027,1.36479 1.37264,1.64716 0.44473,0.44473 1.42206,0.59847 1.92169,1.09811"
             id="path1061" />
          <path
             style="fill:none;stroke:#000000;stroke-width:1.2;stroke-linecap:butt;stroke-linejoin:miter;stroke-miterlimit:4;stroke-dasharray:none;stroke-opacity:1"
             d="m 167.73608,236.36787 c 0.36604,0.18301 0.80873,0.25967 1.09811,0.54905 0.56778,0.56777 1.17751,1.76626 1.64716,2.47075 0.98135,1.47202 2.40858,2.40857 3.56886,3.56885 0.59385,0.59385 1.05211,1.71544 1.37263,2.19622 0.16746,0.25119 2.53662,2.40486 2.19622,2.74527 -0.46661,0.4666 -1.09811,-0.73208 -1.64716,-1.09811 -0.0282,-0.0188 -1.18368,-0.44567 -1.37264,-0.82358 -0.48214,-0.96429 -1.85318,-1.52715 -2.74527,-2.19622 -0.49596,-0.37197 -0.76799,-1.04252 -1.09811,-1.37264 -0.28938,-0.28937 -0.80873,-0.25967 -1.09811,-0.54905 -0.56498,-0.56499 -2.56849,-3.06867 -3.0198,-3.29433 -0.63222,-0.31611 -1.36069,-1.0981 -1.92169,-1.0981"
             id="path1063" />
          <path
             style="fill:none;stroke:#000000;stroke-width:1.2;stroke-linecap:butt;stroke-linejoin:miter;stroke-miterlimit:4;stroke-dasharray:none;stroke-opacity:1"
             d="m 153.93716,249.4442 c 12.67274,-0.48914 24.97265,5.62948 37.46516,5.62948 4.81625,0 9.58823,0.37843 14.36488,0.77648 7.1319,0.59432 14.58263,0 21.74144,0 3.66433,0 7.63716,0.45273 11.25896,0 2.7052,-0.33815 5.43908,-0.0867 8.15304,-0.38824 2.05754,-0.22861 8.79005,-0.90086 10.09424,-1.55296 1.44337,-0.72168 5.37589,0 6.98832,0 0.12941,0 -0.25962,-0.0143 -0.38824,0 -0.63163,0.0702 -4.53286,0.53035 -5.43536,0.77648 -2.07366,0.56554 -4.62329,1.15048 -6.60008,1.9412 -0.70063,0.28025 -1.22532,0.92609 -1.9412,1.16472 -1.25204,0.41735 -2.61341,0.41391 -3.8824,0.77648 -4.19083,1.19738 -8.19676,3.21391 -12.42368,4.27064 -4.37802,1.09451 -8.82784,1.6246 -13.20016,2.71767 -2.46366,0.61592 -4.91814,2.10309 -7.37656,2.71769 -0.8526,0.21315 -1.86507,-0.21314 -2.71768,0 -3.31289,0.82823 -6.63541,1.95887 -9.706,3.49417 -4.61225,2.30611 -9.67109,4.03072 -14.75312,5.04711 -2.35819,0.47165 -5.06458,-0.17806 -7.37656,-0.38825 -2.36669,-0.21513 -4.06524,0.34716 -6.21184,0.7765 -0.8883,0.17764 -1.81878,-0.11237 -2.71768,0 -5.19932,0.6499 -10.42267,1.98811 -15.5296,2.71767 -1.21538,0.17362 -2.29028,0.92395 -3.49416,1.16472 -2.66396,0.53279 -5.53521,0.8985 -8.15304,1.55297 -3.73001,0.9325 -12.54447,-2.81347 -17.08256,-3.49416 -5.45198,-0.8178 -11.18822,-1.22907 -16.69432,-1.55297 -2.26149,-0.13304 -4.43714,0.0443 -6.60008,-0.38823 -3.904648,-0.78094 -8.047756,-0.98329 -12.035439,-1.55297 -4.26288,-0.60899 -8.579258,-2.01223 -12.811922,-2.71767 -1.719415,-0.28657 -3.830126,-1.50341 -5.435359,-1.94122 -2.050603,-0.55925 -4.251441,-0.96099 -6.211839,-1.94119 -0.950564,-0.47527 -2.078467,-1.29609 -3.10592,-1.55295 -0.251101,-0.0628 -0.959499,0.18301 -0.776481,0 1.043159,-1.04317 8.352237,-1.48473 10.482479,-1.94122 3.158498,-0.6768 6.160122,-1.54002 9.317763,-2.32943 4.972909,-1.24323 8.967292,-1.1836 13.588399,-3.49416"
             id="path1065" />
        </g>
      </g>
      <text
         xml:space="preserve"
         style="font-size:14.1111px;line-height:1.25;font-family:sans-serif;letter-spacing:0px;word-spacing:0px;stroke-width:0.264583"
         x="113.46146"
         y="390.16852"
         id="text939"><tspan
           sodipodi:role="line"
           id="tspan937"
           x="113.46146"
           y="390.16852"
           style="font-style:italic;font-variant:normal;font-weight:normal;font-stretch:normal;font-size:14.1111px;font-family:sans-serif;-inkscape-font-specification:'sans-serif Italic';stroke-width:0.264583">I G Patel 1977 - 82</tspan></text>
    </g>
  </g>
</svg>
