<?xml version="1.0" encoding="UTF-8" standalone="no"?>
<svg
   xmlns:dc="http://purl.org/dc/elements/1.1/"
   xmlns:cc="http://creativecommons.org/ns#"
   xmlns:rdf="http://www.w3.org/1999/02/22-rdf-syntax-ns#"
   xmlns:svg="http://www.w3.org/2000/svg"
   xmlns="http://www.w3.org/2000/svg"
   xmlns:sodipodi="http://sodipodi.sourceforge.net/DTD/sodipodi-0.dtd"
   xmlns:inkscape="http://www.inkscape.org/namespaces/inkscape"
   width="400mm"
   height="400mm"
   viewBox="0 0 400 400"
   version="1.1"
   id="svg8"
   inkscape:version="1.0.2 (e86c870879, 2021-01-15, custom)"
   sodipodi:docname="iyengar.svg">
  <defs
     id="defs2" />
  <sodipodi:namedview
     id="base"
     pagecolor="#ffffff"
     bordercolor="#666666"
     borderopacity="1.0"
     inkscape:pageopacity="0.0"
     inkscape:pageshadow="2"
     inkscape:zoom="0.23706733"
     inkscape:cx="845.73955"
     inkscape:cy="1594.0633"
     inkscape:document-units="mm"
     inkscape:current-layer="layer1"
     inkscape:document-rotation="0"
     showgrid="false"
     inkscape:window-width="992"
     inkscape:window-height="1001"
     inkscape:window-x="938"
     inkscape:window-y="0"
     inkscape:window-maximized="0" />
  <metadata
     id="metadata5">
    <rdf:RDF>
      <cc:Work
         rdf:about="">
        <dc:format>image/svg+xml</dc:format>
        <dc:type
           rdf:resource="http://purl.org/dc/dcmitype/StillImage" />
        <dc:title />
      </cc:Work>
    </rdf:RDF>
  </metadata>
  <g
     inkscape:label="Layer 1"
     inkscape:groupmode="layer"
     id="layer1">
    <g
       id="g972">
      <g
         id="g1401">
        <g
           id="g1332">
          <path
             style="fill:none;stroke:#000000;stroke-width:1.65331px;stroke-linecap:butt;stroke-linejoin:miter;stroke-opacity:1"
             d="m 225.47711,42.798604 c -1.33633,1.04844 -1.88395,1.696908 -3.67466,2.102166 -1.71855,0.388923 -3.73735,0.126239 -5.51202,0.30031 -5.47259,0.536692 -8.52983,0.846857 -14.08627,-0.30031 -2.86412,-0.591333 -5.90938,-2.102166 -8.88051,-2.102166"
             id="path863" />
          <path
             style="fill:none;stroke:#000000;stroke-width:1.65591;stroke-linecap:butt;stroke-linejoin:miter;stroke-miterlimit:4;stroke-dasharray:none;stroke-opacity:1"
             d="m 193.32365,42.798604 c -0.20443,0.800818 -0.0738,1.768326 -0.61268,2.402476 -0.58432,0.687812 -1.5592,1.004016 -2.4498,1.201225 -3.47162,0.768775 -20.82136,1.839601 -26.02898,1.201231 -0.88858,-0.108893 -7.23951,-0.804639 -8.26804,-0.300309 -1.20407,0.590405 -2.28296,1.498558 -3.67469,1.801842 -1.31733,0.287126 -2.70382,0.431247 -3.9809,0.900922 -1.81791,0.668543 -3.56735,1.801861 -5.51202,1.801861 -2.92866,0 -5.58213,0.47308 -7.96181,-1.501558 -0.64488,-0.535146 -2.75602,-1.64592 -2.75602,-3.003067"
             id="path865" />
          <path
             style="fill:none;stroke:#000000;stroke-width:1.65331px;stroke-linecap:butt;stroke-linejoin:miter;stroke-opacity:1"
             d="m 231.90784,46.702612 c 3.19938,4.375002 5.99433,9.054336 8.26802,13.513854 0.5395,1.058573 1.59829,1.867758 2.44978,2.702767 0.6541,0.641444 1.25088,2.643853 1.53111,3.303393 1.00653,2.368905 1.21291,5.05831 1.83736,7.507692 0.68643,2.692747 2.47078,7.54891 3.67466,9.910162 0.96083,1.884517 -0.35839,-0.179451 0.30604,2.102152 0.31614,1.086011 1.28438,3.119726 1.83732,4.204311 0.43225,0.847956 0.23402,2.014347 0.61271,3.00308 0.32056,0.838362 0.81659,1.601664 1.2249,2.402465"
             id="path867" />
          <path
             style="fill:none;stroke:#000000;stroke-width:1.65331px;stroke-linecap:butt;stroke-linejoin:miter;stroke-opacity:1"
             d="m 233.43893,32.588146 c -2.03087,-4.350479 -5.24499,-5.81236 -10.10537,-6.606775 -1.17115,-0.191388 -2.50582,0.22928 -3.6747,0 -2.78242,-0.545726 -4.95798,-1.110118 -7.65556,-2.102168 -1.44802,-0.532546 -3.21256,-0.449563 -4.59335,-0.900924 -1.94904,-0.637124 -6.28885,-4.47536 -7.9618,-5.705848 -3.44766,-2.535762 -8.54726,-4.801147 -12.86141,-5.405543 -1.3343,-0.186955 -3.604,-0.211748 -4.89956,0 -0.4903,0.08019 -1.10136,0.830683 -1.53113,0.900917 -4.80524,0.785417 -9.90888,0.562064 -14.69872,1.501552 -0.83589,0.163932 -1.35306,0.70712 -2.14357,0.900924 -1.58987,0.389789 -3.30617,0.810578 -4.89957,1.201225 -3.26163,0.799664 -6.50881,1.340891 -9.79915,1.801849 -0.22591,0.03157 -0.40826,0.200183 -0.61271,0.300307 -0.40825,0.100049 -0.8066,0.254761 -1.22489,0.300309 -2.84832,0.310394 -7.8134,0.573325 -10.4116,2.102167 -1.39229,0.819241 -3.4891,1.619891 -4.59335,2.702766 -0.97817,0.959307 -1.70514,2.272816 -2.75601,3.303392 -0.86914,0.852348 -1.82276,1.617999 -2.75601,2.402456 -0.59629,0.501483 -1.58134,0.649917 -2.14356,1.201232 -1.68975,1.657092 -3.74119,3.66895 -5.51203,5.405543 -0.85418,0.837693 -1.00448,2.270546 -1.53111,3.303393 -0.96814,1.89887 -1.99736,3.83908 -3.06224,5.40555 -0.47135,0.693003 -1.36623,1.108817 -1.83734,1.801841 -1.04537,1.537734 -1.82453,2.690191 -3.36846,4.204299 -0.74218,0.727847 -3.17341,2.019926 -3.67468,3.00309 -1.30724,2.564021 -5.04912,9.588869 -5.51202,12.312623 -0.387434,2.278258 -0.306035,4.579695 -0.306035,6.907082"
             id="path869" />
          <path
             style="fill:none;stroke:#000000;stroke-width:1.65331px;stroke-linecap:butt;stroke-linejoin:miter;stroke-opacity:1"
             d="m 126.87317,56.913067 c -0.90624,2.426352 -9.1867,6.843148 -9.1867,8.408635"
             id="path871" />
          <path
             style="fill:none;stroke:#000000;stroke-width:1.65331px;stroke-linecap:butt;stroke-linejoin:miter;stroke-opacity:1"
             d="m 117.68647,65.321689 c 0.30603,0.800831 0.85178,1.549721 0.91867,2.402468 0.12809,1.631912 -4.07606,5.498855 -5.2058,6.606776"
             id="path873" />
          <path
             style="fill:none;stroke:#000000;stroke-width:1.65331px;stroke-linecap:butt;stroke-linejoin:miter;stroke-opacity:1"
             d="m 112.48067,80.6374 c -0.83608,3.539027 -2.44979,7.177378 -2.44979,10.811084"
             id="path875" />
          <path
             style="fill:none;stroke:#000000;stroke-width:1.65331px;stroke-linecap:butt;stroke-linejoin:miter;stroke-opacity:1"
             d="m 110.03088,91.448484 c 2.90512,5.812532 1.83734,9.597786 1.83734,15.616016 0,4.73661 0.30603,9.37272 0.30603,14.11447 0,0.8008 0,1.60166 0,2.40246 0,0.19987 0.20445,0.60086 0,0.60086 -0.38617,0 -0.85677,-3.77937 -0.91866,-4.20431 -0.40069,-2.7511 -0.35715,-5.6548 -0.91868,-8.40862 -0.39058,-1.91552 -1.25789,-2.61044 -1.83734,-4.50462 -0.26185,-0.85668 -0.20822,-1.60977 -0.6127,-2.40246 -0.24482,-0.48081 -2.58374,-5.536917 -2.75601,-5.705851 -1.19744,-1.174312 -2.15246,-3.629994 -2.75601,-5.405542 -0.57105,-1.679632 -2.26251,-3.469723 -2.756008,-5.405543 -0.119263,-0.467201 0.09655,-1.029141 0,-1.501539 -0.333169,-1.632915 -1.010735,-3.124922 -1.224896,-4.804926 -0.123048,-0.964724 -0.09466,-1.87363 -0.306033,-2.702771 -0.228417,-0.896653 -0.73669,-6.60677 -0.612701,-6.60677 0.620903,0 1.224832,0.200182 1.837279,0.300308"
             id="path877" />
          <path
             style="fill:none;stroke:#000000;stroke-width:1.65331px;stroke-linecap:butt;stroke-linejoin:miter;stroke-opacity:1"
             d="m 238.64474,36.19183 c 0.82787,0.77973 4.88088,0.136384 5.51201,0.600616 1.36733,1.005656 2.81085,1.668635 4.28714,2.702777 3.09801,2.170112 5.39453,5.513752 7.34936,8.708922 1.10311,1.803023 4.9231,1.524639 5.51202,2.102149 1.68584,1.653266 4.05712,3.827928 4.89958,6.306472 1.47149,4.329087 1.4997,9.85635 0.91868,14.414786 -0.19892,1.557399 -0.37546,10.307246 0,11.411694 0.35207,1.035763 0.68349,3.094353 0.30601,4.20431 -0.47009,1.383349 -0.79254,2.93235 -1.22488,4.204313 -0.48084,1.413978 -0.11168,3.330552 -0.61271,4.804926 -1.77252,5.214945 -2.14355,10.312265 -2.14355,15.916315"
             id="path879" />
          <path
             style="fill:none;stroke:#000000;stroke-width:1.65331px;stroke-linecap:butt;stroke-linejoin:miter;stroke-opacity:1"
             d="m 216.59663,37.693362 c -1.5311,-0.400429 -3.054,-0.832217 -4.59333,-1.201225 -3.05455,-0.732236 -6.0983,-1.522184 -9.18672,-2.102151 -2.62386,-0.492756 -5.46033,0.01923 -7.9618,-0.900923 -1.84377,-0.678053 -6.30967,-5.705848 -7.34936,-5.705848"
             id="path881" />
          <path
             style="fill:none;stroke:#000000;stroke-width:1.65331px;stroke-linecap:butt;stroke-linejoin:miter;stroke-opacity:1"
             d="m 187.50542,27.783215 c -0.71455,1.901945 -0.41268,4.5986 -2.14356,5.705848 -1.4101,0.901859 -3.24744,-0.884233 -4.89958,-1.201225 -8.16026,-1.565736 -10.68559,-1.26657 -17.76096,-4.504623"
             id="path883" />
          <path
             style="fill:none;stroke:#000000;stroke-width:1.65331px;stroke-linecap:butt;stroke-linejoin:miter;stroke-opacity:1"
             d="m 109.99927,129.76766 c -1.9313,0.0371 -8.85007,-0.86305 -10.610115,0 -0.679519,0.33292 -1.671828,3.43204 -1.948835,4.24701 -0.236002,0.6935 -0.674286,1.46491 -0.866109,2.12344 -0.892548,3.06354 -0.105378,7.54736 0.866109,10.40515 0.274482,0.80662 0.303508,1.75686 0.649613,2.54819 1.709688,3.9123 4.293817,7.48425 6.712497,11.04221 0.38238,0.56188 1.45956,2.3042 1.73228,2.97288 0.0505,0.13118 0,0.28342 0,0.42451 0.1445,0.28341 0.27322,0.57425 0.43286,0.84943 0.37292,0.64022 0.98095,1.28694 1.29923,1.91113 0.0965,0.18998 -0.11989,0.4604 0,0.63707 1.17946,1.73501 2.28901,4.09509 2.81488,6.15813 0.0189,0.0687 0,0.14171 0,0.21226 0.0719,0.35396 0.0871,0.72382 0.21643,1.06175 0.0915,0.23887 0.36157,0.39171 0.43287,0.63707 0.0795,0.27229 -0.0701,0.57487 0,0.84944 0.002,0.006 1.15359,2.22684 1.29922,2.54819 0.41583,0.91768 0.61965,1.85259 1.08267,2.7605 0.22907,0.44926 0.28521,1.40389 0.43286,1.9112 0.36283,1.24541 0.0189,0.0309 0.64962,1.27407 0.79077,1.55109 1.01742,3.30672 1.73221,4.88406 0.96285,2.12443 2.34549,6.00468 4.76373,6.79521 0.71864,0.23513 1.63131,-0.21226 2.38189,-0.21226"
             id="path885" />
          <path
             style="fill:none;stroke:#000000;stroke-width:1.65331px;stroke-linecap:butt;stroke-linejoin:miter;stroke-opacity:1"
             d="m 257.89105,117.23901 c 1.4968,-2.45252 4.00502,-4.08729 6.496,-5.30876 0.44296,-0.21721 -0.006,-0.29208 0.43287,-0.637 0.69769,-0.54765 1.58931,-0.75086 2.38185,-1.06175 0.47197,0.0792 0.0721,-0.35396 0.21647,-0.42451 0.39246,-0.19246 0.8756,-0.099 1.29913,-0.21225 2.2431,-0.60025 3.10548,-0.84944 5.41334,-0.84944 0.36218,0 3.42323,-0.0495 3.46456,0 2.24074,2.63699 4.89137,5.08537 5.62983,8.70639 0.36914,1.81057 0.19676,3.66595 0.43287,5.52107 0.36599,2.87084 0.92384,5.39404 0.43286,8.28164 -0.19243,1.13168 -0.7962,2.41101 -1.29916,3.39758 -0.65389,1.28254 0.0315,0.0897 -0.21646,1.06175 -0.27069,1.06231 -0.85013,2.15778 -1.29917,3.18525 -1.33593,3.05692 -2.64923,5.3954 -3.248,8.91871 -0.60132,3.53835 -1.21686,7.07948 -1.73226,10.61746 -0.16469,1.12976 -0.32245,3.92059 -0.64962,4.88407 -0.63612,1.87153 -0.80118,3.86489 -1.51572,5.73345 -0.46758,1.22295 -1.03335,2.51874 -1.29917,3.82226 -0.43602,2.13724 -0.79267,5.37695 -1.73226,7.21994 -0.86611,1.6987 -3.6568,2.56009 -5.41336,1.69876 -0.81814,-0.40099 -2.20489,-2.32975 -2.59837,-2.97288 -0.58432,-0.95463 -0.22161,-0.005 -0.86612,-0.63706 -0.38176,-0.37438 -0.86617,-1.80606 -0.86617,-2.33582"
             id="path887" />
          <path
             style="fill:none;stroke:#000000;stroke-width:1.65331px;stroke-linecap:butt;stroke-linejoin:miter;stroke-opacity:1"
             d="m 118.8771,173.72406 c 0.38301,4.9618 1.26597,9.82291 3.03144,14.43979 0.48271,1.26311 0.70211,2.57802 1.29916,3.82231 0.75966,1.58304 1.49711,3.1532 2.38189,4.67163 0.25808,0.44308 0.67283,0.80019 0.86611,1.27413 0.10727,0.263 -0.0915,0.58106 0,0.84938 0.45495,1.33798 1.52064,2.77498 1.94884,4.0347 0.47893,1.40964 1.1334,3.77504 1.73222,5.09638 0.14639,0.32364 0.48839,0.53279 0.64961,0.84938 0.67637,1.32654 1.22066,2.53699 1.94877,3.82231 0.18866,0.33292 0.18993,0.76406 0.43287,1.06177 0.0902,0.11012 0.33064,-0.10031 0.43286,0 0.44928,0.44058 0.74225,1.37702 1.08267,1.91113 0.52121,0.81749 1.31563,1.3474 1.94878,2.1235 0.26312,0.3224 0.37986,0.74467 0.64961,1.06175 0.73063,0.85977 1.6122,1.58106 2.38183,2.33582 4.55789,-1.28502 0.64362,1.05586 1.08266,1.48644 2.4467,2.39949 5.6759,5.39569 8.44478,7.43227 0.44296,0.32549 1.08645,0.42635 1.51572,0.63706 0.94921,0.46534 1.7938,1.23656 2.81495,1.69876 2.11693,0.95821 4.36645,1.60839 6.496,2.54819 2.96278,1.30753 5.97839,2.61292 8.87782,4.03468 1.40859,0.69073 2.91176,1.72252 4.54717,2.12345 6.43701,1.57821 11.08103,1.91118 17.75573,1.91118 2.55667,0 4.64521,-0.86546 7.14554,-1.27412 1.14175,-0.18686 2.59202,-0.13369 3.68104,-0.4245 1.50513,-0.40223 1.28813,-0.60211 2.38185,-1.06175 0.38554,-0.16216 1.38176,-0.19556 1.73228,-0.4245 0.14432,-0.14161 0.28899,-0.28342 0.43287,-0.4245 0,-0.0705 -0.0504,-0.16216 0,-0.21226 0.7527,-0.73811 2.09567,-1.27054 3.03149,-1.69876 2.21563,-1.01404 3.70586,-1.31472 4.98022,-3.39762 0.20512,-0.33479 0.64962,-0.4047 0.64962,-0.84938"
             id="path889" />
          <path
             style="fill:none;stroke:#000000;stroke-width:1.65331px;stroke-linecap:butt;stroke-linejoin:miter;stroke-opacity:1"
             d="m 258.97373,179.8822 c 0.15771,6.58029 -1.96252,12.41689 -7.57867,16.35091 -0.33632,0.23513 -0.32434,0.53031 -0.64963,0.84937 -1.57521,1.54486 -3.14615,3.29782 -4.76364,4.88409 -1.17581,1.15308 -2.71228,2.02281 -3.8976,3.18525 -0.7955,0.78012 -4.01758,4.884 -4.54719,4.884"
             id="path891" />
          <path
             style="fill:none;stroke:#000000;stroke-width:1.65331px;stroke-linecap:butt;stroke-linejoin:miter;stroke-opacity:1"
             d="m 256.15879,191.98616 c 0.67982,3.29546 0.86615,6.7829 0.86615,10.19278"
             id="path893" />
          <path
             style="fill:none;stroke:#000000;stroke-width:1.65331px;stroke-linecap:butt;stroke-linejoin:miter;stroke-opacity:1"
             d="m 145.72715,229.57206 c 0.50416,2.83642 -1.04506,7.0567 0.8661,9.5557 1.09327,1.42957 3.85648,2.08322 4.54717,2.76056 1.14204,1.12 2.6777,2.41362 3.89761,3.60996 0.91715,0.89944 1.69871,2.09058 2.59839,2.97288 1.70325,1.67041 -0.47451,-1.02549 1.29922,1.06175 0.26945,0.31683 0.35211,0.76992 0.64955,1.06175 2.1782,2.13613 4.74536,4.01662 6.92905,6.15813 0.94001,0.92184 1.939,2.11392 2.81496,2.97288 1.36403,1.33774 3.76693,2.80866 5.19677,3.60996 0.98764,0.55321 2.40587,1.28351 3.46455,1.69881 0.67454,0.2647 1.486,0.30382 2.16528,0.63706 0.53193,0.26044 3.07763,0.46968 3.248,0.63706 0.71731,0.70348 5.71917,1.26159 7.14562,1.06177 1.85607,-0.25989 3.34832,-1.32335 4.98023,-2.12352 0.9603,-0.47092 2.0636,-0.53279 3.03148,-0.84945 0.35653,-0.11615 0.13017,-0.45109 0.43287,-0.63704 1.81727,-1.11387 1.09226,-0.21718 2.81489,-1.0617 1.46474,-0.71825 2.72024,-1.91936 4.11411,-2.76058 1.16929,-0.70562 2.49041,-1.26241 3.68109,-1.91113 0.90337,-0.49194 1.90499,-0.79362 2.81491,-1.27412 0.97007,-0.51237 1.82953,-1.21558 2.81494,-1.69881 4.20726,-2.06299 9.06291,-2.72962 12.55888,-6.15813 0.11413,-0.11201 0.14431,-0.2828 0.21645,-0.42452 0.21646,-0.28278 0.39439,-0.59899 0.64957,-0.84936 2.46121,-2.41367 4.97441,-4.87833 7.36217,-7.2199 1.24734,-1.22333 2.87274,-4.70957 4.11409,-5.52113 0.11979,-0.0786 0.32056,0.0884 0.43287,0 0.5635,-0.44182 0.82389,-1.16609 1.29917,-1.69875 2.23821,-2.50859 4.84753,-5.37177 6.49599,-8.28165 1.01454,-1.79089 1.3908,-4.04675 2.16534,-5.94582 0.40257,-0.98662 1.1748,-1.98879 1.73226,-2.97289 0.41018,-0.72444 1.92835,-4.5915 2.16529,-5.52107 0.40636,-1.59492 0.7705,-2.90389 1.29922,-4.45938 0.0821,-0.24195 0.36977,-0.38924 0.43287,-0.63706 0.2934,-1.15043 0.33381,-2.14109 0.86619,-3.18519"
             id="path895" />
          <path
             style="fill:none;stroke:#000000;stroke-width:1.65331px;stroke-linecap:butt;stroke-linejoin:miter;stroke-opacity:1"
             d="m 145.72715,240.18951 c 0.15018,9.27322 0.21643,18.54106 0.21643,27.81781 0,4.64026 -0.31487,9.38511 0,14.01509 0.12115,1.78502 0.51048,3.53043 0.64961,5.30875 0.2221,2.8318 0.89564,5.54523 1.51572,8.28167 0.11041,0.48884 0.07,1.00705 0.21643,1.48642 0.35462,1.15958 1.18622,2.21286 1.51573,3.39755 0.0757,0.27347 -0.0915,0.58108 0,0.84946 0.0644,0.19002 0.31991,0.25819 0.43286,0.42451 0.44738,0.65847 0.70508,1.42405 1.08267,2.12349 0.28836,0.56622 0.57736,1.13255 0.8661,1.69881 0.21644,0.21237 0.50102,0.37438 0.64962,0.6371 0.94801,1.67341 1.57263,3.78579 2.81494,5.30869 0.57674,0.70668 1.21708,1.36565 1.73221,2.12351 0.26252,0.38611 0.22338,0.64379 0.43287,0.84935 0.1445,0.14161 0.63636,-0.6587 1.29917,-1.69875 0.5376,-0.84333 0.54707,-1.38997 1.08266,-2.33588 0.46252,-0.81583 1.20445,-1.55939 1.73228,-2.33581 0.92384,-1.35896 1.22054,-3.03099 1.94877,-4.4594 0.79172,-1.55275 1.95693,-2.9447 2.81495,-4.45931 0.99611,-1.75827 2.05043,-3.54497 3.03145,-5.30876 0.18619,-0.33476 0.2177,-0.74454 0.43287,-1.06175 0.36912,-0.54269 0.90567,-0.96015 1.29922,-1.48644 0.40257,-0.53837 0.6573,-1.17735 1.08266,-1.69883 0.1628,-0.19936 0.4783,-0.23273 0.64962,-0.42448 1.7264,-1.93489 0.21076,-0.57118 1.29915,-2.12352 1.1548,-1.64726 2.55069,-3.22121 3.68106,-4.88401 0.94663,-1.3925 1.21032,-3.01093 1.94877,-4.45937 1.1329,-2.22189 2.42967,-4.08694 3.46457,-6.37047 0.52372,-1.15593 0.86996,-3.189 1.73228,-4.03461 0.60827,-0.59654 2.4289,-0.21237 3.24794,-0.21237"
             id="path897" />
          <path
             style="fill:none;stroke:#000000;stroke-width:1.65331px;stroke-linecap:butt;stroke-linejoin:miter;stroke-opacity:1"
             d="m 193.58085,268.00732 c 4.33875,5.26314 9.43862,9.96321 13.425,15.50151 0.86388,1.20025 1.83526,2.575 2.59843,3.82233 0.36599,0.59779 0.50797,1.30899 0.86611,1.91115 0.6714,1.12869 1.71936,2.10238 2.38185,3.18523 0.15337,0.24999 0.0689,0.59592 0.21647,0.84946 1.87103,3.21106 3.54355,6.48673 5.62983,9.55571 0.47829,0.70378 1.80529,4.46174 2.16532,5.52107 0.0243,0.0673 -0.0721,0.21237 0,0.21237 0.0243,0 1.46308,-6.1639 1.73228,-7.21989 0.29784,-1.16925 0.47452,-2.30431 1.08266,-3.39765 0.63278,-1.13766 1.66988,-2.18282 2.16532,-3.39755 0.78877,-1.93385 1.10722,-4.02011 1.94879,-5.94583 0.66408,-1.51949 1.02979,-1.72378 1.94878,-3.39757 0.1079,-0.19738 0.14431,-0.42452 0.21645,-0.63708 0.43287,-0.84938 0.80099,-1.73383 1.29917,-2.54819 0.37165,-0.60706 0.92789,-1.09182 1.29923,-1.69873 1.80066,-2.94313 -0.7777,0.0494 1.73228,-3.39765 0.92718,-1.27301 2.30054,-2.3324 3.248,-3.60994 1.39104,-1.87573 2.13477,-3.90778 3.4645,-5.73346 1.14001,-1.5652 2.33829,-4.55782 3.03144,-6.37044 0.82674,-2.16212 2.27905,-4.15678 3.0315,-6.37051 0.75561,-2.22326 1.86641,-4.42951 2.5984,-6.58284 0.32685,-0.96149 0.34577,-2.00425 0.64953,-2.97293 0.30921,-0.98614 0.82782,-1.97307 1.08268,-2.97288 0.50919,-1.99864 0.41645,-4.19905 1.08266,-6.15815 0.55969,-1.64671 0.92095,-3.2147 1.29922,-4.88406 0.25749,-1.13731 0.95363,-2.381 1.29917,-3.39757 0.21591,-0.6354 0.217,-1.48812 0.43287,-2.1235 1.13739,-3.34615 1.93847,-6.71426 2.38189,-10.19278 0.28962,-2.27078 1.18494,-4.52467 1.51571,-6.79519 0.19299,-1.32562 0.44674,-2.58781 0.86617,-3.82233 0.11413,-0.33601 -0.0877,-0.71837 0,-1.06175 0.20944,-0.82253 1.0291,-2.70575 0.64957,-3.82226 -0.46192,-1.35965 -2.19745,-2.36731 -3.24802,-3.39763"
             id="path899" />
          <path
             style="fill:none;stroke:#000000;stroke-width:1.65331px;stroke-linecap:butt;stroke-linejoin:miter;stroke-opacity:1"
             d="m 176.04169,286.26943 c 0.25809,3.07757 1.98158,5.76469 3.03151,8.7063 0.11809,0.3317 0.5679,2.72061 1.0826,2.97288 0.93886,0.4604 7.2975,-0.24686 9.31094,0 1.91016,0.23444 3.67627,0.63708 5.62985,0.63708 0.10224,0 0.14431,0.28342 0.21645,0.21238 0.5496,-0.53898 0.54457,-1.42946 0.8661,-2.12351 1.17581,-2.53687 2.70024,-5.04633 4.54716,-7.21988 0.8972,-1.05588 4.54725,-5.37784 4.54725,-6.15815"
             id="path901" />
          <path
             style="fill:none;stroke:#000000;stroke-width:1.65331px;stroke-linecap:butt;stroke-linejoin:miter;stroke-opacity:1"
             d="m 178.42358,298.79807 c -1.79456,5.42863 -5.36227,10.99209 -9.52743,15.07684 -2.28902,2.24478 0.62909,-1.16039 -1.73229,1.48644 -0.90593,1.01534 -1.51401,2.12133 -2.38182,3.18525 -0.38239,0.46905 -0.93705,0.78974 -1.29923,1.27408 -0.43919,0.58785 -0.67043,1.30482 -1.08268,1.91111 -1.37065,2.01633 -3.01749,3.88533 -4.33066,5.94584 -4.51391,7.08276 -8.01172,14.95005 -8.01172,23.35849"
             id="path903" />
          <path
             style="fill:none;stroke:#000000;stroke-width:1.65331px;stroke-linecap:butt;stroke-linejoin:miter;stroke-opacity:1"
             d="m 195.9627,298.79807 c -0.14148,4.65362 0.15658,9.31986 1.29923,13.80273 0.37731,1.47975 1.01316,2.96351 1.2992,4.45938 0.33761,1.7655 0.66276,3.72632 0.86612,5.52107 0.11092,0.9795 -0.10036,1.99213 0,2.97288 0.45116,4.42336 0.86611,8.70305 0.86611,13.16571 0,1.3756 0.15469,2.8855 0,4.24693 -0.2991,2.63769 -3.24802,6.63699 -3.24802,8.49404"
             id="path905" />
          <path
             style="fill:none;stroke:#000000;stroke-width:1.65331px;stroke-linecap:butt;stroke-linejoin:miter;stroke-opacity:1"
             d="m 141.61304,231.0585 c -0.14451,0.49566 -0.18993,1.02956 -0.43287,1.48644 -3.10243,5.83153 -7.93682,10.8401 -12.12583,15.92622 -3.57504,4.34081 -7.31163,8.53262 -11.04316,12.74102 -1.87489,2.11447 -3.50697,4.50556 -5.41334,6.58282 -2.85968,3.11609 -5.98609,6.03742 -8.87782,9.13103 -3.57152,3.82099 -6.921235,7.7578 -11.04317,11.0422 -0.425925,0.33974 -1.290393,1.27408 -1.732218,1.27408"
             id="path907" />
          <path
             style="fill:none;stroke:#000000;stroke-width:1.65331px;stroke-linecap:butt;stroke-linejoin:miter;stroke-opacity:1"
             d="m 68.858053,259.51337 c 2.000771,-0.8721 5.68233,-2.49462 7.14555,-2.9729 4.282018,-1.39979 8.620824,-1.80796 12.99194,-2.76056 4.614995,-1.00575 9.221408,-2.04014 13.858107,-2.97288 3.46482,-0.69702 6.75181,-1.49609 10.17706,-2.33587 0.7141,-0.17517 1.46701,-0.19618 2.16533,-0.4245 1.81311,-0.59283 3.5871,-1.50594 5.41327,-2.12352 3.00595,-1.01652 6.21938,-2.14602 9.31095,-2.97288 1.91275,-0.51175 3.40765,-0.59714 4.98022,-1.69881 2.52658,-1.76986 5.65191,-2.81732 8.44477,-4.03463 0.29531,-0.12879 0.7218,-0.70787 0.86618,-0.4245 0.56348,1.10563 1.01048,2.26501 1.51572,3.39757"
             id="path909" />
          <path
             style="fill:none;stroke:#000000;stroke-width:1.65331px;stroke-linecap:butt;stroke-linejoin:miter;stroke-opacity:1"
             d="m 261.78867,200.05544 c 0.36094,0.77857 0.6591,1.58816 1.08259,2.33581 0.55403,0.97834 1.34397,1.8115 1.94885,2.76057 1.06443,1.67022 2.08501,3.57571 3.24801,5.09638 0.90985,1.18972 2.10237,2.22617 3.03146,3.39764 1.11914,1.41105 2.10853,3.0058 3.46448,4.24695 1.96726,1.80059 1.51768,0.88184 2.81493,2.33587 0.74572,0.83576 1.22682,1.87549 1.94879,2.76051 1.33082,1.63142 2.97174,3.20363 4.11415,4.88406 1.03991,1.52977 0.43287,5.36941 0.43287,7.2199 0,3.2537 0.66213,6.70312 0.21647,9.98046 -0.0632,0.44368 -0.35147,0.8336 -0.43287,1.27407 -0.60135,3.24527 0.7913,-1.41986 -0.21647,2.33587 -0.4991,1.86058 -1.57748,4.26446 -1.94881,6.15813 -0.82559,4.21025 -0.6975,11.05523 0,15.50153 0.29783,1.8985 0.91908,3.80865 1.08266,5.73344 0.17978,2.11851 -0.23915,0.82259 0.21645,2.76051 0.17544,0.74635 0.58114,1.74263 0.64962,2.54828 0.0443,0.4938 -0.077,0.9967 0,1.48643 0.67983,4.33372 0.25426,-1.71733 0.64955,2.54819 0.15016,1.62314 0.0664,3.26156 0.21645,4.884 0.10791,1.16286 0.43287,2.20298 0.43287,3.39765 0,0.50742 0.0506,5.80379 -0.43287,6.15813 -1.49017,1.09603 -3.36796,1.64465 -4.98028,2.54819 -3.33481,1.86879 -6.16466,4.13447 -8.87782,6.79519 -2.1199,2.07889 -4.07126,4.3855 -6.06289,6.58284 -0.86743,0.35458 -0.79941,1.32296 -1.29921,1.91114 -0.16657,0.19625 -0.46569,0.24432 -0.64964,0.42448 -0.27067,0.26553 -0.13431,1.27409 -0.64952,1.27409"
             id="path911" />
          <path
             style="fill:none;stroke:#000000;stroke-width:1.65331px;stroke-linecap:butt;stroke-linejoin:miter;stroke-opacity:1"
             d="m 245.54866,291.1535 c 0.794,1.98191 1.5755,3.96867 2.38191,5.94575 2.64912,6.49488 6.38854,11.16467 10.39354,16.77566 1.17536,1.64658 2.66193,3.07208 3.89762,4.67169 1.46448,1.89572 2.89646,3.81552 4.3306,5.73338 0.80839,1.08101 1.34182,2.32081 2.16534,3.39765 0.64406,0.84208 3.43168,5.72062 3.248,5.94575 -1.01533,1.24467 -4.65802,2.84653 -6.06288,3.39765 -5.16333,2.02541 -11.35728,3.4933 -15.37385,7.43219"
             id="path913" />
          <path
             style="fill:none;stroke:#000000;stroke-width:1.65331px;stroke-linecap:butt;stroke-linejoin:miter;stroke-opacity:1"
             d="m 219.99784,308.77847 c -0.90333,4.42943 0.23347,-0.17498 -2.59839,6.37052 -1.40421,3.24595 -1.426,6.8713 -2.59838,10.19276 -0.85594,2.42499 -2.353,4.69119 -3.46456,7.00757 -0.42782,0.89206 -0.63308,1.87871 -1.08264,2.76056 -1.54179,3.02407 -6.27947,8.17434 -6.27947,11.46685"
             id="path915" />
          <path
             style="fill:none;stroke:#000000;stroke-width:1.65331px;stroke-linecap:butt;stroke-linejoin:miter;stroke-opacity:1"
             d="m 285.39072,229.99675 c 2.56236,2.60153 6.08605,3.63673 9.31088,5.09638 1.96564,0.88965 2.09826,1.53452 4.33066,2.76056 1.97649,1.0854 4.21723,1.6289 6.27945,2.54819 1.15708,0.51608 2.18288,1.45878 3.24802,2.1235 2.00063,1.24852 4.15254,1.97963 6.27943,2.9729 0.67094,0.31312 1.2562,0.79758 1.94875,1.06175 1.38684,0.52908 2.9191,0.60024 4.3307,1.06175 3.51276,1.14826 6.95354,2.50222 10.61009,3.18525 1.81595,0.33911 3.65299,0.43378 5.41336,1.0617 2.07463,0.7399 3.45875,2.14769 5.19677,3.39762 2.54752,1.8321 5.68883,3.45544 7.79517,5.52107"
             id="path917" />
          <path
             style="fill:none;stroke:#000000;stroke-width:1.65331px;stroke-linecap:butt;stroke-linejoin:miter;stroke-opacity:1"
             d="m 154.82154,109.80675 c -2.10325,0.38552 -4.54843,0.84919 -6.71256,0.4245 -1.75835,-0.34468 -3.35824,-0.84944 -5.19678,-0.84944"
             id="path919" />
          <path
             style="fill:none;stroke:#000000;stroke-width:1.65331px;stroke-linecap:butt;stroke-linejoin:miter;stroke-opacity:1"
             d="m 142.9122,109.38181 c -3.97434,2.59881 -1.17744,1.87227 -5.19678,0.21288 -2.39369,-0.98842 -0.9995,0.29393 -1.73228,-0.4245"
             id="path921" />
          <path
             style="fill:none;stroke:#000000;stroke-width:1.65331px;stroke-linecap:butt;stroke-linejoin:miter;stroke-opacity:1"
             d="m 135.98314,109.17018 c -0.36093,0.77846 -0.53067,1.67356 -1.08266,2.33538 -0.0254,0.031 -4.86115,0.76021 -5.62983,1.06175 -0.54203,0.21288 -1.01111,0.76479 -1.51572,1.06176 -0.42656,0.25122 -1.10576,0.2234 -1.51572,0.4245 -0.50039,0.24506 -1.39981,1.83533 -2.16534,2.33588 -1.5243,0.99659 -3.25305,1.49139 -4.54716,2.76051"
             id="path923" />
          <path
             style="fill:none;stroke:#000000;stroke-width:1.65331px;stroke-linecap:butt;stroke-linejoin:miter;stroke-opacity:1"
             d="m 119.52671,119.14996 c -0.25619,-0.0743 -0.70931,0.0309 -0.76843,-0.2234 -0.0254,-0.10396 2.10268,-1.69399 2.90909,-2.25228 1.89142,-1.30934 1.70786,-1.52475 3.06224,-2.8529 0.34704,-0.34034 0.8372,-0.61571 1.22489,-0.90098 0.73448,-0.54022 1.30106,-1.51621 1.99048,-2.1021 1.01598,-0.86355 2.2663,-1.80952 3.36846,-2.55264 1.13062,-0.76231 2.45099,-1.35142 3.82776,-1.35142 0.15333,0 0.42466,-0.14604 0.45937,0 0.17606,0.74245 0.25492,1.50395 0.38238,2.25587"
             id="path927" />
          <path
             style="fill:none;stroke:#000000;stroke-width:1.65331px;stroke-linecap:butt;stroke-linejoin:miter;stroke-opacity:1"
             d="m 135.98295,109.17012 c -5.08994,-0.46349 3.57259,-3.00655 4.05783,-3.00655"
             id="path929" />
          <path
             style="fill:none;stroke:#000000;stroke-width:1.65331px;stroke-linecap:butt;stroke-linejoin:miter;stroke-opacity:1"
             d="m 140.04078,106.16357 c -0.30604,-0.0495 -1.21985,-0.22402 -0.91867,-0.15037 1.37343,0.33663 2.04809,0.37809 3.5216,0.45049 0.41078,0.0187 1.3321,-0.23949 1.22489,0.15037 -0.2587,0.94047 -0.63762,1.84523 -0.9564,2.76781"
             id="path931" />
          <path
             style="fill:none;stroke:#000000;stroke-width:1.65331px;stroke-linecap:butt;stroke-linejoin:miter;stroke-opacity:1"
             d="m 140.04078,106.16357 c 0.76552,0.40037 1.43716,1.08496 2.29671,1.20123 0.73612,0.0996 1.41488,-0.45792 2.14356,-0.60086 0.80692,-0.15841 1.62968,-0.2333 2.44979,-0.30012 0.55969,-0.0433 1.18205,-0.24628 1.6842,0 0.67245,0.32982 0.86087,0.75074 1.68426,0.75074"
             id="path933" />
          <path
             style="fill:none;stroke:#000000;stroke-width:1.65331px;stroke-linecap:butt;stroke-linejoin:miter;stroke-opacity:1"
             d="m 142.9122,109.38181 c 0.11485,-0.37191 -0.0126,-0.94579 0.34389,-1.11608 0.38554,-0.18441 5.98269,-0.0125 7.04314,-0.15036 0.32434,-0.0433 4.92678,-0.71064 4.89958,-0.45049 -0.0757,0.72066 -0.25177,1.42778 -0.37734,2.14163"
             id="path935" />
          <path
             style="fill:none;stroke:#000000;stroke-width:1.65331px;stroke-linecap:butt;stroke-linejoin:miter;stroke-opacity:1"
             d="m 188.88345,104.66203 c 0.59819,-2.34751 -0.14828,-0.15778 1.07175,-2.10215 0.32308,-0.51485 0.35968,-1.19653 0.76559,-1.65173 3.03473,-3.401281 6.43851,-2.950541 10.56468,-4.054125 0.55779,-0.149149 1.03371,-0.7383 1.53111,-0.900922 0.1938,-0.06311 0.42277,0.07425 0.6127,0 0.77972,-0.305692 1.53036,-0.975615 2.29672,-1.351417"
             id="path937" />
          <path
             style="fill:none;stroke:#000000;stroke-width:1.65331px;stroke-linecap:butt;stroke-linejoin:miter;stroke-opacity:1"
             d="m 197.15147,104.06142 c 1.35375,-0.65377 3.38134,-0.81139 4.59337,-1.80185 1.69746,-1.38725 -2.91445,1.10092 1.53111,-1.35142 0.96915,-0.53465 2.45067,-1.036318 3.52154,-1.351353 0.1462,-0.04333 0.31424,0.04951 0.45937,0 0.94076,-0.307546 1.79184,-1.163855 2.75601,-1.501541 0.29216,-0.102123 0.62217,-0.06187 0.91859,-0.150356 3.11412,-0.939661 5.99507,-1.651724 9.49301,-1.651724 3.01856,0 9.22891,1.223696 11.78956,-0.450491"
             id="path939" />
          <path
             style="fill:none;stroke:#000000;stroke-width:1.65331px;stroke-linecap:butt;stroke-linejoin:miter;stroke-opacity:1"
             d="m 205.726,94.601686 c 0.9696,0.250009 1.91626,0.612003 2.90883,0.750802 0.45748,0.06436 0.91723,-0.115096 1.37804,-0.150356 1.12286,-0.08478 2.45661,0 3.52155,0 2.72268,0 5.72685,0.282793 8.42117,0 1.52778,-0.160896 3.08009,-0.803773 4.59335,-1.05111 0.40257,-0.0656 0.81911,0.04333 1.2249,0 0.66847,-0.07301 1.73845,-0.600864 2.29664,-0.600864"
             id="path941" />
          <path
             style="fill:none;stroke:#000000;stroke-width:1.65331px;stroke-linecap:butt;stroke-linejoin:miter;stroke-opacity:1"
             d="m 223.946,95.352488 c 2.13014,0.499997 4.29004,-0.199871 6.43071,0 1.05823,0.09899 1.24772,0.450491 1.83732,0.449871"
             id="path943" />
          <path
             style="fill:none;stroke:#000000;stroke-width:1.65331px;stroke-linecap:butt;stroke-linejoin:miter;stroke-opacity:1"
             d="m 208.3286,96.403594 c -0.81965,0.09837 -1.22368,0.578587 -1.99041,0.900926 -0.69737,0.293313 -1.44254,0.466581 -2.14362,0.750736 -1.70527,0.692015 -3.23323,1.648261 -4.89953,2.402464 -0.78361,0.35458 -1.63137,0.93372 -2.44978,1.20123 -0.46695,0.15285 -0.92453,-0.16337 -0.91868,-0.15039 0.38429,0.8615 0.81659,1.70172 1.22489,2.55259"
             id="path945" />
          <path
             style="fill:none;stroke:#000000;stroke-width:1.65331px;stroke-linecap:butt;stroke-linejoin:miter;stroke-opacity:1"
             d="m 201.43861,97.004212 c -3.19544,1.972081 -6.60199,3.596018 -9.79921,5.555668 -1.51628,0.92939 1.18072,-0.2141 -2.75595,2.10215"
             id="path947" />
          <path
             style="fill:none;stroke:#000000;stroke-width:1.65331px;stroke-linecap:butt;stroke-linejoin:miter;stroke-opacity:1"
             d="m 167.14159,152.7113 c -0.1912,0.87586 -0.56476,1.75525 -1.22496,2.40246 -1.14286,1.12079 -2.86959,2.50902 -3.21531,4.20431 -0.45875,2.24894 0.70665,4.60852 1.07182,6.75696 0.11998,0.70557 0.95968,2.37499 1.68419,2.55259 0.26124,0.0643 2.60293,0.61695 2.60293,0.15035"
             id="path949" />
          <path
             style="fill:none;stroke:#000000;stroke-width:1.65331px;stroke-linecap:butt;stroke-linejoin:miter;stroke-opacity:1"
             d="m 173.57227,166.97596 c 3.68106,0.83303 0.27007,0.11941 4.134,0.75073 0.64273,0.1052 0.77549,0.50186 1.37802,0.60087 1.34182,0.21907 2.48381,0.30012 3.82777,0.30012 0.47705,0 1.20918,0.11634 1.68427,0 0.74842,-0.18379 4.00058,-1.15278 4.59335,-1.50154 0.17091,-0.10086 0.39121,-0.45606 0.6127,-0.60087 0.97483,-0.63737 2.1158,-0.89312 3.21531,-1.20123 0.61144,-0.1714 2.98016,-0.12686 3.36845,0 0.30604,0.0996 0.56097,0.5 0.7656,0.60087 0.23292,0.11385 0.51868,0.0693 0.76553,0.15035 0.21645,0.0706 0.38932,0.25185 0.6127,0.30013 0.61016,0.13304 2.73903,0.31683 3.21538,-0.15036 0.62595,-0.61386 -0.4638,-0.0433 1.07174,-0.90092 0.57861,-0.32426 0.70393,-1.92079 0.91867,-2.55259 0.63402,-1.86521 1.19668,-4.72906 0,-6.60678 -0.50857,-0.79832 -1.35343,-1.67115 -2.14355,-2.25233 -0.37735,-0.27725 -0.97685,-0.50743 -1.2249,-0.75074 -0.21593,-0.21164 -2.96013,0.32549 -3.21533,0.45049 -0.28774,0.14108 -0.76337,0.60086 -1.07179,0.60086"
             id="path951" />
          <path
             style="fill:none;stroke:#000000;stroke-width:1.65331px;stroke-linecap:butt;stroke-linejoin:miter;stroke-opacity:1"
             d="m 151.67727,195.95564 c 1.59447,-0.2698 2.91408,-1.39369 4.44027,-1.80186 0.19686,-0.0556 0.4215,0.07 0.61269,0 0.65536,-0.24069 1.4908,-0.88118 2.14357,-1.20122 0.82541,-0.4047 1.96985,-0.38675 2.75601,-0.90093 0.46379,-0.30322 1.23992,-0.75816 1.83734,-1.05104 0.22087,-0.10824 0.42214,-0.46721 0.61271,-0.60086 1.22135,-0.85556 2.85382,-1.6888 4.28712,-2.10223 0.89382,-0.25803 1.85678,-0.34838 2.75602,-0.60024 1.63485,-0.45791 3.08262,-1.05475 4.74642,-1.35141 0.2562,-0.0434 0.54898,-0.29146 0.7656,-0.15028 2.10507,1.37622 4.57965,2.22951 7.19622,1.80184 1.48921,-0.24319 2.41697,-1.03502 3.67467,-1.65171 0.3603,-0.17631 0.4985,-0.59654 0.91867,-0.75075 0.54331,-0.19987 1.06495,-0.0718 1.53113,-0.30012 0.95395,-0.46782 3.61941,0.29703 4.44027,0.45048 2.53306,0.47339 4.34569,1.09722 6.73691,2.10216 0.49469,0.20794 1.23903,0.23205 1.6842,0.4505 0.0443,0.0249 0,0.10031 0,0.15028 0.10225,0.0496 0.19298,0.13425 0.30604,0.15028 0.25237,0.0371 0.51806,-0.0619 0.76558,0 0.17865,0.0434 0.29027,0.22898 0.45938,0.30013 0.27259,0.11445 0.97703,0.13859 1.22488,0.30012 0.73815,0.48267 1.59492,0.7367 2.44981,1.0511 0.554,0.20359 1.01313,0.1968 1.53109,0.4505"
             id="path953" />
          <path
             style="fill:none;stroke:#000000;stroke-width:1.65331px;stroke-linecap:butt;stroke-linejoin:miter;stroke-opacity:1"
             d="m 158.2611,197.45717 c 0.45937,0.35024 0.89382,0.73452 1.37798,1.05111 1.07831,0.70495 3.98406,1.61794 4.7465,2.55259 0.10092,0.12369 0.0568,0.32364 0.15337,0.4505 0.41015,0.5365 2.31727,1.83593 2.90909,1.95202 4.65045,0.91213 9.40717,1.50155 14.23942,1.50155 0.62027,0 1.48889,0.0805 2.14357,0 1.74515,-0.21411 3.48077,-0.59345 5.20579,-0.90093 0.94757,-0.16895 1.83356,-0.21288 2.75601,-0.60086 1.65435,-0.69529 3.19051,-1.48693 4.74643,-2.40247 0.25615,-0.15028 0.70899,-0.24505 0.91867,-0.45049 0.66905,-0.65612 1.64092,-1.59133 2.44978,-2.25234 0.17544,-0.14349 0.48588,-0.11389 0.6127,-0.30013 0.35338,-0.51979 -0.32243,-0.12444 0.15337,-0.45048 1.43921,-0.98799 3.35547,-1.78917 4.59337,-3.00314"
             id="path955" />
          <path
             style="fill:none;stroke:#000000;stroke-width:1.65331px;stroke-linecap:butt;stroke-linejoin:miter;stroke-opacity:1"
             d="m 165.45733,194.00367 c 0.61269,0.15028 1.2146,0.34838 1.83734,0.45049 0.47641,0.0781 1.19189,-0.12068 1.68425,0 1.44064,0.35333 3.07877,0.65178 4.59335,0.75074 0.65447,0.0434 1.47957,-0.0928 2.14357,0 1.01111,0.1418 2.35312,0.39912 3.36845,0.15047 0.33508,-0.0822 0.62153,-0.35334 0.91869,-0.45048 0.98417,-0.3218 2.36579,-0.46968 3.36845,-0.60086 0.23473,-0.0309 1.06664,0.10219 1.37797,0 0.30289,-0.099 0.4682,-0.30447 0.7656,-0.45051 0.35273,-0.17328 1.02531,-0.12746 1.37797,-0.30012 0.12941,-0.0632 0.17223,-0.24752 0.30604,-0.30011 0.14186,-0.0556 0.30919,0.0309 0.45935,0 0.40321,-0.0792 0.80952,-0.36015 1.2249,-0.4505 2.16477,-0.47153 4.51579,-0.90587 6.7369,-1.05105 0.91371,-0.0618 1.84298,0.0686 2.75604,0 1.30376,-0.0984 2.51653,-0.30012 3.82777,-0.30012"
             id="path957" />
          <path
             style="fill:none;stroke:#000000;stroke-width:1.65331px;stroke-linecap:butt;stroke-linejoin:miter;stroke-opacity:1"
             d="m 129.01673,132.14017 c 1.21404,-1.62152 2.86903,-3.47102 4.59336,-4.65474 0.63402,-0.35519 0.99666,-0.5266 1.53111,-0.90092 0.66968,-0.46906 1.29128,-1.0901 1.99049,-1.50154 0.62216,-0.36633 1.4034,-0.51732 1.99042,-0.90092 0.17983,-0.11759 0.27133,-0.3453 0.45936,-0.4505 0.61523,-0.34467 1.59744,-0.46348 2.29665,-0.60086 0.67933,-0.13305 1.61302,0 2.29671,0 1.703,0 3.37123,-0.0125 5.05265,0.15035 3.40676,0.33416 6.98963,-0.40222 9.79915,1.80185 0.0568,0.36881 0.32496,0.0625 0.45937,0.1504 0.6228,0.40718 3.21538,2.44064 3.21538,2.70277"
             id="path959" />
          <path
             style="fill:none;stroke:#000000;stroke-width:1.65331px;stroke-linecap:butt;stroke-linejoin:miter;stroke-opacity:1"
             d="m 132.38519,132.89098 c 0.90511,1.04758 2.45225,0.40098 3.5216,0.7508 0.58683,0.19184 1.20786,0.56559 1.83734,0.75073 0.49218,0.14482 0.9118,0.14791 1.37798,0.30013 0.45116,0.14726 1.05888,-0.0662 1.53112,0 3.55586,0.49814 6.74985,-0.41151 10.10537,-1.35136 0.60323,-0.16893 1.08538,-0.20236 1.68426,-0.30012 0.55465,-0.091 0.10917,-0.12873 0.45937,-0.30012 0.42024,-0.20607 1.54474,-0.48082 1.83734,-0.60087 1.13182,-0.46225 1.85216,-1.58384 2.90915,-2.10209 0.0915,-0.0433 0.21517,0.0433 0.30604,0 0.0915,-0.0433 -0.0719,-0.22959 0,-0.30012 0.25491,-0.25001 0.5742,-0.60087 0.91867,-0.60087"
             id="path961" />
          <path
             style="fill:none;stroke:#000000;stroke-width:1.65331px;stroke-linecap:butt;stroke-linejoin:miter;stroke-opacity:1"
             d="m 199.44815,120.57835 c 0.78773,-1.73118 1.68865,-2.25494 3.21534,-3.1532 0.96765,-0.5693 2.10679,-1.73978 3.21533,-2.10215 2.95876,-0.96727 5.88716,-1.20124 9.03363,-1.20124 1.35178,0 2.80921,-0.18565 4.13399,0 0.47956,0.0668 1.16816,0.45606 1.68426,0.60087 0.78652,0.22028 1.64386,0.46905 2.44977,0.60086 0.39944,0.065 2.18106,1.68842 2.60287,2.10215"
             id="path963" />
          <path
             style="fill:none;stroke:#000000;stroke-width:1.65331px;stroke-linecap:butt;stroke-linejoin:miter;stroke-opacity:1"
             d="m 199.14192,123.88174 c 1.43096,0.27845 2.8757,0.62407 4.28712,0.90092 0.75977,0.14913 1.52437,0.71157 2.29669,0.90092 2.62579,0.64375 6.05723,0.64895 8.72735,0.15036 1.16664,-0.21783 2.58513,-0.36695 3.67467,-0.90092 1.76334,-0.8646 3.26,-2.14591 4.59335,-3.45351 0.22726,-0.22278 0.33066,-0.90093 0.61271,-0.90093"
             id="path965" />
          <path
             style="fill:none;stroke:#000000;stroke-width:1.65331px;stroke-linecap:butt;stroke-linejoin:miter;stroke-opacity:1"
             d="m 263.44884,120.27804 c 0,0.25001 -0.25481,0.7508 0,0.7508 0.25505,0 -0.19757,-0.5922 0,-0.7508 0.46252,-0.37128 1.14993,-0.33848 1.68425,-0.60086 0.6968,-0.34158 1.30649,-0.83539 1.99044,-1.20123 0.78249,-0.41832 1.67062,-0.62655 2.44978,-1.05105 1.10038,-0.59962 1.99837,-1.64312 3.21539,-2.10215 1.37227,-0.51795 5.25893,-1.14913 6.43066,0 1.96191,1.924 0.30605,4.85486 0.30605,7.0572"
             id="path967" />
          <path
             style="fill:#333333;stroke:#000000;stroke-width:1.65331px;stroke-linecap:butt;stroke-linejoin:miter;stroke-opacity:1"
             d="m 137.60714,126.05153 c -0.0126,0.83248 0.006,2.63656 0.5414,3.29144 0.49533,0.60705 0.93129,0.82821 1.624,1.16788 0.13692,0.0668 0.19371,0.24133 0.32497,0.31869 0.59692,0.35086 1.49616,0.843 2.16533,1.06175 1.31544,0.43007 4.62206,0.0928 5.73811,-0.63706 0.27827,-0.18194 1.85589,-1.61516 2.05705,-1.91113 0.17984,-0.26486 0.47956,-0.75805 0.5414,-1.06175 0.0637,-0.31312 -0.082,-0.7401 0,-1.06176 0.0953,-0.37438 0.45621,-2.08959 0.21643,-2.44207 -0.15333,-0.22586 -0.52373,-0.51361 -0.64961,-0.637 -0.10096,-0.099 -0.0568,-0.2698 -0.21644,-0.4245 -0.23095,-0.22648 -1.67921,0.18503 -2.05705,0 -0.70811,-0.34715 -1.68085,-0.31869 -2.49017,-0.31869 -1.14432,0 -2.14174,0.0249 -3.248,0.31869 -0.57421,0.15347 -1.68584,0.43007 -2.16527,0.74325 -0.8793,0.57487 -1.38012,1.19969 -2.3819,1.59263 z"
             id="path971" />
          <path
             style="fill:none;stroke:#000000;stroke-width:1.65331px;stroke-linecap:butt;stroke-linejoin:miter;stroke-opacity:1"
             d="m 187.08486,111.08087 c 0.22147,1.57153 -0.58747,2.95698 -0.86612,4.45933 -0.36723,1.9795 0.17733,0.17079 -0.32496,2.01737 -0.19181,0.70508 -0.45937,1.39678 -0.54139,2.12345 -0.34327,3.02739 1.19315,5.94836 3.13971,8.17545 0.20634,0.23638 0.3237,0.5297 0.5414,0.74325"
             id="path973" />
          <path
             style="fill:#333333;stroke:#000000;stroke-width:1.65331px;stroke-linecap:butt;stroke-linejoin:miter;stroke-opacity:1"
             d="m 207.11413,116.07107 c 0.17733,1.31559 -0.43349,3.13136 0.32496,4.24701 0.0504,0.0736 -0.0377,0.23887 0,0.31869 0.29784,0.58415 0.80528,0.96509 1.29917,1.38031 1.39066,1.16893 1.72212,1.21528 3.57277,1.38025 1.02096,0.091 2.04961,0.21472 3.03151,-0.10582 0.27448,-0.0897 0.52499,-0.4542 0.75783,-0.63706 0.44862,-0.3521 0.84282,-0.59777 1.29921,-0.95556 0.30478,-0.006 0.0243,-0.23949 0.10847,-0.31869 0.10413,-0.10211 0.23724,-0.12624 0.43287,-0.31869 0.79809,-0.78267 0.97439,-2.67319 0.97439,-3.71613 0,-0.0637 0.006,-2.22115 0,-2.22969 -0.27321,-0.26794 -1.1679,-0.16337 -1.51573,-0.21226 -1.71429,-0.24008 -3.39439,0.13118 -5.08849,0.4245 -0.67379,0.11634 -1.39115,0.0495 -2.05705,0.21226 -1.04058,0.25496 -2.0428,0.53094 -3.13974,0.53094 z"
             id="path975" />
          <path
             style="fill:#000000;stroke:#000000;stroke-width:1.65331px;stroke-linecap:butt;stroke-linejoin:miter;stroke-opacity:1"
             d="m 143.23697,125.30828 c -0.089,0.7042 -0.91091,0.2562 -1.19088,0.53093 -0.20191,0.19804 0.0833,1.60891 0.21643,1.80501 0.23852,0.35086 0.58052,0.67549 0.86618,0.95556 0.0808,0.0792 0.95621,0 1.08266,0 0.31676,0 0.78692,0.0873 1.08267,-0.10644 0.90024,-0.58848 0.46757,-1.38477 0.21643,-2.1235 -0.16848,-0.49691 -0.005,-0.70953 -0.43286,-0.84938 -0.12998,-0.0433 -0.19498,-0.27599 -0.32497,-0.31868 -0.37671,-0.12315 -1.20962,0.0557 -1.51578,0.10644 z"
             id="path977" />
          <path
             style="fill:#ffffff;stroke:#000000;stroke-width:0.71103;stroke-linecap:butt;stroke-linejoin:miter;stroke-miterlimit:4;stroke-dasharray:none;stroke-opacity:1"
             d="m 146.1602,124.56509 c -0.41709,0.34839 -0.98259,0.30383 -1.40744,0.63706 -0.16405,0.12873 -0.10791,0.48205 -0.10791,0.637 0,0.47587 0.14701,1.24016 0.64961,1.48651 0.62091,0.30445 2.17342,0.62908 2.70667,0.10644 0.38554,-0.37809 0.13566,-1.00897 0.21643,-1.4865 0.0189,-0.11076 0.24483,-0.60953 0.10853,-0.74319 -1.42485,-1.39727 -3.28138,-0.45359 -5.08856,0.10582"
             id="path979" />
          <path
             style="fill:#000000;stroke:#000000;stroke-width:1.65331px;stroke-linecap:butt;stroke-linejoin:miter;stroke-opacity:1"
             d="m 212.20268,117.23901 c -1.60216,2.12227 -1.32413,2.44201 1.19088,2.44201 0.29659,0 1.03137,0.13118 1.29925,0 0.0858,-0.0433 0,-0.93892 0,-1.06176 0,-0.24011 0.0315,0.031 -0.21646,-0.21225 -0.077,-0.0755 -0.002,-0.42636 -0.1079,-0.53094 -0.59378,-0.5823 -1.30049,-1.06114 -2.16534,-0.63706 z"
             id="path981" />
          <path
             style="fill:#ffffff;stroke:#000000;stroke-width:0.641525;stroke-linecap:butt;stroke-linejoin:miter;stroke-miterlimit:4;stroke-dasharray:none;stroke-opacity:1"
             d="m 214.40896,116.53337 c 0.23817,0.82931 -0.17044,0.32871 -0.4022,0.77609 -0.16227,0.31362 0.0782,1.10782 0.2679,1.29358 0.07,0.0679 1.23544,0.0528 1.34002,0 0.28893,-0.13946 0.12958,-0.38375 0.26789,-0.5172 0.0999,-0.0965 0.30231,-0.0303 0.40219,-0.12891 0.18352,-0.17715 0.1422,-2.98155 -1.87594,-1.42296 z"
             id="path983" />
          <path
             style="fill:none;stroke:#000000;stroke-width:1.65331px;stroke-linecap:butt;stroke-linejoin:miter;stroke-opacity:1"
             d="m 196.82887,129.97998 c 3.15024,2.60871 5.94766,6.4202 9.74392,8.28163"
             id="path985" />
          <path
             style="fill:none;stroke:#000000;stroke-width:1.65331px;stroke-linecap:butt;stroke-linejoin:miter;stroke-opacity:1"
             d="m 161.31747,135.07642 c -1.93943,1.74368 -4.39131,2.74591 -6.49593,4.24695 -1.33545,0.95247 -1.79318,2.00185 -3.46456,2.54819 -0.27386,0.0897 -0.5862,-0.0687 -0.86611,0 -1.15486,0.28342 1.22697,0.21226 -0.21644,0.21226"
             id="path987" />
          <path
             style="fill:none;stroke:#000000;stroke-width:1.65331px;stroke-linecap:butt;stroke-linejoin:miter;stroke-opacity:1"
             d="m 156.1207,168.62768 c 0.0719,0.49566 0.21643,0.98595 0.21643,1.48644 0,1.49077 -3.49542,6.63128 -4.54723,8.28164 -0.6392,1.00297 -0.93804,2.16545 -1.51572,3.18525 -1.95451,3.45017 -4.2552,8.53901 -4.76372,12.52859 -0.49975,3.91892 0.74111,7.91383 1.94878,11.46691"
             id="path989" />
          <path
             style="fill:none;stroke:#000000;stroke-width:1.65331px;stroke-linecap:butt;stroke-linejoin:miter;stroke-opacity:1"
             d="m 208.9547,166.07949 c 0.3117,2.70295 1.84716,4.96476 2.81492,7.4322 0.37735,0.96194 0.49723,2.00791 0.86611,2.97288 0.62218,1.62765 1.63172,3.31421 2.16534,4.88407 0.17356,0.50989 1.12597,0.76449 1.29915,1.27406 0.642,1.88879 3.88266,4.97195 5.19679,6.5829 0.73568,0.90178 0.90271,1.64639 1.51579,2.54819 0.113,0.16649 0.35713,0.23886 0.43287,0.4245 0.0802,0.19742 -0.0506,0.4313 0,0.63706 0.0243,0.0971 0.14432,0.14179 0.21645,0.21226 0.0721,0.21226 0.17922,0.41647 0.21646,0.63706 0.44486,2.6185 0.21647,5.40041 0.21647,8.06933"
             id="path991" />
          <path
             style="fill:none;stroke:#000000;stroke-width:1.50882;stroke-linecap:butt;stroke-linejoin:miter;stroke-miterlimit:4;stroke-dasharray:none;stroke-opacity:1"
             d="m 255.84847,126.15791 c 0,3.97322 0.12356,-1.12952 -0.5493,4.02632 -0.11847,0.90738 0,1.83014 0,2.74521 0,2.92823 0,5.85646 0,8.78469 0,2.41946 -0.26762,5.09618 0,7.50358 0.19841,1.78494 0.51136,3.53985 0.7324,5.30741 0.0756,0.60534 -0.13715,1.23572 0,1.83015 0.43658,1.89094 1.18071,3.8056 1.6479,5.67344 0.3662,1.46411 -0.18318,0.18301 0,1.09809 0.35344,1.76641 0.56907,3.5116 0.7324,5.30741 0.14205,1.56193 -0.22176,3.20683 0,4.75837 0.26499,1.85402 0.18317,-1.54712 0.18317,0.91507 0,0.17218 -0.036,1.45811 0,1.46411 0.91207,0.15172 1.84002,0.18407 2.76003,0.27611"
             id="path993" />
          <path
             style="fill:none;stroke:#000000;stroke-width:1.50882;stroke-linecap:butt;stroke-linejoin:miter;stroke-miterlimit:4;stroke-dasharray:none;stroke-opacity:1"
             d="m 112.84729,135.12561 c 0.007,7.20643 -0.0282,14.52094 0.91551,21.59569 0.23576,1.76739 0.33518,1.28942 0.7324,2.74521 0.57024,2.0899 1.03913,4.27816 1.4648,6.4055 0.22907,1.14482 0.41746,2.19248 0.7324,3.29426 0.0976,0.34131 -0.11281,0.75981 0,1.09808 0.20681,0.62013 0.3662,0.49064 0.3662,1.09809 0,0.64205 0.24565,2.80772 0.7324,3.29425 0.0863,0.0863 0.27988,-0.0863 0.3662,0 0.0432,0.0432 -0.0373,0.23132 0,0.18302 0.27045,-0.35036 0.47993,-0.74377 0.71989,-1.11565"
             id="path995" />
        </g>
        <ellipse
           style="opacity:0.512903;fill:#333333;fill-opacity:0.482353;stroke-width:0.522428;stroke-linecap:round;stroke-linejoin:round;stroke-miterlimit:4;stroke-dasharray:none;paint-order:markers fill stroke"
           id="path1064"
           cx="191.01082"
           cy="179.51883"
           rx="167.71968"
           ry="163.24873" />
      </g>
      <text
         xml:space="preserve"
         style="font-size:14.1111px;line-height:1.25;font-family:sans-serif;letter-spacing:0px;word-spacing:0px;stroke-width:0.264583"
         x="104.17169"
         y="367.75763"
         id="text900"><tspan
           sodipodi:role="line"
           id="tspan898"
           x="104.17169"
           y="367.75763"
           style="font-style:italic;font-variant:normal;font-weight:normal;font-stretch:normal;font-size:14.1111px;font-family:sans-serif;-inkscape-font-specification:'sans-serif Italic';stroke-width:0.264583">H V R Iyengar 1957 -1962</tspan></text>
    </g>
  </g>
</svg>
