<?xml version="1.0" encoding="UTF-8" standalone="no"?>
<svg
   xmlns:dc="http://purl.org/dc/elements/1.1/"
   xmlns:cc="http://creativecommons.org/ns#"
   xmlns:rdf="http://www.w3.org/1999/02/22-rdf-syntax-ns#"
   xmlns:svg="http://www.w3.org/2000/svg"
   xmlns="http://www.w3.org/2000/svg"
   xmlns:sodipodi="http://sodipodi.sourceforge.net/DTD/sodipodi-0.dtd"
   xmlns:inkscape="http://www.inkscape.org/namespaces/inkscape"
   width="400mm"
   height="400mm"
   viewBox="0 0 400 400"
   version="1.1"
   id="svg8"
   inkscape:version="1.0.2 (e86c870879, 2021-01-15, custom)"
   sodipodi:docname="jagan.svg">
  <defs
     id="defs2" />
  <sodipodi:namedview
     id="base"
     pagecolor="#ffffff"
     bordercolor="#666666"
     borderopacity="1.0"
     inkscape:pageopacity="0.0"
     inkscape:pageshadow="2"
     inkscape:zoom="0.13766967"
     inkscape:cx="776.85235"
     inkscape:cy="-772.31338"
     inkscape:document-units="mm"
     inkscape:current-layer="layer1"
     inkscape:document-rotation="0"
     showgrid="false"
     inkscape:window-width="1267"
     inkscape:window-height="999"
     inkscape:window-x="869"
     inkscape:window-y="0"
     inkscape:window-maximized="0" />
  <metadata
     id="metadata5">
    <rdf:RDF>
      <cc:Work
         rdf:about="">
        <dc:format>image/svg+xml</dc:format>
        <dc:type
           rdf:resource="http://purl.org/dc/dcmitype/StillImage" />
        <dc:title />
      </cc:Work>
    </rdf:RDF>
  </metadata>
  <g
     inkscape:label="Layer 1"
     inkscape:groupmode="layer"
     id="layer1">
    <g
       id="g944">
      <g
         id="g1071"
         transform="matrix(1.0747889,0,0,1.0477134,7.4546145,177.77623)">
        <ellipse
           style="opacity:0.590323;fill:#abc837;fill-opacity:0.482353;stroke-width:1.265;stroke-linecap:round;stroke-linejoin:round;stroke-miterlimit:4;stroke-dasharray:none;paint-order:markers fill stroke"
           id="path1016"
           cx="179.36688"
           cy="-3.4941602"
           rx="154.51952"
           ry="160.34312" />
        <g
           id="g1014">
          <path
             style="fill:none;stroke:#000000;stroke-width:1.2;stroke-linecap:butt;stroke-linejoin:miter;stroke-miterlimit:4;stroke-dasharray:none;stroke-opacity:1"
             d="m 154.28425,-165.26534 c -5.22655,0.70844 -10.11938,2.45804 -15.09899,4.11791 -1.87781,0.62594 -3.34944,2.12308 -5.21602,2.74527 -0.52806,0.17602 -1.13034,0.0678 -1.64716,0.27453 -0.62588,0.25035 -3.80391,2.43127 -4.11791,2.74527 -0.0647,0.0647 0,0.18302 0,0.27453 -0.0915,0.18301 -0.11474,0.42123 -0.27452,0.54905 -0.5761,0.46088 -1.23669,0.82411 -1.92169,1.09811 -5.73541,2.29416 -11.14072,6.44715 -15.92258,10.43203 -0.91214,0.76012 -2.05328,1.19681 -3.0198,1.92169 -1.33489,1.00117 -2.39994,2.15374 -3.84338,3.0198 -0.30439,0.18264 -0.72141,0.99594 -0.82358,1.09811 -1.3768,1.3768 -2.774575,3.17904 -4.392433,4.39243 -0.734518,0.55089 -1.313735,1.03921 -1.92169,1.64717 -0.289375,0.28937 -0.80873,0.25967 -1.098108,0.54905 -1.827361,1.82736 0.401622,-0.19064 -0.274526,0.82358 -2.235544,3.35332 -2.906131,7.55381 -3.568854,11.53014 -0.365236,2.19142 -0.954844,4.78622 -1.647163,6.86318 -0.497787,1.49337 -0.191918,-2.11611 -0.549053,1.09811 -0.06063,0.54569 0.09822,1.10696 0,1.64716 -0.380637,2.0935 -1.743464,4.00221 -2.196216,6.0396 -1.110859,4.99885 -2.295835,10.381052 -3.294327,15.373517 -0.295916,1.479584 -1.838833,2.13932 -2.196216,3.568853 -1.406295,5.625182 8.235812,14.382004 8.235812,21.138589"
             id="path847" />
          <path
             style="fill:none;stroke:#000000;stroke-width:1.2;stroke-linecap:butt;stroke-linejoin:miter;stroke-miterlimit:4;stroke-dasharray:none;stroke-opacity:1"
             d="m 101.30051,-59.023334 c 0,-2.808703 1.08386,-7.397983 3.0198,-9.333923 0.50538,-0.505375 1.18204,-0.82999 1.64717,-1.372637 0.1191,-0.138957 -0.0818,-0.385358 0,-0.549053 0.26204,-0.524084 0.83606,-0.848553 1.0981,-1.372637 0.22039,-0.440764 0.36604,-0.915091 0.54906,-1.372635 0.0915,-0.274526 0.14511,-0.564755 0.27453,-0.823581 0.20856,-0.417121 0.67806,-0.661554 0.82358,-1.098108 0.37987,-1.139611 -0.14104,-3.049969 -0.27453,-4.117907 -0.43373,-3.469796 -1.50844,-9.478494 -0.82358,-12.902776 0.3692,-1.845998 0.63909,-3.654478 1.09811,-5.490543 0.22194,-0.887767 -0.076,-1.833341 0,-2.745276 0.21345,-2.56142 1.30659,-5.22638 1.92169,-7.68676 0.34533,-1.38135 0.15383,-5.12847 0.54905,-6.31412 0.57088,-1.71262 1.11371,-3.40354 1.37264,-5.21601 0.17281,-1.2097 -0.0175,-2.67523 0.27452,-3.84338 0.0496,-0.19852 0.18303,-0.36604 0.27453,-0.54906 0.0915,-0.0915 0.23363,-0.15175 0.27453,-0.27453 0.36211,-1.08634 0.32882,-2.19316 0.54905,-3.29432 0.40809,-2.04045 0.20396,1.38818 0.54906,-1.37264 0.0795,-0.63561 -0.28647,-1.34875 0,-1.92169 0.11575,-0.2315 0.40548,-0.3337 0.54905,-0.54905 0.34951,-0.52426 0.27755,-1.65321 0.54906,-2.19622 0.33513,-0.67027 0.97338,-1.25627 1.37263,-1.92169 0.67873,-1.13122 0.73004,-1.79697 1.64716,-3.0198 0.66943,-0.89256 0.85472,-2.22735 1.64717,-3.0198 0.42285,-0.42285 2.1646,-2.01154 2.47074,-2.47074 0.28651,-0.42976 0.39762,-1.2212 0.82358,-1.64716 0.23331,-0.23331 0.61747,-0.29142 0.82358,-0.54906 0.42884,-0.53605 0.0818,-0.90533 0.54906,-1.37263 0.30869,-0.30869 1.006,-0.57917 1.37263,-0.82358 0.80551,-0.53701 1.33339,-1.76481 2.19622,-2.19622 1.07749,-0.53875 2.4092,-1.03656 3.29433,-1.92169 0.14469,-0.14469 0.10427,-0.43555 0.27452,-0.54905 0.15228,-0.10153 0.38536,0.0818 0.54906,0 0.44946,-0.22474 0.93256,-1.40365 1.64716,-1.09812 1.65095,-0.75043 3.47182,-1.36849 4.94149,-2.47074 0.52173,-0.3913 1.04189,-1.34452 1.64716,-1.64716 1.06877,-0.53438 2.43483,-0.91903 3.56885,-1.37264 1.15939,-0.46375 2.18383,-1.50525 3.29433,-1.92169 2.63485,-0.98806 3.58981,-0.35391 6.58865,-2.47074 0.3738,-0.26386 0,-0.91509 0,-1.37264 4.27954,-1.53862 9.93764,-2.69041 14.54994,-1.92169 1.7806,0.29677 3.4483,1.07802 5.21602,1.37264 1.29365,0.21561 2.67626,-0.19232 3.84338,0.27452 0.24031,0.0961 0.31755,0.43331 0.54905,0.54906 0.95659,0.47829 2.45165,0.53632 3.29433,1.09811 0.21535,0.14357 0.30874,0.45292 0.54905,0.54905 0.57193,0.22877 0.83884,-0.15251 1.37264,0 2.3306,0.66589 4.86082,1.01094 7.1377,1.92169 3.04126,1.2165 6.01957,2.35292 9.0594,3.56885 0.37997,0.15199 0.69681,0.4688 1.09811,0.54906 4.68827,0.93765 8.8467,3.32524 13.1773,5.49054 0.20647,0.10323 0.6331,-0.12699 0.82358,0 2.04962,1.36641 4.44636,2.22318 6.58865,3.29433 0.62186,0.31092 5.1816,3.80895 5.76507,4.39243 0.45492,0.45492 0.98489,1.42499 1.64717,1.92169 0.32739,0.24555 0.80873,0.25968 1.0981,0.54905 1.47166,1.47166 2.37492,3.78492 3.56886,5.49055 0.48381,0.69116 1.17918,1.21971 1.64716,1.92169 0.6539,0.98085 0.842,1.9401 1.64716,2.74527 0.2668,0.26679 0.1344,0.74779 0.27453,1.09811 0.8374,2.09349 2.49721,5.61733 3.84338,7.41223 0.12277,0.1637 0.40437,0.12984 0.54905,0.27453 0.92147,0.92146 3.16747,3.87933 3.84338,4.94149 0.32957,0.51789 0.44671,1.16261 0.82359,1.64716 0.2809,0.36116 0.80519,0.47208 1.0981,0.82358 0.18526,0.22231 0.11401,0.58281 0.27453,0.82358 0.21536,0.32304 0.54906,0.54906 0.82358,0.82358 0.27453,0.36604 0.58109,0.71011 0.82358,1.09811 0.46606,0.7457 1.03958,2.13768 1.64717,2.74527 0.20462,0.20462 0.60127,0.0893 0.82358,0.27453 2.16452,1.80376 3.24037,5.60793 3.56885,8.23581 0.20021,1.60166 -0.31605,3.361255 0,4.941493 1.01345,5.067235 -0.2677,10.370597 -0.82358,15.37352 -0.27024,2.432179 0.67491,5.599102 0,7.961287 -0.22731,0.795586 -0.73814,2.299859 -1.09811,3.019799 -0.84497,1.689944 -5.21601,6.88665 -5.21601,8.510341"
             id="path849" />
          <path
             style="fill:none;stroke:#000000;stroke-width:1.2;stroke-linecap:butt;stroke-linejoin:miter;stroke-miterlimit:4;stroke-dasharray:none;stroke-opacity:1"
             d="m 101.30051,-59.023334 c -2.498734,4.601996 -7.998162,-3.275886 -10.706553,-1.92169 -4.501484,2.250739 -5.490544,13.144294 -5.490544,17.569736 0,1.161589 -0.175836,3.06706 0.274527,4.117908 0.787439,1.837357 2.229022,3.601657 3.568853,4.941488 0.402365,0.402365 0.480716,1.190009 0.823582,1.647164 1.298019,1.730692 2.974393,3.287106 4.392432,4.941488 0.612905,0.715052 3.361005,3.18649 3.84338,4.392433 0.101957,0.254892 -0.101954,0.56869 0,0.823582 0.287758,0.719392 2.022793,3.149683 2.196223,3.84338 0.27718,1.108733 0.72232,2.441499 1.0981,3.568852 0.16285,0.488527 0.97208,1.417567 1.09811,1.92169 0.82963,3.3185006 1.0609,4.0713978 3.29433,6.8631787 0.37867,0.4733388 -0.60023,0.1116767 0.27453,0.5490544 1.26316,0.6315839 6.56873,2.4807007 8.23581,1.6471629 1.00432,-0.5021603 1.64716,-3.4719436 1.64716,-4.6669615"
             id="path853" />
          <path
             style="fill:none;stroke:#000000;stroke-width:1.2;stroke-linecap:butt;stroke-linejoin:miter;stroke-miterlimit:4;stroke-dasharray:none;stroke-opacity:1"
             d="m 115.57593,-2.7452714 c -0.30524,2.81761755 0.72243,5.4808426 1.0981,8.2358142 0.47456,3.4800799 0.0604,2.3144419 0.54906,5.4905432 0.27141,1.764163 0.98779,3.484234 1.37263,5.216015 0.45755,2.058954 -0.30503,-0.152515 0,1.372636 0.5428,2.714002 1.37264,5.565072 1.37264,8.235814"
             id="path855" />
          <path
             style="fill:none;stroke:#000000;stroke-width:1.2;stroke-linecap:butt;stroke-linejoin:miter;stroke-miterlimit:4;stroke-dasharray:none;stroke-opacity:1"
             d="m 119.96836,25.805551 c 2.60592,3.398551 3.45406,12.51346 6.58865,15.648048 0.19412,0.194119 -0.16471,0.603959 0,0.823581 0.19797,0.263951 0.59028,0.315751 0.82358,0.549053 1.03022,1.030213 1.45078,1.871012 2.47075,2.745272 3.601,3.086576 7.6343,5.686544 11.80466,7.961288 1.54365,0.841989 3.49179,1.367817 4.94149,2.196217 1.40694,0.803965 2.62996,2.275821 4.11791,3.019798 0.56108,0.280543 2.45725,1.211908 3.0198,1.372634 0.26396,0.07542 0.57803,-0.122772 0.82358,0 0.34725,0.173628 0.47633,0.649957 0.82358,0.823582 0.36086,0.180432 2.45731,0.636087 3.0198,0.823582 1.38266,0.460888 2.79768,1.536104 4.11791,2.196218 1.24324,0.62162 10.29928,4.401476 10.70655,5.216015 0.38738,0.774747 -3.2257,5.325843 -3.84338,6.314125 -2.01313,3.221008 -2.14073,7.575788 -3.84337,10.981084 -1.66468,3.32935 -3.62292,6.519762 -5.21602,9.882978 -1.39375,2.942363 -2.26644,6.082464 -3.56886,9.059394 -3.11142,7.11184 0.15389,-0.97049 -1.37263,4.11791 -0.65222,2.17408 -2.02594,4.15613 -2.74527,6.31412 -0.71271,2.13812 -1.41871,3.661 -2.47074,5.76507 -0.22474,0.44947 -0.87338,1.1977 -1.09811,1.64716 -0.42684,0.85367 -0.66091,2.14539 -1.09811,3.0198 -0.26539,0.53077 -0.41106,2.26596 -0.82358,1.64717 -1.21917,-1.82875 -1.5565,-3.70801 -2.47075,-5.76507 -2.24522,-5.05175 -4.41168,-10.14182 -6.31412,-15.37352 -1.00836,-2.77297 -2.31826,-5.44704 -3.29433,-8.235817 -0.8782,-2.50915 -1.29602,-5.211234 -2.19622,-7.68676 -0.96684,-2.658835 -1.91369,-5.258676 -2.74527,-7.961286 -0.80872,-2.628347 -2.6263,-5.481375 -3.0198,-8.235815 -0.32299,-2.26096 -1.02138,-4.843195 -1.64716,-7.137707 -0.69287,-2.54055 -1.95996,-4.531532 -3.0198,-6.863178 -0.68265,-1.501833 -0.99731,-3.150645 -1.64716,-4.666961 -1.05944,-2.472031 -2.41701,-4.83402 -3.56885,-7.137704 -0.82116,-1.64233 -1.89694,-5.866329 -2.19622,-7.961289 -0.15866,-1.110639 -0.4237,-3.882239 0,-4.941488 0.41082,-1.027041 1.29632,-1.967277 1.64716,-3.019798 0.8108,-2.432381 1.97234,-5.154723 3.29433,-7.137706 z"
             id="path859" />
          <path
             style="fill:none;stroke:#000000;stroke-width:1.2;stroke-linecap:butt;stroke-linejoin:miter;stroke-miterlimit:4;stroke-dasharray:none;stroke-opacity:1"
             d="m 174.32473,69.729894 c 4.74356,-0.141092 9.58054,0.164846 14.00089,-1.098111 0.83603,-0.238865 1.7197,-1.222428 2.47074,-1.372634 0.35893,-0.07179 0.74616,0.100557 1.09811,0 0.0313,-0.0089 3.62314,-2.250509 3.84338,-2.470745 3.25167,-3.251669 6.61025,-6.610247 9.88298,-9.882976 1.32097,-1.32097 2.35767,-4.2511 3.56885,-5.76507 1.25442,-1.568029 2.63164,-2.745965 4.11791,-4.117906 1.0946,-1.010407 1.91254,-2.297798 3.01979,-3.294327 0.49049,-0.441436 1.15397,-0.659707 1.64717,-1.098108 0.55818,-0.744249 0.73802,-1.09188 1.37263,-1.647164 2.62649,-2.298171 5.58522,-4.76164 7.96129,-7.137704 1.16327,-1.16327 1.51292,-3.154045 1.64716,-3.019801 0.19412,0.194123 0,0.549056 0,0.823582 0,0.823582 0,1.647164 0,2.470745 0,2.36133 0.14735,4.780214 0,7.137705 -0.13513,2.162108 -0.54905,4.153275 -0.54905,6.314125 0,6.922198 -0.30068,13.948333 0,20.864062 0.15765,3.625906 1.22567,7.123869 1.64716,10.706558 0.0855,0.727059 -0.12035,1.474107 0,2.196219 0.95061,5.703654 1.37264,10.760159 1.37264,16.471627 0,1.75908 0.24877,3.749117 0,5.490539 -0.24658,1.72605 -0.85108,3.48677 -1.09811,5.21602 -0.30924,2.1647 -0.18893,4.42789 -0.54905,6.58865 -0.009,0.0555 -0.70339,5.68222 -1.92169,4.66696 -1.6448,-1.37066 -2.50457,-4.09155 -3.84339,-5.76507 -0.97683,-1.22104 -2.31439,-2.43256 -3.01979,-3.84338 -0.41049,-0.82097 -0.51531,-1.69367 -1.09811,-2.47074 -2.60803,-3.47737 -5.97973,-6.671885 -8.23582,-10.432032 -4.26401,-7.106687 -7.97482,-14.504995 -12.07919,-21.687644 -0.78728,-1.377746 -1.24111,-3.118953 -2.19622,-4.392435 -0.68681,-0.915744 -3.84338,-2.125112 -3.84338,-2.196216"
             id="path861" />
          <path
             style="fill:none;stroke:#000000;stroke-width:1.2;stroke-linecap:butt;stroke-linejoin:miter;stroke-miterlimit:4;stroke-dasharray:none;stroke-opacity:1"
             d="m 167.18703,87.29963 c 2.32217,2.636496 5.50113,4.403023 7.96128,6.863177 0.45605,0.456044 1.02348,1.641835 1.64717,2.196219 1.28054,1.138262 2.39771,2.223934 3.29432,3.568851 0.25175,0.377633 0.76349,4.178003 1.37264,3.568853 1.49838,-1.49838 3.76361,-2.07045 5.76507,-2.47074 0.44699,-0.0894 3.71257,-0.14372 3.84338,-0.27453 0.16541,-0.16541 0.54344,-5.380338 0.82358,-6.314124 0.54118,-1.803953 1.06718,-3.750587 1.64716,-5.490543 0.51832,-1.554951 6.47194,-8.451985 8.23582,-9.333923"
             id="path863" />
          <path
             style="fill:none;stroke:#000000;stroke-width:1.2;stroke-linecap:butt;stroke-linejoin:miter;stroke-miterlimit:4;stroke-dasharray:none;stroke-opacity:1"
             d="m 179.81528,103.2222 c 0,1.18015 0.0647,2.10701 -0.27453,3.29433 -0.771,2.69848 -2.74019,5.11266 -3.84338,7.68676 -0.92961,2.16908 -1.38191,4.5961 -1.92169,6.86318 -1.84034,7.72941 -2.37743,20.33397 -1.64716,28.00177 0.47817,5.02086 1.72115,9.83628 2.19621,14.82446 0.41766,4.38537 0.54955,8.7888 1.09811,13.1773 0.3278,2.62242 1.27453,5.07832 1.64716,7.68676 0.21795,1.52562 -0.11515,2.83373 0.27453,4.39244 0.0666,0.26633 -0.0211,-0.54987 0,-0.82358 0.0705,-0.91695 0.18302,-1.83018 0.27453,-2.74527"
             id="path865" />
          <path
             style="fill:none;stroke:#000000;stroke-width:1.2;stroke-linecap:butt;stroke-linejoin:miter;stroke-miterlimit:4;stroke-dasharray:none;stroke-opacity:1"
             d="m 191.89447,100.75146 c 0.45066,2.79057 2.18598,6.29877 3.84338,8.78487 1.4448,2.1672 3.06045,4.30598 4.66696,6.31412 1.18801,1.48501 2.93012,2.35865 4.11791,3.84338 1.30961,1.63702 2.11277,3.54794 3.29432,5.21602 1.09044,1.53943 2.44753,2.87535 3.56886,4.39243 1.27836,1.72955 2.11864,3.83402 3.01979,5.76507 0.79684,1.70751 1.96018,3.22855 2.74528,4.94149 2.57025,5.60784 3.55698,11.76907 5.49054,17.56974 0.74005,2.22015 1.7826,4.35217 2.47074,6.58865 0.74449,0.55423 0.10428,1.29742 0.27453,1.92169 0.6953,2.54943 1.5451,5.0506 1.92169,7.68676 0.0518,0.36235 -0.0888,0.743 0,1.09811 0.37966,1.51865 0.82358,3.40495 0.82358,4.94149"
             id="path867" />
          <path
             style="fill:none;stroke:#000000;stroke-width:1.2;stroke-linecap:butt;stroke-linejoin:miter;stroke-miterlimit:4;stroke-dasharray:none;stroke-opacity:1"
             d="m 116.94856,19.491427 c -0.0915,0.640563 -0.009,1.331616 -0.27453,1.92169 -1.54064,3.423661 -4.47788,6.224736 -6.03959,9.60845 -0.27918,0.604877 -0.30991,1.299898 -0.54906,1.92169 -1.59514,4.147365 -4.41925,7.947962 -6.58865,11.804666 -2.75449,4.896866 -4.782539,10.171927 -6.863177,15.373519 -0.926251,2.315628 -2.279812,4.495223 -3.019798,6.863181 -1.16926,3.741628 -0.472901,2.466033 -1.372638,5.765069 -0.05384,0.197411 -0.183017,0.366035 -0.274526,0.549053 -0.183017,0.457547 -0.445799,0.890783 -0.549055,1.372637 -0.173625,0.810255 -0.183018,1.647164 -0.274527,2.470743 -0.183017,1.006599 -0.327112,2.021059 -0.549052,3.0198 -0.251101,1.129943 -0.934413,2.148451 -1.098111,3.294325 -0.11647,0.815303 0.125232,1.656739 0,2.470745 -0.06223,0.404482 -0.41964,0.709867 -0.549053,1.098108 -0.495337,1.486009 -0.549577,3.20421 -1.098108,4.666962 -0.115851,0.308933 -0.484349,0.500046 -0.549055,0.823582 -0.125625,0.628123 0.04261,1.282543 0,1.921689 -0.249876,3.748141 -1.098109,7.169554 -1.098109,10.981084 0,0.41067 -0.235812,1.9604 0,2.19622 0.674415,0.67441 4.314675,1.02927 5.216015,1.37263 3.063324,1.16698 3.943053,2.13371 6.588651,4.11791 1.611167,1.20838 8.277573,6.59909 10.432033,7.13771 1.13982,0.28495 7.64402,1.6179 8.51034,1.0981 1.55565,-0.93339 0.51611,-0.82358 1.64716,-0.82358"
             id="path869" />
          <path
             style="fill:none;stroke:#000000;stroke-width:1.2;stroke-linecap:butt;stroke-linejoin:miter;stroke-miterlimit:4;stroke-dasharray:none;stroke-opacity:1"
             d="m 120.79194,103.77126 c -2.87822,2.15867 -0.31219,0.0837 -4.94149,5.76507 -0.69605,0.85424 -1.58498,1.55389 -2.19621,2.47074 -1.21225,1.81837 -1.88926,4.00874 -3.29433,5.76507 -5.5382,6.92275 -0.2155,-0.0681 -3.84338,4.11791 -2.36873,2.73315 -4.16552,5.81797 -6.588653,8.51034 -1.328309,1.4759 -2.563437,3.20341 -4.392432,4.11791 -0.301583,0.15079 -1.80657,0.44101 -1.647164,0.82358 1.738693,4.17286 4.607631,7.16401 6.863179,10.98108 1.85397,3.13749 3.6463,6.31953 5.21602,9.60846 1.62034,3.395 2.91394,7.21195 4.39243,10.70655 0.45754,1.0066 0.91509,2.0132 1.37264,3.0198 0.36603,0.64057 0.78894,1.25183 1.0981,1.92169 0.97327,2.10874 1.33687,4.44029 2.19622,6.58865"
             id="path871" />
          <path
             style="fill:none;stroke:#000000;stroke-width:1.2;stroke-linecap:butt;stroke-linejoin:miter;stroke-miterlimit:4;stroke-dasharray:none;stroke-opacity:1"
             d="m 227.03394,25.256497 c 1.64716,0.457545 3.46668,0.508092 4.94149,1.372635 1.28513,0.753351 2.01775,2.192068 3.0198,3.294327 2.50813,2.758943 5.10274,5.664586 7.13771,8.784868 3.19979,4.906359 2.06216,3.770442 4.66696,8.235815 1.86757,3.201543 4.33467,5.948831 6.31412,9.059394 1.56821,2.464326 2.99987,5.004207 4.66696,7.412233 0.66705,0.963517 1.56706,1.756595 2.19622,2.745272 2.75622,4.331194 -2.35167,-2.17868 1.64716,3.019798 1.93955,2.521413 4.15486,4.842123 6.03959,7.412233 1.99819,2.724777 3.36034,5.452308 5.21603,8.235815 0.0658,0.09867 1.51497,2.338554 1.64716,2.470743 1.67471,1.674712 2.21625,1.1924 1.92169,3.843379 -0.24093,2.168311 -4.02526,4.848844 -5.49055,6.314125 -2.43414,2.434151 -5.12797,4.943326 -8.23581,6.588656 -2.29831,1.21675 -8.90698,3.41644 -10.43203,4.94148"
             id="path873" />
          <path
             style="fill:none;stroke:#000000;stroke-width:1.2;stroke-linecap:butt;stroke-linejoin:miter;stroke-miterlimit:4;stroke-dasharray:none;stroke-opacity:1"
             d="m 244.60368,100.47693 c 2.84348,6.36135 9.23961,7.87886 15.09899,10.15751 4.63191,1.80129 9.40326,3.29473 13.72637,5.76507 1.28529,0.73445 2.76119,0.83951 3.84336,1.92169 0.82214,0.82213 0.27453,5.20061 0.27453,6.31412 0,5.15164 -0.51371,6.97864 -1.64716,12.07919 -1.04217,4.68974 -0.92781,9.62462 -2.19623,14.27542 -0.31271,1.14667 -1.2583,2.51663 -1.64713,3.29432 -0.32351,0.64699 -0.27453,3.29108 -0.27453,3.84338"
             id="path875" />
          <path
             style="fill:none;stroke:#000000;stroke-width:1.2;stroke-linecap:butt;stroke-linejoin:miter;stroke-miterlimit:4;stroke-dasharray:none;stroke-opacity:1"
             d="m 245.97632,43.375288 c 12.63047,5.617388 26.15996,7.615521 39.80643,8.235813 3.48954,0.158617 6.94817,-0.175001 10.43202,0.274529 7.34441,0.947663 14.56166,2.174454 21.68766,4.117906 5.21105,1.421196 12.39308,4.147428 16.74616,7.412233 0.61027,0.457713 0.79555,1.619131 1.37264,2.196216"
             id="path877" />
          <path
             style="fill:none;stroke:#000000;stroke-width:1.2;stroke-linecap:butt;stroke-linejoin:miter;stroke-miterlimit:4;stroke-dasharray:none;stroke-opacity:1"
             d="m 96.908079,53.80732 c -3.541265,0 1.681234,-0.100558 -6.863178,1.647163 -3.398877,0.695225 -5.921406,0.516819 -9.059396,1.372635 -2.271554,0.619514 -4.646343,2.055516 -7.137705,2.470745 -5.525399,0.920898 -10.833676,2.055572 -16.197101,3.84338 -5.008364,1.669454 -6.017783,4.666961 -12.353721,4.666961"
             id="path879" />
          <path
             style="fill:none;stroke:#000000;stroke-width:1.2;stroke-linecap:butt;stroke-linejoin:miter;stroke-miterlimit:4;stroke-dasharray:none;stroke-opacity:1"
             d="m 96.865881,-51.24768 c -0.671471,-0.266118 -3.304755,-1.420405 -4.27064,-0.77648 -0.507918,0.338611 -0.640501,1.039468 -0.9706,1.552961 -1.540534,2.396384 -3.529915,6.898931 -2.329439,9.900118 0.388771,0.971934 1.088207,1.382324 1.747078,2.13532 0.870648,0.995026 2.775537,3.221635 3.300039,4.270642"
             id="path881" />
          <path
             style="fill:none;stroke:#000000;stroke-width:1.2;stroke-linecap:butt;stroke-linejoin:miter;stroke-miterlimit:4;stroke-dasharray:none;stroke-opacity:1"
             d="m 109.09544,-74.7362 c 2.07936,-0.288507 4.08073,-1.003657 6.21184,-1.358841 0.70508,-0.117513 1.48827,-0.693291 2.13532,-0.970601 0.65173,-0.279312 1.28243,-0.256484 1.9412,-0.388239 1.01648,-0.203295 1.77585,-0.850775 2.71768,-1.164719 2.07923,-0.693076 4.62529,-1.070978 6.7942,-1.552962 0.86473,-0.192161 1.62882,-0.746913 2.52356,-0.9706 0.45104,-0.112757 1.32144,0.212821 1.74708,0 0.61076,-0.305376 0.75647,-0.283964 1.74708,-0.388239 1.28394,-0.135151 2.64634,-0.427852 3.8824,-0.582361 1.51943,-0.189926 3.14911,0.25163 4.65888,0 1.18531,-0.197548 2.29945,-0.268766 3.49416,-0.388239 1.36323,-0.136324 2.73293,-0.390416 4.07652,-0.582358 2.74637,-0.39234 6.09815,0 8.92952,0 1.01691,0 2.92674,-0.127754 4.07652,0 0.87442,0.09716 3.51489,0.01037 4.27064,0.388239 0.97917,0.489587 1.2422,0.781955 2.13532,1.164719 0.30326,0.129972 0.67549,0.04657 0.9706,0.19412 0.32672,0.163359 0.70342,0.907566 1.35884,0.77648 0.30546,-0.06109 3.46317,-1.327848 3.68828,-1.552961 0.38524,-0.385241 -0.9193,-0.06135 0.38824,-0.388239 1.54626,-0.386564 3.07677,-0.356343 4.65888,-0.582358 1.39872,-0.199819 5.88478,-0.04431 7.18244,0.388239 0.17363,0.05788 0.21462,0.330364 0.38824,0.388239 0.55588,0.185293 1.223,-0.06792 1.74708,0.194119 0.3451,0.172554 -0.40981,0.280398 0.19412,0.194122 1.32755,-0.18965 3.03364,-0.558265 4.27064,-0.9706 1.66977,-0.55659 3.41485,-1.486167 5.24124,-1.747081 0.51245,-0.07321 1.0393,0.06421 1.55296,0 0.71195,-0.08899 1.41178,-0.491918 2.13532,-0.582361 0.76327,-0.09541 1.56816,0.108755 2.32944,0 1.91314,-0.273304 3.89018,0.02072 5.8236,-0.194119 1.92967,-0.214408 3.86153,-0.19412 5.8236,-0.19412 1.88948,0 3.94808,-0.234439 5.8236,0 1.56503,0.195628 0.39645,0.230161 2.13532,0.388239 0.36241,0.03295 1.12985,-0.105775 1.55296,0 1.37289,0.343223 1.94317,1.748065 3.10592,2.329442 1.67254,0.836271 5.75252,3.678722 6.7942,5.24124 0.21405,0.321077 0.54624,0.934474 0.77648,1.16472 0.20032,0.200318 2.39247,-0.01312 2.52356,0 0.66929,0.06693 0.9689,0.19355 1.55296,0.388239"
             id="path883" />
          <path
             style="fill:none;stroke:#000000;stroke-width:1.2;stroke-linecap:butt;stroke-linejoin:miter;stroke-miterlimit:4;stroke-dasharray:none;stroke-opacity:1"
             d="m 106.57188,-70.077321 c 1.52067,-0.462799 3.98471,-0.413816 5.43536,-0.776478 0.92885,-0.232214 0.61676,-0.393155 1.9412,-0.582361 2.17414,-0.310592 0.55463,0.22185 2.32944,0 1.21422,-0.151779 2.44202,-0.478505 3.68828,-0.582361 0.58035,-0.04836 1.17603,0.11421 1.74708,0 1.12818,-0.225634 2.45967,-0.710147 3.10592,0.582361 0.43376,0.867518 0.72473,2.122413 0.9706,3.10592 0.215,0.860012 0.7059,1.729467 0.9706,2.523558 0.54866,1.645992 0.52851,3.699595 0.77648,5.435362 0.17064,1.194493 0.89474,2.414252 1.16472,3.494159 0.21699,0.867963 0.1466,1.871948 0.38824,2.717681 0.19943,0.698 0.70333,1.078897 0.9706,1.747081 0.0908,0.227018 0.0626,0.773295 0.19412,0.9706 0.0803,0.120388 0.30143,0.07837 0.38824,0.194119 0.26114,0.348181 0.32387,0.971108 0.58236,1.358839 0.29731,0.445966 0.11088,-0.08324 0.58236,0.388239 1.34431,1.344311 2.37735,2.280542 4.07652,3.300043 0.56985,0.34191 1.01508,0.806129 1.55296,1.164719 0.69208,0.461386 1.42861,0.617244 2.13532,0.9706 1.26405,0.632024 -0.38696,0.194546 0.77648,0.582359 5.81811,1.939372 12.84373,1.268468 18.4414,-0.9706 1.38921,-0.555684 2.91458,-0.850316 4.27064,-1.358839 0.76877,0.02328 1.12853,-0.723181 1.74708,-0.970601 0.18337,-0.07334 0.62459,-0.04223 0.77648,-0.194119 0.11071,-0.110704 0.0992,-0.634151 0.19412,-0.776481 1.50011,-2.250162 2.42542,-4.558577 3.30004,-7.18244 0.0738,-0.221329 0.31446,-0.361029 0.38824,-0.582358 0.38854,-1.165622 0.34406,-2.49677 0.58236,-3.688281 0.156,-0.780016 0.67644,-1.594035 0.9706,-2.329439 0.39624,-0.990587 0.484,-2.082221 0.77648,-3.10592 0.23953,-0.838341 0.71627,-1.566442 0.9706,-2.329442 0.10231,-0.30693 -0.0634,-0.653349 0,-0.9706 0.0803,-0.401514 2.36201,-4.578104 2.52356,-4.658879 1.74804,-0.874019 7.37794,-2.689357 9.12364,-1.9412 0.43334,0.185716 5.47287,2.329439 5.8236,2.329439 0.0757,3.188354 0.57502,6.969967 1.74708,9.90012 0.77563,1.93907 -0.54021,-1.468671 0.58236,0.77648 0.1703,0.340596 0.0507,1.000374 0.19412,1.35884 0.52537,1.313416 1.40826,2.550048 1.9412,3.8824 0.99268,2.481685 1.94381,4.773526 3.49416,6.98832 0.36125,0.51606 0.47332,1.292332 0.77648,1.74708 0.49143,0.737141 1.84222,2.551315 2.71768,2.9118 2.18335,0.899026 4.52149,1.228287 6.7942,1.55296 1.09355,0.156221 2.1988,0.444704 3.30004,0.58236 3.5508,0.443849 7.27388,0.19412 10.87072,0.19412 1.23548,0 2.66598,0.173775 3.8824,0 0.25849,-0.03693 0.43533,-0.525502 0.77648,-0.58236 0.6547,-0.109115 1.7377,-0.0332 2.32944,-0.38824 0.27743,-0.166456 0.48711,-0.437671 0.77648,-0.58236 0.87664,-0.438318 2.66425,-0.475487 3.10592,-1.35884 0.45045,-0.900896 0.93861,-1.931264 1.35884,-2.9118 0.36913,-0.861285 0.42639,-1.842445 0.77648,-2.71768 0.068,-0.169928 0.3064,-0.224544 0.38824,-0.38824 0.67299,-1.345974 1.14464,-3.035624 1.55296,-4.46476 1.0568,-3.698789 -0.22716,1.6521 0.77648,-1.35884 0.18808,-0.564226 0.10713,-1.184846 0.38824,-1.74708 0.34783,-0.695661 0,-2.672198 0,-3.49416 0,-0.538213 0.1061,-0.830668 0.19412,-1.35884 0.34639,-2.078308 0,-4.489724 0,-6.60008 0,-0.151998 -0.0969,-0.873739 0,-0.9706 0.47042,-0.470411 0.88999,-0.889986 1.35884,-1.35884"
             id="path885" />
          <path
             style="fill:none;stroke:#000000;stroke-width:1.2;stroke-linecap:butt;stroke-linejoin:miter;stroke-miterlimit:4;stroke-dasharray:none;stroke-opacity:1"
             d="m 129.47804,-67.942001 c -0.13609,-1.447033 -0.46952,-3.638545 0,-5.047121 0.18946,-0.56837 0.59269,-1.195699 0.77648,-1.747078 0.0418,-0.125325 -0.0889,-0.643196 0,-0.77648 0.25004,-0.375055 0.58131,-0.96955 0.77648,-1.16472 1.49358,-1.493576 8.87766,-1.9412 11.25896,-1.9412 2.16156,0 4.29419,-0.12427 6.40596,-0.388239 2.73336,-0.34167 5.7983,0 8.54128,0 1.72711,0 8.40975,0.839065 9.706,2.13532 0.53424,0.534233 1.18369,1.590891 1.55296,2.329439 0.14948,0.298963 0.0446,0.865756 0.19412,1.164719 0.24659,0.493171 0.23201,-0.198802 0.38824,0.582362 0.52304,2.615199 0.44068,8.719769 -0.19412,11.25896 -0.0702,0.280736 -0.31805,0.495741 -0.38824,0.776478 -0.13632,0.54529 -0.0133,1.204745 -0.19412,1.74708 -0.0644,0.193313 -0.3238,0.389049 -0.38824,0.582361 -0.24325,0.729753 -0.21664,1.598007 -0.58236,2.32944 -0.29599,0.591981 -0.15389,-0.355034 -0.38824,0.582361 -0.54354,2.174184 -0.51234,4.588859 -2.13532,6.21184 -1.24508,1.245079 -2.80494,2.108604 -4.46476,2.523558 -0.22634,0.05658 -0.35602,0.331656 -0.58236,0.388242 -0.37665,0.09416 -0.78402,-0.07614 -1.16472,0 -0.093,0.0186 -0.68344,0.369631 -0.77648,0.388239 -1.91771,0.383543 -5.15438,0 -7.18244,0 -1.31565,0 -3.92951,0.372539 -5.04712,0 -0.63366,-0.211222 -0.16272,-0.253593 -0.9706,-0.388239 -0.56691,-0.09449 -1.17789,0.08131 -1.74708,0 -2.1817,-0.311671 -6.67234,-1.309246 -7.7648,-3.494162 -0.29819,-0.596378 -0.10949,0.321064 -0.58236,-0.388239 -0.18302,-0.274529 -0.0244,-0.687678 -0.19412,-0.9706 -0.14124,-0.235405 -0.45959,-0.336817 -0.58236,-0.582361 -0.34914,-0.698288 -0.7246,-1.591424 -0.9706,-2.329439 -0.17653,-0.529585 -0.16929,-1.199713 -0.38824,-1.747081 -0.12704,-0.317608 -0.48916,-0.597781 -0.58236,-0.9706 -0.202,-0.807985 -0.25273,-1.710481 -0.38824,-2.523559 -0.23412,-1.404702 -0.0924,0.305171 -0.38824,-0.582361 -0.15762,-0.472863 -0.16901,-3.080805 -0.38824,-3.300039 -0.0457,-0.04575 -0.17366,0.06139 -0.19412,0 -0.10231,-0.30693 0.10231,-0.66367 0,-0.9706 -0.49509,-1.485263 -0.9706,-1.932684 -0.9706,-3.688281 z"
             id="path887" />
          <path
             style="fill:none;stroke:#000000;stroke-width:1.2;stroke-linecap:butt;stroke-linejoin:miter;stroke-miterlimit:4;stroke-dasharray:none;stroke-opacity:1"
             d="m 195.0906,-69.106721 c -0.13617,-0.623469 -0.76405,-2.160183 -0.38824,-2.9118 0.61129,-1.222571 2.22206,-2.297433 3.30004,-3.10592 0.41423,-0.310669 1.23193,-0.455449 1.55296,-0.776478 0.10231,-0.102312 0.0737,-0.307983 0.19412,-0.388242 0.16152,-0.107677 0.4451,0.137263 0.58236,0 0.54999,-0.549987 2.19365,-1.110038 3.10592,-1.358839 2.73637,-0.746284 5.85023,-0.682083 8.7354,-0.9706 2.15372,-0.215374 4.43344,0 6.60008,0 0.79383,0 1.53293,-0.19412 2.32944,-0.19412 1.14167,0 2.36715,0.161002 3.49416,0 1.97498,-0.282141 6.65031,-0.532127 8.15304,0.9706 0.82241,0.822413 1.9284,1.919867 2.52356,2.911801 0.69439,1.157316 1.22646,6.220738 0.77648,7.570679 -0.14598,0.437954 -0.32105,0.888521 -0.38824,1.358839 -0.0561,0.392956 0.10074,0.955894 0,1.358842 -0.25776,1.031025 -0.33318,2.109218 -0.58236,3.10592 -0.10676,0.427058 0.0865,0.926443 0,1.358839 -0.10464,0.523224 -0.31278,1.024739 -0.38824,1.552961 -0.0726,0.50822 -0.0291,1.057804 -0.19412,1.552959 -0.22041,0.661228 -0.6357,1.237318 -0.77648,1.9412 -0.51647,2.582368 -1.89426,4.417824 -3.49416,6.01772 -0.03,0.03002 -0.17517,0.380661 -0.19412,0.388239 -1.71483,0.685935 -3.52818,0.490972 -5.24124,0.776481 -1.51812,0.253021 -3.0962,0.516032 -4.65888,0.77648 -1.57159,0.261933 -3.44569,0 -5.04712,0 -2.36209,0 -5.84897,0.333367 -7.95892,-0.194119 -0.0888,-0.0222 -0.12941,-0.129416 -0.19412,-0.194122 -0.32353,-0.06471 -0.64397,-0.147458 -0.9706,-0.19412 -0.26741,-0.0382 -1.17127,0.187571 -1.35884,0 -0.47764,-0.477639 -1.28859,-0.729646 -1.9412,-1.164719 -2.43888,-1.625926 -3.81734,-6.016676 -4.65888,-8.541279 -0.22109,-0.663284 -0.73291,-1.42225 -0.9706,-2.13532 -0.0819,-0.245547 0.0628,-0.525383 0,-0.776481 -0.26265,-1.050597 -0.62364,-2.065054 -0.9706,-3.10592 -0.0971,-0.291182 0.19412,-0.194119 0,-0.582361 -0.67959,-1.359194 -0.9706,-3.29388 -0.9706,-5.04712 z"
             id="path889" />
          <path
             style="fill:none;stroke:#000000;stroke-width:1.2;stroke-linecap:butt;stroke-linejoin:miter;stroke-miterlimit:4;stroke-dasharray:none;stroke-opacity:1"
             d="m 166.55496,-36.68868 c -0.84923,0.838927 -1.20139,2.390563 -1.74708,3.300039 -0.0744,0.124071 -0.30798,0.07373 -0.38824,0.19412 -0.13586,0.203792 0,1.12726 0,1.358841 0,2.908811 1.37928,5.261679 3.30004,7.18244 0.24009,0.240091 1.5718,0 1.9412,0"
             id="path891" />
          <path
             style="fill:none;stroke:#000000;stroke-width:1.2;stroke-linecap:butt;stroke-linejoin:miter;stroke-miterlimit:4;stroke-dasharray:none;stroke-opacity:1"
             d="m 169.66088,-24.65324 c 0.64707,-0.77648 1.17378,-1.671652 1.9412,-2.329439 0.29611,-0.253809 2.15009,0.0074 2.52356,0.19412 0.38084,0.190418 4.39112,2.061684 4.46476,2.135319 2.35991,2.359914 2.61723,2.9118 6.40596,2.9118 0.47206,0 1.61883,0.128252 1.9412,-0.19412 0.72169,-0.721693 1.62484,-0.953815 2.52356,-1.55296 0.3683,-0.245532 0.64655,-0.840673 0.9706,-1.16472 1.38815,-1.388151 2.49593,-2.70847 4.27064,-3.300039 1.36602,-0.45534 2.22467,1.78444 4.07652,1.552959 0.0945,-0.01181 1.25858,-0.09386 1.55296,-0.388239 1.37684,-1.376839 2.58469,-5.507226 1.55296,-7.570682 -0.16512,-0.330248 0.18833,-0.394033 -0.19412,-0.776478 -0.2073,-0.207298 -0.54733,-0.353211 -0.77648,-0.582361 -0.38653,-0.38653 -0.48844,-0.72952 -0.9706,-0.9706"
             id="path893" />
          <path
             style="fill:none;stroke:#000000;stroke-width:1.2;stroke-linecap:butt;stroke-linejoin:miter;stroke-miterlimit:4;stroke-dasharray:none;stroke-opacity:1"
             d="m 156.46072,-8.5412801 c 1.12577,0.4367403 2.28072,1.4437193 3.49416,1.74708 1.18822,0.2970551 7.49867,0.230124 8.34716,-0.1941201 0.81357,-0.4067823 1.62811,-0.5973892 2.52356,-0.7764798 0.3801,-0.076021 0.65701,-0.425564 0.9706,-0.5823601 0.9763,-0.4881483 2.07791,-0.6296213 3.10592,-0.7764798 0.15674,-0.022392 0.37297,-0.2838609 0.58236,-0.1941201 0.85302,0.3655812 2.6732,0.7886145 3.30004,1.1647199 1.64417,0.9864992 3.56736,2.5477433 5.62948,2.1353201 0.6589,-0.1317789 1.20366,-1.2036587 1.55296,-1.55296 0.34363,-0.3436286 1.12308,-0.4898943 1.55296,-0.7764801 1.36333,-0.9088837 1.85632,-1.7361559 3.68828,-1.5529599 2.29752,0.229752 4.69638,1.0603018 6.60008,2.32944 1.12766,0.7517723 2.35235,1.7185442 3.68828,1.9412 1.3489,0.224817 8.16654,0.5756108 8.92952,0.19412 0.16823,-0.084113 0.0677,-0.38824 0.38824,-0.38824"
             id="path895" />
          <path
             style="fill:none;stroke:#000000;stroke-width:1.2;stroke-linecap:butt;stroke-linejoin:miter;stroke-miterlimit:4;stroke-dasharray:none;stroke-opacity:1"
             d="m 165.39024,-2.52356 c 1.85135,0.3486804 4.1202,2.26635172 4.65888,3.8824 0.1043,0.3128955 0.62675,0.4770217 0.77648,0.77648 0.1724,0.3448102 0.29023,0.8725911 0.58236,1.1647199 2.41674,2.4167391 6.36489,2.9832591 9.51188,3.8824 0.79672,0.2276346 2.08264,0 2.9118,0 0.37989,0 1.16898,0.1279941 1.55296,0 0.96659,-0.322195 2.2245,-0.4691811 3.30004,-0.7764798 0.22433,-0.064093 0.35602,-0.3316557 0.58236,-0.3882401 0.76911,-0.1922769 1.5374,-0.3843499 2.32944,-0.58236 0.29138,-0.072846 2.03805,-1.5771723 2.71768,-1.74708 0.18832,-0.047081 0.3982,0.061386 0.58236,0 0.0614,-0.020463 -0.0457,-0.1483654 0,-0.19412 0.11071,-0.1107049 0.63415,-0.099234 0.77648,-0.1941201 1.06486,-0.7099038 4.65888,-2.9640532 4.65888,-4.4647599"
             id="path897" />
          <path
             style="fill:none;stroke:#000000;stroke-width:1.2;stroke-linecap:butt;stroke-linejoin:miter;stroke-miterlimit:4;stroke-dasharray:none;stroke-opacity:1"
             d="m 120.54852,1.16472 c 1.65779,3.5468794 3.83527,6.8269406 5.24124,10.48248 1.85797,4.830724 2.93754,11.526365 8.54128,13.39428 0.81029,0.270095 1.85331,0.77648 2.71768,0.77648"
             id="path899" />
          <path
             style="fill:none;stroke:#000000;stroke-width:1.2;stroke-linecap:butt;stroke-linejoin:miter;stroke-miterlimit:4;stroke-dasharray:none;stroke-opacity:1"
             d="m 134.33104,-6.01772 c 1.28511,3.7988157 3.18118,7.4425667 4.853,11.0648399 0.74528,1.6147804 1.21237,3.2495738 1.9412,4.8530001 0.59027,1.298605 0.64002,2.76476 1.16472,4.07652 0.54914,1.372842 1.42961,2.418011 2.13532,3.68828 0.67835,1.221032 1.00583,2.696391 1.74708,3.8824 0.76241,1.219849 1.49476,2.519731 2.32944,3.68828 0.15957,0.223392 0.44112,0.346955 0.58236,0.58236 0.77727,1.295444 1.35302,2.710693 2.32944,3.8824 1.05653,1.26783 0.0735,-0.120579 1.35884,1.164719 0.84631,0.846305 1.33194,1.81106 2.32944,2.523562 0.64502,0.460724 1.47739,0.55939 2.13532,0.9706 0.2328,0.145497 0.344,0.446156 0.58236,0.582359 0.89093,0.509103 2.6603,0.936278 3.68828,1.164719 0.25266,0.05615 0.52761,-0.0711 0.77648,0 0.22433,0.0641 0.36391,0.306324 0.58236,0.388242 2.59501,0.973127 6.3687,1.186656 9.12364,1.358839 0.92753,-0.04161 1.80492,0.323043 2.71768,0.388239 1.97876,0.14134 4.03394,0 6.01772,0 2.4017,0 4.81685,0.101581 7.18244,-0.19412 1.29568,-0.161959 2.59319,-0.0016 3.8824,-0.388239 0.22347,-0.06704 0.35804,-0.324146 0.58236,-0.388239 0.8415,-0.240429 5.69338,-0.84038 6.01772,-1.164722 0.85004,-0.850035 1.40193,-0.650134 2.52356,-0.9706 0.78036,-0.222956 1.96265,-0.829149 2.71768,-1.16472 1.03074,-0.458102 1.91406,-1.248209 2.9118,-1.747078 1.54792,-0.773959 3.02485,-1.369496 4.46476,-2.329442 0.16947,-0.112979 0.63803,-0.101817 0.77648,-0.194119 0.12039,-0.08026 0.0918,-0.28593 0.19412,-0.388239 0.26679,-0.266793 0.76131,-0.268428 0.9706,-0.582361 0.0718,-0.107678 -0.0718,-0.280562 0,-0.388239 0.16052,-0.240776 0.57186,-0.183621 0.77648,-0.388242 0.20462,-0.204618 0.20747,-0.550513 0.38824,-0.776478 1.23705,-1.546315 1.74708,-2.546156 1.74708,-4.464761"
             id="path903" />
          <path
             style="fill:none;stroke:#000000;stroke-width:1.2;stroke-linecap:butt;stroke-linejoin:miter;stroke-miterlimit:4;stroke-dasharray:none;stroke-opacity:1"
             d="m 230.80868,7.37656 c -0.52387,1.5471264 -1.31292,3.171013 -2.32944,4.46476 -0.39575,0.503687 -0.93032,0.882713 -1.35884,1.35884 -0.89274,0.991934 -1.47694,2.277037 -2.32944,3.30004 -1.4183,1.701959 -3.42969,4.033539 -5.24124,5.24124 -1.21672,0.81115 -2.08402,1.712881 -3.30004,2.52356 -0.39605,0.264035 -0.7782,0.583219 -1.16472,0.77648 -0.12941,0.06471 -0.24606,0.523285 -0.19412,0.38824 0.34532,-0.897817 0.64706,-1.811787 0.9706,-2.71768"
             id="path905" />
          <path
             style="fill:none;stroke:#000000;stroke-width:1.2;stroke-linecap:butt;stroke-linejoin:miter;stroke-miterlimit:4;stroke-dasharray:none;stroke-opacity:1"
             d="m 169.46676,-4.4647601 c 2.89599,0.1700631 5.61383,1.2578681 8.34716,1.9412001 1.64343,0.4108571 3.56516,-0.2793472 5.24124,0 1.57283,0.2621374 3.63089,0.4625118 5.24124,0.19412 0.71571,-0.1192853 2.79112,-0.5220214 3.30004,-0.7764799 0.69318,-0.3465909 1.89181,-0.9706001 2.71768,-0.9706001"
             id="path907" />
          <path
             style="fill:none;stroke:#000000;stroke-width:1.2;stroke-linecap:butt;stroke-linejoin:miter;stroke-miterlimit:4;stroke-dasharray:none;stroke-opacity:1"
             d="m 157.81956,-30.47684 c -0.90834,1.589595 -1.15863,2.211284 -2.71768,3.688281 -3.50929,3.324594 -0.36144,-0.415042 -2.71768,1.941199 -1.63409,1.634088 -3.45898,3.131227 -5.24124,4.65888 -0.45295,0.38824 -0.98107,0.703003 -1.35884,1.16472 -0.40355,0.493233 -0.4603,1.19376 -0.77648,1.74708 -1.28675,2.25181 -2.30566,3.613068 -1.74708,6.40596 0.45957,2.2978539 3.10592,5.4135997 3.10592,6.7942"
             id="path909" />
          <path
             style="fill:none;stroke:#000000;stroke-width:1.2;stroke-linecap:butt;stroke-linejoin:miter;stroke-miterlimit:4;stroke-dasharray:none;stroke-opacity:1"
             d="m 208.29076,-32.029799 c 1.36007,1.741556 3.11364,3.11364 4.65888,4.658878 0.76407,0.764075 0.008,0.394301 0.77648,0.970601 0.42253,0.316898 0.97944,0.591204 1.35884,0.9706 1.15473,1.154733 2.02864,2.651218 3.10592,3.8824 2.2632,2.58652 4.10233,4.166315 4.46476,8.15304 0.17094,1.880292 0.35199,3.9291842 0.19412,5.8236 -0.0821,0.9857266 -0.58236,1.7564489 -0.58236,2.7176799"
             id="path911" />
          <path
             style="fill:none;stroke:#000000;stroke-width:1.2;stroke-linecap:butt;stroke-linejoin:miter;stroke-miterlimit:4;stroke-dasharray:none;stroke-opacity:1"
             d="m 108.12484,-35.523961 c 0.60672,6.067227 -0.33822,-1.70779 0.77648,3.494162 0.0814,0.379621 -0.0352,0.778073 0,1.16472 0.0753,0.828034 0.38735,1.743532 0.58236,2.523558 0.1993,0.797211 0.64936,1.579883 0.9706,2.329441 0.29539,0.689242 0.32499,1.449009 0.58236,2.13532 0.1671,0.445599 0.56862,0.943116 0.77648,1.35884 0.44669,0.893383 0.73397,2.159409 0.9706,3.10592 0.26655,1.066188 1.09451,2.048585 1.35884,3.10592 0.19224,0.76896 0.13859,1.774605 0.38824,2.52356 0.46121,1.383636 1.35884,2.758108 1.35884,4.27064 0,0.9409724 0.23839,1.4303613 0.38824,2.3294401 0.15051,0.9030673 0,1.9986214 0,2.9117998 0,0.6470666 0,1.2941335 0,1.9412001 0,0.2588267 0.14889,0.9881979 0,0.77648 -0.26529,-0.3772569 -0.46797,-0.7948743 -0.70195,-1.1923114"
             id="path913" />
          <path
             style="fill:none;stroke:#000000;stroke-width:1.2;stroke-linecap:butt;stroke-linejoin:miter;stroke-miterlimit:4;stroke-dasharray:none;stroke-opacity:1"
             d="m 139.59705,-61.768606 c 0.77008,1.237282 2.1565,1.712191 3.29433,2.470743 3.35344,2.235631 6.55303,2.078165 10.43203,1.647164 0.55358,-0.06151 1.56177,-0.525275 2.05895,-0.823582 0.11097,-0.06658 0.15175,-0.233603 0.27453,-0.274527 0.17362,-0.05788 0.3715,0.04439 0.54905,0 0.67004,-0.167507 1.38901,-0.654208 1.92169,-1.098108 0.46454,-0.387117 0.24034,-0.686488 0.54906,-1.098108 0.009,-0.386498 0.30948,-0.03495 0.41179,-0.137263 0.0457,-0.04576 0.0915,-0.366038 0.13726,-0.411792 0.35278,-0.352777 1.09811,-0.746765 1.09811,-1.098108"
             id="path917" />
          <path
             style="fill:none;stroke:#000000;stroke-width:1.2;stroke-linecap:butt;stroke-linejoin:miter;stroke-miterlimit:4;stroke-dasharray:none;stroke-opacity:1"
             d="m 161.01017,-70.553473 c -0.18302,0.09151 -0.34774,0.237921 -0.54906,0.274526 -1.4677,0.266856 -3.86727,-0.561345 -5.35328,-0.823582 -3.27775,-0.578426 -6.57159,-0.916985 -9.88297,-0.549055 -0.71104,0.079 -1.23965,0.0016 -1.92169,0.274529 -0.39719,0.158874 -3.15707,1.49565 -3.15707,1.784427"
             id="path919" />
          <path
             style="fill:none;stroke:#000000;stroke-width:1.2;stroke-linecap:butt;stroke-linejoin:miter;stroke-miterlimit:4;stroke-dasharray:none;stroke-opacity:1"
             d="m 133.83198,-65.062933 c 2.62641,-0.763373 5.05907,-1.956961 7.68676,-2.745271 0.32938,-0.09881 0.8172,-0.360717 1.09811,-0.41179 1.27334,-0.231516 2.5775,-0.116292 3.84338,-0.274526 1.79439,-0.224301 0.20906,-0.03485 1.64716,-0.274529 1.9875,-0.331248 4.1689,0.182544 6.17686,0 0.57852,-0.05259 1.06903,-0.137263 1.64717,-0.137263 0.87908,0 1.87973,-0.144254 2.74527,0 0.56774,0.09462 1.08353,0.317854 1.64716,0.411792 0.64937,0.108228 1.43581,0.790823 1.37264,0.411789 -0.14053,-0.843134 -0.45755,-1.647161 -0.68632,-2.470742"
             id="path921" />
          <path
             style="fill:#333333;stroke:#000000;stroke-width:1.2;stroke-linecap:butt;stroke-linejoin:miter;stroke-miterlimit:4;stroke-dasharray:none;stroke-opacity:1"
             d="m 145.08759,-67.808204 c -0.0871,2.410608 1.3466,5.756391 3.84338,6.588651 0.72115,0.240385 1.70962,-0.01497 2.47075,0.137266 0.36409,0.07282 1.62365,0.4353 1.92169,0.137263 0.36408,-0.364088 2.36116,-2.663367 2.60801,-3.157064 0.0614,-0.122772 -0.0269,-0.27719 0,-0.411789 0.0959,-0.479592 0.29897,-0.722998 0.54905,-1.098108 0.17221,-0.258313 -0.14123,-0.815647 0,-1.098108 0.14034,-0.280689 0.24519,-1.539235 0,-1.784427 -0.18898,-0.188979 -6.15689,0.259866 -7.13771,0.137263 -1.50632,-0.188291 -3.02962,-0.431385 -4.25517,0.549053 z"
             id="path925" />
          <path
             style="fill:#000000;stroke:#000000;stroke-width:1.2;stroke-linecap:butt;stroke-linejoin:miter;stroke-miterlimit:4;stroke-dasharray:none;stroke-opacity:1"
             d="m 151.65625,-66.43757 c -0.38018,-0.01093 -0.77497,-0.01061 -1.11619,0.194119 -0.19868,0.119211 -0.21873,0.536607 -0.24265,0.727951 -0.0902,0.721672 -0.25009,0.870884 0.43677,1.11619 0.35771,0.127751 0.21311,0.09706 0.58236,0.09706 0.003,0 0.53912,0.04324 0.58236,0 0.0256,-0.02558 0.0324,-0.06471 0.0485,-0.09706 0.0809,-0.08088 0.15716,-0.166656 0.24265,-0.242649 0.10401,-0.09245 0.25278,-0.133988 0.33971,-0.242652 0.11679,-0.145984 0.0971,-0.432303 0.0971,-0.582359 0,-0.834763 -0.15314,-0.9706 -0.9706,-0.9706 z"
             id="path927" />
          <path
             style="fill:#ffffff;stroke:#000000;stroke-width:0.6;stroke-linecap:butt;stroke-linejoin:miter;stroke-miterlimit:4;stroke-dasharray:none;stroke-opacity:1"
             d="m 151.65625,-66.43757 c 0.0324,-0.275003 0.0971,-0.548111 0.0971,-0.825011 0,-0.0016 -0.0735,0.0127 -0.29118,0.19412 -0.17124,0.1427 -0.14559,0.283977 -0.14559,0.485301 0,0.484717 0.5541,0.755592 0.9706,0.825008 0.0412,0.0069 0.37123,0.0057 0.38824,0 0.2313,-0.0771 0.55957,-1.307359 0.43677,-1.552958 -0.0539,-0.107792 -0.29864,-0.115727 -0.38824,-0.14559 -0.41091,-0.136972 -0.72781,-1.43e-4 -1.01913,0.291179 -0.0903,0.09028 -0.12021,0.1329 -0.24265,0.19412 -0.0145,0.0072 -0.0541,-0.01521 -0.0485,0 0.0668,0.183697 0.16177,0.355888 0.24265,0.533831"
             id="path929" />
          <path
             style="fill:none;stroke:#000000;stroke-width:1.2;stroke-linecap:butt;stroke-linejoin:miter;stroke-miterlimit:4;stroke-dasharray:none;stroke-opacity:1"
             d="m 199.58123,-67.533675 c 1.82427,-1.62391 4.14394,-2.601381 6.0396,-4.117909 0.44459,-0.355671 0.77695,-1.097582 1.23537,-1.372635 0.75408,-0.45245 1.80006,-0.912193 2.60801,-1.235371 1.86989,-0.747958 7.37617,-0.934349 9.60845,-0.686318 0.59135,0.06571 1.08594,0.395993 1.64716,0.549052 0.68005,0.185471 1.2282,0.270942 1.78443,0.549056 0.3641,0.182049 0.78557,0.823581 1.0981,0.823581"
             id="path931" />
          <path
             style="fill:none;stroke:#000000;stroke-width:1.2;stroke-linecap:butt;stroke-linejoin:miter;stroke-miterlimit:4;stroke-dasharray:none;stroke-opacity:1"
             d="m 201.64018,-65.062933 c 0.68039,-1.264626 2.56524,-1.435629 3.70612,-2.196216 0.16949,-0.11299 0.75196,-0.638572 0.82358,-0.686318 0.13689,-0.09126 0.54418,-0.05198 0.68632,-0.137264 0.16646,-0.09988 0.25383,-0.29896 0.41179,-0.411789 1.98001,-1.414291 6.36717,-1.436849 8.78487,-1.235374 1.525,0.127085 2.97228,0.411792 4.5297,0.411792 0.41157,0 3.29432,0.841568 3.29432,1.235371"
             id="path933" />
          <path
             style="fill:none;stroke:#000000;stroke-width:1.2;stroke-linecap:butt;stroke-linejoin:miter;stroke-miterlimit:4;stroke-dasharray:none;stroke-opacity:1"
             d="m 201.0225,-63.209873 c 0.0541,0.251949 -0.0945,0.647536 0.0686,0.892212 0.1806,0.270907 0.46257,0.462568 0.68632,0.686319 0.12,0.119999 0.64437,0.684583 0.75495,0.754948 0.62657,0.39873 1.46569,0.536517 2.19621,0.617686 0.68881,0.07654 1.46668,-0.127098 2.12759,0.137266 0.27982,0.111927 0.68844,0.222086 0.96084,0.343157 0.10453,0.04646 0.17067,0.157961 0.27453,0.205896 0.44744,0.206507 0.90228,0.402066 1.37264,0.549055 0.21944,0.06858 0.46188,0.01876 0.68631,0.06863 1.60662,0.357026 3.24972,0.446829 4.87286,0.617686 0.80232,0.08445 1.60509,0.312163 2.40211,0.411792 0.22318,0.101055 0.45895,-0.02527 0.68632,0 1.34003,0.148892 3.1532,0.153374 4.46107,-0.137263 0.63429,-0.140954 1.21959,-0.678429 1.78442,-0.960845 0.3183,-0.159147 0.66766,-0.271005 0.96085,-0.480422 0.23692,-0.169228 0.35244,-0.421077 0.54905,-0.617686 0.13612,-0.136115 0.77211,-0.486143 0.96085,-0.549055"
             id="path937" />
          <path
             style="fill:#333333;stroke:#000000;stroke-width:1.2;stroke-linecap:butt;stroke-linejoin:miter;stroke-miterlimit:4;stroke-dasharray:none;stroke-opacity:1"
             d="m 207.06209,-68.082731 c -0.0972,0.831199 0.12467,1.58981 0.2059,2.402113 0.0148,0.147822 -0.037,0.351078 0,0.480422 0.0178,0.06222 0.10833,0.07939 0.13726,0.137263 0.0409,0.08185 -0.0179,0.184796 0,0.274529 0.0775,0.387483 0.25668,0.873443 0.41179,1.235372 0.0451,0.105137 0.16973,0.16601 0.2059,0.274526 0.0787,0.23626 0.14553,0.420058 0.34316,0.617686 0.34626,0.34626 0.89562,0.755925 1.37263,0.892214 0.088,0.02514 0.18654,-0.02513 0.27453,0 0.0793,0.02265 0.12764,0.111178 0.2059,0.137264 0.10851,0.03617 0.23464,-0.03617 0.34315,0 0.25122,0.08374 0.50194,0.25882 0.75496,0.343159 0.18916,0.06305 1.66136,0.05206 1.92169,0 0.10776,-0.02156 0.28226,-0.108482 0.41179,-0.137263 0.43132,-0.09585 0.88568,-0.135089 1.304,-0.274529 0.22694,-0.07565 0.0691,-0.08843 0.34316,-0.205894 0.0679,-0.02909 0.32915,-0.05462 0.41179,-0.137266 0.19559,-0.19559 0.27095,-0.723717 0.34316,-0.892212 0.18969,-0.442618 0.17571,-0.115345 0.27452,-0.411789 0.045,-0.134848 -0.0292,-0.349107 0,-0.480423 0.0535,-0.24053 0.21477,-0.44728 0.27453,-0.686318 0.0875,-0.349986 0.0864,-0.742305 0.13727,-1.098108 0.007,-0.05064 0.0457,-0.09151 0.0686,-0.137264 0.0229,-0.06863 0.0621,-0.13385 0.0686,-0.205896 0.061,-0.671044 0.20645,-1.575781 0.0686,-2.264849 -0.0511,-0.255373 -0.19189,-0.507037 -0.27453,-0.754949 -0.0648,-0.194487 -0.0929,-0.496593 -0.27452,-0.617685 -0.22642,-0.150945 -1.59323,0 -1.99033,0 -0.75494,0 -1.50989,0 -2.26484,0 -0.30613,0 -0.66355,-0.05946 -0.96085,0 -0.0686,0.02289 -0.13726,0.04575 -0.20589,0.06863 -0.0229,0.02289 -0.0379,0.0584 -0.0686,0.06863 -0.32394,0.107979 -0.76708,0.04268 -1.0981,0.137263 -0.0793,0.02265 -0.12931,0.10663 -0.2059,0.137263 -0.0637,0.02548 -0.15736,-0.04853 -0.20589,0 -0.0162,0.01617 0,0.04575 0,0.06863 -0.0686,0.04575 -0.12867,0.108299 -0.2059,0.137263 -0.7481,0.280538 -1.41396,0.535398 -2.12759,0.892212 z"
             id="path939" />
          <path
             style="fill:#000000;stroke:#000000;stroke-width:1.2;stroke-linecap:butt;stroke-linejoin:miter;stroke-miterlimit:4;stroke-dasharray:none;stroke-opacity:1"
             d="m 211.86632,-67.465045 c -0.35979,0.01217 -1.01211,-0.01736 -1.30401,0.274529 -0.0326,0.03262 -0.10464,0.241909 -0.13726,0.274526 -0.47572,0.475721 -0.71547,1.412113 -0.20589,1.92169 0.19128,0.191281 0.57558,0.212527 0.82358,0.274527 0.31863,0.07966 0.35762,0.230457 0.82358,0.137263 0.20562,-0.04112 0.3826,-0.358823 0.54905,-0.549053 0.11439,-0.114387 0.22878,-0.228775 0.34316,-0.343159 0.0229,0 0.0525,0.01617 0.0686,0 0.0493,-0.04933 0,-0.327927 0,-0.411792 0,-0.93313 -0.11438,-1.155298 -0.96084,-1.578531 z"
             id="path941" />
          <path
             style="fill:#ffffff;stroke:#000000;stroke-width:0.3;stroke-linecap:butt;stroke-linejoin:miter;stroke-miterlimit:4;stroke-dasharray:none;stroke-opacity:1"
             d="m 213.17032,-68.49452 c -0.70851,-0.150815 -0.63994,-0.03092 -1.09811,0.274526 -0.0727,0.04849 -0.29426,0.176731 -0.34315,0.274527 -0.11444,0.228861 -0.34837,1.337018 0.0686,1.441267 0.26792,0.06698 0.77625,-0.0053 1.02947,-0.06863 0.12621,-0.03155 0.56498,-0.211376 0.61769,-0.34316 0.16053,-0.401325 0.001,-0.143314 0.0686,-0.549055 0.0722,-0.433096 0.2097,-0.891262 -0.34316,-1.029475 z"
             id="path943" />
          <path
             style="fill:none;stroke:#000000;stroke-width:1.065;stroke-linecap:butt;stroke-linejoin:miter;stroke-miterlimit:4;stroke-dasharray:none;stroke-opacity:1"
             d="m 239.93232,-120.74264 c 0.88675,4.31519 0.9706,8.78232 0.9706,13.20016 0,0.74813 -0.23214,2.689 0.19412,3.49416 1.01855,1.92391 2.54749,3.71221 4.07652,5.241239"
             id="path947" />
          <path
             style="fill:none;stroke:#000000;stroke-width:0.965;stroke-linecap:butt;stroke-linejoin:miter;stroke-miterlimit:4;stroke-dasharray:none;stroke-opacity:1"
             d="m 239.15584,-97.642361 c 0.72576,0.709427 0.0251,1.568823 0.19412,2.329442 0.0888,0.399494 0.31282,0.762486 0.38824,1.164719 0.37298,1.989236 0.13292,4.281146 0.77648,6.21184 0.64985,1.949527 1.16472,1.25117 1.16472,3.300039"
             id="path949" />
          <path
             style="fill:none;stroke:#000000;stroke-width:1.065;stroke-linecap:butt;stroke-linejoin:miter;stroke-miterlimit:4;stroke-dasharray:none;stroke-opacity:1"
             d="m 241.6794,-84.636321 c -0.12941,1.294133 -0.50964,2.58749 -0.38824,3.882401 0.0263,0.28071 1.30346,3.022957 1.55296,3.688278 0.75261,2.006965 1.66137,4.013518 2.32944,6.017721 0.26726,0.801767 0.46018,1.862415 0.58236,2.717681 0.19421,1.359453 -0.43459,3.173536 0.38824,4.270639 0.71499,0.953318 0.49463,1.377492 0.77648,1.9412 0.13027,0.260544 0.38477,0.285975 0.58236,0.582362 0.0803,0.120388 0.0563,0.432342 0.19412,0.388239 0.18672,-0.05976 0.31695,-0.230852 0.47542,-0.346279"
             id="path951" />
          <path
             style="fill:none;stroke:#000000;stroke-width:0.264583px;stroke-linecap:butt;stroke-linejoin:miter;stroke-opacity:1"
             d="m 248.17254,-61.494079 c -0.61142,0.115427 -1.29281,0.03971 -1.83426,0.346279 -0.0251,0.01423 0.3548,1.579861 0.38824,1.74708 0.0508,0.253799 -0.12305,1.004181 0,0.776481 0.50928,-0.942377 0.96401,-1.913226 1.44602,-2.86984"
             id="path953" />
          <path
             style="fill:none;stroke:#000000;stroke-width:1.065;stroke-linecap:butt;stroke-linejoin:miter;stroke-miterlimit:4;stroke-dasharray:none;stroke-opacity:1"
             d="m 245.95004,-57.07128 c -0.52741,-1.804147 3.81671,-4.789522 4.853,-3.494159 0.63534,0.794165 1.34567,2.069462 1.55296,3.10592 0.31952,1.59757 0.6629,6.325417 -0.58236,7.570678"
             id="path955" />
          <path
             style="fill:none;stroke:#000000;stroke-width:0.965;stroke-linecap:butt;stroke-linejoin:miter;stroke-miterlimit:4;stroke-dasharray:none;stroke-opacity:1"
             d="m 251.77364,-49.888841 c -0.19412,0.129413 -0.47802,0.179568 -0.58236,0.388239 -0.17602,0.352044 -0.081,0.787726 -0.19412,1.164723 -0.26948,0.898284 -0.81292,1.838174 -1.16472,2.717678 -0.76657,1.916425 -1.63441,3.431715 -2.13532,5.435362 -0.24626,0.985054 -0.99477,1.892123 -1.16472,2.911798 -0.21354,1.281228 -0.20467,2.597385 -0.38824,3.8824 -0.0666,0.466339 -0.31079,0.894178 -0.38824,1.358842 -0.0426,0.255304 0.0819,0.530934 0,0.776478 -0.35242,1.057272 -0.79371,2.187022 -1.16472,3.300042 -0.26918,0.807537 -0.11663,1.902845 -0.38824,2.717679 -0.027,0.08093 -0.38824,0.04539 -0.38824,0.38824"
             id="path957" />
          <path
             style="fill:none;stroke:#000000;stroke-width:1.065;stroke-linecap:butt;stroke-linejoin:miter;stroke-miterlimit:4;stroke-dasharray:none;stroke-opacity:1"
             d="m 240.51468,-36.8828 c -0.34038,3.057139 0.43482,6.27407 0,9.31776 -0.21833,1.528336 -0.77648,3.361499 -0.77648,4.853 0,1.341273 -2.55124,7.438843 -3.30004,9.12364 -0.27276,0.61372 -0.66334,1.262368 -0.77648,1.9412 -0.26702,1.602099 -0.5074,3.2385124 -0.77648,4.8529999 -0.10487,0.6292429 0.0902,1.3096639 0,1.9412 -0.23929,1.6750453 -0.76318,3.2468666 -1.16472,4.8530001 -0.21763,0.87053818 -0.32275,1.9236509 -0.77648,2.7176801 -0.1362,0.2383563 -0.44112,0.3469547 -0.58236,0.5823598 -0.19912,0.3318608 -0.50423,1.3564344 -0.58236,1.74708 -0.45628,2.2814113 -0.96544,3.8875607 -1.16472,3.6882802 -0.0261,-0.026151 0.19412,-0.9847884 0.19412,-1.3588401"
             id="path959" />
          <path
             style="fill:none;stroke:#000000;stroke-width:1.265;stroke-linecap:butt;stroke-linejoin:miter;stroke-miterlimit:4;stroke-dasharray:none;stroke-opacity:1"
             d="m 227.31452,13.5884 c 1.49618,5.815522 1.16472,11.886668 1.16472,17.859041"
             id="path961" />
        </g>
      </g>
      <text
         xml:space="preserve"
         style="font-size:14.1111px;line-height:1.25;font-family:sans-serif;letter-spacing:0px;word-spacing:0px;stroke-width:0.264583"
         x="102.75124"
         y="389.62604"
         id="text886"><tspan
           sodipodi:role="line"
           id="tspan884"
           x="102.75124"
           y="389.62604"
           style="font-style:italic;font-variant:normal;font-weight:normal;font-stretch:normal;font-size:14.1111px;font-family:sans-serif;-inkscape-font-specification:'sans-serif Italic';stroke-width:0.264583">S Jagannathan 1970 -75</tspan></text>
    </g>
  </g>
</svg>
