<?xml version="1.0" encoding="UTF-8" standalone="no"?>
<svg
   xmlns:dc="http://purl.org/dc/elements/1.1/"
   xmlns:cc="http://creativecommons.org/ns#"
   xmlns:rdf="http://www.w3.org/1999/02/22-rdf-syntax-ns#"
   xmlns:svg="http://www.w3.org/2000/svg"
   xmlns="http://www.w3.org/2000/svg"
   xmlns:sodipodi="http://sodipodi.sourceforge.net/DTD/sodipodi-0.dtd"
   xmlns:inkscape="http://www.inkscape.org/namespaces/inkscape"
   width="400mm"
   height="400mm"
   viewBox="0 0 400 400"
   version="1.1"
   id="svg8"
   sodipodi:docname="patel.svg"
   inkscape:version="1.0.2 (e86c870879, 2021-01-15, custom)">
  <defs
     id="defs2" />
  <sodipodi:namedview
     id="base"
     pagecolor="#ffffff"
     bordercolor="#666666"
     borderopacity="1.0"
     inkscape:pageopacity="0.0"
     inkscape:pageshadow="2"
     inkscape:zoom="0.2345748"
     inkscape:cx="125.66345"
     inkscape:cy="298.16221"
     inkscape:document-units="mm"
     inkscape:current-layer="layer1"
     inkscape:document-rotation="0"
     showgrid="false"
     inkscape:window-width="1920"
     inkscape:window-height="1017"
     inkscape:window-x="-8"
     inkscape:window-y="-8"
     inkscape:window-maximized="1" />
  <metadata
     id="metadata5">
    <rdf:RDF>
      <cc:Work
         rdf:about="">
        <dc:format>image/svg+xml</dc:format>
        <dc:type
           rdf:resource="http://purl.org/dc/dcmitype/StillImage" />
        <dc:title />
      </cc:Work>
    </rdf:RDF>
  </metadata>
  <g
     inkscape:label="Layer 1"
     inkscape:groupmode="layer"
     id="layer1">
    <g
       id="g287">
      <g
         id="g1393"
         transform="translate(-3.3837821,-24.814402)">
        <ellipse
           style="opacity:0.480645;fill:#aa87de;fill-opacity:1;stroke:#000004;stroke-width:0;stroke-linecap:round;stroke-linejoin:round;stroke-miterlimit:4;stroke-dasharray:none;paint-order:markers fill stroke"
           id="path1255"
           cx="198.77888"
           cy="208.09665"
           rx="181.69632"
           ry="177.03745" />
        <g
           id="g1253"
           transform="matrix(0.51010094,0,0,0.56351005,217.41451,167.29196)">
          <path
             style="fill:none;stroke:#000000;stroke-width:2.2;stroke-linecap:butt;stroke-linejoin:miter;stroke-miterlimit:4;stroke-dasharray:none;stroke-opacity:1"
             d="m 108.68232,-131.32234 c 1.98093,-12.34326 2.30258,-27.31155 -8.970144,-35.97027 -1.485594,-1.1411 -3.252941,-1.91119 -4.748894,-3.03974 -3.067962,-2.31445 -5.060247,-5.84137 -8.970146,-7.09272 -4.719678,-1.51052 -17.941809,-1.79245 -23.216865,-1.01325 -4.260193,0.62929 -8.828875,3.36684 -12.663736,5.06623 -7.190709,3.1865 -14.891127,5.16677 -22.161543,8.10598 -9.656953,3.90401 -18.195444,10.19371 -28.49340164,12.66558 -9.35772766,2.24618 -26.82542436,5.30634 -36.93590536,4.55961 -6.149782,-0.4542 -12.218319,-2.77656 -18.467952,-2.02649 -3.550532,0.42612 -6.374836,2.64193 -9.497807,4.05299 -3.134773,1.41639 -6.313387,2.74264 -9.497807,4.05299 -4.990054,2.05335 -12.361032,4.77559 -16.357326,8.61259"
             id="path847" />
          <path
             style="fill:none;stroke:#000000;stroke-width:2.2;stroke-linecap:butt;stroke-linejoin:miter;stroke-miterlimit:4;stroke-dasharray:none;stroke-opacity:1"
             d="m 129.78856,-128.78923 c 2.80426,-12.06723 4.74528,-24.83843 1.58297,-36.98351 -0.93606,-3.59499 -3.15878,-8.6023 -5.27656,-11.65233 -6.02024,-8.6704 -25.46819,-24.41644 -35.35294,-28.37092 -3.744582,-1.49805 -8.706536,-3.10312 -12.663736,-4.05299 -1.023801,-0.24574 -2.124984,0.16657 -3.165929,0 -6.382293,-1.02131 6.244981,-0.0536 -4.748913,-1.01324 -8.46972,-0.73929 -17.502774,1.21182 -25.855134,-0.50663 -12.120506,-2.49372 -23.155302,-7.79018 -35.35294,-10.13247 -8.94385189,-1.71747 -27.514346,-3.65471 -36.408244,-1.51986 -3.460983,0.83075 -7.050994,2.05076 -10.55311,3.03973 -4.791275,1.35303 -9.997252,2.3462 -14.246701,5.06624 -1.862661,1.19227 -3.941573,2.86072 -5.804216,4.05299 -4.02945,2.57922 -27.965759,16.95384 -27.965759,21.27818"
             id="path849" />
          <path
             style="fill:none;stroke:#000000;stroke-width:2.2;stroke-linecap:butt;stroke-linejoin:miter;stroke-miterlimit:4;stroke-dasharray:none;stroke-opacity:1"
             d="m -0.01476758,-187.05092 c -1.75885172,-1.68875 -3.00960862,-4.08327 -5.27655512,-5.06624 -3.4267518,-1.48587 -7.3631933,-1.48567 -11.0807713,-2.02649 -11.441791,-1.6645 -21.12029,2.13062 -31.65935,6.07948 -20.245179,7.58564 -40.319737,21.27819 -62.791036,21.27819"
             id="path851" />
          <path
             style="fill:none;stroke:#000000;stroke-width:2.2;stroke-linecap:butt;stroke-linejoin:miter;stroke-miterlimit:4;stroke-dasharray:none;stroke-opacity:1"
             d="m -86.022652,-189.58404 c -6.155991,4.72849 -11.92684,9.96047 -18.467948,14.18546 -3.20063,2.06732 -7.10289,2.90326 -10.55311,4.55961 -5.27241,2.53112 -16.33708,13.63993 -18.99562,18.74506 -0.91005,1.74757 -0.93116,4.20203 -1.58297,6.07949 -1.07778,3.10446 -4.06757,10.05673 -6.33187,12.66558 -2.69162,3.10121 -12.91284,11.83499 -13.71905,15.70533 -1.28221,6.15553 -1.22132,20.481187 0,26.344428 0.27045,1.298341 0.8975,2.689194 1.05532,4.052974 0.5866,5.068963 0,10.586996 0,15.705324"
             id="path853" />
          <path
             style="fill:none;stroke:#000000;stroke-width:2.2;stroke-linecap:butt;stroke-linejoin:miter;stroke-miterlimit:4;stroke-dasharray:none;stroke-opacity:1"
             d="m 63.303932,-141.45481 c 1.582965,-0.6755 3.339298,-1.05977 4.748894,-2.0265 3.191089,-2.18849 10.410532,-13.3091 6.859539,-16.71857"
             id="path855" />
          <path
             style="fill:none;stroke:#000000;stroke-width:2.2;stroke-linecap:butt;stroke-linejoin:miter;stroke-miterlimit:4;stroke-dasharray:none;stroke-opacity:1"
             d="m 51.695499,-142.97468 c 5.776558,-5.65124 11.608433,-8.77372 11.608433,-17.2252"
             id="path857" />
          <path
             style="fill:none;stroke:#000000;stroke-width:2.2;stroke-linecap:butt;stroke-linejoin:miter;stroke-miterlimit:4;stroke-dasharray:none;stroke-opacity:1"
             d="m 33.227547,-139.93494 c 3.254901,-6.50032 9.116125,-10.84932 13.191397,-16.71857"
             id="path859" />
          <path
             style="fill:none;stroke:#000000;stroke-width:2.2;stroke-linecap:butt;stroke-linejoin:miter;stroke-miterlimit:4;stroke-dasharray:none;stroke-opacity:1"
             d="m -69.665326,-126.76273 c -16.124373,2.05072 -21.060591,19.22663 -29.021062,30.397397 -5.420782,7.606905 -1.801062,1.274997 -5.804212,6.07949 -4.03916,4.847695 -0.59175,1.124002 -3.16593,5.57286 -2.03357,3.514494 -6.32727,8.099785 -8.97015,11.652332 -4.89673,6.582169 -10.99368,12.498336 -14.77437,19.758317 -0.40108,0.770194 -0.24405,1.716204 -0.52766,2.533125 -2.60031,7.489978 -2.48606,14.964786 -3.16593,22.798053 -0.29314,3.377432 0.25972,8.628356 -0.52766,11.652331 -0.45977,1.76581 -1.3416,3.718931 -1.58297,5.572861 -0.56987,4.377255 0,9.2308367 0,13.6788277"
             id="path861" />
          <path
             style="fill:none;stroke:#000000;stroke-width:2.2;stroke-linecap:butt;stroke-linejoin:miter;stroke-miterlimit:4;stroke-dasharray:none;stroke-opacity:1"
             d="m -154.6179,-71.540784 c 0.62844,16.612986 -0.93912,33.609085 -6.33188,49.142488 -0.73534,2.118104 -0.2173,8.433939 -1.0553,11.652332 -0.38446,1.4765181 -2.2603,13.6788277 0,13.6788277"
             id="path863" />
          <path
             style="fill:none;stroke:#000000;stroke-width:2.2;stroke-linecap:butt;stroke-linejoin:miter;stroke-miterlimit:4;stroke-dasharray:none;stroke-opacity:1"
             d="m 140.34167,-157.66676 c 7.29731,3.40525 11.11937,10.7422 16.88499,15.70533 2.54276,2.18884 5.87239,3.41365 8.44248,5.57285 4.7271,3.97133 9.37292,11.46734 13.1914,16.21195 3.87244,4.81163 4.55296,4.30876 7.91484,8.6126 1.91233,2.44814 1.41377,3.11029 3.69359,5.57286 0.74822,0.80819 2.28213,1.00066 2.63829,2.0265 1.38797,3.997979 0.76152,10.163983 0,14.185455 -0.26176,1.382272 -1.05532,3.192262 -1.05532,4.559604"
             id="path865" />
          <path
             style="fill:none;stroke:#000000;stroke-width:2.2;stroke-linecap:butt;stroke-linejoin:miter;stroke-miterlimit:4;stroke-dasharray:none;stroke-opacity:1"
             d="m 167.77977,-104.4713 c 4.00525,6.61153 8.04054,13.204476 12.13609,19.758317 0.65254,1.044224 1.63957,1.909071 2.11063,3.039736 2.914,6.994643 2.822,15.54335 4.22123,22.798052 1.63352,8.469335 1.58297,2.992677 1.58297,5.572861"
             id="path867" />
          <path
             style="fill:none;stroke:#000000;stroke-width:2.2;stroke-linecap:butt;stroke-linejoin:miter;stroke-miterlimit:4;stroke-dasharray:none;stroke-opacity:1"
             d="m 171.47336,-71.034155 c 1.29262,3.921782 2.86682,7.751016 4.22125,11.652332 3.50135,10.085349 10.55311,26.944664 10.55311,37.996766"
             id="path869" />
          <path
             style="fill:none;stroke:#000000;stroke-width:2.2;stroke-linecap:butt;stroke-linejoin:miter;stroke-miterlimit:4;stroke-dasharray:none;stroke-opacity:1"
             d="m 140.86933,-112.07065 c 5.5349,19.421868 3.39225,39.879183 8.44249,59.274945 0.92587,3.555831 0.4713,7.58786 1.58298,11.145702 0.66528,2.129233 1.24553,4.509629 2.11061,6.586118 1.49024,3.577073 4.92685,7.116443 5.27657,11.145703 1.19019,13.713043 2.11061,27.2320368 2.11061,41.036502"
             id="path871" />
          <path
             style="fill:none;stroke:#000000;stroke-width:2.2;stroke-linecap:butt;stroke-linejoin:miter;stroke-miterlimit:4;stroke-dasharray:none;stroke-opacity:1"
             d="m -150.92431,1.4129959 c 2.35662,10.2063921 14.2467,18.5957081 14.2467,28.8775421"
             id="path873" />
          <path
             style="fill:none;stroke:#000000;stroke-width:2.2;stroke-linecap:butt;stroke-linejoin:miter;stroke-miterlimit:4;stroke-dasharray:none;stroke-opacity:1"
             d="m -162.00508,2.9328637 c -0.26383,1.1821152 -0.31473,2.4274183 -0.79149,3.5463641 -0.71727,1.683466 -2.57996,2.674449 -3.42976,4.3062982 -2.41608,4.639547 -3.69359,10.04307 -3.69359,15.198714 0,1.530091 -0.34665,3.600878 0.26383,5.066232 1.22287,2.93532 2.87637,5.832366 4.48507,8.612596 0.30798,0.532262 0.8055,0.960219 1.05531,1.519867 0.95189,2.132554 2.08799,4.54986 2.63828,6.839424 0.15943,0.663325 0.0553,1.375831 0.26383,2.026496 0.1508,0.470569 0.6074,0.80703 0.79148,1.266563 0.84534,2.110261 1.31204,4.439188 2.11063,6.586099 0.53744,1.444869 2.11062,4.274409 2.11062,5.826166"
             id="path875" />
          <path
             style="fill:none;stroke:#000000;stroke-width:2.2;stroke-linecap:butt;stroke-linejoin:miter;stroke-miterlimit:4;stroke-dasharray:none;stroke-opacity:1"
             d="m -156.20087,63.727683 c 1.03752,4.664221 3.05999,9.059709 4.22124,13.678828 1.21807,4.845129 1.18954,9.856902 2.37446,14.692085 0.78731,3.212709 1.20552,6.439461 2.11062,9.625834 0.52132,1.83533 1.16152,3.49866 1.58297,5.31956 0.90638,3.91615 0.0681,8.18822 0.52765,12.15896 0.0777,0.67152 0.42802,1.35684 0.52766,2.02649 0.86317,5.80138 2.43546,14.94539 10.28929,14.94539"
             id="path877" />
          <path
             style="fill:none;stroke:#000000;stroke-width:2.2;stroke-linecap:butt;stroke-linejoin:miter;stroke-miterlimit:4;stroke-dasharray:none;stroke-opacity:1"
             d="m -132.72019,48.782292 c -1.30965,9.50566 -1.31914,19.041124 -1.31914,28.624219 0,2.847108 -0.21124,5.773091 0,8.612596 0.22172,2.980349 0.27318,1.154544 0.79149,4.306298 0.83203,5.059533 0.98838,10.117625 1.31913,15.198715 0.0388,0.59589 0.17589,1.18211 0.26383,1.77317 0.0879,0.92881 0.21278,1.85509 0.26383,2.78643 0.28163,5.13765 0.52766,10.29876 0.52766,15.45202 0,3.20315 -0.36961,6.68529 0,9.87916 0.35066,3.03016 0.76653,6.06927 1.05531,9.11922 0.074,0.78203 0.52765,1.95946 0.52765,2.78643"
             id="path879" />
          <path
             style="fill:none;stroke:#000000;stroke-width:2.2;stroke-linecap:butt;stroke-linejoin:miter;stroke-miterlimit:4;stroke-dasharray:none;stroke-opacity:1"
             d="m -129.55425,155.93315 c 1.22706,1.8471 1.18567,4.06938 1.84679,6.07947 1.1613,2.50879 1.00571,1.97542 1.8468,4.55962 1.20805,3.71168 2.26802,7.42761 3.42976,11.14572 0.55966,1.79119 1.49605,3.5493 2.11063,5.31954 0.59797,1.72241 1.1447,3.47639 2.11061,5.06623 1.59624,2.62734 3.00267,5.33772 4.74891,7.85268 0.54815,0.78945 0.55536,1.76506 1.0553,2.53311 0.29846,0.4585 0.74297,0.8167 1.05533,1.26654 0.60815,0.87591 0.77576,1.9169 1.31912,2.78642 0.19201,0.30723 0.67351,0.42011 0.7915,0.75995 0.48307,1.39148 2.11061,3.5079 2.11061,4.81296"
             id="path881" />
          <path
             style="fill:none;stroke:#000000;stroke-width:2.2;stroke-linecap:butt;stroke-linejoin:miter;stroke-miterlimit:4;stroke-dasharray:none;stroke-opacity:1"
             d="m -60.959001,211.66172 c 5.77773,4.42247 11.940948,8.29784 17.940291,12.41228 2.638018,1.8092 0.508671,0.96463 3.957412,2.53311 3.903805,1.77546 8.272325,2.97216 12.399915,4.05299 2.92819,0.76675 6.035727,1.00477 8.970145,1.77318 1.773229,0.46435 3.482357,0.64413 5.276575,1.01325 2.232618,0.45937 4.6108323,1.48532 6.8595193,1.77318 3.3828906,0.43308 6.883949,0.0716 10.2892892,0.2533 13.7667255,0.73438 27.6440655,-0.1915 41.1571375,-2.78643 0.671046,-0.12881 1.251506,-0.76829 1.846805,-1.0132 2.345424,-0.96513 4.977887,-1.96999 7.387181,-2.78643 3.816313,-1.29329 7.964239,-2.79433 11.344592,-5.06627 1.072391,-0.72074 1.580716,-1.84845 2.374466,-2.78643 0.444648,-0.52543 5.123675,-5.38584 5.540377,-6.58612 0.05555,-0.16018 -0.07861,-0.35556 0,-0.50657 0.757116,-1.45389 3.165929,-2.71822 3.165929,-4.55964"
             id="path883" />
          <path
             style="fill:none;stroke:#000000;stroke-width:2.2;stroke-linecap:butt;stroke-linejoin:miter;stroke-miterlimit:4;stroke-dasharray:none;stroke-opacity:1"
             d="m 159.60111,85.765802 c 0.85679,2.786227 -0.22467,5.798447 0.26384,8.612596 0.43006,0.825853 0.67173,1.106766 0.79148,2.026496 0.66828,5.133226 2.63044,10.057356 3.16593,15.198696 0.50594,4.85773 0.0955,10.15795 -0.52766,14.94541 -0.0436,0.33513 0,0.67549 0,1.01324 -0.0878,0.92881 -0.10418,1.86648 -0.26382,2.78643 -0.42495,2.44805 -1.32265,4.84653 -1.58297,7.34603 -0.40826,3.91988 -0.73641,10.05038 -2.11063,13.67885 -1.41101,3.72561 -5.36193,8.89074 -7.91484,12.15896 -1.21316,1.55308 -2.87349,2.8505 -4.22123,4.3063 -1.71019,1.84724 -3.04317,3.98369 -4.74891,5.82616 -1.31888,1.42459 -2.68792,2.8436 -3.95741,4.3063 -2.00778,2.3133 -3.844,4.90285 -5.5404,7.34603 -2.43397,3.50545 -7.9784,8.26315 -11.87225,10.13249"
             id="path887" />
          <path
             style="fill:none;stroke:#000000;stroke-width:2.2;stroke-linecap:butt;stroke-linejoin:miter;stroke-miterlimit:4;stroke-dasharray:none;stroke-opacity:1"
             d="m 171.7372,-27.971156 c 0.70028,2.821881 2.21055,5.504542 3.95741,7.852662 1.15712,1.555392 2.80124,2.592751 3.69359,4.306298"
             id="path889" />
          <path
             style="fill:none;stroke:#000000;stroke-width:2.2;stroke-linecap:butt;stroke-linejoin:miter;stroke-miterlimit:4;stroke-dasharray:none;stroke-opacity:1"
             d="m 186.24772,-21.385057 c -0.65382,6.905509 -0.68442,3.513313 -0.26382,8.359291 0.36729,4.2318347 1.03797,8.4055747 0.79148,12.6655891 -0.26955,4.6583157 -1.59809,9.5500428 -2.90211,13.9321329 -1.83127,6.154008 0.0552,0.224018 -1.31914,2.533125 -0.56043,0.941673 -0.89965,2.28615 -1.31914,3.293041 -1.11372,2.673342 -2.63827,5.007657 -2.63827,7.85268"
             id="path891" />
          <path
             style="fill:none;stroke:#000000;stroke-width:2.2;stroke-linecap:butt;stroke-linejoin:miter;stroke-miterlimit:4;stroke-dasharray:none;stroke-opacity:1"
             d="m 178.59672,32.823645 c 0.31979,10.487157 0.52766,20.888778 0.52766,31.410667 0,4.176176 0.0813,8.319558 -0.52766,12.412265 -0.12993,0.87269 -0.6776,1.658386 -0.79148,2.533125 -0.62002,4.76238 -2.47417,10.12654 -1.84681,14.945391 0.41492,3.186872 0.50639,6.463547 1.05533,9.625837 0.2996,1.72602 0.004,3.56723 0.26382,5.31955 0.18817,1.2647 -0.41563,2.85582 0,4.053 1.27045,3.65943 -0.13455,10.2874 -2.63827,13.1722 -0.3981,0.45868 -0.79183,0.95012 -1.31915,1.26656 -0.63541,0.38128 -6.57344,1.93371 -7.65102,1.51987 -2.12479,-0.81604 -0.36242,-2.00282 -2.37444,-1.51987"
             id="path893" />
          <path
             style="fill:none;stroke:#000000;stroke-width:2.2;stroke-linecap:butt;stroke-linejoin:miter;stroke-miterlimit:4;stroke-dasharray:none;stroke-opacity:1"
             d="m 164.35002,27.757413 c 0.95757,5.873686 0.85873,11.821355 1.58296,17.73182 0.27261,2.224753 1.05531,4.610187 1.05531,6.839424"
             id="path895" />
          <path
             style="fill:#000000;stroke:#000000;stroke-width:2.2;stroke-linecap:butt;stroke-linejoin:miter;stroke-miterlimit:4;stroke-dasharray:none;stroke-opacity:1"
             d="m -139.41896,-1.6271824 c 3.09265,1.97958536 -1.85076,-1.1066183 3.91764,1.97030279 0.23063,0.12309087 0.34498,0.39012608 0.55967,0.53735531 0.67974,0.4661767 1.68265,0.8973638 2.4252,1.253829 0.87578,0.4204282 1.83008,0.5743564 2.61177,1.0747106 0.51741,0.3312012 1.24369,0 1.86554,0 2.92269,0 5.84537,0 8.76806,0 2.11976,0 4.21464,-0.1791922 6.34285,-0.1791922 1.65835,0 3.59693,0.3123592 5.22353,0 0.69169,-0.1328717 3.23318,-0.8362982 3.91764,-0.1791923 0.31557,0.3029844 0.18664,1.2175108 0.18664,1.612066 0,1.7662893 -1.2523,1.4943083 -2.79832,1.7911843 -0.3784,0.07271 -1.86868,0.4839298 -2.42521,0.5373553 -0.96847,0.09301 -1.82931,-0.00738 -2.79832,0.1791923 -0.56218,0.1079582 -1.10918,0.297448 -1.67899,0.3582368 -0.97477,0.1040829 -2.01804,-0.1546479 -2.98487,0 -3.07859,0.4926403 -6.19357,0.5373553 -9.32772,0.5373553 -1.44783,0 -4.24963,0.3233212 -5.59664,0 -0.73406,-0.1762395 -1.298,-0.8936913 -2.0521,-1.0747106 -0.12066,-0.028973 -0.27599,0.074556 -0.37311,0 -0.93129,-0.715348 -1.39953,-1.5526058 -2.61176,-2.3285396 -1.39019,-0.8898529 -2.91428,-1.5926888 -4.29075,-2.5076581 -0.55197,-0.3669105 -0.83901,-0.98467159 -1.30588,-1.43294749"
             id="path899" />
          <path
             style="fill:none;stroke:#000000;stroke-width:2.2;stroke-linecap:butt;stroke-linejoin:miter;stroke-miterlimit:4;stroke-dasharray:none;stroke-opacity:1"
             d="m -117.59209,1.0595941 c 0.75166,-1.31954514 1.21637,-2.8358512 2.0521,-4.119724 1.11625,-1.7148015 5.95568,-6.7258732 8.2084,-7.3438561 0.23916,-0.0657 0.503,0.05001 0.74622,0 0.63481,-0.130657 1.22892,-0.415113 1.86554,-0.537355 1.56647,-0.300807 3.72227,-0.390034 5.410081,-0.537355 1.910387,-0.166828 3.874533,0.183252 5.783189,0 7.435137,-0.713872 14.90043,-1.074711 22.386539,-1.074711 5.223526,0 10.447051,0 15.670577,0 2.158043,0 4.373459,-0.121799 6.529407,0 0.500483,0.02824 0.994951,0.1194 1.492436,0.179192 1.057148,0.05979 2.113297,0.138408 3.171426,0.179193 3.992451,0.153356 7.974638,-0.0074 11.939487,0.537355 2.194197,0.300954 4.371019,0.596483 6.529407,1.074711 0.823274,0.182329 1.590173,0.556123 2.425209,0.7164733 1.35991,0.2611482 2.689183,0.3670211 3.917644,1.0747106 0.301647,0.1738404 0.459967,0.5201558 0.746218,0.7164737 0.243082,0.1666433 1.126342,0.3717086 1.305881,0.7164737 0.630299,1.2103321 1.735634,2.4735728 2.238654,3.7614872 0.180097,0.4609356 0.06381,1.1404267 0.186632,1.6120659 0.06746,0.2590444 0.248733,0.4776553 0.373109,0.7164737 0.124356,0.47765533 0.272547,0.95016186 0.373109,1.43294749 0.545728,2.61991621 0.186631,5.56769331 0.186631,8.23944801 0,2.7679944 1.059955,5.7155684 0.559663,8.5976844 -0.54,3.110859 -1.398543,6.175526 -1.865544,9.314159 -0.125895,0.845784 -0.308836,0.290528 -0.559664,1.253829 -0.357348,1.372399 -0.522337,2.919597 -0.932772,4.298843 -0.523952,1.760734 -1.369925,3.409967 -1.865545,5.194434 -0.348392,1.254383 -0.616883,2.555474 -1.119327,3.761487 -0.134736,0.323248 -0.432347,0.569614 -0.559664,0.895592 -0.277756,0.711159 -0.360538,1.587946 -0.746218,2.32854 -0.977979,1.878012 -6.855541,6.075005 -8.581506,6.627382 -0.177021,0.05665 -0.389177,-0.07271 -0.559663,0 -2.343079,0.99986 -0.10283,0.440027 -1.865545,1.074711 -2.357168,0.848699 -4.818684,1.348869 -7.275625,1.791184 -1.240782,0.223372 -2.461632,0.622725 -3.73109,0.716474 -1.543121,0.114048 -3.147574,0.02233 -4.663862,0.358237 -3.908399,0.865991 -8.267866,1.37345 -12.312596,1.07471 -1.618119,-0.119584 -3.238603,-0.21754 -4.850417,-0.358237 -1.944368,-0.16978 -3.859964,-0.843883 -5.783189,-1.07471 -1.957246,-0.234906 -4.006232,-0.186851 -5.969744,-0.358237 -1.416726,-0.123645 -2.870644,0.08028 -4.290753,0 -4.554421,-0.257218 -9.049411,0 -13.618478,0 -0.420007,0 -4.994724,0.312045 -5.969747,0 -0.26382,-0.08434 -0.47642,-0.29348 -0.74621,-0.358237 -1.20894,-0.290195 -2.53585,-0.154832 -3.73109,-0.537355 -0.66657,-0.213333 -0.97618,-1.394636 -1.49244,-1.791185 -0.36427,-0.279805 -0.61523,-0.05333 -0.93277,-0.358236 -0.48238,-0.463132 -0.8908,-1.265474 -1.49244,-1.612066 -0.68056,-0.392064 -1.56709,-0.555312 -2.0521,-1.253829 -0.43792,-0.630717 -0.58198,-1.475781 -0.93277,-2.149422 -0.87765,-1.685311 -1.40279,-3.158969 -1.67899,-5.015316 -0.27043,-1.817574 0.0859,-3.721662 -0.18663,-5.552671 -0.0556,-0.373813 -0.32433,-0.700013 -0.37311,-1.074711 -0.22932,-1.761417 -0.67733,-3.496925 -1.11933,-5.194434 -0.12801,-0.491441 0.065,-1.112967 0,-1.612066 -0.0794,-0.609937 -0.26943,-1.193963 -0.37311,-1.791185 -0.0725,-0.417937 0.0967,-0.835892 0,-1.253829 -0.51707,-2.23409 -0.93277,-3.106208 -0.93277,-5.552671 0,-1.334217 0.17645,-2.82083 0,-4.119724 -0.0917,-0.675044 -0.41111,-1.304653 -0.55966,-1.970303 -0.16415,-0.735279 0.0973,-1.58217 0,-2.32854 -0.30559,-2.3472705 -0.40196,-4.671824 -0.74622,-6.9856186 -0.0638,-0.4284928 -0.58888,-2.83784424 -0.55966,-2.86589494 0.2564,-0.24618173 0.64269,0.32846992 0.93277,0.53735534 z"
             id="path901" />
          <path
             style="fill:none;stroke:#000000;stroke-width:2.2;stroke-linecap:butt;stroke-linejoin:miter;stroke-miterlimit:4;stroke-dasharray:none;stroke-opacity:1"
             d="m -21.329973,3.3881338 c -1.186099,0.045582 -4.961607,-0.1079583 -5.969743,0.5373553 -0.103407,0.066251 0,0.2388184 0,0.3582369 0,1.1560022 0.942248,1.7133805 2.238653,1.7911843 1.665248,0.099838 3.372973,-0.1330562 5.036972,0 2.197598,0.1758705 4.307129,0.3582369 6.529407,0.3582369 5.9630545,0 12.2154168,0.4483312 18.0957849,-0.3582369 1.543774,-0.2117458 3.2928424,0 4.8504167,0 3.0385744,0 5.9548674,-0.070127 8.9546154,-0.3582369 0.800401,-0.07677 1.624808,0.07677 2.425208,0 4.209874,-0.4042068 8.435142,-0.3582368 12.685706,-0.3582368 0.667336,0 1.829275,0.1070355 2.425208,-0.1791923 C 35.99761,5.15267 37.1785,4.32905 37.061582,4.1045337 36.628774,3.2734028 34.810915,3.6700432 34.07671,3.38806 33.233255,3.0641298 32.426512,2.6463406 31.464947,2.4924678 30.452409,2.3304381 29.285223,2.5356511 28.293521,2.67166 18.166472,4.0607229 7.9360555,3.1891953 -2.3014151,3.5672522 -6.5310278,3.7233765 -10.750223,3.7464445 -14.98712,3.7464445 c -0.368323,0 -5.513468,0.2190537 -5.596635,0.1791922 -0.278102,-0.1334253 -0.497485,-0.3582369 -0.746218,-0.5373553 z"
             id="path903" />
          <path
             style="fill:none;stroke:#000000;stroke-width:2.2;stroke-linecap:butt;stroke-linejoin:miter;stroke-miterlimit:4;stroke-dasharray:none;stroke-opacity:1"
             d="m 25.122095,2.8507785 c -0.03748,-5.2613134 2.482466,-9.4518838 7.648734,-11.105343 1.556228,-0.4980658 3.107767,-0.5967784 4.663862,-0.8955921 1.61933,-0.3109567 0.264493,-0.3864537 1.67899,-0.5373553 3.650671,-0.3894621 7.322408,-0.9209121 11.006715,-1.0747111 2.283822,-0.09541 4.616906,0 6.902516,0 2.64659,0 5.213569,0.08581 7.835288,-0.179192 1.577545,-0.159446 3.082724,-0.632137 4.663863,-0.716474 3.703489,-0.197554 7.711104,-0.193697 11.379823,-0.537355 3.251807,-0.304608 6.444722,-1.19245 9.700834,-1.432947 2.818479,-0.208166 5.754666,0 8.581506,0 3.093934,0 6.234644,-0.141361 9.327724,0 3.72236,0.170149 0.58321,0.116078 3.35798,0.358237 3.99343,0.348566 11.11946,0.05075 14.55125,2.686776 0.81316,0.6245893 0.62267,1.1755455 1.11933,1.9703028 0.0715,0.1144173 0.30412,0.063299 0.37311,0.1791923 0.12435,0.3582369 0.24873,0.7164737 0.37311,1.0747106 0.12435,0.059792 0.29597,0.068097 0.37311,0.1791923 0.17586,0.2533235 0.0448,0.6232974 0.18663,0.8955921 0.24731,0.4749056 0.57258,0.9327963 0.74621,1.4329475 0.059,0.1699651 -0.0834,0.3771526 0,0.5373553 0.11802,0.2265647 0.41332,0.3265876 0.55967,0.5373553 1.41646,2.0399866 2.0521,8.4004442 2.0521,10.7471061 0,1.7137681 -0.25341,3.6704697 0,5.3735527 0.14088,0.947339 0.3944,1.913851 0.55966,2.865895 0.10264,0.591796 0,1.384099 0,1.970303 0,3.500339 -0.34712,6.119462 -0.93277,9.493277 -0.069,0.397379 0.13089,0.876713 0,1.253829 -0.0379,0.10925 -0.33515,0.42805 -0.37311,0.537355 -0.0984,0.28322 0.0511,0.601134 0,0.895593 -0.33284,1.917449 -1.24078,3.798894 -1.49244,5.73179 -0.30189,2.318869 -1.01594,4.578334 -1.67899,6.8065 -0.0513,0.17218 0.059,0.367427 0,0.537355 -0.49156,1.415896 -1.79395,2.863367 -2.61176,4.119724 -0.29876,0.45898 -0.64373,1.486761 -1.11933,1.791185 -1.83904,1.177169 -3.97267,1.44616 -6.15629,1.970302 -7.58658,1.821044 -15.44384,1.702751 -23.132761,3.045014 -2.607477,0.455196 -5.188948,1.165488 -7.835289,1.432947 -3.330034,0.336553 -6.593219,0.726679 -9.887388,1.253829 -1.295694,0.207336 -2.790821,0 -4.104198,0 -3.45862,0 -6.673869,-0.03506 -10.073943,-0.537355 -0.745218,-0.110173 -2.051811,0.02565 -2.798317,-0.179192 -0.321982,-0.0884 -0.602448,-0.305384 -0.932772,-0.358237 -1.338691,-0.214219 -3.34322,-0.04134 -4.663863,-0.358237 -1.95319,-0.468834 -3.981148,-0.819892 -5.969743,-1.253829 -1.202052,-0.262292 -3.143018,-0.413526 -4.290753,-1.074711 -0.409628,-0.235976 0.0271,-0.559316 -0.373109,-0.895592 -3.54813,-2.980866 -0.0173,0.287169 -1.865545,-0.895592 -1.316203,-0.84248 -3.341028,-3.384261 -4.477308,-4.657079 -0.594952,-0.666444 -0.592088,-1.695757 -1.119327,-2.32854 C 36.046603,42.516321 34.604813,41.225159 33.517123,40.46565 32.631172,39.847003 31.937445,39.732825 31.465024,38.674465 31.189536,38.057276 31.059509,36.560163 30.718806,35.987689 29.566151,34.050955 28.811207,32.072274 27.920489,30.076781 27.7185,29.624242 27.749426,29.096372 27.54738,28.643833 26.870279,27.126918 25.836925,25.806026 25.49528,24.165872 24.947591,21.5366 24.935617,18.791175 24.935617,16.105543 c 0,-1.036879 0.152995,-2.196351 0,-3.224132 -0.144731,-0.972621 -0.07438,-1.895876 -0.186631,-2.865895 -0.109173,-0.9433892 -0.184325,-0.1708879 -0.373109,-0.8955923 -0.09053,-0.3475333 0.06131,-0.7213457 0,-1.0747106 -0.222824,-1.2836698 -0.657669,-2.7535999 -0.373109,-4.119724 0.07707,-0.3702876 0.06593,-0.838808 0.373109,-1.0747106 0.194242,-0.1491116 0.667567,0.2265647 0.746218,0 0.143193,-0.4123637 -0.373109,-0.8191541 -0.373109,-1.2538291"
             id="path905" />
          <path
             style="fill:#000000;stroke:#000000;stroke-width:2.2;stroke-linecap:butt;stroke-linejoin:miter;stroke-miterlimit:4;stroke-dasharray:none;stroke-opacity:1"
             d="m 132.20437,1.9551863 c -2.76343,-0.2163041 -5.47257,0.3089452 -8.2084,0.5373553 -0.43365,0.036171 -0.87209,-0.034694 -1.30588,0 -1.37611,0.1101728 -2.70108,0.7731288 -4.1042,0.8955922 -0.86517,0.075479 -3.1799,-0.2360318 -2.98487,1.0747106 0.10533,0.7073388 0.13589,1.1236886 0.74622,1.6120659 1.14889,0.9192507 5.17069,0.7164737 6.71596,0.7164737 4.14833,0 8.42713,-0.00554 12.49915,-0.7164737 0.59628,-0.1040828 6.34285,-0.6858394 6.34285,-0.8955922"
             id="path907" />
          <path
             style="fill:none;stroke:#000000;stroke-width:2.2;stroke-linecap:butt;stroke-linejoin:miter;stroke-miterlimit:4;stroke-dasharray:none;stroke-opacity:1"
             d="m 132.20437,1.9551863 c -0.0623,0.059792 -0.27395,0.1697805 -0.18663,0.1791923 1.86906,0.1993998 6.02577,0.1367471 7.83529,-0.1791923 0.27362,-0.047797 0.47642,-0.2934804 0.74622,-0.3582369 0.24131,-0.057947 0.50384,0.053702 0.74621,0 0.57483,-0.1273353 1.10172,-0.4206681 1.67899,-0.5373553 5.80518,-1.17342318 -0.88979,0.3932264 2.98488,-0.17919222 1.14777,-0.16959596 2.24986,-0.68279445 3.35798,-0.89559217 0.90515,-0.17384048 1.6861,-0.24110678 2.61176,-0.53735531 1.93407,-0.6189976 3.8108,-1.639563 5.78319,-2.1494212 3.96783,-1.0256773 4.05305,-0.8467065 8.02184,-1.4329475 1.35005,-0.1994183 2.74825,-0.5373553 4.1042,-0.5373553"
             id="path909" />
          <path
             style="fill:#000000;stroke:#000000;stroke-width:2.2;stroke-linecap:butt;stroke-linejoin:miter;stroke-miterlimit:4;stroke-dasharray:none;stroke-opacity:1"
             d="m 141.9052,5.1793181 c 2.6952,0.4852032 2.84585,0.7685705 5.41008,0.3582369 2.74039,-0.438532 5.26916,-1.1220092 8.02185,-1.4329475 0.74764,-0.084521 1.53034,-0.4466703 2.23865,-0.5373553 2.97273,-0.3805667 5.98337,-0.6526769 8.58151,-2.1494212 0.79452,-0.4577061 1.73169,-0.57529756 2.42521,-1.07471061 0.30566,-0.22010566 0.66218,-0.098362 0.93277,-0.35823687 0.20097,-0.19295923 0.0223,-0.22187728 0.18663,-0.5373553 0.0957,-0.18362131 0.8935,-0.78560392 1.11933,-1.07471062 1.10593,-1.4157849 0.47322,-2.5050006 -0.93285,-3.0450872"
             id="path911" />
          <path
             style="fill:none;stroke:#000000;stroke-width:2.2;stroke-linecap:butt;stroke-linejoin:miter;stroke-miterlimit:4;stroke-dasharray:none;stroke-opacity:1"
             d="m -14.261468,11.798783 c 3.622513,-1.075744 6.5248515,-3.4684863 10.0254679,-4.8129265 0.8520462,-0.3272334 1.7736323,-0.299072 2.6382679,-0.5066287 0.81894846,-0.1965763 1.88170935,-0.6146423 2.6382872,-0.7599338 0.9301584,-0.1786387 1.9719497,0.1786386 2.9021082,0 2.511989,-0.4823797 5.297294,-0.2533052 7.9148228,-0.2533052 1.33256,0 2.899264,-0.2115613 4.221252,0 0.548631,0.087843 1.037582,0.4018816 1.582965,0.5066287 2.458133,0.4720268 5.481965,1.0982769 6.331877,3.5463642 0.557722,1.6065113 -1.296963,1.7029353 -2.374447,1.0132393 C 20.781483,9.9960465 19.663982,9.3029914 18.453185,9.012353 15.144005,8.2180386 5.2988063,7.7398665 2.0958583,8.2524191 0.49413446,8.5087323 2.171395,8.5509375 0.24907267,9.012353 c -0.34127978,0.081938 -0.72594029,-0.1186618 -1.05532255,0 -0.41170382,0.1481888 -0.65349812,0.588474 -1.05530332,0.7599338 -1.1097936,0.4735772 -2.6043822,0.4903522 -3.6935905,1.0132392 -1.93545,0.929161 -3.3913476,1.579715 -5.2765553,2.78643 -0.479091,0.306657 -2.507088,1.836176 -3.165948,1.519868 -1.097973,-0.527095 0.282042,0.01661 -0.263821,-0.50661 -0.138965,-0.13361 -0.439708,-0.08452 -0.527662,-0.253324 -0.36517,-0.70123 0.255422,-2.010349 0.527662,-2.533107 z"
             id="path913" />
          <path
             style="fill:none;stroke:#000000;stroke-width:2.2;stroke-linecap:butt;stroke-linejoin:miter;stroke-miterlimit:4;stroke-dasharray:none;stroke-opacity:1"
             d="m -28.244348,58.154822 c -3.25469,2.604138 -0.0788,-0.23688 -2.638268,3.039736 -1.918536,2.456078 -1.717239,1.719397 -3.429769,3.546364 -2.053426,2.190648 -3.395903,5.001217 -4.748913,7.599357 -0.838246,1.609704 -0.791483,4.850186 -0.791483,6.5861 0,1.542326 -0.252154,3.326646 0.263841,4.812926 0.40044,1.153474 1.191154,2.16448 1.582964,3.293059 2.074069,5.974189 8.128959,7.852662 14.246701,7.852662"
             id="path915" />
          <path
             style="fill:none;stroke:#000000;stroke-width:2.2;stroke-linecap:butt;stroke-linejoin:miter;stroke-miterlimit:4;stroke-dasharray:none;stroke-opacity:1"
             d="m -22.703953,87.285669 c 3.057603,-1.418313 6.586319,-1.396592 9.761628,-0.253305 4.8486679,1.745768 3.1433454,2.258118 6.3318587,5.319537 1.189751,1.142328 3.2905167,2.086307 4.7489131,2.786431 0.88616263,0.425429 1.50512144,1.52568 2.3744469,2.026496 0.5885711,0.339063 1.4706014,1.020768 2.1106259,1.266563 1.7575062,0.674988 5.6211984,0.995135 7.3871814,0.253305 2.592234,-1.088902 5.456613,-2.803833 7.651002,-4.559603 5.262293,-4.210446 7.358215,-9.73372 15.038202,-9.119225 1.30444,0.104267 2.652952,0.40225 3.957411,0.506629 1.969874,0.1576 1.319144,0.921539 1.319144,2.78643"
             id="path917" />
          <path
             style="fill:none;stroke:#000000;stroke-width:2.2;stroke-linecap:butt;stroke-linejoin:miter;stroke-miterlimit:4;stroke-dasharray:none;stroke-opacity:1"
             d="m 46.418944,60.687948 c 2.020578,3.275619 3.730014,6.667704 5.276555,10.132463 0.312872,0.700935 0.938347,1.493626 1.055323,2.279802 0.234836,1.578313 0.350063,3.258937 0.791482,4.812927 0.265666,0.935324 0.787235,1.50765 1.055303,2.279801 0.365613,1.053101 0.184518,3.838497 0,4.812927 -0.259419,1.369944 -1.326485,3.558138 -2.110625,4.812927 -3.976844,6.363908 -9.664142,7.346033 -16.884988,7.346033"
             id="path919" />
          <path
             style="fill:none;stroke:#000000;stroke-width:2.2;stroke-linecap:butt;stroke-linejoin:miter;stroke-miterlimit:4;stroke-dasharray:none;stroke-opacity:1"
             d="m -45.129336,141.49439 c 6.019948,-1.80169 12.436146,-2.76353 18.204132,-5.31956 0.465598,-0.20632 0.843031,-0.57708 1.319143,-0.75993 0.372321,-0.14302 4.684082,-1.1088 5.012734,-1.26656 0.175868,-0.0843 0.106482,-0.39334 0.263821,-0.50661 0.75406,-0.54302 3.157876,-1.31517 3.957412,-1.51989 0.901866,-0.2309 3.097408,-0.20944 3.957431,-0.75993 0.163566,-0.10464 0.124741,-0.37311 0.263821,-0.50661 1.266152,-1.21569 6.0987899,-1.89247 7.6510016,-1.51989 2.7319873,0.65578 8.044677,3.89517 10.5531102,3.29306 1.2434531,-0.29846 6.0704212,-0.7622 6.3318772,-1.01324 0.06227,-0.0598 0,-0.16886 0,-0.25332 0.351775,-0.0843 0.696937,-0.20038 1.055304,-0.25331 0.720097,-0.1063 3.372338,-0.0991 4.221252,-0.50663 0.07861,-0.0378 -0.07861,-0.21554 0,-0.2533 0.892563,-0.42849 2.202615,-0.2754 3.165929,-0.50663 2.937089,-0.705 6.396189,-1.60884 9.497807,-1.01324 2.550295,0.48972 5.277612,1.64678 7.914842,2.2798 2.382231,0.57181 4.973409,0.6345 7.387181,1.26656 1.451054,0.37996 0.593607,0.4433 1.582965,0.75994 1.282701,0.41052 2.643688,0.59279 3.95743,1.01324"
             id="path921" />
          <path
             style="fill:none;stroke:#000000;stroke-width:2.2;stroke-linecap:butt;stroke-linejoin:miter;stroke-miterlimit:4;stroke-dasharray:none;stroke-opacity:1"
             d="m -34.840047,142.50763 c 3.378067,-0.17458 6.948646,0.0281 10.28929,-0.50663 0.54863,-0.0878 1.035736,-0.41109 1.582964,-0.50661 0.125126,-0.0218 2.777021,0.0218 2.902108,0 0.465944,-0.0814 0.859696,-0.39635 1.319144,-0.50663 2.630041,-0.63131 5.502858,-0.6921 8.178663,-1.01326 2.2654859,-0.27189 5.3747338,-0.27318 7.6510022,0 0.8045331,0.0965 1.5676843,0.42918 2.37446616,0.50663 2.80877324,0.26968 6.15412614,0.20798 8.97014564,0 2.652664,-0.19591 5.558059,-0.34057 8.178663,-0.75993 4.762214,-0.76208 9.335509,-1.77318 14.246701,-1.77318"
             id="path923" />
          <path
             style="fill:none;stroke:#000000;stroke-width:2.2;stroke-linecap:butt;stroke-linejoin:miter;stroke-miterlimit:4;stroke-dasharray:none;stroke-opacity:1"
             d="m -35.89535,147.57386 c 9.004224,1.93509 18.722817,3.81255 27.1742771,7.59936 2.3460774,1.0512 3.9772086,2.58262 6.5956987,3.03973 5.9996891,1.04738 14.4431732,0.78884 20.5785592,0.25333 1.474561,-0.12863 3.016028,0.17624 4.485073,0 1.340171,-0.16093 2.631291,-0.57805 3.95743,-0.75996 0.435288,-0.0598 0.901982,0.13361 1.319125,0 3.348851,-1.07177 6.612497,-2.25051 9.761647,-3.54636 1.57445,-0.64786 2.679342,-1.87513 4.221232,-2.53311 1.681028,-0.71734 3.411933,-1.5725 5.012735,-2.53312 0.616806,-0.37014 0.97744,-1.13227 1.582964,-1.51987 0.163567,-0.10482 0.351774,-0.16886 0.527661,-0.25331 0.791483,-0.59105 1.558516,-1.21361 2.374447,-1.77319 2.665927,-1.82833 5.442582,-2.43921 7.651002,-4.5596"
             id="path925" />
          <path
             style="fill:none;stroke:#000000;stroke-width:2.2;stroke-linecap:butt;stroke-linejoin:miter;stroke-miterlimit:4;stroke-dasharray:none;stroke-opacity:1"
             d="m 34.449819,13.597885 c 0.528584,-0.388097 1.029413,-0.813747 1.585713,-1.16427 0.441919,-0.27844 0.950936,-0.447501 1.399159,-0.716474 0.878263,-0.527021 1.707129,-1.271065 2.518485,-1.8807436 0.972309,-0.7305913 1.690677,-1.1824843 2.70504,-1.7911843 1.03418,-0.6206031 1.950692,-1.4392589 2.984872,-2.059862 0.830788,-0.4985457 1.781917,-0.8454147 2.611763,-1.3433883 0.512419,-0.3074872 0.991799,-0.7382315 1.492436,-1.0747106 0.566871,-0.3809911 1.19915,-0.6182963 1.772268,-0.9851514 0.591069,-0.3783337 1.206088,-0.8108864 1.865544,-1.0747106 0.774934,-0.3100155 1.727638,-0.4748687 2.518486,-0.71647372 1.187329,-0.36272129 2.323955,-0.81007447 3.544535,-1.07471061 3.186361,-0.69082212 6.368858,-0.71647377 9.607556,-0.71647377 1.362429,0 2.665177,0.0714186 4.010922,0.17919229 0.340838,0.0273125 0.685731,-0.0326643 1.02605,0 0.438593,0.042076 0.788426,0.19462013 1.212604,0.26867765 1.044732,0.1823295 2.215089,0.16775052 3.171426,0.62691452 0.481167,0.23099376 0.89312,0.67135272 1.399159,0.89559217 0.993663,0.44034047 0.447242,0.0893193 1.119327,0.44779607 0.601276,0.3207191 1.111561,0.8010687 1.67899,1.1642698 0.28925,0.1851346 0.637987,0.2709107 0.932772,0.4477961 1.039447,0.6237588 2.041701,1.2773769 3.171427,1.7911844 2.14084,0.9736543 4.419165,1.6247256 6.622684,2.4180988 0.588379,0.2118566 1.15919,0.6098258 1.772268,0.806033 1.803578,0.5772353 3.535078,1.3287908 5.316805,1.9703031 0.64096,0.230772 1.32145,0.33336 1.95882,0.537355 0.36133,0.115709 1.71305,0.570056 1.95882,0.806033 0.12801,0.122906 0.19978,0.383612 0.27983,0.537355 0.30148,0.578933 0.0559,-0.137485 0.37311,0.268678 0.10841,0.138962 0.23182,0.626914 0.37311,0.626914"
             id="path927" />
          <path
             style="fill:none;stroke:#000000;stroke-width:2.2;stroke-linecap:butt;stroke-linejoin:miter;stroke-miterlimit:4;stroke-dasharray:none;stroke-opacity:1"
             d="m 40.606117,17.001135 c 2.245016,0.01661 4.480921,-0.08914 6.715962,0.179192 0.83936,0.100761 1.654618,0.61813 2.425208,0.895592 0.724614,0.26089 1.538142,0.380179 2.238654,0.716474 0.614749,0.295123 1.200284,0.682684 1.865545,0.895592 1.194364,0.382246 2.562981,0.414929 3.731089,0.895592 0.206083,0.08471 0.341415,0.308927 0.559664,0.358237 3.411183,0.770638 1.549944,0.183437 3.917644,0.358237 1.03666,0.07659 1.941332,0.446264 2.984872,0.537355 3.291997,0.287354 6.377392,0.537356 9.700833,0.537356 1.021591,0 2.152623,0.122352 3.171427,0 1.425971,-0.171073 2.726643,-0.631067 4.104198,-0.895593 0.304896,-0.0585 0.633817,0.08194 0.932773,0 0.16914,-0.04632 0.206255,-0.304829 0.373109,-0.358236 0.23597,-0.07548 0.507057,0.0657 0.746218,0 0.215577,-0.05905 0.353581,-0.273439 0.559663,-0.358237 1.230499,-0.506334 2.98985,-0.451376 4.104199,-1.253829 0.111287,-0.08009 0.07534,-0.278127 0.186631,-0.358237 0.157416,-0.11331 0.383777,-0.09467 0.559664,-0.179192 1.172644,-0.562952 2.594502,-1.937141 3.171426,-3.045014 0.114939,-0.220678 0.08496,-0.537355 0.373109,-0.537355"
             id="path929" />
          <path
             style="fill:none;stroke:#000000;stroke-width:2.2;stroke-linecap:butt;stroke-linejoin:miter;stroke-miterlimit:4;stroke-dasharray:none;stroke-opacity:1"
             d="m 39.48679,25.419701 c 2.064612,2.315659 4.491704,4.310543 6.902516,6.269145 1.017266,0.826462 1.782474,1.850756 2.798317,2.686777 0.576328,0.474297 1.298213,0.769641 1.865545,1.253829 0.232396,0.198329 0.325673,0.519897 0.559664,0.716474 0.86527,0.726919 2.001818,1.097225 2.984872,1.612066 0.27295,0.143021 0.457544,0.426481 0.746218,0.537355 0.351197,0.134902 0.752368,0.09098 1.119326,0.179192 4.704303,1.129207 -2.027823,-0.35187 2.0521,0.716474 2.055963,0.53837 4.290888,0.537392 6.342852,1.074711 0.2683,0.07031 0.471365,0.317637 0.746218,0.358236 2.264525,0.334505 4.792544,0 7.089071,0 3.24358,0 6.772124,0.459681 9.887388,-0.537355 1.707629,-0.546509 3.510073,-1.021654 5.223525,-1.432947 1.037063,-0.248932 1.811516,-1.296238 2.798318,-1.612066 0.124357,-0.03986 1.126227,-0.243229 1.305881,-0.358237 0.645502,-0.413176 4.467179,-3.045014 4.850417,-3.045014"
             id="path931" />
          <path
             style="fill:none;stroke:#000000;stroke-width:2.2;stroke-linecap:butt;stroke-linejoin:miter;stroke-miterlimit:4;stroke-dasharray:none;stroke-opacity:1"
             d="m 28.66663,-13.807236 c -1.222234,-2.928234 -1.009885,-12.285133 1.305881,-14.508593"
             id="path933" />
          <path
             style="fill:none;stroke:#000000;stroke-width:2.2;stroke-linecap:butt;stroke-linejoin:miter;stroke-miterlimit:4;stroke-dasharray:none;stroke-opacity:1"
             d="m 31.091838,-20.434618 c -0.210734,-3.353719 2.164732,-5.548316 4.290753,-7.881211"
             id="path935" />
          <path
             style="fill:none;stroke:#000000;stroke-width:2.2;stroke-linecap:butt;stroke-linejoin:miter;stroke-miterlimit:4;stroke-dasharray:none;stroke-opacity:1"
             d="m 36.688473,-23.300513 c 0.904922,-3.827923 4.726463,-5.714959 8.021843,-7.522974"
             id="path937" />
          <path
             style="fill:none;stroke:#000000;stroke-width:2.2;stroke-linecap:butt;stroke-linejoin:miter;stroke-miterlimit:4;stroke-dasharray:none;stroke-opacity:1"
             d="m 41.725444,-24.375224 c 1.413497,-3.336629 5.167171,-5.615176 8.394952,-7.164737"
             id="path939" />
          <path
             style="fill:none;stroke:#000000;stroke-width:2.2;stroke-linecap:butt;stroke-linejoin:miter;stroke-miterlimit:4;stroke-dasharray:none;stroke-opacity:1"
             d="m 48.62796,-26.703763 c 2.38325,-1.805394 4.465237,-3.582369 7.648734,-3.582369"
             id="path941" />
          <path
             style="fill:none;stroke:#000000;stroke-width:2.2;stroke-linecap:butt;stroke-linejoin:miter;stroke-miterlimit:4;stroke-dasharray:none;stroke-opacity:1"
             d="m 53.105268,-24.375224 c 2.690663,-3.197594 8.173531,-5.731789 12.49915,-5.731789"
             id="path943" />
          <path
             style="fill:none;stroke:#000000;stroke-width:2.2;stroke-linecap:butt;stroke-linejoin:miter;stroke-miterlimit:4;stroke-dasharray:none;stroke-opacity:1"
             d="m 62.246438,-25.091697 c 2.390918,-2.200614 5.667654,-3.403251 8.954615,-3.403251"
             id="path945" />
          <path
             style="fill:none;stroke:#000000;stroke-width:2.2;stroke-linecap:butt;stroke-linejoin:miter;stroke-miterlimit:4;stroke-dasharray:none;stroke-opacity:1"
             d="m 70.268281,-24.912579 c 3.963562,-2.790749 2.022461,-1.830363 7.648734,-3.582369 1.826527,-0.568764 1.403694,-0.537355 2.425208,-0.537355"
             id="path947" />
          <path
             style="fill:none;stroke:#000000;stroke-width:2.2;stroke-linecap:butt;stroke-linejoin:miter;stroke-miterlimit:4;stroke-dasharray:none;stroke-opacity:1"
             d="m 78.103569,-25.808171 c 3.295456,-0.866545 8.612259,-3.582369 12.126042,-3.582369"
             id="path949" />
          <path
             style="fill:none;stroke:#000000;stroke-width:2.2;stroke-linecap:butt;stroke-linejoin:miter;stroke-miterlimit:4;stroke-dasharray:none;stroke-opacity:1"
             d="m 85.565749,-24.375224 c 2.595829,-1.7929 5.772752,-2.081545 8.76806,-2.865895"
             id="path951" />
          <path
             style="fill:none;stroke:#000000;stroke-width:2.2;stroke-linecap:butt;stroke-linejoin:miter;stroke-miterlimit:4;stroke-dasharray:none;stroke-opacity:1"
             d="m 94.333809,-27.241119 c 0.808397,1.015011 1.284047,2.387613 2.425209,3.045014 0.648712,0.373702 1.486766,-0.278016 2.238654,-0.358237 0.943324,-0.100577 6.353158,-0.235515 7.089068,0 1.086,0.34757 2.38621,1.410488 3.35798,1.970303 2.064,1.189035 4.90604,1.307236 6.52941,2.865895"
             id="path953" />
          <path
             style="fill:none;stroke:#000000;stroke-width:2.2;stroke-linecap:butt;stroke-linejoin:miter;stroke-miterlimit:4;stroke-dasharray:none;stroke-opacity:1"
             d="m 28.66663,-13.807236 c 0.21625,3.9802272 2.44266,-3.680583 1.67899,-2.865895 -0.76367,0.814688 -1.119327,1.910603 -1.67899,2.865895"
             id="path955" />
          <path
             style="fill:none;stroke:#000000;stroke-width:2.2;stroke-linecap:butt;stroke-linejoin:miter;stroke-miterlimit:4;stroke-dasharray:none;stroke-opacity:1"
             d="m 34.449819,-14.165473 c -1.769212,-0.179008 -2.120563,-5.439287 -2.238654,-5.552671 -0.317081,-0.304443 -0.746218,-0.477656 -1.119327,-0.716474"
             id="path957" />
          <path
             style="fill:none;stroke:#000000;stroke-width:2.2;stroke-linecap:butt;stroke-linejoin:miter;stroke-miterlimit:4;stroke-dasharray:none;stroke-opacity:1"
             d="m 34.449819,-14.165473 c 2.377099,-1.956277 1.010154,-0.108696 -0.186631,-3.045013 -0.526162,-1.291052 0.04901,-2.960179 -0.186632,-3.045014 -0.933426,-0.336091 -1.989921,-0.1194 -2.984872,-0.179192"
             id="path959" />
          <path
             style="fill:none;stroke:#000000;stroke-width:2.2;stroke-linecap:butt;stroke-linejoin:miter;stroke-miterlimit:4;stroke-dasharray:none;stroke-opacity:1"
             d="m 39.859899,-14.702828 c -3.695897,-1.100399 -3.171426,-5.705086 -3.171426,-8.597685"
             id="path961" />
          <path
             style="fill:none;stroke:#000000;stroke-width:2.2;stroke-linecap:butt;stroke-linejoin:miter;stroke-miterlimit:4;stroke-dasharray:none;stroke-opacity:1"
             d="m 39.859899,-14.702828 c 0.435806,-2.80769 -0.814528,-3.176187 -1.865545,-5.194435"
             id="path963" />
          <path
             style="fill:none;stroke:#000000;stroke-width:2.2;stroke-linecap:butt;stroke-linejoin:miter;stroke-miterlimit:4;stroke-dasharray:none;stroke-opacity:1"
             d="m 43.777543,-15.061065 c -0.435287,-0.537355 -0.870574,-1.074711 -1.305881,-1.612066 -0.68404,-0.716474 -1.426683,-1.385169 -2.052099,-2.149421 -0.07688,-0.09393 0.113016,-0.308189 0,-0.358237 -0.767957,-0.340318 -1.616812,-0.477655 -2.425209,-0.716474"
             id="path965" />
          <path
             style="fill:none;stroke:#000000;stroke-width:2.2;stroke-linecap:butt;stroke-linejoin:miter;stroke-miterlimit:4;stroke-dasharray:none;stroke-opacity:1"
             d="m 43.777543,-15.061065 c 0.808397,-0.417937 1.96257,-0.492363 2.425209,-1.253829 0.244715,-0.402804 -0.761306,-0.580483 -1.119327,-0.895592 -0.388966,-0.342329 -0.768764,-0.696063 -1.119327,-1.074711 -0.148959,-0.160922 -0.22415,-0.698259 -0.373109,-0.537355 -0.554282,0.598698 -0.746218,1.432947 -1.119327,2.149421"
             id="path967" />
          <path
             style="fill:none;stroke:#000000;stroke-width:2.2;stroke-linecap:butt;stroke-linejoin:miter;stroke-miterlimit:4;stroke-dasharray:none;stroke-opacity:1"
             d="m 51.799386,-14.881947 c -1.843364,-1.344772 -3.642252,-2.871578 -5.036971,-4.657079"
             id="path969" />
          <path
             style="fill:none;stroke:#000000;stroke-width:2.2;stroke-linecap:butt;stroke-linejoin:miter;stroke-miterlimit:4;stroke-dasharray:none;stroke-opacity:1"
             d="m 51.799386,-14.881947 c 0.621842,-0.417955 1.557267,-0.587828 1.865545,-1.253829 0.159723,-0.34506 -0.761287,-0.201983 -1.119327,-0.358236 -0.330093,-0.144129 -0.646559,-0.323617 -0.932772,-0.537356 -0.674833,-0.503953 -1.823644,-2.648059 -2.0521,-2.686776 -0.920625,-0.15594 -1.865544,0.1194 -2.798317,0.179192"
             id="path971" />
          <path
             style="fill:none;stroke:#000000;stroke-width:2.2;stroke-linecap:butt;stroke-linejoin:miter;stroke-miterlimit:4;stroke-dasharray:none;stroke-opacity:1"
             d="m 57.396021,-16.673131 c -1.270477,-0.972547 -4.663862,-2.407875 -4.663862,-4.298842 0,-1.140685 0.248733,-2.26884 0.373109,-3.403251"
             id="path973" />
          <path
             style="fill:none;stroke:#000000;stroke-width:2.2;stroke-linecap:butt;stroke-linejoin:miter;stroke-miterlimit:4;stroke-dasharray:none;stroke-opacity:1"
             d="m 57.396021,-16.673131 c 1.850341,-3.170522 0.530275,-2.894112 -1.492436,-4.836198"
             id="path975" />
          <path
             style="fill:none;stroke:#000000;stroke-width:2.2;stroke-linecap:butt;stroke-linejoin:miter;stroke-miterlimit:4;stroke-dasharray:none;stroke-opacity:1"
             d="m 64.485091,-16.852249 c -0.87882,-1.436915 -2.601499,-2.045099 -3.544535,-3.403251"
             id="path977" />
          <path
             style="fill:none;stroke:#000000;stroke-width:2.2;stroke-linecap:butt;stroke-linejoin:miter;stroke-miterlimit:4;stroke-dasharray:none;stroke-opacity:1"
             d="m 64.485091,-16.852249 c 0.68404,-0.417956 1.689504,-0.557545 2.0521,-1.253829 0.186631,-0.358237 -0.765573,-0.325075 -1.119327,-0.537356 -0.411858,-0.247141 -0.81497,-1.527102 -0.932773,-1.07471 -0.241313,0.92678 0,1.910603 0,2.865895"
             id="path979" />
          <path
             style="fill:none;stroke:#000000;stroke-width:2.2;stroke-linecap:butt;stroke-linejoin:miter;stroke-miterlimit:4;stroke-dasharray:none;stroke-opacity:1"
             d="m 73.99937,-18.643434 c -0.950743,-0.123644 -4.711529,-1.992245 -4.663862,-3.045013 0.05036,-1.114351 0.621842,-2.149421 0.932773,-3.224132"
             id="path981" />
          <path
             style="fill:none;stroke:#000000;stroke-width:2.2;stroke-linecap:butt;stroke-linejoin:miter;stroke-miterlimit:4;stroke-dasharray:none;stroke-opacity:1"
             d="m 51.799386,-14.881947 c 0.994951,-1.194129 1.725485,-2.646213 2.984872,-3.582368 1.405655,-1.04487 6.982839,-1.203412 8.768061,-1.253829 5.704481,-0.161107 11.350186,0.465217 16.976458,-0.716474 0.172409,-0.03617 4.232054,-1.180122 4.290754,-1.253829 0.586418,-0.736275 0.497465,-1.791184 0.746218,-2.686777"
             id="path983" />
          <path
             style="fill:none;stroke:#000000;stroke-width:2.2;stroke-linecap:butt;stroke-linejoin:miter;stroke-miterlimit:4;stroke-dasharray:none;stroke-opacity:1"
             d="m 64.485091,-16.852249 c 0.621842,0.05979 1.242262,0.22291 1.865545,0.179192 1.938526,-0.136194 3.848412,-0.537854 5.783189,-0.716474 5.271693,-0.486698 10.572273,-0.102422 15.857132,-0.537355 2.114028,-0.174025 2.052099,0.479408 2.052099,-0.358237"
             id="path985" />
          <path
             style="fill:none;stroke:#000000;stroke-width:2.2;stroke-linecap:butt;stroke-linejoin:miter;stroke-miterlimit:4;stroke-dasharray:none;stroke-opacity:1"
             d="m 90.043056,-18.285123 c 0.06227,-0.835911 -0.405457,-1.891927 0.186632,-2.507732 0.465867,-0.484594 1.369962,0.102053 2.052099,0.179192 10.801263,1.220095 -1.014671,-0.19342 7.275625,1.253829 1.343308,0.234501 2.709848,-0.639832 3.917648,-1.07471"
             id="path987" />
          <path
             style="fill:#4d4d4d;stroke:#000000;stroke-width:2.2;stroke-linecap:butt;stroke-linejoin:miter;stroke-miterlimit:4;stroke-dasharray:none;stroke-opacity:1"
             d="m 54.224595,1.9551863 c -0.07861,0.2935911 -0.407726,0.3935217 -0.559664,0.6269145 -0.284002,0.436299 -0.330747,0.9554767 -0.466386,1.4329475 -0.541077,1.9048635 -0.746218,3.8328318 -0.746218,5.8213491 0,0.4546976 -0.123588,1.0872416 0,1.5225066 0.120513,0.423898 0.353562,0.820538 0.466386,1.253829 0.305933,1.174955 0.485991,2.687902 1.305882,3.671928 0.162413,0.194842 0.403496,0.337439 0.559663,0.537355 0.09034,0.115709 0.258305,0.427128 0.373109,0.537356 0.588264,0.564815 1.329004,0.79699 2.052099,1.07471 0.354581,0.136194 0.651884,0.429582 1.02605,0.537356 0.21058,0.06072 0.439651,0.03839 0.652941,0.0895 1.017746,0.2443 2.019213,0.542191 3.078149,0.626915 0.887124,0.07105 1.812938,0 2.70504,0 0.672084,0 4.124918,-0.350763 4.38403,-0.537355 1.295829,-0.933129 -1.428546,0.733396 0.932773,-0.626915 0.539866,-0.310993 1.175989,-0.52619 1.585713,-0.985151 0.343163,-0.384405 1.472965,-2.159276 1.67899,-2.686777 0.08707,-0.223077 0.01345,-0.573563 0.09322,-0.806033 0.318061,-0.916169 0.672257,-1.812886 0.839495,-2.776335 0.167795,-0.966088 -0.0019,-2.0853295 -0.09322,-3.0450139 C 73.92812,6.4867203 73.83761,4.6237483 73.253152,2.9402823 73.077477,2.4339673 72.645995,1.6555053 72.32038,1.2386572 72.241191,1.1373425 72.082257,1.0900993 72.040548,0.96997955 71.963282,0.74767781 71.86468,0.62202178 71.667439,0.43262425 71.563648,0.33278593 71.24624,0.23041935 71.107776,0.1639466 70.705355,-0.02923409 70.38024,-0.24801104 69.988449,-0.37340871 c -0.536061,-0.17162595 -2.329586,0 -2.984872,0 -0.952224,0 -1.941927,-0.0760321 -2.891595,0 -2.141378,0.17125686 0.200394,-0.0385697 -1.399158,0.26867765 -1.063588,0.20423488 -2.191814,0.27611478 -3.264704,0.44779609 -0.540001,0.0863666 -1.162227,0.38230141 -1.67899,0.5373553 -0.257632,0.37335107 -0.785351,0.0989156 -1.119327,0.17919227 -0.175868,0.042261 -0.290499,0.226454 -0.466386,0.2686776 -0.619843,0.1487425 -1.366465,0.3425322 -1.958822,0.6269146 z"
             id="path989" />
          <path
             style="fill:#000000;stroke:#000000;stroke-width:2.2;stroke-linecap:butt;stroke-linejoin:miter;stroke-miterlimit:4;stroke-dasharray:none;stroke-opacity:1"
             d="m 63.272487,5.2688773 c -0.955145,0.075109 -1.939486,-0.1014992 -2.891594,0 -0.517513,0.055179 -0.849548,0.5588547 -1.119327,0.8955922 -0.679965,0.8487365 -0.551418,0.4726173 -1.02605,1.2538291 -0.624206,1.0274119 -0.825887,2.6311734 -0.373109,3.7614874 0.199394,0.497752 0.505769,0.70852 0.839495,1.07471 0.862157,0.946047 1.574008,2.236729 2.984872,2.507658 0.427926,0.08212 0.874304,0.02731 1.305882,0.0895 0.254729,0.03672 1.628344,0.38256 2.052099,0.179192 0.348776,-0.167381 1.264096,-0.586794 1.585713,-0.895592 0.540251,-0.518716 0.659226,-1.250378 0.932772,-1.880743 0.05978,-0.137855 0.222094,-0.219645 0.279832,-0.358237 C 68.133475,11.1992 68.189811,9.5813576 67.936292,8.8512645 67.725577,8.2443176 67.415627,7.749389 67.096797,7.2391986 66.752461,6.688187 64.748394,5.8308324 64.111925,5.6271327 64.028508,5.6003738 64.004098,5.4857719 63.925293,5.4479404 63.737509,5.3576984 63.50915,5.3824273 63.272353,5.2687482 Z"
             id="path991" />
          <path
             style="fill:#f6f6f6;fill-opacity:1;stroke:#000000;stroke-width:0;stroke-linecap:butt;stroke-linejoin:miter;stroke-miterlimit:4;stroke-dasharray:none;stroke-opacity:1"
             d="m 67.940132,5.7157731 c -1.373653,-0.021038 -1.734422,0.713927 -1.958822,1.7911843 -0.2229,1.0701156 0.361442,1.6251316 1.399159,1.7911846 0.4404,0.0705 1.220292,0.236364 1.67899,0.0895 0.371264,-0.118847 0.25892,-1.052972 0.279832,-1.253829 0.143769,-1.3794261 0.128777,-2.0513325 -1.399159,-2.4180953 z"
             id="path993" />
          <path
             style="fill:none;stroke:#000000;stroke-width:2.2;stroke-linecap:butt;stroke-linejoin:miter;stroke-miterlimit:4;stroke-dasharray:none;stroke-opacity:1"
             d="m -23.195518,-17.92696 c -0.944785,-3.274291 -1.488995,-6.617472 -2.611763,-9.851514"
             id="path995" />
          <path
             style="fill:none;stroke:#000000;stroke-width:2.2;stroke-linecap:butt;stroke-linejoin:miter;stroke-miterlimit:4;stroke-dasharray:none;stroke-opacity:1"
             d="m -26.366944,-20.971973 c -0.186631,-0.358237 -0.416067,-0.698666 -0.559663,-1.074711 -0.541558,-1.418129 -1.054996,-2.847957 -1.492436,-4.298842 -0.247561,-0.821147 -0.404939,-1.665805 -0.559664,-2.507658 -0.03248,-0.176425 -0.175868,-0.596963 0,-0.537356 1.127957,0.382228 2.114278,1.074711 3.171426,1.612066"
             id="path997" />
          <path
             style="fill:none;stroke:#000000;stroke-width:2.2;stroke-linecap:butt;stroke-linejoin:miter;stroke-miterlimit:4;stroke-dasharray:none;stroke-opacity:1"
             d="m -26.366944,-20.971973 c -1.181505,-0.835892 -2.694488,-1.358983 -3.544535,-2.507658 -0.858505,-1.160118 -2.52356,-7.394809 -2.984872,-9.314159"
             id="path999" />
          <path
             style="fill:none;stroke:#000000;stroke-width:2.2;stroke-linecap:butt;stroke-linejoin:miter;stroke-miterlimit:4;stroke-dasharray:none;stroke-opacity:1"
             d="m -33.082906,-23.837868 c -1.398524,-1.879876 -1.374229,-1.613875 -2.238653,-4.65708 -0.417144,-1.468582 -0.64408,-2.981198 -0.932773,-4.47796 -0.03402,-0.176055 -0.18394,-0.566791 0,-0.537356 1.131032,0.181038 2.238654,0.477656 3.357981,0.716474"
             id="path1001" />
          <path
             style="fill:none;stroke:#000000;stroke-width:2.2;stroke-linecap:butt;stroke-linejoin:miter;stroke-miterlimit:4;stroke-dasharray:none;stroke-opacity:1"
             d="m -36.813995,-26.166408 c -1.059225,-2.045098 -2.380213,-3.919512 -3.171427,-6.090027 -0.949282,-2.604119 0.0038,-0.710125 -0.559663,-1.791184"
             id="path1003" />
          <path
             style="fill:none;stroke:#000000;stroke-width:2.2;stroke-linecap:butt;stroke-linejoin:miter;stroke-miterlimit:4;stroke-dasharray:none;stroke-opacity:1"
             d="m -40.918194,-27.062 c -1.632169,-1.871922 -2.862898,-3.713266 -3.357981,-6.090027"
             id="path1005" />
          <path
             style="fill:none;stroke:#000000;stroke-width:2.2;stroke-linecap:butt;stroke-linejoin:miter;stroke-miterlimit:4;stroke-dasharray:none;stroke-opacity:1"
             d="m -40.918194,-27.062 c -5.170688,-0.269139 -4.200032,-0.997461 -5.036971,-5.015316 -0.150881,-0.724188 -1.19965,-1.739752 -0.559664,-2.149421 0.694169,-0.444346 1.492436,0.716473 2.238654,1.07471"
             id="path1007" />
          <path
             style="fill:none;stroke:#000000;stroke-width:2.2;stroke-linecap:butt;stroke-linejoin:miter;stroke-miterlimit:4;stroke-dasharray:none;stroke-opacity:1"
             d="m -47.261047,-28.136711 c -2.382096,-1.352671 -3.35798,-3.485963 -3.35798,-6.090026"
             id="path1009" />
          <path
             style="fill:none;stroke:#000000;stroke-width:2.2;stroke-linecap:butt;stroke-linejoin:miter;stroke-miterlimit:4;stroke-dasharray:none;stroke-opacity:1"
             d="m -51.365245,-26.345526 c -2.064862,-1.483218 -2.890807,-4.029408 -4.663863,-5.73179"
             id="path1011" />
          <path
             style="fill:none;stroke:#000000;stroke-width:2.2;stroke-linecap:butt;stroke-linejoin:miter;stroke-miterlimit:4;stroke-dasharray:none;stroke-opacity:1"
             d="m -51.365245,-22.763158 c -3.650056,0.208351 -7.214639,-0.09061 -10.820161,-0.537355 -1.256715,-0.155755 -3.791749,-0.298075 -5.223525,-0.716474 -3.419006,-0.999084 -6.185052,-2.143903 -9.887388,-1.432947"
             id="path1013" />
          <path
             style="fill:none;stroke:#000000;stroke-width:2.2;stroke-linecap:butt;stroke-linejoin:miter;stroke-miterlimit:4;stroke-dasharray:none;stroke-opacity:1"
             d="m -71.699684,-21.688447 c -2.157659,0.414338 -3.050241,0.707505 -5.596635,0.358237 -3.153128,-0.432498 -10.076307,-3.580099 -12.87226,-0.895592"
             id="path1015" />
          <path
             style="fill:none;stroke:#000000;stroke-width:2.2;stroke-linecap:butt;stroke-linejoin:miter;stroke-miterlimit:4;stroke-dasharray:none;stroke-opacity:1"
             d="m -77.296319,-25.449934 c -3.661146,-1.680735 -5.944238,-1.469229 -9.887388,-0.895592 -1.106699,0.160922 -3.084165,0.282038 -4.290753,0.716473 -0.05824,0.02085 -0.02153,0.123091 0,0.179193 0.415183,1.082018 0.870594,2.149421 1.305881,3.224131"
             id="path1017" />
          <path
             style="fill:none;stroke:#000000;stroke-width:2.2;stroke-linecap:butt;stroke-linejoin:miter;stroke-miterlimit:4;stroke-dasharray:none;stroke-opacity:1"
             d="m -87.370261,-28.136711 c -1.146025,0.343861 -3.45614,0.916317 -4.663863,1.612066 -0.832921,0.479833 -1.474849,1.214983 -2.238653,1.791185 -4.071716,3.07168 -7.917593,6.182225 -12.872263,7.881211 -0.66651,0.228557 -4.4773,1.461256 -4.4773,1.612066"
             id="path1019" />
          <path
             style="fill:none;stroke:#000000;stroke-width:2.2;stroke-linecap:butt;stroke-linejoin:miter;stroke-miterlimit:4;stroke-dasharray:none;stroke-opacity:1"
             d="m -37.187104,-20.434618 c 0.784813,1.2783 2.399241,1.761251 3.357981,2.865895 0.398345,0.458961 1.918478,4.221371 2.238653,4.836198"
             id="path1021" />
          <path
             style="fill:none;stroke:#000000;stroke-width:2.2;stroke-linecap:butt;stroke-linejoin:miter;stroke-miterlimit:4;stroke-dasharray:none;stroke-opacity:1"
             d="m -30.844252,-17.568723 c 1.370194,1.457215 3.131467,2.674061 3.544536,4.657079"
             id="path1023" />
          <path
             style="fill:none;stroke:#000000;stroke-width:2.2;stroke-linecap:butt;stroke-linejoin:miter;stroke-miterlimit:4;stroke-dasharray:none;stroke-opacity:1"
             d="m -27.113162,-17.031368 c 0.620939,0.900446 3.053412,4.16837 2.611763,4.298843 -0.893505,0.263971 -1.865545,-0.1194 -2.798317,-0.179193"
             id="path1025" />
          <path
             style="fill:none;stroke:#000000;stroke-width:2.2;stroke-linecap:butt;stroke-linejoin:miter;stroke-miterlimit:4;stroke-dasharray:none;stroke-opacity:1"
             d="m -27.113162,-17.031368 c 1.057149,0.477656 2.183606,0.833936 3.171426,1.432948 0.98067,0.594674 -0.171831,5.6055061 0.746218,-2.32854"
             id="path1027" />
          <path
             style="fill:none;stroke:#000000;stroke-width:2.2;stroke-linecap:butt;stroke-linejoin:miter;stroke-miterlimit:4;stroke-dasharray:none;stroke-opacity:1"
             d="m -46.887938,-16.314894 c -3.895598,-0.18233 -7.852606,-0.381545 -11.752932,-0.179192 -2.933265,0.152249 -5.029764,0.752552 -8.021843,0.358237 -4.659557,-0.614052 -9.084201,-1.791185 -13.805032,-1.791185"
             id="path1029" />
          <path
             style="fill:none;stroke:#000000;stroke-width:2.2;stroke-linecap:butt;stroke-linejoin:miter;stroke-miterlimit:4;stroke-dasharray:none;stroke-opacity:1"
             d="m -59.200534,-19.359907 c -3.812681,-0.03691 -7.611907,-1.125018 -11.193269,-2.32854 -0.578058,-0.194251 -1.080136,-0.593254 -1.67899,-0.716474 -2.866089,-0.589673 -6.032672,-0.537355 -8.954616,-0.537355"
             id="path1031" />
          <path
             style="fill:none;stroke:#000000;stroke-width:2.2;stroke-linecap:butt;stroke-linejoin:miter;stroke-miterlimit:4;stroke-dasharray:none;stroke-opacity:1"
             d="m -77.296319,-25.449934 c -0.68404,0.537355 -1.187906,1.434258 -2.052099,1.612066 -1.049653,0.215953 -2.101458,-0.454052 -3.171427,-0.537356 -1.921419,-0.149665 -3.858426,-0.102606 -5.783189,0 -0.03652,0.0018 -2.70923,0.225403 -2.611763,0.537356 0.17606,0.563228 0.497485,1.07471 0.746218,1.612066"
             id="path1033" />
          <path
             style="fill:none;stroke:#000000;stroke-width:2.2;stroke-linecap:butt;stroke-linejoin:miter;stroke-miterlimit:4;stroke-dasharray:none;stroke-opacity:1"
             d="m -80.467745,-17.927034 c -0.808397,-0.417918 -1.55029,-0.98648 -2.425209,-1.253755 -0.533312,-0.162952 -1.123305,0.06404 -1.67899,0 -3.4157,-0.39354 -7.134835,-1.412408 -10.633606,-0.895592 -1.193364,0.176239 -2.381174,0.4062 -3.544535,0.716474 -2.191165,0.584395 -0.629838,0.537355 -1.678995,0.537355"
             id="path1035" />
          <path
             style="fill:none;stroke:#000000;stroke-width:2.2;stroke-linecap:butt;stroke-linejoin:miter;stroke-miterlimit:4;stroke-dasharray:none;stroke-opacity:1"
             d="m -90.168579,-22.225729 c -2.88454,1.345862 -6.136232,-0.06625 -9.14117,0.895519 -0.39575,0.126597 -1.050751,0.142283 -1.119331,0.537355 -0.11244,0.647823 0,1.313529 0,1.970303"
             id="path1037" />
          <path
             style="fill:none;stroke:#000000;stroke-width:2.2;stroke-linecap:butt;stroke-linejoin:miter;stroke-miterlimit:4;stroke-dasharray:none;stroke-opacity:1"
             d="m -84.38539,-24.554342 c -2.674767,0.03229 -5.355666,-0.116263 -8.021843,0.179192 -0.03306,0.0037 -2.462188,0.716474 -2.798317,0.716474"
             id="path1039" />
          <path
             style="fill:none;stroke:#000000;stroke-width:2.2;stroke-linecap:butt;stroke-linejoin:miter;stroke-miterlimit:4;stroke-dasharray:none;stroke-opacity:1"
             d="m -37.187104,-20.434618 c -1.243703,0.597055 -2.344694,1.688781 -3.73109,1.791184 -1.255447,0.09264 -2.358744,-0.847204 -3.544535,-1.253829 -0.457603,-0.156862 -2.378599,-0.779163 -2.984872,-0.895592 -0.304876,-0.0585 -0.667472,0.155755 -0.932773,0 -1.030259,-0.604511 -1.98992,-1.313529 -2.984871,-1.970303"
             id="path1041" />
          <path
             style="fill:none;stroke:#000000;stroke-width:2.2;stroke-linecap:butt;stroke-linejoin:miter;stroke-miterlimit:4;stroke-dasharray:none;stroke-opacity:1"
             d="m -40.918194,-21.509329 c -0.857755,-0.03857 -7.34036,-3.219186 -7.648734,-3.045013 -0.966274,0.545734 -1.865545,1.194129 -2.798317,1.791184"
             id="path1043" />
          <path
             style="fill:none;stroke:#000000;stroke-width:2.2;stroke-linecap:butt;stroke-linejoin:miter;stroke-miterlimit:4;stroke-dasharray:none;stroke-opacity:1"
             d="m -37.187104,-20.434618 c -0.124357,-1.074711 0.261322,-2.330717 -0.373109,-3.224132 -0.476477,-0.670965 -1.619984,-0.467967 -2.425209,-0.716474 -2.095537,-0.646716 -3.953183,-1.308509 -6.156298,-1.432947 -1.991535,-0.112572 -3.318175,0.07253 -5.223525,-0.537355"
             id="path1045" />
          <path
             style="fill:none;stroke:#000000;stroke-width:2.2;stroke-linecap:butt;stroke-linejoin:miter;stroke-miterlimit:4;stroke-dasharray:none;stroke-opacity:1"
             d="m -26.18039,13.418766 c -0.248732,-0.1194 -0.532581,-0.187294 -0.746217,-0.358237 -0.172216,-0.137854 -0.214559,-0.385125 -0.373109,-0.537355 -0.547593,-0.525766 -1.421974,-0.711694 -2.0521,-1.074711 -0.821812,-0.473429 -1.393354,-1.327406 -2.238654,-1.791184 -0.341472,-0.1873491 -0.767552,-0.1893606 -1.119327,-0.3582369 -1.994533,-0.9575251 -3.846509,-1.82813 -5.969743,-2.5076581 -0.553955,-0.1773468 -1.125305,-0.5835651 -1.678991,-0.7164737 -1.7606,-0.4226058 -3.619034,-0.3653972 -5.41008,-0.5373553 -0.660898,0.085259 -1.234534,-0.2976511 -1.865545,-0.3582369 -1.289121,-0.123829 -2.627408,0.095225 -3.917644,0 -0.737722,-0.054441 -1.495434,-0.2933696 -2.238654,-0.3582368 -2.082256,-0.1817759 -4.477,-0.1492962 -6.529407,0.1791922 -0.368034,0.05887 -0.757346,-0.08692 -1.119327,0 -0.324884,0.078062 -0.604389,0.2951782 -0.932772,0.3582369 -1.230326,0.2362532 -2.665023,0.028789 -3.917644,0.1791922 -0.927064,0.1112801 -1.839905,0.5850231 -2.798318,0.7164738 -1.802597,0.2472521 -3.517722,0.1705187 -5.223525,0.7164737 -0.570062,0.1825141 -1.126381,0.8094286 -1.678991,1.0747106 -1.108486,0.5321512 -1.797984,1.0098434 -2.611763,1.7911844 -1.419897,1.3633009 -4.032544,2.3836999 -5.783189,3.2241319 -1.046039,0.502163 -1.948904,1.417704 -2.984871,1.970303 -2.950467,1.57381 -6.049509,2.913581 -9.14117,4.298842 -0.09476,0.04245 -3.859909,1.556629 -3.917649,1.612066"
             id="path1047" />
          <path
             style="fill:none;stroke:#000000;stroke-width:2.2;stroke-linecap:butt;stroke-linejoin:miter;stroke-miterlimit:4;stroke-dasharray:none;stroke-opacity:1"
             d="m -35.508114,15.20995 c -2.361319,0.914471 -5.089655,0.673623 -7.462179,1.432948 -2.138112,0.684308 -4.087977,1.850626 -6.156298,2.686776 -3.669162,1.483328 -7.326079,2.481527 -11.19327,3.224132 -0.136273,0.02621 -0.248733,0.1194 -0.373109,0.179193 -0.310911,0.05979 -0.618132,0.14136 -0.932772,0.179192 -2.115354,0.253877 -4.223674,0.692114 -6.342853,0.895592 -3.09685,0.297337 -6.410047,0 -9.514279,0 -1.30911,0 -2.584815,0.3071 -3.917644,0.179192 -0.547055,-0.0526 -1.225924,-0.464848 -1.67899,-0.537355 -1.02655,-0.164244 -1.974237,-0.179192 -2.984872,-0.179192"
             id="path1049" />
          <path
             style="fill:none;stroke:#000000;stroke-width:2.2;stroke-linecap:butt;stroke-linejoin:miter;stroke-miterlimit:4;stroke-dasharray:none;stroke-opacity:1"
             d="m -25.993835,23.807635 c -2.150585,-0.127151 -3.985416,1.025844 -5.969744,1.612066 -2.636153,0.778794 -5.114872,1.644121 -7.648734,2.686777 -1.089439,0.448294 -3.661915,1.649639 -4.663862,1.970303 -1.773382,0.567565 -3.632296,0.748086 -5.41008,1.253829 -2.750689,0.78254 -5.434951,1.781403 -8.208397,2.507658 -2.868761,0.751205 -5.619123,1.879433 -8.581507,2.328539 -0.429963,0.06514 -0.872977,-0.04374 -1.305881,0 -2.506435,0.253324 -6.335357,1.619263 -8.394952,-0.358237"
             id="path1051" />
          <path
             style="fill:#333333;stroke:#000000;stroke-width:2.2;stroke-linecap:butt;stroke-linejoin:miter;stroke-miterlimit:4;stroke-dasharray:none;stroke-opacity:1"
             d="m -73.658507,7.9831603 c -0.681713,0.6879502 -0.589897,1.7311012 -0.932772,2.6413157 -0.332304,0.882184 -0.703875,1.901388 -0.839495,2.861425 -0.242602,1.717426 0.177405,4.501498 1.212604,5.722851 0.517263,0.610302 1.064856,1.167765 1.67899,1.650822 0.344605,0.271066 -0.341049,-0.622502 0.279832,0.109982 0.180096,0.21249 0.642792,0.656337 0.932773,0.770383 0.275795,0.108397 0.651787,0.109527 0.932772,0.220201 1.780955,0.700422 3.67931,0.770383 5.596635,0.770383 0.82037,0 2.239634,0.219747 2.984871,0 2.038684,-0.601343 3.68548,-1.707062 5.130249,-3.411699 0.283387,-0.334359 0.435268,-0.77027 0.559663,-1.210603 0.155687,-0.550818 0.439401,-1.0832 0.559664,-1.650822 0.08803,-0.415568 0,-1.004304 0,-1.430713 0,-1.156652 -0.03018,0.284719 0.09322,-0.880438 0.06881,-0.650101 -0.05535,-1.32889 0,-1.980987 0.05997,-0.707816 -0.0058,-1.501013 0.09322,-2.2010963 0.08476,-0.6004598 0.296188,-1.6644289 0.186631,-2.3111511 -0.100908,-0.5953574 -0.539808,-1.1871769 -0.839495,-1.5407675 -0.06958,-0.082093 -0.02383,-0.2481393 -0.09322,-0.3301644 -0.08572,-0.1011429 -0.712947,-0.3904418 -0.839495,-0.4402193 -0.303069,-0.1192844 -0.617921,-0.018142 -0.932772,-0.109987 -0.450433,-0.1328912 0.0038,-0.052386 -0.279832,-0.2202002 -0.364421,-0.2149845 -2.736216,0.1997904 -2.891594,0.2202002 -0.185479,0.024265 -0.382681,-0.06962 -0.559664,0 -0.366247,0.1440034 -0.732956,0.3642492 -1.119327,0.4402193 -0.460927,0.090711 -0.936097,0.083454 -1.399159,0.2202004 -0.512823,0.1512601 -1.189078,0.4402192 -1.67899,0.4402192 -0.681214,0 -1.36385,0.2824053 -2.052099,0.3301645 -1.659251,0.1152022 -3.463675,0.041501 -5.036971,0.6603289 -0.08342,0.032883 -0.103022,0.1873178 -0.186632,0.2202003 -0.14204,0.056013 -0.195434,-0.167588 -0.373109,0 -0.108596,0.1025033 -0.124357,0.2934721 -0.186631,0.4402193 z"
             id="path1053" />
          <path
             style="fill:#000000;stroke:#000000;stroke-width:2.2;stroke-linecap:butt;stroke-linejoin:miter;stroke-miterlimit:4;stroke-dasharray:none;stroke-opacity:1"
             d="m -65.916495,8.3138907 c 0.105328,0.7501531 -0.425927,-0.038939 -0.559664,0.089504 -0.863847,0.8294331 -2.122466,1.4785298 -2.70504,2.5972173 -0.325826,0.625678 -0.401786,1.536366 -0.279832,2.23898 0.154533,0.889945 1.009655,2.425832 1.958823,2.776336 0.276179,0.102053 0.869287,0.158892 1.212604,0.268678 0.64704,0.207095 1.273802,0.517295 1.958822,0.626914 0.856332,0.137116 2.172227,0.01661 2.984872,-0.179192 0.255959,-0.06145 0.373109,-0.358237 0.559663,-0.537355 0.801708,-0.769752 1.420551,-1.666267 1.585713,-2.776336 0.04671,-0.313706 -0.07996,-0.678458 0,-0.985151 0.115131,-0.442242 0.214521,-1.146406 0.09322,-1.612066 -0.439939,-1.6896485 -3.911206,-2.6867768 -5.596635,-2.6867768 -0.222843,0 -0.634739,-0.078616 -0.839495,0 -0.358521,0.1376699 -0.604274,0.3270859 -0.932772,0.5373553"
             id="path1055" />
          <path
             style="fill:#f6f6f6;fill-opacity:1;stroke:#000000;stroke-width:0;stroke-linecap:butt;stroke-linejoin:miter;stroke-miterlimit:4;stroke-dasharray:none;stroke-opacity:1"
             d="m -59.107257,9.0303645 c -0.467674,-0.1568625 -0.700165,-0.1116492 -1.119326,0.089504 -0.211792,0.1016838 -0.485492,0.1079583 -0.652941,0.2686777 -0.531275,0.5100981 -1.200495,2.2895638 -0.186632,2.7763358 0.567256,0.272331 1.24182,0.358237 1.865545,0.358237 0.08053,0 1.01519,0.100022 1.119327,0 0.434711,-0.417384 0.911803,-2.6072936 0.186632,-2.9554544 -0.318523,-0.152987 -0.866385,-0.2880363 -1.212605,-0.5373553 z"
             id="path1057" />
          <path
             style="fill:none;stroke:#000000;stroke-width:2.2;stroke-linecap:butt;stroke-linejoin:miter;stroke-miterlimit:4;stroke-dasharray:none;stroke-opacity:1"
             d="m -13.681239,180.71538 c 3.7719912,-2.64545 7.6953439,-5.24708 11.9394874,-7.16473 3.1790376,-1.43638 7.050245,-1.57376 10.4470513,-1.79119 3.8635383,-0.24731 1.4436543,-0.53523 5.5966343,-0.71647 6.191568,-0.27021 12.537996,-0.21094 18.655449,0.71647 2.876333,0.43606 5.831125,1.62742 8.581506,2.50766 0.445725,0.14265 2.449331,1.43295 2.984872,1.43295"
             id="path1059" />
          <path
             style="fill:none;stroke:#000000;stroke-width:2.2;stroke-linecap:butt;stroke-linejoin:miter;stroke-miterlimit:4;stroke-dasharray:none;stroke-opacity:1"
             d="m -102.48117,214.38965 c 0.22784,1.53424 -0.26581,3.12586 0,4.6571 0.5942,3.42307 3.384289,6.57547 4.850412,9.67237 0.71681,1.51415 1.090861,3.16944 1.865545,4.6571 2.584219,4.96243 8.886959,14.2645 13.058814,18.27005 1.126227,1.08133 2.566729,1.82248 3.73109,2.86591 2.546624,2.28209 4.165627,5.34283 6.342852,7.88121 2.700273,3.14825 5.776885,6.23661 8.581507,9.31416 3.80701,4.17745 8.006831,8.45931 12.312596,12.18005 4.444363,3.84051 9.192219,7.39289 13.431923,11.46356 1.431603,1.37454 2.636365,2.96002 4.104199,4.29886 1.028067,0.93773 2.321321,1.57869 3.35798,2.50768 3.787752,3.39432 6.089911,7.82657 10.073943,11.10533 3.846778,3.16579 8.606185,6.02268 13.0588138,8.23944 1.6817197,0.83724 3.5604883,1.27849 5.2235256,2.14942 1.0918416,0.57183 1.9728339,1.45536 2.98487181,2.14943 11.99393879,8.22558 -0.43203913,-0.10556 7.83528849,4.65709 5.7733673,3.32593 9.1797453,5.30158 16.0436863,3.58237 4.915843,-1.23128 7.906942,-3.73211 11.566378,-6.80652 3.855504,-3.23911 8.120675,-6.18887 12.312596,-8.9559 9.506764,-5.47671 -1.158883,0.93948 6.342853,-4.29886 0.449818,-0.31409 1.099145,-0.33886 1.492436,-0.71647 0.634162,-0.60889 0.932176,-1.47704 1.492435,-2.14944 2.066919,-2.48063 5.143703,-4.22219 7.46218,-6.44823 1.594747,-1.53122 2.877064,-3.4789 4.477308,-5.01534 3.912089,-3.75613 7.29373,-8.0128 10.82016,-12.18007 3.954105,-4.67256 -1.964185,4.14145 4.477308,-5.37353 1.930664,-2.85185 3.295533,-5.97011 4.850416,-8.95591 2.056886,-3.94983 5.290394,-7.31881 7.089071,-11.46361 1.203071,-2.77226 1.860297,-5.92709 3.357982,-8.59765 0.37755,-0.67324 1.1111,-1.11994 1.49243,-1.79118 1.12135,-1.97389 0.45121,-2.01613 1.11933,-3.94061 0.90264,-2.6 1.53895,-5.1939 2.23866,-7.88121 0.32377,-1.24342 1.16868,-2.6972 1.49243,-3.94061 0.21116,-0.81096 -0.10802,-1.67824 0,-2.50765 0.37348,-2.8687 1.37506,-5.77203 1.86555,-8.59771 0.54588,-3.14467 0.13723,0.5476 0.74621,-1.79118 0.29452,-1.13113 0.85905,-2.45772 1.11933,-3.58235 0.10802,-0.46631 -0.13666,-0.97368 0,-1.43295 0.1232,-0.41401 0.57967,-0.67499 0.74622,-1.07473 1.71093,-4.10682 3.78602,-8.03942 5.22352,-12.18007"
             id="path1061" />
          <path
             style="fill:none;stroke:#000000;stroke-width:2.2;stroke-linecap:butt;stroke-linejoin:miter;stroke-miterlimit:4;stroke-dasharray:none;stroke-opacity:1"
             d="m -124.1215,184.29775 c -12.2864,7.19517 -24.18854,15.30393 -32.83358,26.50953 -2.58252,3.34746 -3.77921,7.50949 -5.96975,11.10533 -6.9967,11.4853 -6.0892,8.69359 -14.17814,19.34482 -1.9511,2.56915 -3.63487,5.31954 -5.59664,7.88121 -1.15084,1.50276 -2.60816,2.77671 -3.73108,4.29881 -0.9987,1.35374 -1.57509,2.97173 -2.61177,4.29884 -2.61582,3.34878 -6.21067,5.75683 -8.95461,8.95596 -3.41901,3.98615 -2.7682,3.72098 -5.22353,8.23945 -1.89943,3.49545 -3.77565,7.05335 -5.96974,10.38883 -1.91853,2.91661 -4.36206,5.5105 -5.96974,8.5977 -0.27628,0.53051 -2.38895,4.51277 -2.23866,4.6571 4.23635,4.06746 9.12748,6.01693 14.17814,8.95591 4.63624,2.69784 9.64626,6.27835 13.80503,9.67237 1.20613,0.98436 2.1219,2.27467 3.35799,3.22417 3.63529,2.79228 8.51165,4.73557 11.19326,8.59765 1.32517,1.90852 -4.34207,5.8393 -5.22352,6.80654 -0.90345,0.99133 -1.07035,1.84785 -1.86554,2.86585 -0.40396,0.51713 -1.11933,0.38413 -1.11933,1.07475"
             id="path1063" />
          <path
             style="fill:none;stroke:#000000;stroke-width:2.2;stroke-linecap:butt;stroke-linejoin:miter;stroke-miterlimit:4;stroke-dasharray:none;stroke-opacity:1"
             d="m -161.8055,320.06954 c 11.9447,-8.24014 24.15971,-15.90978 35.07224,-25.43481 7.37642,-6.43856 5.95114,-3.90486 7.83529,-7.52301"
             id="path1065" />
          <path
             style="fill:none;stroke:#000000;stroke-width:2.2;stroke-linecap:butt;stroke-linejoin:miter;stroke-miterlimit:4;stroke-dasharray:none;stroke-opacity:1"
             d="m -107.12889,208.11539 c -1.93311,1.01673 -4.7967,1.16545 -5.79934,3.05015 -0.61015,1.1469 1.50205,9.86808 1.86555,11.46356 1.1368,4.98966 2.23204,9.98615 2.98487,15.04593 2.20748,14.83641 4.41534,29.66032 7.08907,44.42139 0.6753,3.72821 1.885804,7.3879 2.611764,11.10532 0.492968,2.52432 0.281388,4.99391 0.746218,7.52301 1.009251,5.49107 0.437863,0.98065 1.865545,6.80649 1.147004,4.68042 1.192557,9.64231 2.238653,14.32947 0.597913,2.67901 0.843148,0.83759 1.119327,3.22411 0.06862,0.59346 -0.134928,1.2084 0,1.79119 0.297938,1.28728 1.00091,2.4026 1.492436,3.5824 0.746218,1.79119 -0.373109,0 0,1.0747 0.643754,1.85431 1.635629,3.74495 1.865545,5.73179 0.137427,1.18684 -0.112632,2.39316 0,3.58235 0.216519,2.28688 1.119327,4.51985 1.119327,6.80651"
             id="path1067" />
          <path
             style="fill:none;stroke:#000000;stroke-width:2.2;stroke-linecap:butt;stroke-linejoin:miter;stroke-miterlimit:4;stroke-dasharray:none;stroke-opacity:1"
             d="m 123.24976,221.19617 c 0.98384,15.149 3.8546,30.10963 5.96974,45.13783 0.58755,4.17453 1.12238,11.17242 1.86554,15.04593 0.32806,1.70993 1.0658,3.32563 1.49244,5.01535 1.52496,6.03968 2.38181,12.27526 4.1042,18.27008 0.93394,3.25058 2.29282,5.99174 2.98487,9.31414 0.52274,2.50948 0.3394,4.98405 0.74622,7.52297 0.27349,1.70676 0.9892,3.26616 1.11932,5.01534 0.33679,4.52707 0.37311,9.05775 0.37311,13.613"
             id="path1069" />
          <path
             style="fill:none;stroke:#000000;stroke-width:2.2;stroke-linecap:butt;stroke-linejoin:miter;stroke-miterlimit:4;stroke-dasharray:none;stroke-opacity:1"
             d="m 134.06992,201.85138 c 10.9641,11.72646 21.90304,23.64754 33.95291,34.39072 2.39225,2.13281 5.07818,3.94871 7.46218,6.09003 1.4785,1.32799 2.63637,2.96001 4.1042,4.29884 3.04732,2.77954 6.62905,5.08708 9.70083,7.88121 3.26601,2.97081 6.15961,6.2723 9.32773,9.31416 1.86966,1.79517 4.10003,3.22014 5.96974,5.01533 2.24212,2.15269 4.10074,4.65372 6.34285,6.80647 6.20785,5.96045 13.28718,10.24992 19.40169,16.12067 0.63524,0.6099 -6.95305,6.16366 -7.83533,7.16472 -5.05548,5.73657 -8.3937,12.89455 -12.31259,19.34483 -0.70845,1.16604 -7.67422,11.61821 -7.08904,12.18005 0.56311,0.54068 1.30243,0.89227 1.86555,1.43295 0.37311,0.35824 0.60739,0.95182 1.11929,1.07467 4.7709,1.14521 -4.57958,-2.18867 2.98491,0.7165"
             id="path1071" />
          <path
             style="fill:none;stroke:#000000;stroke-width:2.2;stroke-linecap:butt;stroke-linejoin:miter;stroke-miterlimit:4;stroke-dasharray:none;stroke-opacity:1"
             d="m 141.15899,210.80728 c 1.93693,0.46494 3.06548,0.71225 5.22352,1.43293 5.19823,1.73601 10.32498,3.69081 15.67058,5.01535 6.349,1.57311 7.69976,1.33924 14.17814,3.22412 11.06664,3.21987 -1.57382,0.3871 10.07394,3.58235 11.70114,3.20996 23.59962,5.6148 35.44537,8.23946 3.11565,0.69036 6.18175,1.60022 9.32771,2.14942 6.35928,0.64272 5.98764,0.43335 11.19329,1.43293 5.22218,1.00282 10.50406,1.984 15.67056,3.22417 2.25406,0.54105 4.43235,1.38006 6.71598,1.79119 1.71572,0.30887 3.50019,0.0914 5.22348,0.35823 7.52828,1.1658 18.89223,3.69467 25.37143,7.52298 7.82553,4.62373 -2.34936,-0.47061 4.1042,2.86586 4.74461,2.45299 2.11981,0.88046 8.95464,3.22416 4.38654,1.75485 4.24939,1.77737 8.5815,3.22412 2.69605,0.90037 6.32807,1.605 8.9546,2.86591 2.09615,1.00628 3.89931,2.99892 5.96972,3.94061 1.67094,0.75989 3.44982,1.29025 5.22357,1.79118 1.24368,0.35121 1.1193,-0.47533 1.1193,0.35824"
             id="path1073" />
          <path
             style="fill:none;stroke:#000000;stroke-width:2.2;stroke-linecap:butt;stroke-linejoin:miter;stroke-miterlimit:4;stroke-dasharray:none;stroke-opacity:1"
             d="m -411.0423,303.94887 c 13.22981,-8.0961 28.80038,-11.47451 43.28064,-16.83715 4.15957,-1.54045 8.14413,-3.49717 12.3126,-5.0153 6.65583,-2.42399 14.40545,-4.83004 21.26721,-6.80652 3.44416,-0.99202 11.07102,-2.46852 14.55125,-3.58235 14.85297,-4.75363 0.65995,-1.20814 13.43192,-4.65706 5.91241,-1.5966 12.1108,-2.69219 17.90924,-4.6571 17.59125,-5.96121 -4.06038,0.46361 10.82016,-4.29884 3.64795,-1.16752 6.63239,-1.4612 10.44705,-2.50768 4.15577,-1.14002 7.88577,-3.3098 11.93949,-4.65704 8.99677,-2.99013 6.79722,-1.23353 18.65544,-4.29886 5.20297,-1.34494 10.19932,-3.34071 15.29747,-5.01534 3.60974,-1.18567 7.2779,-2.22193 10.82016,-3.58237 8.47065,-3.25316 1.60844,-0.78499 6.34286,-3.58235 5.27705,-3.11796 11.58577,-5.7376 17.53612,-7.52297 4.51727,-1.35538 9.26776,-2.13501 13.80503,-3.22411 1.35519,-0.32534 2.70584,0.0893 4.1042,-0.35824"
             id="path1075" />
          <path
             style="fill:none;stroke:#000000;stroke-width:2.2;stroke-linecap:butt;stroke-linejoin:miter;stroke-miterlimit:4;stroke-dasharray:none;stroke-opacity:1"
             d="m -99.477871,-137.40182 c -5.245689,3.02195 -2.558059,1.6288 -11.872249,5.31954 -6.41365,2.54139 -17.41265,5.85552 -17.41265,14.43877"
             id="path1077" />
          <path
             style="fill:none;stroke:#000000;stroke-width:2.2;stroke-linecap:butt;stroke-linejoin:miter;stroke-miterlimit:4;stroke-dasharray:none;stroke-opacity:1"
             d="m -108.44802,-123.9763 c -5.46309,5.68329 -15.0662,5.62522 -20.57858,11.39903 -2.40931,2.52357 -3.84603,6.99024 -5.01273,9.87914 -0.17193,0.42575 -3.16593,7.161437 -3.16593,9.119228"
             id="path1079" />
          <path
             style="fill:none;stroke:#000000;stroke-width:2.2;stroke-linecap:butt;stroke-linejoin:miter;stroke-miterlimit:4;stroke-dasharray:none;stroke-opacity:1"
             d="m -112.14161,-101.17824 c -4.9869,5.117719 -12.97144,6.584253 -18.20413,11.399025 -0.91571,0.842573 -1.44176,2.005071 -2.11062,3.039736 -4.15042,6.42025 -5.01273,9.225116 -5.01273,16.718563"
             id="path1081" />
          <path
             style="fill:none;stroke:#000000;stroke-width:2.2;stroke-linecap:butt;stroke-linejoin:miter;stroke-miterlimit:4;stroke-dasharray:none;stroke-opacity:1"
             d="m -118.47348,-83.699744 c -4.96633,4.612678 -11.14217,8.11979 -14.77436,13.932152 -0.89125,1.426193 -1.33594,3.071975 -2.11063,4.559603 -0.8977,1.723844 -1.90221,3.395056 -2.9021,5.06625 -2.57032,4.295908 -5.60292,8.479355 -7.91484,12.918894"
             id="path1083" />
          <path
             style="fill:none;stroke:#000000;stroke-width:2.2;stroke-linecap:butt;stroke-linejoin:miter;stroke-miterlimit:4;stroke-dasharray:none;stroke-opacity:1"
             d="m 4.4703052,-176.91845 c -6.8762608,2.18479 -18.2684432,-0.91859 -25.0636322,-2.0265 -3.2776,-0.53438 -2.106243,-0.50662 -3.69359,-0.50662"
             id="path1085" />
          <path
             style="fill:none;stroke:#000000;stroke-width:2.2;stroke-linecap:butt;stroke-linejoin:miter;stroke-miterlimit:4;stroke-dasharray:none;stroke-opacity:1"
             d="m -4.2360001,-172.35884 c -6.7066969,2.4526 -14.4134199,3.03258 -21.3700609,1.01324 -2.334372,-0.67761 -4.354162,-2.11737 -6.595698,-3.03974"
             id="path1087" />
          <path
             style="fill:none;stroke:#000000;stroke-width:2.2;stroke-linecap:butt;stroke-linejoin:miter;stroke-miterlimit:4;stroke-dasharray:none;stroke-opacity:1"
             d="m -16.635915,-165.77274 c -11.639897,1.34169 -23.968927,-0.31672 -34.297637,-5.82617"
             id="path1089" />
          <path
             style="fill:none;stroke:#000000;stroke-width:2.2;stroke-linecap:butt;stroke-linejoin:miter;stroke-miterlimit:4;stroke-dasharray:none;stroke-opacity:1"
             d="m -26.661383,-162.22637 c -14.07314,3.15268 -28.983602,2.19621 -42.476281,-2.78643"
             id="path1091" />
          <path
             style="fill:none;stroke:#000000;stroke-width:2.2;stroke-linecap:butt;stroke-linejoin:miter;stroke-miterlimit:4;stroke-dasharray:none;stroke-opacity:1"
             d="m -49.086747,-157.92007 c -5.649318,-0.10266 -11.510485,1.23654 -17.148809,0.50662 -5.932245,-0.76797 -11.81834,-1.85857 -17.67647,-3.03974 -5.228658,-1.05425 -10.147923,-3.03974 -15.565845,-3.03974"
             id="path1093" />
          <path
             style="fill:none;stroke:#000000;stroke-width:2.2;stroke-linecap:butt;stroke-linejoin:miter;stroke-miterlimit:4;stroke-dasharray:none;stroke-opacity:1"
             d="m 55.38909,-187.55754 c -2.814155,-0.25332 -5.68576,-0.16065 -8.442485,-0.75994 -2.960269,-0.64353 -9.069669,-4.22513 -11.608432,-5.31955 -6.28104,-2.70765 -12.976531,-4.36078 -19.523256,-6.33279 -2.733217,-0.82329 -5.356205,-2.06339 -8.1786633,-2.53312 -3.821484,-0.63598 -7.73040208,-0.70518 -11.6084328,-0.75993 -3.6943978,-0.0522 -5.5863709,-0.22682 -8.1786629,1.26656"
             id="path1095" />
          <path
             style="fill:none;stroke:#000000;stroke-width:2.2;stroke-linecap:butt;stroke-linejoin:miter;stroke-miterlimit:4;stroke-dasharray:none;stroke-opacity:1"
             d="m 30.589279,-188.8241 c -8.775346,-0.80784 -16.61913,-5.10355 -24.7998302,-7.85266 -6.9677313,-2.34151 -8.8347754,-2.53234 -15.5658443,-4.053 -6.5621395,-1.48249 -12.7307965,-2.58839 -19.5232555,-1.77318 -4.384819,0.52626 -8.626252,0.26465 -11.080772,3.79968"
             id="path1097" />
          <path
             style="fill:none;stroke:#000000;stroke-width:2.2;stroke-linecap:butt;stroke-linejoin:miter;stroke-miterlimit:4;stroke-dasharray:none;stroke-opacity:1"
             d="m 28.478653,-201.48969 c -14.56332,-1.83327 -28.19502182,-8.47095 -43.003942,-8.86591 -2.737907,-0.073 -5.45867,0.45104 -8.178664,0.75993 -5.459592,0.62002 -10.941768,1.11781 -16.357345,2.0265 -3.655938,0.61343 -7.250427,1.54732 -10.816932,2.53312 -2.245496,0.62066 -4.43656,1.42198 -6.595698,2.2798 -2.040279,0.8106 -0.432674,0.75994 -1.319144,0.75994"
             id="path1099" />
          <path
             style="fill:none;stroke:#000000;stroke-width:2.2;stroke-linecap:butt;stroke-linejoin:miter;stroke-miterlimit:4;stroke-dasharray:none;stroke-opacity:1"
             d="m 118.18013,-134.6154 c -0.17952,-7.55411 1.29544,-15.13089 -0.79148,-22.54474 -0.84523,-3.0027 -2.43528,-5.24147 -3.42977,-8.10597"
             id="path1101" />
          <path
             style="fill:none;stroke:#000000;stroke-width:2.2;stroke-linecap:butt;stroke-linejoin:miter;stroke-miterlimit:4;stroke-dasharray:none;stroke-opacity:1"
             d="m 118.18013,-134.6154 c 1.23119,-1.26656 2.92773,-2.23096 3.69359,-3.79967 0.63564,-1.30197 0.19734,-2.8698 0.26384,-4.3063 0.10936,-2.36342 0.19028,-4.72803 0.26382,-7.09273 0.18913,-6.08338 1.27348,-13.0504 -0.79148,-18.99838"
             id="path1103" />
          <path
             style="fill:none;stroke:#000000;stroke-width:2.2;stroke-linecap:butt;stroke-linejoin:miter;stroke-miterlimit:4;stroke-dasharray:none;stroke-opacity:1"
             d="m 141.66081,-133.60215 c 7.33564,7.15855 13.1914,15.99777 13.1914,26.34442"
             id="path1105" />
          <path
             style="fill:none;stroke:#000000;stroke-width:2.2;stroke-linecap:butt;stroke-linejoin:miter;stroke-miterlimit:4;stroke-dasharray:none;stroke-opacity:1"
             d="m 147.20121,-130.30909 c 5.89338,4.97886 12.92756,14.71573 12.92756,22.54473"
             id="path1107" />
          <path
             style="fill:none;stroke:#000000;stroke-width:2.2;stroke-linecap:butt;stroke-linejoin:miter;stroke-miterlimit:4;stroke-dasharray:none;stroke-opacity:1"
             d="m 154.32455,-126.76273 c 4.27073,2.77776 15.20164,9.71952 18.46795,12.66558 2.73297,2.465 4.95442,5.42245 7.12336,8.35929 0.008,0.009 4.48508,6.65543 4.48508,8.359288"
             id="path1109" />
          <path
             style="fill:none;stroke:#000000;stroke-width:2.2;stroke-linecap:butt;stroke-linejoin:miter;stroke-miterlimit:4;stroke-dasharray:none;stroke-opacity:1"
             d="m -50.471199,91.624641 c -0.741032,3.182474 -1.940097,2.716575 -3.494162,4.27064 -4.616563,4.616559 1.784885,-0.810083 -3.494158,3.8824 -4.692227,4.170869 -11.055141,7.508569 -13.588402,13.588399 -0.302766,0.72664 -0.171982,1.57254 -0.388239,2.32944 -1.41318,4.94613 -2.213727,9.467 -1.552962,14.75312 0.407104,3.25683 1.552962,6.37631 1.552962,9.706"
             id="path1111" />
          <path
             style="fill:none;stroke:#000000;stroke-width:2.2;stroke-linecap:butt;stroke-linejoin:miter;stroke-miterlimit:4;stroke-dasharray:none;stroke-opacity:1"
             d="m 71.43616,91.236399 c 3.377732,3.187978 5.885421,7.362174 9.31776,10.482481 0.428244,0.38931 1.14372,0.36724 1.552961,0.77648 0.183018,0.18302 -0.115752,0.54498 0,0.77648 1.187358,2.37472 2.922852,4.74201 4.27064,6.98832 0.729816,1.21636 3.494159,10.76312 3.494159,12.42368"
             id="path1113" />
          <path
             style="fill:none;stroke:#000000;stroke-width:2.2;stroke-linecap:butt;stroke-linejoin:miter;stroke-miterlimit:4;stroke-dasharray:none;stroke-opacity:1"
             d="m -13.5884,141.90172 c 2.426284,0.5447 4.8987968,1.15236 7.3765599,1.35884 0.3868989,0.0322 0.7840194,-0.0761 1.1647202,0 0.2837574,0.0567 0.5078,0.28077 0.7764798,0.38824 0.7311337,0.29245 1.9293462,0.46974 2.7176801,0.58236 2.53778908,0.36254 5.220109,-0.31808 7.7648001,0 2.6762336,0.33453 5.4391759,0.19412 8.1530399,0.19412 1.325207,0 2.759427,0.14635 4.07652,0 3.245257,-0.36058 -1.217836,-0.0201 1.35884,-0.38824 1.681344,-0.24019 3.37392,-0.35818 5.04712,-0.77648 0.387739,-0.0969 0.830412,-0.49878 1.16472,-0.58236 1.331374,-0.33284 2.720519,-0.82572 4.076521,-1.16472 1.247648,-0.31191 2.599503,-0.45407 3.882398,-0.58236 0.613799,0.38004 0.894178,-0.3108 1.358842,-0.38824 2.105229,-0.35087 4.301879,-0.7439 6.405959,-1.16472 0.141878,-0.0284 0.258826,-0.12941 0.388239,-0.19412 0.19412,-0.0647 0.381715,-0.15399 0.582362,-0.19412 1.736685,-0.34734 3.528959,-0.39597 5.241239,-0.77648 2.866705,-0.63705 5.753362,-0.58236 8.735401,-0.58236 0.861934,0 2.522882,-0.004 2.523559,0 0.174059,1.10626 0.09327,2.23779 0.139901,3.35668"
             id="path1115" />
          <path
             style="fill:#000000;stroke:#000000;stroke-width:2.2;stroke-linecap:butt;stroke-linejoin:miter;stroke-miterlimit:4;stroke-dasharray:none;stroke-opacity:1"
             d="m -55.712441,71.63028 c -1.768843,1.069178 -3.10637,1.714352 -0.9706,3.494161 0.559345,0.466119 0.583382,0.776224 1.358841,0.582359 0.751131,-0.187783 1.056733,-2.351291 0.776481,-2.911801 -0.05226,-0.104526 -1.042805,-1.002164 -1.164722,-1.164719 z"
             id="path1117" />
        </g>
      </g>
      <text
         xml:space="preserve"
         style="font-size:14.1111px;line-height:1.25;font-family:sans-serif;letter-spacing:0px;word-spacing:0px;stroke-width:0.264583"
         x="117.54107"
         y="385.48334"
         id="text146"><tspan
           sodipodi:role="line"
           id="tspan144"
           x="117.54107"
           y="385.48334"
           style="font-style:italic;font-variant:normal;font-weight:normal;font-stretch:normal;font-size:14.1111px;font-family:sans-serif;-inkscape-font-specification:'sans-serif Italic';stroke-width:0.264583">Urijit Patel 2016-18</tspan></text>
    </g>
  </g>
</svg>
