<?xml version="1.0" encoding="UTF-8" standalone="no"?>
<svg
   xmlns:dc="http://purl.org/dc/elements/1.1/"
   xmlns:cc="http://creativecommons.org/ns#"
   xmlns:rdf="http://www.w3.org/1999/02/22-rdf-syntax-ns#"
   xmlns:svg="http://www.w3.org/2000/svg"
   xmlns="http://www.w3.org/2000/svg"
   xmlns:sodipodi="http://sodipodi.sourceforge.net/DTD/sodipodi-0.dtd"
   xmlns:inkscape="http://www.inkscape.org/namespaces/inkscape"
   width="400mm"
   height="400mm"
   viewBox="0 0 400 400"
   version="1.1"
   id="svg8"
   inkscape:version="1.0.2 (e86c870879, 2021-01-15, custom)"
   sodipodi:docname="pcbhattacharya.svg">
  <defs
     id="defs2">
    <clipPath
       clipPathUnits="userSpaceOnUse"
       id="clipPath1023">
      <path
         id="path1025"
         style="fill:#ff0000;fill-opacity:1;fill-rule:nonzero;stroke:none;stroke-width:0.264583"
         d="M -19.838582,61.493921 V 135.83822 H 108.62799 v -33.52715 c -0.10506,0.0983 -0.20764,0.19846 -0.31523,0.29507 -0.0378,0.0339 -0.0726,0.0812 -0.10748,0.12919 -0.0202,0.0469 -0.0397,0.0998 -0.0605,0.13901 -0.96541,1.82625 -1.96889,2.10182 -3.69073,2.80241 -0.002,0.005 -10e-4,0.004 -0.003,0.009 -0.0796,0.0297 -0.31711,0.1215 -0.23874,0.0889 0.09,-0.0375 0.15565,-0.0631 0.24184,-0.0982 0.1057,-0.28697 0.0582,-0.10989 -0.52813,0.23203 -0.68385,0.3988 -1.38251,0.78875 -2.04639,1.22111 -0.16515,0.10756 -0.32282,0.22637 -0.4842,0.33952 -0.24102,0.16373 -0.4794,0.33098 -0.72296,0.49092 -0.20028,0.13156 -0.0719,-0.0288 -0.3514,0.20619 -0.580047,0.48768 -1.058718,1.09783 -1.703769,1.51102 -1.17089,0.7528 -2.392963,1.40254 -3.572907,2.14199 -1.363186,0.85428 -2.673009,1.79978 -3.956349,2.76831 -1.408515,1.06298 -2.72959,1.5078 -3.832323,1.50947 -0.275018,0.14839 -0.503904,0.37051 -0.756028,0.55551 -0.190394,0.13972 -0.38055,0.27983 -0.570508,0.42014 0.09925,0.28013 -0.441664,0.48105 -0.66249,0.71003 -0.471686,0.48909 -0.976384,0.93218 -1.507403,1.34307 -0.28993,0.84545 -0.735801,1.68741 -1.421617,2.22312 -0.16732,0.85536 -0.431628,1.56015 -0.791167,1.50844 -0.04794,0.1163 -0.09546,0.23312 -0.143143,0.34984 0.02759,0.11212 0.02906,0.12403 -0.02169,0.0532 -0.05851,0.1403 -0.124781,0.27595 -0.200504,0.40618 -0.05124,0.13066 -0.116605,0.28601 -0.205672,0.49609 -0.04492,0.10595 0.08788,-0.21298 0.131776,-0.31936 0.0034,-0.0196 0.01352,-0.0603 0.01913,-0.0868 -0.01505,0.0232 -0.02679,0.0483 -0.04289,0.0708 -0.04278,0.0599 -0.117798,0.15658 -0.180867,0.2403 -0.06887,0.38268 -0.227076,0.70454 -0.447518,1.01647 -0.139547,0.49281 0.0076,0.27625 -1.056267,1.20768 0.417488,-0.45263 0.784312,-0.82286 1.056267,-1.20768 0.04733,-0.16716 0.129304,-0.41718 0.302823,-0.82372 -0.39153,0.50311 -0.898051,1.09825 -0.767911,0.72244 0.254606,-0.73523 0.473533,-1.19611 0.658874,-1.47743 -0.06565,-0.089 -0.03922,-0.37724 0.14366,-0.9772 -0.05297,-0.23594 -0.111019,-0.43783 -0.174148,-0.60513 -0.505442,0.003 -1.020922,-0.0927 -1.535824,-0.18397 -1.758786,1.84624 -4.153398,7.67914 -5.143355,2.92437 -0.276839,-1.32966 -0.17743,-2.02406 0.302824,-2.79311 0.0577,-0.25548 0.11539,-0.4704 0.157612,-0.56173 -0.0021,-0.26867 0.289089,-0.11277 1.034563,-1.39164 0.0076,-0.13758 0.01815,-0.26609 0.03101,-0.39274 -0.07162,0.11211 -0.181946,0.23634 -0.298691,0.3638 -0.0872,0.11402 -0.173427,0.22769 -0.225827,0.30334 -0.114425,0.16518 -0.05697,0.70641 -0.202571,0.56792 -0.208139,-0.19797 0.128384,-0.54372 0.428398,-0.87126 0.09727,-0.1272 0.196278,-0.25082 0.300241,-0.37776 0.01122,-0.1085 0.02392,-0.20628 0.03876,-0.29869 -0.03183,-0.0391 -0.08084,-0.0729 -0.163814,-0.0966 0.325371,-0.57126 0.227121,-0.41375 0.443384,-0.70228 0.04551,-0.0782 0.09415,-0.15467 0.146245,-0.22996 0.01714,-0.0558 0.06217,-0.12302 0.113171,-0.19017 0.0078,-0.0193 0.01979,-0.0494 0.02532,-0.0636 0.202991,-0.52011 0.66512,-1.72131 1.12603,-1.88412 0.0099,-0.003 0.02011,-0.005 0.02997,-0.009 0.02993,-0.0954 0.06497,-0.18901 0.113689,-0.27751 0.399761,-0.72611 1.047943,-1.28429 1.571998,-1.92649 0.325226,-0.13172 0.520215,-0.35669 0.77928,-0.59842 0.322849,-0.30125 0.477752,-0.45055 0.585493,-0.55552 -0.117186,0.11977 -0.249983,0.26539 -0.223242,0.30179 1.265952,1.72278 2.650448,3.35544 3.982702,5.0276 0.0046,-0.0155 0.0088,-0.029 0.01291,-0.0429 -1.148021,-1.93934 -2.376458,-3.83415 -3.420462,-5.83117 -0.05451,-0.10427 0.180285,-0.15142 0.273884,-0.22272 0.201456,-0.15341 0.405511,-0.30292 0.610817,-0.45114 1.160701,-0.83794 2.352384,-1.79549 3.73879,-2.21485 -0.01831,0.0956 -0.138808,0.336 -0.05478,0.2868 0.230564,-0.13502 0.359537,-0.39551 0.553972,-0.57877 0.835718,-0.78768 1.758164,-1.48475 2.735749,-2.08721 3.155524,-2.08754 6.285447,-4.21428 9.618536,-6.01772 0.15595,-0.0896 1.091199,-0.54752 1.370457,-0.83406 0.52307,-0.536713 0.683632,-1.359824 0.833542,-2.048968 0.65716,-3.020706 2.36562,-4.385604 3.94808,-4.388364 0.65009,-0.0011 1.27757,0.229936 1.80351,0.668176 0.61312,-0.508545 1.05993,-0.716251 1.38027,-0.699182 1.82971,0.09749 -0.42102,7.490788 1.18701,7.569048 V 61.493921 Z m 95.883036,56.498359 c -0.0094,0.0234 -0.01982,0.0493 -0.03101,0.077 0.0523,-0.0712 0.106561,-0.14145 0.161747,-0.21136 0.0051,-0.0119 0.01109,-0.0256 0.01498,-0.0357 -0.03658,0.0346 -0.09028,0.097 -0.145727,0.17002 z m 0.145727,-0.17002 c 0.01871,-0.0177 0.03607,-0.0346 0.03773,-0.0315 -0.01778,0.0222 -0.0351,0.0449 -0.05271,0.0672 -0.0051,0.0118 -0.009,0.0213 -0.0155,0.0351 0.02352,-0.0332 0.02728,-0.0371 0.05323,-0.0739 0.01169,-0.0166 0.01648,-0.0259 0.0155,-0.0284 0.195535,-0.24474 0.396922,-0.48722 0.563274,-0.74466 -0.969815,1.0801 -0.474237,0.44844 -0.601515,0.77618 z m -0.176733,0.24702 c -0.02764,0.0376 -0.05577,0.075 -0.08216,0.11317 -0.0028,0.009 -0.0081,0.0193 -0.0093,0.0274 -7.94e-4,0.005 -2.65e-4,0.0104 -0.0011,0.0155 0.0185,-0.0253 0.04673,-0.0654 0.06821,-0.0951 0.009,-0.0225 0.01543,-0.0391 0.02429,-0.061 z m -0.546735,1.44074 c -5.3e-4,0.005 -0.0011,0.009 -0.0016,0.0139 0.0086,-0.0135 0.01429,-0.0261 0.0217,-0.0393 -0.0067,0.008 -0.01339,0.0171 -0.02016,0.0253 z m 5.325771,3.0179 c 0.03671,0.16349 0.07188,0.33896 0.103354,0.53795 0.0073,0.0462 0.01101,0.0892 0.01654,0.13384 0.118763,-0.0932 0.216664,-0.10579 0.294039,-0.0806 0.03018,-0.036 0.05917,-0.0694 0.0894,-0.10749 -0.02817,-0.21171 -0.109387,-0.51537 -0.208775,-1.12396 -0.02672,0.004 -0.0533,0.009 -0.0801,0.0124 -0.07965,0.22565 -0.162139,0.45623 -0.214458,0.62787 z m 0.294555,-0.64027 c 0.01929,-0.003 0.03862,-0.006 0.05788,-0.009 -0.01339,-0.0787 -0.02808,-0.16826 -0.04237,-0.25528 -0.01577,0.0428 -0.02334,0.0695 -0.03824,0.11059 0.0077,0.0503 0.01516,0.10712 0.02273,0.15348 z m 0.05788,-0.009 c 0.05569,0.32737 0.09222,0.5113 0.131776,0.71107 0.718928,-0.73198 0.760365,-0.70738 1.031978,-1.21801 -0.262861,0.19994 -0.558877,0.35661 -0.89607,0.44958 -0.08867,0.0245 -0.178072,0.0422 -0.267684,0.0574 z m 1.163754,-0.50694 c 0.0098,-0.007 0.01921,-0.0156 0.02894,-0.0233 0.0036,-0.0183 0.0079,-0.0353 0.01138,-0.0537 -0.01048,0.0199 -0.03053,0.0586 -0.04031,0.077 z m -1.012857,1.63969 c 0.0077,0.0577 0.0158,0.11639 0.01394,0.16898 0.02926,0.0259 0.05331,0.0538 0.07183,0.0796 0.0074,-0.0177 0.01445,-0.0355 0.0217,-0.0532 -0.01341,-0.0545 -0.02653,-0.11579 -0.05788,-0.26045 -0.01677,0.0217 -0.03273,0.0439 -0.04961,0.0651 z m 0.04961,-0.0651 c 0.03238,-0.0419 0.06468,-0.0831 0.09612,-0.12558 -0.04578,-0.0244 -0.09358,-0.0644 -0.14211,-0.11368 0.01392,0.0682 0.03446,0.18606 0.04599,0.23926 z m 0.09612,-0.12558 c 0.03593,0.0191 0.07068,0.0312 0.104902,0.0362 0.01733,-0.0421 0.03345,-0.0851 0.05168,-0.12661 0.07671,-0.17458 0.07919,-0.19024 0.02687,-0.16743 -0.05722,0.084 -0.117488,0.16871 -0.183452,0.25786 z m -0.529166,0.37879 c -0.07879,0.0618 -0.166114,0.15751 -0.263552,0.30541 0.05085,0.0689 0.155059,0.0222 0.284221,-0.092 -0.0044,-0.0689 -0.01161,-0.14043 -0.02066,-0.21343 z m -0.0098,0.86765 c 0.01111,-0.0617 0.01892,-0.12557 0.02532,-0.19069 -0.06589,0.14304 -0.120002,0.26648 -0.169497,0.38241 0.05776,-0.0742 0.09387,-0.12495 0.144177,-0.19172 z m 27.70474,-22.72296 c -0.0109,0.0365 -0.12954,0.60634 -0.2868,1.08521 0.10144,-0.0824 0.20661,-0.16725 0.30747,-0.25063 v -0.5085 c -0.0285,0.004 -0.0444,0.003 -0.0765,0.009 0.0443,-0.25889 0.0607,-0.35127 0.0558,-0.33486 z m -29.402336,13.86789 c -0.259845,0.009 -0.516329,0.044 -0.766879,0.12092 -0.299566,0.0919 -0.524732,0.30572 -0.727604,0.55604 1.250101,-0.3227 2.587617,-0.29144 3.8716,-0.47646 -0.785974,-0.0199 -1.59758,-0.2276 -2.377117,-0.2005 z m -2.106332,1.48311 c -0.03672,0.0431 -0.07288,0.0874 -0.11162,0.12712 0.0081,2.7e-4 0.02445,-0.007 0.02429,10e-4 -0.0032,0.17404 -0.08483,0.68726 -0.03359,0.5209 0.06421,-0.20848 0.09245,-0.42897 0.120923,-0.64906 z m 8.173662,0.86145 c -0.04258,0.0313 -0.08502,0.0628 -0.127641,0.094 -0.04233,0.031 0.142058,-0.0456 0.127641,-0.094 z m -1.206127,0.43718 c -0.0028,0.0131 -0.0059,0.0271 -0.0088,0.0403 0.04334,0.0544 0.08752,0.10825 0.130741,0.16278 -0.03996,-0.0681 -0.08178,-0.13515 -0.121957,-0.20309 z m -1.626775,0.5147 c -0.03478,-0.009 -0.078,0.0381 -0.129191,0.15606 -0.504909,1.16338 -0.864518,2.04925 -1.12758,2.74712 0.301406,-0.0377 0.601187,-0.0873 0.896586,-0.16123 0.141137,-0.0353 0.23844,-0.13689 0.32091,-0.262 0.183544,-1.15966 0.201076,-2.43581 0.03928,-2.47995 z m 1.209228,0.70125 c -0.338968,0.25705 -0.685972,0.50411 -1.049547,0.73328 0.03921,0.22691 0.08661,0.38033 0.140042,0.47594 0.0047,-0.006 0.0086,-0.0125 0.01344,-0.0181 0.01283,-0.0148 0.0075,0.006 -0.0021,0.0346 0.245499,0.39625 0.60719,-0.40004 0.898136,-1.22577 z m -2.760038,1.0175 c 0.04182,0.49228 0.08603,0.87504 0.130225,1.2051 0.01701,-0.002 0.03417,-0.003 0.05116,-0.005 -0.05502,-0.3436 -0.114202,-0.72851 -0.181385,-1.20044 z m -5.469432,0.14108 c -0.824408,0.77746 -0.662729,0.56593 -0.656291,0.7922 0.192952,-0.23953 0.404984,-0.49357 0.656291,-0.79013 5e-6,-8e-4 -8e-6,-0.001 0,-0.002 z m 4.548042,0.84594 c -0.203489,-0.0124 -0.426435,0.10593 -0.663525,0.31213 0.363394,-0.0107 0.726683,-0.022 1.088305,-0.0434 -0.128918,-0.17338 -0.271198,-0.25934 -0.42478,-0.26872 z" />
    </clipPath>
  </defs>
  <sodipodi:namedview
     id="base"
     pagecolor="#ffffff"
     bordercolor="#666666"
     borderopacity="1.0"
     inkscape:pageopacity="0.0"
     inkscape:pageshadow="2"
     inkscape:zoom="0.33173887"
     inkscape:cx="832.21967"
     inkscape:cy="1180.6032"
     inkscape:document-units="mm"
     inkscape:current-layer="layer1"
     inkscape:document-rotation="0"
     showgrid="false"
     inkscape:window-width="1920"
     inkscape:window-height="1017"
     inkscape:window-x="-8"
     inkscape:window-y="-8"
     inkscape:window-maximized="1" />
  <metadata
     id="metadata5">
    <rdf:RDF>
      <cc:Work
         rdf:about="">
        <dc:format>image/svg+xml</dc:format>
        <dc:type
           rdf:resource="http://purl.org/dc/dcmitype/StillImage" />
        <dc:title />
      </cc:Work>
    </rdf:RDF>
  </metadata>
  <g
     inkscape:label="Layer 1"
     inkscape:groupmode="layer"
     id="layer1">
    <g
       id="g1161">
      <ellipse
         style="opacity:0.41290323;fill:#916f6f;fill-opacity:1;stroke:#040404;stroke-width:0;stroke-linecap:round;stroke-linejoin:round;stroke-miterlimit:4;stroke-dasharray:none;paint-order:markers fill stroke"
         id="path1111"
         cx="192.56705"
         cy="194.12001"
         rx="175.48447"
         ry="173.93152" />
      <g
         id="g1109"
         transform="translate(142.87232,122.68384)">
        <path
           style="fill:none;stroke:#000000;stroke-width:1.2;stroke-linecap:butt;stroke-linejoin:miter;stroke-miterlimit:4;stroke-dasharray:none;stroke-opacity:1"
           d="m 23.68264,-73.7656 c -12.614387,3.34363 -29.2040776,6.800927 -34.9416,20.188478 -0.666156,1.554364 -1.912934,2.604617 -2.32944,4.270643 -1.512972,6.051888 -1.55296,13.05293 -1.55296,19.412 0,2.512597 0.310151,5.28359 0,7.764799 -0.116858,0.934868 -0.621593,1.788355 -0.77648,2.71768 -0.745214,4.471284 0.731421,14.7981792 -2.32944,17.85904"
           id="path847" />
        <path
           style="fill:none;stroke:#000000;stroke-width:1.2;stroke-linecap:butt;stroke-linejoin:miter;stroke-miterlimit:4;stroke-dasharray:none;stroke-opacity:1"
           d="m 23.68264,-73.7656 c 2.458853,-1.423545 5.146547,-2.510104 7.376559,-4.270639 0.661281,-0.522065 -0.134993,-6.165945 -0.388239,-6.600082 -1.078704,-1.849207 -3.676571,-1.917784 -4.65888,-3.8824"
           id="path849" />
        <path
           style="fill:none;stroke:#000000;stroke-width:1.2;stroke-linecap:butt;stroke-linejoin:miter;stroke-miterlimit:4;stroke-dasharray:none;stroke-opacity:1"
           d="m 37.65928,-74.54208 c 3.283662,-2.447848 3.544898,-6.310125 1.747081,-9.706002 -0.534289,-1.00921 -2.13532,-2.682792 -2.13532,-3.882397"
           id="path851" />
        <path
           style="fill:none;stroke:#000000;stroke-width:1.2;stroke-linecap:butt;stroke-linejoin:miter;stroke-miterlimit:4;stroke-dasharray:none;stroke-opacity:1"
           d="m 44.453481,-76.095041 c 2.727955,-3.074279 3.30004,-5.708862 3.30004,-9.705999 0,-0.714709 0.03189,-1.457288 -0.19412,-2.13532 -0.215897,-0.647692 -1.747081,-2.190636 -1.747081,-2.9118"
           id="path853" />
        <path
           style="fill:none;stroke:#000000;stroke-width:1.2;stroke-linecap:butt;stroke-linejoin:miter;stroke-miterlimit:4;stroke-dasharray:none;stroke-opacity:1"
           d="m 51.635921,-77.259761 c 2.833854,-2.350371 3.151675,-5.732087 1.552959,-8.929521"
           id="path855" />
        <path
           style="fill:none;stroke:#000000;stroke-width:1.2;stroke-linecap:butt;stroke-linejoin:miter;stroke-miterlimit:4;stroke-dasharray:none;stroke-opacity:1"
           d="m 58.236,-73.959722 c 0.442825,-0.492024 2.972419,-3.227154 3.300039,-3.882398 0.940353,-1.880706 1.431523,-4.971563 0.582362,-6.98832 -0.348838,-0.82849 -0.956826,-1.52541 -1.35884,-2.329439"
           id="path857" />
        <path
           style="fill:none;stroke:#000000;stroke-width:1.2;stroke-linecap:butt;stroke-linejoin:miter;stroke-miterlimit:4;stroke-dasharray:none;stroke-opacity:1"
           d="m 64.641959,-75.318561 c 3.331403,-3.129185 4.851062,-7.574563 2.717681,-11.841318"
           id="path859" />
        <path
           style="fill:none;stroke:#000000;stroke-width:1.2;stroke-linecap:butt;stroke-linejoin:miter;stroke-miterlimit:4;stroke-dasharray:none;stroke-opacity:1"
           d="m 72.018521,-76.289161 c 1.275517,-1.020413 2.828092,-2.203881 3.688279,-3.494159 1.654056,-2.481082 1.02081,-6.161632 -0.9706,-8.15304"
           id="path861" />
        <path
           style="fill:none;stroke:#000000;stroke-width:1.2;stroke-linecap:butt;stroke-linejoin:miter;stroke-miterlimit:4;stroke-dasharray:none;stroke-opacity:1"
           d="m 77.065642,-72.989122 c 3.454767,-0.847063 9.149849,-1.962094 10.094237,-6.211839 0.168445,-0.757989 0,-1.552959 0,-2.32944"
           id="path863" />
        <path
           style="fill:none;stroke:#000000;stroke-width:1.2;stroke-linecap:butt;stroke-linejoin:miter;stroke-miterlimit:4;stroke-dasharray:none;stroke-opacity:1"
           d="m 88.324602,-71.43616 c 2.569085,-0.969955 4.944932,-2.697179 5.629478,-5.435359"
           id="path865" />
        <path
           style="fill:none;stroke:#000000;stroke-width:1.2;stroke-linecap:butt;stroke-linejoin:miter;stroke-miterlimit:4;stroke-dasharray:none;stroke-opacity:1"
           d="m 94.986389,-69.043576 c 1.327605,-0.79485 4.255172,-1.608783 4.255172,-3.568853"
           id="path867" />
        <path
           style="fill:none;stroke:#000000;stroke-width:1.2;stroke-linecap:butt;stroke-linejoin:miter;stroke-miterlimit:4;stroke-dasharray:none;stroke-opacity:1"
           d="m 98.555243,-66.710093 c 0.925636,-0.191755 4.804227,-0.369745 4.804227,-1.784427"
           id="path869" />
        <path
           style="fill:none;stroke:#000000;stroke-width:1.2;stroke-linecap:butt;stroke-linejoin:miter;stroke-miterlimit:4;stroke-dasharray:none;stroke-opacity:1"
           d="m 102.39862,-63.964824 c 1.2121,1.202033 5.76507,3.203953 5.76507,0.137265"
           id="path871" />
        <path
           style="fill:none;stroke:#000000;stroke-width:1.2;stroke-linecap:butt;stroke-linejoin:miter;stroke-miterlimit:4;stroke-dasharray:none;stroke-opacity:1"
           d="m 105.83021,-59.023334 c 1.24654,0.02611 4.55561,1.320811 5.35328,-0.274529"
           id="path873" />
        <path
           style="fill:none;stroke:#000000;stroke-width:1.2;stroke-linecap:butt;stroke-linejoin:miter;stroke-miterlimit:4;stroke-dasharray:none;stroke-opacity:1"
           d="m 108.98727,-54.630901 c 1.06473,0.373567 2.6944,1.148982 3.70612,0.137263 0.45067,-0.450668 0.29574,-0.982059 0.68632,-1.372635"
           id="path875" />
        <path
           style="fill:none;stroke:#000000;stroke-width:1.2;stroke-linecap:butt;stroke-linejoin:miter;stroke-miterlimit:4;stroke-dasharray:none;stroke-opacity:1"
           d="m 111.86981,-51.199311 c 1.52998,0.901306 3.29433,1.760532 3.29433,-0.686319"
           id="path877" />
        <path
           style="fill:none;stroke:#000000;stroke-width:1.2;stroke-linecap:butt;stroke-linejoin:miter;stroke-miterlimit:4;stroke-dasharray:none;stroke-opacity:1"
           d="m 114.88961,-47.218668 c 1.1763,0.189354 4.11791,0.699167 4.11791,-1.235372"
           id="path879" />
        <path
           style="fill:none;stroke:#000000;stroke-width:1.2;stroke-linecap:butt;stroke-linejoin:miter;stroke-miterlimit:4;stroke-dasharray:none;stroke-opacity:1"
           d="m 116.8113,-43.649815 c 1.17005,7.94e-4 4.91504,-0.358899 5.49054,-1.5099"
           id="path881" />
        <path
           style="fill:none;stroke:#000000;stroke-width:1.2;stroke-linecap:butt;stroke-linejoin:miter;stroke-miterlimit:4;stroke-dasharray:none;stroke-opacity:1"
           d="m 117.63488,-40.218225 c 1.87603,2.07013 4.25994,3.391006 7.00044,2.608006"
           id="path883" />
        <path
           style="fill:none;stroke:#000000;stroke-width:1.2;stroke-linecap:butt;stroke-linejoin:miter;stroke-miterlimit:4;stroke-dasharray:none;stroke-opacity:1"
           d="m 120.24289,-34.315892 c 1.63283,2.601931 3.50243,4.804225 6.72591,4.804225"
           id="path885" />
        <path
           style="fill:none;stroke:#000000;stroke-width:1.2;stroke-linecap:butt;stroke-linejoin:miter;stroke-miterlimit:4;stroke-dasharray:none;stroke-opacity:1"
           d="m 121.06647,-28.139032 c -0.0862,1.451525 1.05671,3.56768 2.33348,4.255171 0.69266,0.372972 2.17888,0.274527 2.88253,0.274527"
           id="path887" />
        <path
           style="fill:none;stroke:#000000;stroke-width:1.2;stroke-linecap:butt;stroke-linejoin:miter;stroke-miterlimit:4;stroke-dasharray:none;stroke-opacity:1"
           d="m 122.30184,-19.765954 c 0.55056,1.491323 1.73973,4.941488 3.70612,4.941488"
           id="path889" />
        <path
           style="fill:none;stroke:#000000;stroke-width:1.2;stroke-linecap:butt;stroke-linejoin:miter;stroke-miterlimit:4;stroke-dasharray:none;stroke-opacity:1"
           d="m 123.12542,-14.549938 c -0.12625,3.110356 1.29285,7.1302676 3.98064,8.9221318"
           id="path891" />
        <path
           style="fill:none;stroke:#000000;stroke-width:1.2;stroke-linecap:butt;stroke-linejoin:miter;stroke-miterlimit:4;stroke-dasharray:none;stroke-opacity:1"
           d="m 122.8509,-6.1768606 c 0.0295,1.6512379 0.60801,3.5242399 1.50989,4.9414885 0.30061,0.47237688 0.7951,0.66732688 1.23538,0.96084496"
           id="path893" />
        <path
           style="fill:none;stroke:#000000;stroke-width:1.2;stroke-linecap:butt;stroke-linejoin:miter;stroke-miterlimit:4;stroke-dasharray:none;stroke-opacity:1"
           d="m 121.06647,-0.54905428 c 0.3365,0.97852904 1.12747,3.53802518 2.19621,3.84337998 0.33036,0.094387 0.87826,0 1.23538,0"
           id="path895" />
        <path
           style="fill:none;stroke:#000000;stroke-width:1.2;stroke-linecap:butt;stroke-linejoin:miter;stroke-miterlimit:4;stroke-dasharray:none;stroke-opacity:1"
           d="m 23.68264,-73.7656 c 0.06707,-0.530698 0.722388,-1.471572 0.201221,-1.592101 -1.355786,-0.313541 -2.732228,0.558411 -4.117907,0.686319 -3.984644,0.367813 -8.075457,0.137263 -12.0791942,0.137263"
           id="path897" />
        <path
           style="fill:none;stroke:#000000;stroke-width:1.2;stroke-linecap:butt;stroke-linejoin:miter;stroke-miterlimit:4;stroke-dasharray:none;stroke-opacity:1"
           d="m 12.216458,-71.239792 c -2.2710225,1.691561 -5.949387,-0.182369 -8.2358145,0.960845"
           id="path899" />
        <path
           style="fill:none;stroke:#000000;stroke-width:1.2;stroke-linecap:butt;stroke-linejoin:miter;stroke-miterlimit:4;stroke-dasharray:none;stroke-opacity:1"
           d="m 2.1962171,-67.533675 c -1.51052299,0.898324 -3.5347002,1.026483 -5.2160157,1.372634 -0.8949737,0.184259 -2.0459575,0.549056 -3.0197985,0.549056"
           id="path901" />
        <path
           style="fill:none;stroke:#000000;stroke-width:1.2;stroke-linecap:butt;stroke-linejoin:miter;stroke-miterlimit:4;stroke-dasharray:none;stroke-opacity:1"
           d="m -3.7061163,-63.278506 c -1.4689905,2.019345 -5.8298889,1.98651 -7.2749697,3.43159"
           id="path903" />
        <path
           style="fill:none;stroke:#000000;stroke-width:1.2;stroke-linecap:butt;stroke-linejoin:miter;stroke-miterlimit:4;stroke-dasharray:none;stroke-opacity:1"
           d="m -10.020241,-56.140799 c -0.437984,1.674685 -3.980643,2.186019 -3.980643,3.84338"
           id="path905" />
        <path
           style="fill:none;stroke:#000000;stroke-width:1.2;stroke-linecap:butt;stroke-linejoin:miter;stroke-miterlimit:4;stroke-dasharray:none;stroke-opacity:1"
           d="m 39.120116,-93.613755 c -1.219107,-0.183496 -2.346997,-0.79793 -3.56885,-0.960845 -1.378683,-0.183824 -7.27497,-0.430416 -7.27497,1.647164"
           id="path907" />
        <path
           style="fill:none;stroke:#000000;stroke-width:1.2;stroke-linecap:butt;stroke-linejoin:miter;stroke-miterlimit:4;stroke-dasharray:none;stroke-opacity:1"
           d="m 28.276296,-92.927436 c -0.137264,0.320283 -0.103437,0.798552 -0.411793,0.960845 -1.502155,0.790607 -4.479292,0.451879 -6.176859,1.235371 -0.933165,0.430692 -1.807283,1.072171 -2.745271,1.509901 -0.621191,0.289888 -2.649679,1.013391 -3.157062,1.235371 -0.651906,0.285207 -1.257836,0.670409 -1.921691,0.960845 -0.397672,0.173982 -0.847132,0.21767 -1.235372,0.411792 -0.352042,0.176019 -0.619108,0.491038 -0.960845,0.686316 -3.820643,2.183225 2.267719,-1.635157 -2.0589533,0.960845 -1.0773336,0.646401 -2.138544,1.323358 -3.157062,2.058953 -1.2008016,0.867246 -2.0697285,2.15337 -3.157062,3.157064 -1.0997469,1.01515 -2.44329921,1.890323 -3.43158927,3.019798 -0.13474352,0.153993 -0.15559393,0.382548 -0.27452713,0.549055 -0.6888996,0.964459 -1.6450817,1.782345 -2.4707441,2.608006 -0.3419679,0.341969 -0.5621938,0.843291 -0.8235815,1.235374 -0.8370811,1.25562 -1.7709928,2.450592 -2.608008,3.706117 -0.1412745,0.432943 -0.5783942,0.617582 -0.8235812,0.960845 -0.5904857,0.82668 -1.0041223,1.804207 -1.647163,2.608005 -0.4827659,0.603459 -1.4436995,1.240237 -1.7844265,1.92169 -0.04092,0.08185 0.04092,0.19268 0,0.274529 -0.241016,0.482031 -1.064136,0.926873 -1.372635,1.235372 -0.617481,0.617479 -1.203655,1.395214 -1.784427,2.058953 -1.025385,1.171868 -1.517287,2.651559 -2.470744,3.843379 -0.450657,0.563322 -2.745272,2.888663 -2.745272,3.431591 -3.727996,5.375968 -3.430459,12.069025 -4.117907,18.256053 -0.265761,2.391848 0.171494,4.874049 0,7.27497 -0.08573,1.200241 -0.429726,2.37557 -0.549054,3.568853 -0.173122,1.731218 -0.219191,3.482618 -0.411791,5.216015 -0.13301,1.197089 -0.338282,2.637269 -0.137263,3.84338 0.139855,0.839132 0.562787,1.551098 0.823581,2.333481 0.329676,0.989029 0.599576,2.2534197 0.686318,3.2943256 0.08687,1.0424682 0.113979,2.1937765 0.274527,3.1570621 0.154944,0.9296669 -0.137264,1.8281695 -0.137264,2.7452715 0,0.1171992 -0.08626,0.8745807 0,0.9608449 0.24559,0.2455896 2.152141,-0.801543 2.470745,-0.9608449 0.6203,-0.3101504 1.223639,0.6593639 1.793201,1.0550478"
           id="path909" />
        <path
           style="fill:none;stroke:#000000;stroke-width:1.2;stroke-linecap:butt;stroke-linejoin:miter;stroke-miterlimit:4;stroke-dasharray:none;stroke-opacity:1"
           d="m 61.494079,-95.672708 c 1.455235,0.11194 2.279867,0.09525 3.706117,0.549056 1.188101,0.378031 0.901713,0.509632 1.784427,1.098108 1.531455,1.020969 3.389042,1.221189 5.078751,1.784427 0.156503,0.05217 0.251745,0.234516 0.411792,0.274526 0.22194,0.05549 0.459311,-0.02838 0.686316,0 0.997045,0.124629 1.995723,0.470278 3.019798,0.549053 0.813564,0.06258 1.677088,0.07611 2.470745,0.274529 2.845009,0.711253 5.966346,1.370502 8.647605,2.608008 0.951391,0.439103 1.867542,1.060328 2.882534,1.372635 0.266007,0.08185 0.559552,0.04925 0.823582,0.137263 0.552162,0.184055 1.279835,0.731485 1.784427,0.960845 0.44709,0.203224 0.925954,0.325715 1.372634,0.549055 0.33876,0.169378 0.845577,0.646808 1.098111,0.823582 0.609661,0.426762 1.309831,0.674513 1.92169,1.098108 1.254271,0.868341 2.162154,1.891885 3.294322,2.882535 2.66048,2.32792 5.33457,4.64825 7.82403,7.137704 1.57362,1.573623 2.59965,3.627049 3.98064,5.35328 0.55336,0.691698 1.21183,1.253657 1.78442,1.92169 0.44401,0.518004 0.78503,1.132486 1.23538,1.647164 1.05446,1.205097 2.17933,2.311775 3.15706,3.568853 0.49821,0.640554 0.88321,1.406387 1.37264,2.058953 0.73138,0.97518 1.53413,1.852634 2.19621,2.882535 0.45421,0.706541 0.78117,1.489676 1.23537,2.196216 0.19325,0.300599 0.48291,0.529767 0.68632,0.823582 1.44518,2.08748 2.66142,4.427582 3.70612,6.725915 0.26119,0.574616 1.13207,2.196216 1.23537,2.196216"
           id="path911" />
        <path
           style="fill:none;stroke:#000000;stroke-width:1.2;stroke-linecap:butt;stroke-linejoin:miter;stroke-miterlimit:4;stroke-dasharray:none;stroke-opacity:1"
           d="m 128.89049,-44.19887 c 0.0457,0.823582 0.10556,1.646502 0.13726,2.470745 0.0795,2.067163 0.55854,4.028054 0.96085,6.039596 0.02,0.100325 0.0915,0.18302 0.13726,0.274529 0.0458,0.183018 0.11644,0.361556 0.13727,0.549053 0.0253,0.227375 -0.0496,0.462994 0,0.686318 0.0444,0.199748 0.22068,0.351645 0.27452,0.549053 0.24181,0.886611 0.25541,1.864321 0.54906,2.745272 0.0647,0.194122 0.23014,0.349308 0.27453,0.549055 0.17239,0.775782 0.24898,1.793965 0.41179,2.608009 0.25567,1.278363 0.79904,2.548964 0.96084,3.843379 0.25063,2.005017 0.36359,5.787062 0.13726,7.824023 -0.14767,1.32907 -0.46895,2.67645 -0.68631,3.980644 -0.0752,0.45132 0.0455,0.917361 0,1.372636 -0.0376,0.375429 -0.22773,0.7237202 -0.27453,1.0981083 -0.068,0.5437756 -0.0598,1.1051246 -0.13726,1.6471627 -0.18115,1.2679926 -0.68418,2.4611203 -0.96085,3.7061163 -0.51085,2.2988257 -0.67429,4.61887308 -1.23537,6.8631785 -0.14388,0.57553 -0.4315,1.686585 -0.68632,2.1962172 -0.13132,0.2626498 -0.54905,0.7847481 -0.54905,0.9608449"
           id="path913" />
        <path
           style="fill:none;stroke:#000000;stroke-width:1.2;stroke-linecap:butt;stroke-linejoin:miter;stroke-miterlimit:4;stroke-dasharray:none;stroke-opacity:1"
           d="m -24.021125,3.157062 c -1.485498,-0.753177 -3.178388,-0.6863178 -4.804223,-0.6863178 -1.215856,0 -2.513034,-0.1380634 -3.706117,0.1372636 -3.159898,0.7292069 -6.324605,2.6263479 -7.961289,5.4905429 -1.005874,1.7602793 -1.124561,7.3957783 -0.960845,9.1966593 0.14092,1.550104 0.779442,2.905318 1.098109,4.392434 0.284675,1.328484 -0.05527,1.16297 0.411792,2.470744 0.08973,0.25125 0.327422,0.433216 0.411789,0.686318 0.05787,0.173626 -0.03589,0.36959 0,0.549054 0.156163,0.780812 0.577591,1.458244 0.823582,2.196217 0.21022,0.630658 0.340495,1.296009 0.549056,1.92169 0.21206,0.636188 0.700111,1.176052 0.960844,1.784427 0.338445,0.789707 1.107411,3.212888 1.235372,3.980643 0.06018,0.361055 -0.0454,0.734898 0,1.098108 -0.158869,0.357301 0.226954,0.538144 0.274526,0.823582 0.114427,0.686562 0.09309,1.05869 0.274529,1.784426 0.142756,0.571024 -0.0062,1.210421 0.137263,1.784427 0.257207,1.028835 -0.132217,2.236592 0,3.294327 0.109517,0.876139 0.241618,1.757146 0.41179,2.608006 0.596903,2.984508 3.695734,6.70515 5.078754,9.471186 0.351835,0.703673 1.000572,1.412367 1.509897,1.92169 0.201184,0.201184 0.240358,0.595006 0.411793,0.823582 0.835694,1.114263 2.611058,4.104486 4.117905,4.255172 0.455275,0.04553 0.915091,0 1.372636,0 1.179833,0 2.10934,-0.29972 3.157062,-0.823582 0.05761,-0.02881 0,-0.7654 0,-0.823582"
           id="path915" />
        <path
           style="fill:none;stroke:#000000;stroke-width:1.2;stroke-linecap:butt;stroke-linejoin:miter;stroke-miterlimit:4;stroke-dasharray:none;stroke-opacity:1"
           d="m -26.217342,9.8829769 c -1.288193,-0.2669998 -2.758168,-0.937551 -4.117907,-0.5490541 -1.974154,0.5640443 -4.316359,4.8505252 -4.941488,6.7259152 -0.491865,1.475597 -0.119872,3.384385 0.274527,4.804224 0.434403,1.563854 1.772361,3.28226 2.882535,4.392435 1.052541,1.052541 0.62072,0.280593 0.960845,0.960845"
           id="path917" />
        <path
           style="fill:none;stroke:#000000;stroke-width:1.2;stroke-linecap:butt;stroke-linejoin:miter;stroke-miterlimit:4;stroke-dasharray:none;stroke-opacity:1"
           d="m -22.236698,14.687202 c 1.614369,1.831334 2.058953,4.10725 2.058953,6.451388 0,0.329194 0.129583,1.048679 0,1.372635 -0.388861,0.972155 -4.486518,4.898309 -5.490542,5.902334 -0.412144,0.412144 -1.029542,0.72073 -1.372637,1.235371 -1.137124,1.705687 -0.121968,5.746954 0.274529,7.412233 0.400656,1.682761 0.694061,2.753016 1.921689,3.980643 0.09226,0.09226 0.290279,0.371287 0.411791,0.411793 1.07242,0.357473 1.752483,-0.823582 2.470744,-0.823582"
           id="path919" />
        <path
           style="fill:none;stroke:#000000;stroke-width:1.2;stroke-linecap:butt;stroke-linejoin:miter;stroke-miterlimit:4;stroke-dasharray:none;stroke-opacity:1"
           d="m -32.394202,41.728125 c 0.137263,0.549055 0.249166,1.10508 0.41179,1.647163 0.07225,0.240824 2.599563,6.031151 2.745271,6.17686 0.538549,0.538551 3.706117,0.02032 3.706117,-0.960845"
           id="path921" />
        <path
           style="fill:none;stroke:#000000;stroke-width:1.2;stroke-linecap:butt;stroke-linejoin:miter;stroke-miterlimit:4;stroke-dasharray:none;stroke-opacity:1"
           d="m -19.2169,61.494079 c -3.17e-4,0.596347 -0.04575,1.194377 -9.79e-4,1.789041 0.05202,0.691026 0.368821,1.494703 0.58236,2.13532 0.205439,0.616318 0.06817,3.048148 0.38824,3.688281 0.568459,1.136917 0.695959,2.516378 1.16472,3.688278 0.379138,0.947846 0.833469,1.91805 1.16472,2.911801 0.381519,1.144558 0.372987,2.418178 0.77648,3.494161 1.273865,3.396973 -0.05862,-1.638482 0.9706,2.13532 0.132901,0.487304 0.152638,1.081754 0.38824,1.552959 0.56879,1.137581 1.061491,2.304761 1.35884,3.494161 0.10277,0.411078 0.479591,0.753642 0.58236,1.16472 0.457992,1.831967 1.068833,3.43258 1.74708,5.24124 0.1957877,0.522099 0.2336197,1.087972 0.5823603,1.552958 0.4291206,0.572162 1.296212,1.730362 1.55296,2.329442 0.4907391,1.145059 1.3164507,2.470573 2.13532,3.494159 2.5037185,3.12965 5.36063772,6.0057 7.95892,9.12364 0.7861173,0.94334 1.7265515,1.78784 2.5235601,2.71768 0.269639,0.31458 0.7407738,0.43174 0.9705999,0.77648 2.1524018,3.2286 4.8296907,6.19436 7.9589197,8.54128 0.115751,0.0868 0.258827,0.12941 0.38824,0.19412 0.323534,0.19412 0.675977,0.34666 0.970601,0.58236 0.939217,0.75138 1.746814,1.60129 2.717679,2.32944 0.417346,0.31301 0.958073,0.44251 1.358841,0.77648 0.179228,0.14936 0.223269,0.41739 0.388239,0.58236 0.63543,0.63543 1.769033,1.36982 2.52356,1.74708 1.049093,0.52455 2.140564,1.49175 3.105921,2.13532 2.465305,1.64354 6.618623,3.43357 9.511879,4.07652 2.743808,0.60974 5.553146,1.00959 8.347159,1.35884 2.315528,0.28944 4.84972,0 7.18244,0 5.558369,0 9.312492,0.1574 14.558999,-1.9412 2.173703,-0.86948 3.950964,-1.5884 5.726543,-3.00886 4.980514,-3.98441 6.688807,-10.8455 12.908982,-12.6178 2.198843,-0.62651 1.182554,-3.88602 8.2501,-8.63834 0.948787,-0.63798 -0.126944,-2.12108 0.194117,-0.58236 0.5694,2.72891 4.065868,-3.48351 5.14418,-4.56182 1.167606,-1.16761 11.161899,-6.798365 11.161899,-8.250099"
           id="path923"
           sodipodi:nodetypes="csssssssssssssssssscsssssssssssssssc"
           clip-path="url(#clipPath1023)" />
        <path
           style="fill:none;stroke:#000000;stroke-width:1.2;stroke-linecap:butt;stroke-linejoin:miter;stroke-miterlimit:4;stroke-dasharray:none;stroke-opacity:1"
           d="m -17.27668,25.62384 c 0,2.717681 0,5.435359 0,8.15304 0,2.750431 -0.248505,5.613606 0,8.347159 0.202578,2.228358 0.567385,4.942848 0.19412,7.18244 -0.274027,1.644161 -0.644899,3.224496 -0.9706,4.853001 -0.124016,0.62008 0.103984,1.317294 0,1.9412 -0.237312,1.423869 -0.38824,2.765073 -0.38824,4.27064 0,0.784325 -0.19412,1.505201 -0.19412,2.329439 0,0.194122 0.07441,0.761653 0,0.582361 -0.240365,-0.579146 -0.387586,-1.192694 -0.58138,-1.789041"
           id="path925" />
        <path
           style="fill:none;stroke:#000000;stroke-width:1.2;stroke-linecap:butt;stroke-linejoin:miter;stroke-miterlimit:4;stroke-dasharray:none;stroke-opacity:1"
           d="m 116.86024,19.60612 c 0.69573,-2.840274 5.20475,-5.078646 7.95892,-5.62948 1.87419,-0.374839 -1.59165,-0.0222 0.9706,-0.38824 2.66093,-0.380133 8.56365,-1.142351 10.6766,0.9706 2.20005,2.200049 3.4498,6.695719 2.52356,9.706 -0.79401,2.58053 -0.28057,0.266418 -1.16472,2.32944 -0.12997,0.303263 -0.0641,0.667337 -0.19412,0.9706 -0.71104,1.659104 -1.56577,3.338473 -2.13532,5.04712 -0.24397,0.731925 -0.31669,1.665256 -0.58236,2.32944 -0.068,0.169928 -0.33036,0.214614 -0.38824,0.388241 -0.0819,0.245544 0.0628,0.525381 0,0.776478 -0.0702,0.280739 -0.28663,0.505529 -0.38824,0.776481 -0.53425,1.424675 -0.76571,3.001729 -1.16472,4.464761 -0.33957,1.24509 -0.8162,2.468468 -1.16472,3.688279 -0.42636,1.492258 -0.60353,3.162366 -1.16472,4.658881 -0.8415,2.244013 -1.41382,5.045993 -2.32944,7.18244 -0.0721,0.168219 -0.31614,0.22002 -0.38824,0.388239 -0.58116,1.35605 -0.80591,3.029506 -1.16472,4.464762 -0.47341,1.89362 -1.04377,3.739036 -1.35884,5.629478 -0.0627,0.376373 -1.17312,2.916 -1.55296,3.10592 -1.96739,0.983695 -6.36261,1.370163 -7.37656,-1.164719 -0.14419,-0.360471 0,-0.776481 0,-1.16472"
           id="path927" />
        <path
           style="fill:none;stroke:#000000;stroke-width:1.2;stroke-linecap:butt;stroke-linejoin:miter;stroke-miterlimit:4;stroke-dasharray:none;stroke-opacity:1"
           d="m 116.472,68.136121 c 0.0996,1.696611 -0.0541,3.366868 -0.19412,5.04712 -0.21758,2.610982 0.37033,5.366583 0,7.958921 -0.35782,2.504731 -0.80414,7.21061 -0.38824,9.705998 0.10246,0.614752 0.38824,1.126022 0.38824,1.747081"
           id="path931" />
        <path
           style="fill:none;stroke:#000000;stroke-width:1.2;stroke-linecap:butt;stroke-linejoin:miter;stroke-miterlimit:4;stroke-dasharray:none;stroke-opacity:1"
           d="m -0.19412,108.7072 c 0.51277456,4.323 -2.32944,9.04652 -2.32944,13.20016"
           id="path933" />
        <path
           style="fill:none;stroke:#000000;stroke-width:1.2;stroke-linecap:butt;stroke-linejoin:miter;stroke-miterlimit:4;stroke-dasharray:none;stroke-opacity:1"
           d="m -2.9118001,118.02496 c -0.2588266,0 -0.5743702,-0.16169 -0.7764799,0 -0.20833,0.16667 -0.1239223,0.51909 -0.19412,0.77648 -0.655021,2.40174 -0.2637557,3.92995 1.1647199,6.01772 1.2127609,1.7725 2.32689071,2.71513 3.8824001,4.27064 0.6493115,0.64931 2.7255704,2.82026 3.6882801,3.49416 2.0238096,1.41667 2.3642939,1.27921 4.4647599,2.32944 2.886597,1.4433 5.754354,2.82134 8.7354,4.07652 2.975218,1.25273 5.978209,2.42343 8.929519,3.68828 1.154914,1.06768 2.754357,0.80794 4.07652,1.35884 0.750623,0.31276 1.44177,0.96253 2.135322,1.35884 1.328439,0.75911 3.294706,1.15939 4.27064,2.13532 0.228772,0.22877 0.647065,0 0.9706,0 1.915327,0 4.101073,0.21296 6.01772,0 0.858015,-0.0953 1.670828,-0.44772 2.523559,-0.58236 3.223477,-0.50897 6.556412,-0.8472 9.706001,-1.74708 1.716696,-0.49048 3.792353,-1.22238 5.43536,-1.9412 0.477943,-0.2091 0.870373,-0.5933 1.358839,-0.77648 3.06247,-1.14842 6.592628,-1.09753 9.706001,-2.13532 2.603926,-0.86797 4.761376,-3.12785 6.988321,-4.65888 2.308169,-1.58687 4.744786,-2.72227 7.182439,-4.07652 1.86032,-1.03351 4.233334,-2.27471 5.823599,-3.68828 0.241813,-0.21494 0.338878,-0.56343 0.582361,-0.77648 0.526735,-0.46089 1.215668,-0.70922 1.747081,-1.16472 1.384233,-1.18648 2.614675,-2.39778 4.07652,-3.49416 1.929218,-1.44691 3.261558,-3.65408 5.047118,-5.24124 4.17719,-3.71306 8.28574,-7.50926 12.22956,-11.45308 0.61533,-0.61533 0.98199,-1.48278 1.55296,-2.13532 0.48207,-0.55094 1.09564,-0.98131 1.55296,-1.55296 0.38766,-0.48457 0.96868,-1.35309 1.16472,-1.9412 0.31715,-0.951436 0.82951,-4.658878 -0.77648,-4.658878 -0.25883,0 -0.55454,-0.133165 -0.77648,0 -0.55485,0.332911 -1.03531,0.776477 -1.55296,1.164716"
           id="path935" />
        <path
           style="fill:none;stroke:#000000;stroke-width:1.2;stroke-linecap:butt;stroke-linejoin:miter;stroke-miterlimit:4;stroke-dasharray:none;stroke-opacity:1"
           d="m -2.52356,121.90736 c -0.7117734,1.35884 -1.6620827,2.61737 -2.1353201,4.07652 -0.1177695,0.36312 -0.7380041,7.03551 -0.7764799,7.95892 -0.093852,2.25245 -0.021145,4.54552 -0.19412,6.7942 -0.070786,0.92022 -0.5081106,2.35807 -0.19412,3.30004 0.8898234,2.66947 6.76503395,2.99063 9.1236399,4.46476 2.6626714,1.66417 4.7880092,4.20565 6.9883201,6.40596 0.972754,0.97276 2.165034,1.71407 3.10592,2.71768 3.869153,4.1271 7.00219,8.91335 10.6766,13.20016 2.003393,2.33729 3.780524,3.30004 6.794199,3.30004 0.323536,0 0.741829,0.22877 0.970601,0 0.13495,-0.13495 0.609036,-0.84502 0.77648,-0.9706 0.158959,-0.11922 1.246722,-0.44012 1.358839,-0.77648 0.422146,-1.26644 1.078815,-2.67639 1.358842,-4.07652 0.704459,-3.52229 -0.03865,-7.18063 -0.388241,-10.6766 -0.229865,-2.29866 -0.19412,-4.67523 -0.19412,-6.98832"
           id="path937" />
        <path
           style="fill:none;stroke:#000000;stroke-width:1.2;stroke-linecap:butt;stroke-linejoin:miter;stroke-miterlimit:4;stroke-dasharray:none;stroke-opacity:1"
           d="m 52.99476,149.86064 c 1.85061,6.2527 1.747081,12.75799 1.747081,19.21788 0,1.00222 0.384649,4.47194 0,5.24124 -0.04093,0.0819 -0.194122,0.10261 -0.194122,0.19412 0,0.1093 1.086898,0.003 1.9412,-0.19412 1.709055,-0.3944 3.045545,-1.14208 4.658881,-1.74708 0.499611,-0.18735 1.054942,-0.19669 1.552959,-0.38824 0.756732,-0.29105 1.390105,-0.84534 2.135323,-1.16472 1.870138,-0.80149 3.576708,-1.67872 5.435359,-2.52356 1.082598,-0.49209 2.233953,-0.8258 3.300039,-1.35884 1.701348,-0.85067 0.273473,-0.4588 2.523561,-1.35884 0.76385,-0.30554 1.733752,-0.5757 2.523559,-0.9706 5.731627,-2.86581 -1.025972,0.49911 2.717681,-1.74708 0.882259,-0.52935 1.860174,-0.7352 2.717678,-1.35884 0.408715,-0.29725 0.728189,-0.71596 1.164723,-0.9706 0.353491,-0.2062 0.798681,-0.20522 1.164719,-0.38824 1.188744,-0.59437 2.302328,-1.34528 3.494159,-1.9412 1.31817,-0.65908 2.520056,-0.9527 3.688281,-1.9412 0.908138,-0.76842 1.649423,-1.71666 2.523559,-2.52356 0.968113,-0.89364 2.179794,-1.59743 3.10592,-2.52356 0.99679,-0.99679 1.67587,-2.34504 2.71768,-3.30004 2.09253,-1.91815 4.43857,-3.54404 6.60008,-5.43536 1.10544,-0.96726 1.93452,-2.21417 2.9118,-3.30004 0.86915,-0.96572 1.90049,-1.7643 2.71768,-2.71768 0.80023,-0.9336 1.34067,-2.15234 2.13532,-3.10592 0.76554,-0.91864 1.69396,-1.69396 2.52356,-2.52356 0.54486,-0.54486 0.94647,-1.22723 1.55296,-1.74708 0.52659,-0.45136 1.11303,-0.80893 1.55296,-1.35884 0.83162,-1.03953 1.75554,-2.03069 2.52356,-3.10592 0.48906,-0.68468 0.83296,-1.47797 1.35884,-2.13532 0.69131,-0.86414 1.85332,-1.78381 2.13532,-2.9118 0.75295,-3.01179 0.50031,-6.64415 0.19412,-9.706 -0.14068,-1.40678 0.17529,-2.86831 0,-4.27064 -0.0359,-0.28714 -0.33149,-0.49272 -0.38824,-0.77648 -0.12773,-0.63866 0.007,-1.53249 -0.19412,-2.13532 -0.0579,-0.17363 -0.32027,-0.21831 -0.38824,-0.38824 -0.0721,-0.18023 0.0319,-0.39088 0,-0.58236 -0.11562,-0.69373 -0.53272,-1.13769 -0.77648,-1.74708 -0.44776,-1.119412 -0.84499,-2.466454 -1.35884,-3.494159 -0.11717,-0.234344 -0.45398,-0.585454 -0.58236,-0.9706 -0.12876,-0.386289 -0.18118,-0.09059 -0.38824,-0.194119 -0.23294,-0.116473 -0.34941,-0.465889 -0.58236,-0.582362 -0.47592,-0.237961 -2.70067,-0.199789 -3.30004,0 -1.40609,0.468699 0.30605,-0.05596 -0.58236,0.388239 -0.11575,0.05788 -0.29673,-0.09151 -0.38824,0 -0.0457,0.04575 0,0.129416 0,0.194123 -0.38824,0.388239 -0.77648,0.776475 -1.16472,1.164714"
           id="path939" />
        <path
           style="fill:none;stroke:#000000;stroke-width:1.2;stroke-linecap:butt;stroke-linejoin:miter;stroke-miterlimit:4;stroke-dasharray:none;stroke-opacity:1"
           d="m -22.90616,-2.32944 c 2.325296,-0.010255 4.696174,0.102934 6.98832,-0.3882401 0.863921,0.00904 1.535396,-0.5779688 2.32944,-0.7764799 0.742744,-0.1856859 1.567939,-0.1344064 2.32944,-0.38824 0.347726,-0.1159087 0.709719,-0.5823601 0.9706,-0.5823601 0.3336371,0 -0.77648,4.82442343 -0.77648,5.2412401 0,0.6477146 -0.368033,1.2982196 -0.58236,1.9412001 -0.198252,0.5947566 -0.640041,2.5812406 -0.9706,2.9117999 -0.736014,0.7360137 -5.986405,0.9706001 -6.60008,0.9706001 -0.671842,0 -3.368646,0.2568771 -3.8824,0 -0.284475,-0.1422373 -0.19412,-1.7206984 -0.19412,-1.9412 0,-1.4346068 -0.107679,0.3230351 0.38824,-1.1647201 0.532492,-1.597477 0.786552,-4.25049553 0,-5.8236 z"
           id="path941" />
        <path
           style="fill:none;stroke:#000000;stroke-width:1.2;stroke-linecap:butt;stroke-linejoin:miter;stroke-miterlimit:4;stroke-dasharray:none;stroke-opacity:1"
           d="m -10.09424,-4.4647601 c 1.839112,-0.095907 3.5804717,-1.477478 5.4353599,-1.9412 0.3138736,-0.078468 0.6503183,0.045755 0.9706001,0 1.2913529,-0.1844789 2.6036443,-0.5207288 3.8824,-0.7764798 0.6758415,-0.1351685 1.4570817,0.096891 2.13532,0 0.8300781,-0.1185828 1.632013,-0.4932056 2.5235601,-0.5823601 3.0399715,-0.3039973 6.2582549,0 9.3177599,0 3.286457,0 7.5211,-0.3944377 10.6766,0 0.529465,0.066183 1.024738,0.3127796 1.55296,0.38824 1.136097,0.1622997 2.380523,0.109831 3.494159,0.3882398 1.52499,0.3812471 3.257757,1.1866303 4.658882,1.7470803 0.638905,0.2555623 1.469548,0.4435948 2.135319,0.7764798 0.692968,0.3464833 1.406202,0.9216811 2.13532,1.1647202 0.184158,0.061386 0.402124,-0.072095 0.582361,0 0.169926,0.067971 0.231302,0.2940777 0.388239,0.3882398 0.402926,0.2417558 0.813329,0.212545 1.16472,0.3882401 0.381304,0.1906524 0.775509,0.5818741 1.164719,0.77648 1.27508,0.6375402 2.521641,2.52164053 3.300042,3.30004 0.144606,0.1446055 0.278554,0.6667955 0.388239,0.77648 0.262801,0.2628013 4.153358,0.19412 4.853001,0.19412 1.567394,0 3.303474,-0.2213607 4.852998,0 1.172469,0.1674954 4.964316,0.5452553 6.01772,0.1941201 0.462074,-0.1540247 0.545714,-0.5457142 0.776481,-0.7764801 0.421288,-0.4212868 1.313752,-0.4875939 1.747081,-0.77648 0.120388,-0.080259 0.07837,-0.3014269 0.194119,-0.38824 0.544907,-0.40868004 2.415927,-1.60908122 3.10592,-1.74708 1.73227,-0.3464541 3.509558,0.0223404 5.24124,-0.19412 3.061584,-0.3826978 6.221957,-0.19412 9.31776,-0.19412 3.10592,0 6.211839,0 9.317759,0 1.478479,0 3.203864,-0.2425032 4.658882,0 1.341093,0.2235156 2.761371,0.51345051 4.07652,0.77648 0.468369,0.0936734 1.323839,-0.0174993 1.747079,0.19412 2.01518,1.00758954 4.35999,1.3886239 6.60008,2.13532 0.73461,0.2448703 2.35623,0.4060978 2.9118,0.77648 0.4189,0.2792633 1.51149,1.6641369 1.74708,2.1353201 0.0579,0.1157507 -0.0579,0.2724891 0,0.3882398 0.0436,0.087181 0.52677,0.9150054 0.58236,0.9706001 0.0358,0.035769 0.54659,0.158351 0.58236,0.1941201 0.0915,0.091509 -0.0579,0.272489 0,0.38824 1.13294,2.2658708 0.0862,5.5868289 -0.38824,7.9589199 -0.0987,0.493276 -0.0388,1.086916 -0.19412,1.55296 -0.25966,0.778973 -1.94426,0.78261 -2.32944,1.55296 -0.0777,0.155296 0.0776,0.427064 0,0.58236 -0.77188,1.54377 -0.88186,3.349938 -1.16472,5.04712 -0.0915,0.549285 0.15222,1.214298 0,1.74708 -0.24197,0.846883 -0.70287,1.720372 -0.9706,2.52356 -0.0409,0.122772 0,0.258826 0,0.388239 -0.0647,0.258829 -0.089,0.53126 -0.19412,0.776481 -0.81026,1.890612 -3.59393,4.542358 -5.24124,5.823601 -1.34609,1.046956 -2.92968,2.338379 -4.46476,3.105919 -0.783429,0.391713 -1.730058,0.436409 -2.523559,0.776481 -2.148004,0.920573 -4.451765,1.54971 -6.794201,2.13532 -1.366964,0.341741 -2.928167,0.134869 -4.270639,0.582358 -1.262925,0.420976 0.1016,0.03434 -2.13532,0.194122 -1.050023,0.075 -2.087708,0.412658 -3.10592,0.582359 -0.906259,0.151043 -1.998959,0 -2.9118,0 -3.861382,0 -6.476849,-0.176673 -9.706002,-2.329439 -1.799325,-1.199552 -3.327148,-3.354263 -4.270639,-5.24124 -0.05788,-0.115753 0,-0.258829 0,-0.388242 -0.06471,-0.129413 -0.119679,-0.26417 -0.19412,-0.388239 -2.003777,-3.339629 -3.694636,-6.631865 -4.464759,-10.48248 -0.292941,-1.464707 -0.498451,-3.719589 -0.194122,-5.24124 0.15857,-0.792849 0.362315,-1.87671 0.194122,-2.71768 -0.07899,-0.394966 -0.497438,-0.630907 -0.582361,-0.9706 -0.32249,-1.289957 0.168037,-1.446921 -1.552959,-2.13532 -0.321463,-0.128585 -0.822999,0.06835 -1.164722,0 -2.289775,-0.457955 -4.630166,-0.38824 -6.988318,-0.38824 -0.130519,0 -1.910701,-0.0915 -1.9412,0 -0.06139,0.184158 0.05333,0.395709 0,0.58236 -0.242377,0.848313 -0.711861,1.74734 -0.9706,2.52356 -0.05787,0.173626 -0.330364,0.214614 -0.388242,0.38824 -0.444203,1.332617 0.743276,-0.904189 -0.194119,0.9706 -0.337159,0.674319 -0.913638,1.382076 -1.16472,2.13532 -0.263138,0.789419 -0.36993,1.710459 -0.77648,2.52356 -0.50568,1.011358 -1.129091,2.04625 -1.552959,3.10592 -0.465667,1.164167 -0.767694,2.303081 -1.16472,3.494161 0.193305,0.687784 -0.603189,0.731485 -0.77648,1.164719 -0.182401,0.455999 -0.184661,1.34938 -0.582361,1.747081 -1.278189,1.278189 -2.943993,3.607316 -4.658879,4.464759 -0.409607,0.204803 -1.14023,0.638903 -1.552961,0.776481 -0.184158,0.06139 -0.445096,-0.137264 -0.582359,0 -0.04575,0.04575 0,0.129413 0,0.194119 -0.258828,0.129413 -0.507801,0.280768 -0.77648,0.388239 -1.520532,0.608214 -3.836797,0.315934 -5.435361,0.582361 -0.14272,0.02379 -0.258826,0.129413 -0.38824,0.19412 -0.258826,0.06471 -0.512369,0.15639 -0.77648,0.194119 -1.514431,0.216347 -5.749283,0.238861 -7.18244,0 -0.52338,-0.08723 -1.237788,-0.0668 -1.74708,-0.194119 -1.267331,-0.316833 0.733419,-0.104235 -0.9706,-0.388239 -0.458896,-0.07648 -1.338677,0.2042 -1.74708,0 C 12.279843,36.034403 11.527617,35.892269 10.48248,35.71808 9.823161,35.608193 9.5200384,35.138439 8.9295202,34.9416 7.3549509,34.416743 5.4723127,34.42526 3.8824,33.970999 3.1040117,33.748604 2.3461798,33.238365 1.55296,33.000399 0.6824999,32.739263 -0.36640068,32.62308 -1.16472,32.223921 -1.4864488,32.063055 -1.5270749,31.667444 -1.74708,31.447441 -2.1817267,31.012794 -2.8546097,30.53403 -3.3000399,30.088601 -3.4219684,29.966671 -5.2785269,25.123739 -5.43536,24.65324 -5.6408801,24.03668 -6.2508576,23.624114 -6.6000801,23.10028 -6.7948833,22.808075 -7.3189504,22.087099 -7.37656,21.74144 c -0.042551,-0.255305 0.071105,-0.527612 0,-0.77648 -0.064093,-0.224326 -0.3144631,-0.361029 -0.38824,-0.58236 -0.1227722,-0.368317 0.07614,-0.784019 0,-1.16472 -0.1239721,-0.61986 -0.4007937,-1.396501 -0.5823601,-1.9412 -0.09706,-0.29118 0.09706,-0.67942 0,-0.9706 -0.039488,-0.118464 -0.3487518,-0.463896 -0.38824,-0.58236 -0.213654,-0.640962 -0.029104,-1.475255 -0.1941201,-2.13532 C -9.1439859,12.730537 -9.4915526,11.922629 -9.706,11.06484 -9.8517656,10.481778 -9.8413222,9.4353559 -10.09424,8.9295202 -10.739122,7.6397561 -12.102182,6.854836 -12.6178,5.8236 c -0.604025,-1.2080502 0.741946,-2.9332512 0.9706,-4.07652 0.07608,-0.3804133 -0.171271,-1.01629862 0,-1.35884 0.390459,-0.78091706 0.362574,-1.6444162 0.58236,-2.52356 0.01569,-0.062775 0.148365,0.045755 0.19412,0 0.129413,-0.1294133 -0.129413,-0.6470666 0,-0.7764801 0.240672,-0.2406724 0.537547,-1.0750944 0.77648,-1.55296 z"
           id="path943" />
        <path
           style="fill:none;stroke:#000000;stroke-width:1.2;stroke-linecap:butt;stroke-linejoin:miter;stroke-miterlimit:4;stroke-dasharray:none;stroke-opacity:1"
           d="m -4.4647601,4.07652 c 1.901258,-3.80847333 5.6648544,-5.1628254 9.51188,-6.01772 0.3994957,-0.088777 0.7595923,-0.3303646 1.1647202,-0.38824 1.5757609,-0.2251087 3.4532347,0 5.0471199,0 1.51089,0 3.165411,-0.2133527 4.65888,0 3.268893,0.4669847 6.560006,1.0866553 9.706,2.13532 0.727502,0.24250061 1.401188,0.16800039 2.13532,0.38824 0.725432,0.21762929 1.400561,0.59279027 2.135319,0.77648 3.133096,0.7832738 8.257977,0.8814151 10.676602,3.3000401 0.266049,0.2660509 0.644416,0.1901467 0.77648,0.38824 0.689375,1.0340634 0.01805,5.7333119 -0.194122,6.7941999 -0.09823,0.49114 0.121478,1.067056 0,1.55296 -0.163684,0.654743 -0.454583,1.302315 -0.582358,1.9412 -0.06345,0.317251 0.102309,0.663669 0,0.9706 -0.05474,0.164235 -0.354912,0.415718 -0.388242,0.58236 -0.389773,1.94887 -1.011052,3.890545 -1.358839,5.62948 -0.134742,0.673708 -1.743527,3.487058 -2.13532,4.27064 -0.576109,1.152216 -1.334008,3.168669 -2.523561,3.882401 -0.642051,0.385231 -1.547699,0.529884 -2.13532,0.9706 -1.115473,0.836605 -2.564839,1.502013 -3.882398,1.9412 -1.043551,0.347848 -5.716577,0.06023 -6.988321,-0.194122 -0.870393,-0.174077 -1.837791,0.125698 -2.71768,0 -0.579865,-0.08284 -1.191527,-0.308874 -1.74708,-0.388239 -1.423091,-0.203298 -2.852898,0.0084 -4.27064,-0.194119 -0.771851,-0.110265 -1.466918,-0.7478 -2.13532,-0.9706 C 9.7590916,31.271016 9.0854272,31.263256 8.5412801,31.059199 7.9462219,30.836055 7.3849494,30.324901 6.7942001,30.088601 5.4397941,29.546838 1.9356785,28.335999 0.9706,27.370921 -0.13396168,26.266358 -0.44653535,25.11901 -1.16472,23.68264 c -0.2317455,-0.463491 -0.115521,-1.143881 -0.38824,-1.55296 -0.9811005,-1.47165 0.081422,0.551085 -0.58236,-0.77648 -0.2886376,-0.577275 -0.9012793,-2.560546 -1.1647199,-2.9118 -0.086813,-0.115751 -0.3235336,-0.06471 -0.3882401,-0.19412 -0.3022377,-0.604475 -0.3087603,-2.390602 -0.38824,-3.10592 -0.1725459,-1.552913 -0.5208283,-3.12497 -0.7764801,-4.65888 -0.1221613,-0.7329687 -0.2476852,-2.556984 0,-3.3000401 0.4205737,-1.2617203 0.750118,-1.6584083 0.38824,-3.1059199 z"
           id="path945" />
        <path
           style="fill:none;stroke:#000000;stroke-width:1.2;stroke-linecap:butt;stroke-linejoin:miter;stroke-miterlimit:4;stroke-dasharray:none;stroke-opacity:1"
           d="m 62.50664,14.36488 c 1.003548,-0.241633 0.177569,-0.937501 0.388241,-1.35884 0.163695,-0.327393 0.588156,-0.462607 0.776478,-0.77648 1.101133,-1.835219 2.300282,-3.0767619 3.882401,-4.65888 0.09175,-0.091748 1.961827,-0.9210302 2.13532,-0.9705999 0.248869,-0.071105 0.530936,0.081848 0.77648,0 0.173628,-0.057875 0.22002,-0.3161456 0.388239,-0.38824 1.812047,-0.776591 5.392156,0.053931 7.376562,-0.1941201 0.303319,-0.037915 0.743972,-0.19412 1.16472,-0.19412 3.573957,0 7.130028,0.19412 10.676599,0.19412 1.087543,0 2.052484,0.2126674 3.10592,0.3882401 0.629128,0.1048549 1.309785,-0.090202 1.9412,0 0.405127,0.057875 0.759592,0.3303646 1.164719,0.38824 0.448395,0.064056 0.912059,-0.074464 1.358842,0 0.803677,0.1339461 1.460535,0.4390869 2.13532,0.7764799 0.607239,0.3036176 1.333969,0.2787425 1.941199,0.5823601 1.66947,0.8347355 2.64869,2.4417129 3.10592,4.2706399 0.44437,1.777483 -0.14921,6.032209 -0.58236,7.7648 -0.25695,1.027815 -0.83569,2.118818 -1.16472,3.10592 -0.16598,0.497943 -0.66439,0.992501 -0.77648,1.55296 -0.30569,1.528482 -2.05023,7.513957 -3.30004,8.347161 -1.429792,0.953194 -2.88104,2.189774 -4.464759,2.717679 -0.173627,0.05788 -0.208777,0.352348 -0.388241,0.388241 -1.814174,0.362834 -3.565549,0.790758 -5.435359,1.16472 -0.56973,0.113945 -0.998937,0.0094 -1.552962,0.194119 -0.994992,0.331664 -5.18782,0 -6.405959,0 -1.221327,0 -7.628758,0.359201 -8.34716,0 -1.314674,-0.657336 -2.579092,-1.547455 -3.8824,-2.329439 -0.744461,-0.446677 -1.625886,-0.812943 -2.329439,-1.164722 -2.023843,-1.01192 -2.717681,-3.96168 -2.717681,-6.017718 0,-0.631735 -0.290926,-1.163195 -0.388239,-1.747081 -0.323014,-1.938085 0.232629,-3.960988 -0.388242,-5.8236 -0.450244,-1.350739 0.25527,-4.414286 -0.194119,-6.21184 z"
           id="path947" />
        <path
           style="fill:none;stroke:#000000;stroke-width:1.2;stroke-linecap:butt;stroke-linejoin:miter;stroke-miterlimit:4;stroke-dasharray:none;stroke-opacity:1"
           d="m 117.83084,26.59444 c 0.60818,-1.274965 1.76156,-2.149802 2.71768,-3.10592 0.45755,-0.457545 0.75048,-1.055869 1.16472,-1.55296 0.78949,-0.94739 1.95842,-1.648454 2.9118,-2.32944 0.29786,-0.212754 0.47862,-0.563726 0.77648,-0.77648 2.06684,-1.476313 4.80411,-1.092104 6.98832,0 1.20234,0.601171 1.80515,1.397002 2.13532,2.71768 0.48807,1.952269 -1.00363,7.070899 -1.74708,8.92952 -0.73268,1.831711 -0.81539,3.921533 -1.35884,5.823601 -0.30863,1.080207 -0.8643,2.116836 -1.35884,3.10592 -0.18012,0.360244 -0.21124,1.004829 -0.38824,1.358839 -0.0819,0.163695 -0.33036,0.214614 -0.38824,0.388239 -0.0819,0.245547 0.0819,0.530937 0,0.776481 -0.11931,0.357939 -0.42912,0.625819 -0.58236,0.9706 -0.51422,1.156997 -0.96034,2.492769 -1.35884,3.688281 -0.38596,1.157891 -2.31595,3.349011 -3.10592,4.27064 -1.75224,2.044284 -3.08048,5.060315 -5.43536,6.405959 -0.64167,0.36667 -1.9078,1.24056 -2.71768,0.9706 -0.24554,-0.08185 0,-0.517652 0,-0.776481"
           id="path949" />
        <path
           style="fill:none;stroke:#000000;stroke-width:1.2;stroke-linecap:butt;stroke-linejoin:miter;stroke-miterlimit:4;stroke-dasharray:none;stroke-opacity:1"
           d="m 117.83084,26.59444 c 0.58236,0.9706 1.26253,1.888855 1.74708,2.9118 0.18438,0.389239 0.24865,2.159307 0.38824,2.717681 0.70493,2.819707 1.85468,5.760382 1.35884,8.735399 -0.26818,1.609055 -0.37291,0.984213 -0.77648,2.329439 -0.22407,0.7469 -0.13219,1.042937 -0.38824,1.747081 -0.57032,1.568397 -1.49693,3.158146 -2.52356,4.464762 -0.0152,0.01937 -1.16472,0.898046 -1.16472,1.164719"
           id="path951" />
        <path
           style="fill:none;stroke:#000000;stroke-width:1.2;stroke-linecap:butt;stroke-linejoin:miter;stroke-miterlimit:4;stroke-dasharray:none;stroke-opacity:1"
           d="m 112.20136,66.38904 c -0.12633,2.189475 -0.96481,5.619827 -2.13532,7.570682 -0.0709,0.118205 -0.9706,0.922716 -0.9706,1.164719"
           id="path953" />
        <path
           style="fill:none;stroke:#000000;stroke-width:1.2;stroke-linecap:butt;stroke-linejoin:miter;stroke-miterlimit:4;stroke-dasharray:none;stroke-opacity:1"
           d="m 10.87072,74.54208 c 4.182505,1.820585 6.480845,2.13532 10.87072,2.13532 1.985101,0 7.544887,-1.479656 9.511881,-2.13532 0.980689,-0.326895 2.118495,-0.141383 3.10592,-0.388239 0.678577,-0.169645 1.994212,-0.749974 2.717678,-0.388241 0.657164,0.328583 1.993009,1.009456 2.717681,1.552961 0.156345,0.417451 0.554495,0.04613 0.776481,0.194119 0.120388,0.08026 0.07837,0.301427 0.194119,0.388239 0.361011,0.270762 0.973392,0.293275 1.358839,0.582361 0.892099,0.669074 2.66305,1.901347 3.882401,1.552962 0.943853,-0.269674 2.484583,-0.756992 3.300039,-1.164723 1.329791,-0.664892 2.859778,-1.524539 4.658882,-1.164719 0.867531,0.173506 4.017626,1.460259 4.658878,1.9412 0.891834,0.668875 1.726605,1.445662 2.717681,1.9412 0.454395,0.227198 1.966264,0.784837 2.523561,0.970601 0.27795,0.09265 0.711282,-0.12966 0.970601,0 0.923977,0.461988 0.587883,0.222641 1.747078,0.388239 0.194119,0.06471 0.388241,0.129412 0.582361,0.194122 0.06471,0.06471 0.107307,0.165182 0.194119,0.194119 0.30693,0.102309 0.65032,-0.04575 0.9706,0 2.811897,0.401698 5.607011,0.388239 8.541279,0.388239"
           id="path955" />
        <path
           style="fill:none;stroke:#000000;stroke-width:1.2;stroke-linecap:butt;stroke-linejoin:miter;stroke-miterlimit:4;stroke-dasharray:none;stroke-opacity:1"
           d="m 19.412,81.142162 c 1.138642,0.384532 1.532857,1.233125 2.32944,1.941197 0.348746,0.309997 0.817894,0.464339 1.16472,0.776481 2.106536,1.895882 3.570474,4.308798 6.211841,5.629481 2.382462,1.191231 5.378448,1.899362 7.958918,2.329439 1.859423,0.309904 3.762822,0.85361 5.629482,1.16472 4.225403,0.704234 9.612976,0.326065 13.588399,-1.16472 3.22413,-1.209047 -1.269415,0.349917 1.358842,-0.77648 0.439779,-0.188479 0.933862,-0.152144 1.358839,-0.388239 1.105924,-0.614402 1.992376,-1.190308 3.10592,-1.747081 0.37493,-0.187465 0.634941,-0.718854 0.9706,-0.9706 1.091631,-0.818724 2.303158,-1.332558 3.300039,-2.329439"
           id="path957" />
        <path
           style="fill:none;stroke:#000000;stroke-width:1.2;stroke-linecap:butt;stroke-linejoin:miter;stroke-miterlimit:4;stroke-dasharray:none;stroke-opacity:1"
           d="m 26.40032,79.395081 c 1.699276,-0.138856 3.413874,0.115718 5.047121,0.582358 0.933963,0.266849 1.830355,0.868948 2.717678,1.164723 0.604673,0.201557 1.428811,0.172447 1.9412,0.582358 0.285827,0.228661 0.466082,0.582483 0.776481,0.776481 0.163065,0.101915 2.563672,1.126037 2.9118,1.164719 3.799515,0.42217 7.237569,-0.516456 10.870721,-0.9706 1.589858,-0.198731 4.755002,-0.235849 6.405959,0 1.180838,0.168691 2.105369,0.582361 3.30004,0.582361"
           id="path959" />
        <path
           style="fill:none;stroke:#000000;stroke-width:1.2;stroke-linecap:butt;stroke-linejoin:miter;stroke-miterlimit:4;stroke-dasharray:none;stroke-opacity:1"
           d="m 33.58276,105.60128 c 3.337169,-3.5193 8.435981,-5.637623 13.200161,-3.8824 1.120865,0.41295 3.534253,1.29856 4.658878,1.9412 1.429581,0.8169 0.492488,0.77648 1.164722,0.77648"
           id="path961" />
        <path
           style="fill:none;stroke:#000000;stroke-width:1.2;stroke-linecap:butt;stroke-linejoin:miter;stroke-miterlimit:4;stroke-dasharray:none;stroke-opacity:1"
           d="m 31.64156,40.571081 c -2.009304,0.534649 -2.669529,2.039017 -3.494159,3.688278 -1.059675,2.11935 -2.05975,4.842613 -1.552961,7.376562 0.424672,2.123356 4.300405,3.658516 5.823601,2.13532"
           id="path963" />
        <path
           style="fill:none;stroke:#000000;stroke-width:1.2;stroke-linecap:butt;stroke-linejoin:miter;stroke-miterlimit:4;stroke-dasharray:none;stroke-opacity:1"
           d="m 61.924281,43.09464 c 1.182783,0.85966 2.9635,1.992902 3.882401,2.9118 0.837903,0.837904 0.582358,3.202323 0.582358,4.27064 0,2.689775 0.449191,4.254079 -1.164719,6.405961 -0.180428,0.240568 -0.277122,0.623859 -0.582362,0.776478 -0.05787,0.02894 -0.129413,0 -0.194119,0 -0.323533,0.129413 -0.658932,0.232408 -0.9706,0.388242 -0.672148,0.336074 -1.352651,0.582359 -2.13532,0.582359 -1.305936,0 -3.882401,1.250537 -3.882401,-0.776478"
           id="path965" />
        <path
           style="fill:none;stroke:#000000;stroke-width:1.2;stroke-linecap:butt;stroke-linejoin:miter;stroke-miterlimit:4;stroke-dasharray:none;stroke-opacity:1"
           d="m 32.418041,53.771241 c 1.287092,-0.943972 2.852314,-1.749944 4.505859,-1.336559 0.06367,0.01593 2.590708,4.375135 3.019798,4.804225 1.833396,1.833396 2.989937,2.505697 5.627807,2.882535 0.547102,0.07816 0.759777,-0.151955 1.372637,-0.274526 0.902409,-0.180481 1.75002,-0.360244 2.470742,-0.960845 0.291307,-0.242755 0.4518,-0.546899 0.823582,-0.686319 0.218448,-0.08192 0.464987,-0.06348 0.686319,-0.137263 0.245544,-0.08185 0.346943,-0.387366 0.549053,-0.549053 0.493376,-0.3947 1.313447,-0.470347 1.784426,-0.823582 0.207063,-0.155297 0.333698,-0.405484 0.549056,-0.549055 0.820372,-0.546915 1.99976,-0.666586 2.882534,-0.960845 0.791658,-0.263885 1.952226,-0.04566 2.196217,0.686319 0.03715,0.111453 0.409458,0.143639 0.274526,0.274526 -0.544668,0.528349 -1.134052,1.008563 -1.701078,1.512843"
           id="path969" />
        <path
           style="fill:none;stroke:#000000;stroke-width:1.2;stroke-linecap:butt;stroke-linejoin:miter;stroke-miterlimit:4;stroke-dasharray:none;stroke-opacity:1"
           d="m 3.7061163,9.4711863 c 2.9925957,0.063806 5.8050853,-0.907219 8.5103417,-1.9216899 0.436897,-0.1638366 0.929974,-0.1269733 1.372635,-0.2745272 0.19412,-0.064707 0.350544,-0.2248995 0.549055,-0.2745271 0.26633,-0.066583 0.557251,0.066583 0.823581,0 0.187978,-0.046995 0.392462,-0.2353789 0.549054,-0.2745272 2.086794,-0.5216985 6.511375,-0.8390369 8.647605,-0.4117906 1.428504,0.2857005 2.877821,0.6450798 4.255171,1.2353721 0.519708,0.2227313 0.906031,0.7608713 1.372634,0.9608449 0.636863,0.2729405 1.428605,0.3711422 2.058956,0.6863178 0.657405,0.3287033 2.608006,2.0094179 2.608006,2.7452709"
           id="path971" />
        <path
           style="fill:none;stroke:#000000;stroke-width:1.2;stroke-linecap:butt;stroke-linejoin:miter;stroke-miterlimit:4;stroke-dasharray:none;stroke-opacity:1"
           d="m 6.8631783,12.490985 c 1.448394,0.777651 2.5285483,2.293751 3.9806437,3.019798 0.610916,0.305458 1.402256,0.403122 2.058953,0.549055 0.701523,0.155894 1.78604,0.480906 2.470745,0.686317 0.33376,0.100129 0.61713,0.354505 0.960845,0.411791 2.194255,0.365709 7.308309,0.54072 9.471186,0 0.521629,-0.130407 1.028993,-0.472581 1.5099,-0.686318 0.754123,-0.335165 1.662043,-0.51322 2.333479,-0.960845 0.290005,0.03575 0.05214,-0.217775 0.137263,-0.274527 0.309629,-0.206419 0.804122,-0.264796 1.098111,-0.41179 0.133242,-0.06662 0.385609,-0.701 0.549053,-0.823582 0.197117,-0.147837 0.481303,-0.137851 0.686318,-0.274527 0.219134,-0.146089 0.243682,-0.380944 0.41179,-0.549054 0.01558,-0.01559 0.3962,-0.121673 0.411792,-0.137264 0.03235,-0.03235 0,-0.09151 0,-0.137264 0.503299,-0.320281 1.0066,-0.640563 1.509898,-0.960845"
           id="path973" />
        <path
           style="fill:#333333;stroke:#000000;stroke-width:1.2;stroke-linecap:butt;stroke-linejoin:miter;stroke-miterlimit:4;stroke-dasharray:none;stroke-opacity:1"
           d="m 12.490985,7.961287 c -0.07585,1.4615745 0.64467,2.79924 1.235372,3.980643 0.170265,0.340531 0.58008,0.580081 0.823581,0.823582 0.144689,0.144688 0.161025,0.3788 0.274528,0.549054 0.478261,0.717392 1.506919,1.302514 2.196217,1.647163 0.10981,0.05491 0.301979,-0.0549 0.41179,0 0.939764,0.469882 2.42424,0.915241 3.568853,0.686318 0.828056,-0.165611 -0.111296,-0.06529 0.411791,-0.274527 0.762089,-0.304836 1.485644,-0.605559 2.196217,-0.960845 0.241637,-0.120819 0.490826,-0.490827 0.686318,-0.686318 1.320298,-1.320298 2.602482,-3.579903 1.647163,-5.4905428 C 25.754568,7.8593206 26.068853,7.4010075 25.805551,7.1377055 25.320895,6.65305 22.939819,7.0038025 22.236698,6.8631783 21.627357,6.7413102 21.046403,6.5886514 20.452272,6.5886514 c -0.964532,0 -2.461659,-0.2790698 -3.294326,0.1372635 -0.394882,0.1974411 -0.8855,-0.037672 -1.235372,0.1372634 -0.643532,0.3217662 -1.220112,0.37366 -1.92169,0.5490544 -0.248439,-0.082733 -0.255286,0.222359 -0.411791,0.2745271 -0.329661,0.1098873 -0.742045,0.1855113 -1.098108,0.2745272 z"
           id="path975" />
        <path
           style="fill:none;stroke:#000000;stroke-width:1.2;stroke-linecap:butt;stroke-linejoin:miter;stroke-miterlimit:4;stroke-dasharray:none;stroke-opacity:1"
           d="m 34.727684,16.608892 c -3.109021,2.305702 -5.631447,5.611202 -9.19666,7.274969 -1.819465,0.849083 -5.907816,1.235372 -8.098551,1.235372"
           id="path977" />
        <path
           style="fill:none;stroke:#000000;stroke-width:1.2;stroke-linecap:butt;stroke-linejoin:miter;stroke-miterlimit:4;stroke-dasharray:none;stroke-opacity:1"
           d="m 66.57283,12.902775 c 1.49646,-2.024741 4.015928,-2.368211 6.176862,-3.2943253 1.188871,-0.5095158 2.544154,-1.0910136 3.84338,-1.2353721 0.843558,-0.093728 1.777106,0.1661803 2.608008,0 0.06345,-0.012689 0.09151,-0.091509 0.137264,-0.1372634 0.137263,-0.045755 0.267985,-0.1212856 0.411789,-0.1372635 1.262647,-0.1402942 2.574594,0.074635 3.84338,0 0.750665,-0.044157 1.339472,-0.1372637 2.058953,-0.1372637"
           id="path979" />
        <path
           style="fill:none;stroke:#000000;stroke-width:1.2;stroke-linecap:butt;stroke-linejoin:miter;stroke-miterlimit:4;stroke-dasharray:none;stroke-opacity:1"
           d="M 98.280716,19.2169 C 98.119654,18.733718 97.746221,16.897978 97.457134,16.608892 97.337863,16.48962 96.089697,15.37612 96.084497,15.37352 95.838419,15.25048 95.399613,15.217261 95.123652,15.098993 94.662814,14.90149 94.277719,14.535036 93.888281,14.275411 c -0.731388,-0.487591 -1.91213,-0.957659 -2.745272,-1.235372 -0.291179,-0.09706 -0.15453,-0.929763 -0.823581,-0.411791 -0.315923,-0.05265 -0.643782,0.0453 -0.960845,0 -0.944491,-0.134927 -1.6426,-0.35145 -2.608006,-0.41179 -1.114769,-0.06967 -1.186355,-0.258188 -2.058956,-0.549055 -0.701167,-0.233723 -2.639944,0 -3.431587,0 -0.772602,0 -3.552217,0.04825 -4.117909,0.274527 -0.15317,0.06127 -0.255286,0.222358 -0.41179,0.274528 -0.273187,0.09106 -0.686527,0.02754 -0.960845,0.137263 -0.496842,0.198737 -0.918493,0.59651 -1.372634,0.823582 -0.811763,0.40588 0.293579,-0.494712 -0.549056,0.137263 -1.751031,1.313273 -3.799554,2.268035 -5.35328,3.84338 0.320282,0.274527 0.60313,0.600009 0.960847,0.823582 0.764267,0.477666 1.664633,0.695053 2.470744,1.098108 0.955367,0.477684 1.857512,0.893698 2.882535,1.235372 0.443363,0.147788 0.775489,0.571347 1.235372,0.686318 0.8924,0.2231 1.906535,0.476634 2.745272,0.686318 0.355107,0.08878 0.734899,-0.0454 1.098108,0 0.779074,0.09738 1.547261,0.280754 2.333481,0.411791 0.310517,0.05175 0.652493,-0.06167 0.960845,0 2.146361,0.429272 4.410645,0.318764 6.588651,0.137263 0.547158,-0.0456 1.103627,0.07765 1.647163,0 0.393091,-0.05616 0.939733,-0.450507 1.235372,-0.549054 0.755481,-0.251827 1.60764,-0.323397 2.333481,-0.686318 0.7866,-0.3933 2.116382,-1.2928 2.745272,-1.92169"
           id="path981" />
        <path
           style="fill:none;stroke:#000000;stroke-width:1.2;stroke-linecap:butt;stroke-linejoin:miter;stroke-miterlimit:4;stroke-dasharray:none;stroke-opacity:1"
           d="m 68.631783,23.47207 c 1.004314,2.171738 1.750018,4.465178 2.882538,6.588652 0.772909,1.449208 3.677811,4.804225 5.353277,4.804225"
           id="path983" />
        <path
           style="fill:#333333;stroke:#000000;stroke-width:1.2;stroke-linecap:butt;stroke-linejoin:miter;stroke-miterlimit:4;stroke-dasharray:none;stroke-opacity:1"
           d="m 77.553917,12.079194 c -0.224867,0.843042 -0.137263,1.7391 -0.137263,2.608008 0,0.705654 0.265282,3.010554 0.686316,3.431589 0.279207,0.279205 0.598908,0.37423 0.823581,0.823582 0.03764,0.07528 0.224941,0.524261 0.274529,0.549054 0.534401,0.267201 1.303931,0.651965 1.92169,0.960845 0.324866,0.162433 0.750417,0.02136 1.098108,0.137263 1.826126,0.608709 4.263605,0.439781 5.76507,-0.686318 0.09305,-0.06978 0.660355,-0.248565 0.686319,-0.274527 0.09089,-0.0909 0.361595,-0.954186 0.549052,-1.235372 0.277281,-0.41592 0.66684,-0.765147 0.823582,-1.235372 0.155374,-0.466118 0.519361,-3.490974 0.274527,-3.980643 -0.162354,-0.324709 -2.569798,-0.573818 -3.019798,-0.686318 -1.270268,-0.317567 -2.57151,-0.674152 -3.84338,-1.098109 -0.794465,-0.264821 -2.413466,0.02716 -3.294325,0.137264 -1.123264,0.140408 -1.694063,-0.136405 -2.608008,0.549054 z"
           id="path985" />
        <path
           style="fill:none;stroke:#000000;stroke-width:1.2;stroke-linecap:butt;stroke-linejoin:miter;stroke-miterlimit:4;stroke-dasharray:none;stroke-opacity:1"
           d="m -3.7061163,-63.278506 c 0.3202818,1.692918 1.2720981,3.384153 0.9608449,5.078754 -0.2711325,1.476166 -2.4532725,1.741247 -3.5688529,2.745269 -5.7125807,5.141325 1.8556364,-1.581108 -2.196217,2.470745 -0.1446885,0.144688 -0.4355513,0.104272 -0.5490544,0.274526 -0.1015201,0.152281 0.049347,0.725295 0,0.549056 -0.3680417,-1.314434 -0.6405633,-2.65376 -0.9608453,-3.980643"
           id="path987" />
        <path
           style="fill:#000000;stroke:#000000;stroke-width:1.2;stroke-linecap:butt;stroke-linejoin:miter;stroke-miterlimit:4;stroke-dasharray:none;stroke-opacity:1"
           d="m 19.412,8.58981 c -0.359141,-0.021622 -0.736161,0.055373 -1.01913,0.29118 -0.368832,0.3073601 -0.758501,1.734508 -0.53383,2.18385 0.505238,1.010475 2.452087,1.321178 3.3971,0.87354 0.889186,-0.421193 0.9241,-2.487736 0.09706,-2.96033 C 20.696943,8.603046 20.107332,8.7056988 19.412,8.58981 Z"
           id="path989" />
        <path
           style="fill:#ffffff;fill-opacity:1;stroke:#000000;stroke-width:0;stroke-linecap:butt;stroke-linejoin:miter;stroke-miterlimit:4;stroke-dasharray:none;stroke-opacity:1"
           d="m 18.34434,7.66774 c -0.215771,0.042238 -0.466377,-0.053261 -0.67942,0 -0.507509,0.1268772 -0.967612,0.8976844 -0.77648,1.4073701 0.04345,0.1158515 0.289096,0.4026799 0.38824,0.4853 0.132416,0.1103469 0.396479,0.1412926 0.53383,0.1941201 0.263457,0.1013293 0.620007,0.2462778 0.92207,0.1455898 0.11087,-0.036957 0.195388,-0.3094699 0.24265,-0.38824 0.146626,-0.2443758 0.14559,-0.4006141 0.14559,-0.6794198 0,-0.7360264 -0.204997,-0.8789784 -0.77648,-1.1647202 z"
           id="path991" />
        <path
           style="fill:#000000;stroke:#000000;stroke-width:1.2;stroke-linecap:butt;stroke-linejoin:miter;stroke-miterlimit:4;stroke-dasharray:none;stroke-opacity:1"
           d="m 83.180422,14.559 c -0.329407,-0.08235 -0.412785,-0.171909 -0.727951,0 -0.406554,0.221757 -0.825011,0.973423 -0.825011,1.4559 0,0.593227 0.543325,0.84675 1.01913,1.06766 0.528204,0.245238 1.357511,0.498429 1.892671,0.09706 0.179702,-0.134778 0.313671,-0.446241 0.436769,-0.63089 0.125626,-0.188437 0.213637,-0.30173 0.242652,-0.53383 0.06632,-0.53059 -0.04805,-1.164238 -0.436772,-1.55296 -0.500446,-0.500447 -2.08679,-0.733179 -2.08679,0.24265"
           id="path993" />
        <path
           style="fill:#ffffff;stroke:#000000;stroke-width:0;stroke-linecap:butt;stroke-linejoin:miter;stroke-miterlimit:4;stroke-dasharray:none;stroke-opacity:1"
           d="m 82.015699,13.29722 c -0.551566,-0.0381 -0.69792,0.684122 -0.776478,1.11619 -0.165846,0.912142 1.730897,0.816939 2.03826,0.04853 0.236329,-0.590821 -0.553458,-1.695961 -1.261782,-1.16472 z"
           id="path995" />
        <path
           style="fill:none;stroke:#000000;stroke-width:1.2;stroke-linecap:butt;stroke-linejoin:miter;stroke-miterlimit:4;stroke-dasharray:none;stroke-opacity:1"
           d="m -7.6867598,143.57769 c -0.4575453,0 -0.9204111,-0.0696 -1.3726359,0 -2.3284133,0.35822 -4.5185623,1.38665 -6.8631783,1.64717 -2.210799,0.24564 -4.624024,0 -6.863179,0 -4.75847,0 -9.51694,0 -14.27541,0 -2.007521,0 -4.282028,-0.68095 -6.314125,-0.27453 -2.350064,0.47001 0.06937,-0.0965 -1.92169,1.09811 -0.156935,0.0942 -0.375428,-0.0579 -0.549053,0 -0.818962,0.27298 -1.106771,1.65582 -1.647164,2.19621 -0.931748,0.93175 -2.674799,1.42806 -3.843379,1.64717 -3.105452,0.58227 -6.236592,0.16188 -9.333923,0.54905 -2.997203,0.37465 -6.026545,0.27453 -9.059397,0.27453 -2.274832,0 -5.2036,-0.55216 -7.412231,0 -1.850853,0.46271 0.231579,0.0184 -1.647163,0.82358 -1.442064,0.61803 -3.171844,0.87426 -4.666962,1.37263 -4.840972,1.61366 -9.656241,3.6405 -14.000884,6.31413 -0.976517,0.60093 -2.114722,0.94322 -3.019796,1.64716 -0.36117,0.28091 -0.45755,0.82359 -0.82358,1.09811 -0.81848,0.61386 -1.90712,0.78593 -2.74528,1.37264 -3.4741,2.43187 1.10159,-0.37367 -3.29432,2.47074 -2.68951,1.74027 -5.56824,3.16311 -8.23582,4.94149 -0.5756,0.38374 -3.72235,2.6682 -4.1179,3.0198 -0.15294,0.13594 -0.11475,0.42123 -0.27453,0.54905 -0.8871,0.70968 -1.94546,1.14566 -2.47074,2.19622"
           id="path997" />
        <path
           style="fill:none;stroke:#000000;stroke-width:1.2;stroke-linecap:butt;stroke-linejoin:miter;stroke-miterlimit:4;stroke-dasharray:none;stroke-opacity:1"
           d="m 27.452714,175.42284 c -2.985981,1.18016 -6.131479,2.095 -8.235814,4.66696 -1.766894,2.15954 -1.844954,5.90288 -2.470745,8.51034 -1.448053,6.03356 -2.690346,11.96925 -3.568852,18.11879 -0.565619,3.95934 -1.978303,7.86514 -2.470745,11.80467 -0.102152,0.81722 0.108848,1.65439 0,2.47075 -0.280543,2.10407 -1.6471623,5.59906 -1.6471623,7.68676"
           id="path999" />
        <path
           style="fill:none;stroke:#000000;stroke-width:1.2;stroke-linecap:butt;stroke-linejoin:miter;stroke-miterlimit:4;stroke-dasharray:none;stroke-opacity:1"
           d="m 129.85134,119.96836 c 2.03516,1.01758 1.92169,1.15301 4.66696,1.37263 4.64309,0.37145 9.34767,0.12604 14.00088,0.54906 6.58734,0.59885 13.17317,2.10448 19.76596,2.47074 9.3355,0.51864 18.66195,1.20241 28.00176,1.64717 3.72913,0.17757 7.53996,-0.33779 11.25562,0 1.30483,0.11862 2.53855,0.70496 3.84338,0.82358 0.63793,0.058 1.30025,-0.15536 1.92169,0 0.19851,0.0496 0.0915,0.45754 0.27452,0.54905 0.24555,0.12278 0.57272,-0.11149 0.82358,0 0.48793,0.21686 3.27443,2.28673 3.56886,2.47075 2.73674,1.71046 6.29798,3.07363 7.68676,6.31412 0.32239,0.75225 0.45275,1.45456 0.82358,2.19622"
           id="path1001" />
        <path
           style="fill:none;stroke:#000000;stroke-width:1.265;stroke-linecap:butt;stroke-linejoin:miter;stroke-miterlimit:4;stroke-dasharray:none;stroke-opacity:1"
           d="m 69.867157,130.26313 c 0.486291,-0.3242 0.925481,-0.59499 1.372635,-0.96085 1.468956,-1.20187 2.775749,-2.69569 4.392435,-3.70611 0.963769,-0.60236 1.823246,-1.36744 2.745272,-2.05896 0.896599,-0.67245 1.90523,-1.17498 2.745271,-1.92169 1.477759,-1.31356 2.750879,-2.84418 4.392433,-3.98064 8.098798,-5.60686 15.573207,-12.83732 19.628687,-21.962172 0.26325,-0.592315 0.3259,-1.189326 0.54906,-1.784427 0.21694,-0.578501 0.55631,-0.975357 0.82358,-1.509898 0.35628,-0.712557 0.4667,-1.674616 0.96084,-2.333482 0.34691,-0.462544 1.64717,-2.331767 1.64717,-2.745271"
           id="path1027" />
        <path
           style="fill:none;stroke:#000000;stroke-width:1.465;stroke-linecap:butt;stroke-linejoin:miter;stroke-miterlimit:4;stroke-dasharray:none;stroke-opacity:1"
           d="m 119.18968,95.507042 c 0.21381,-0.219306 0.61507,-0.352772 0.64142,-0.657916 0.03,-0.347935 -0.64002,-0.36549 -0.82358,-0.549053 -0.25024,-0.250235 -0.48727,-0.621794 -0.82359,-0.823582 -0.0308,-0.01847 -0.85404,-0.304985 -0.96084,-0.411792 -0.0727,-0.07274 -0.29683,-0.521785 -0.54906,-0.549052 -0.13391,-0.01447 -0.2641,0.05306 -0.39615,0.07959"
           id="path1029" />
      </g>
      <text
         xml:space="preserve"
         style="font-size:14.1111px;line-height:1.25;font-family:sans-serif;letter-spacing:0px;word-spacing:0px;white-space:pre;inline-size:0;stroke-width:0.264583"
         x="52.80064"
         y="383.58112"
         id="text1197"
         transform="translate(42.27718,2.1962171)"><tspan
           id="tspan1195"
           x="52.80064"
           y="383.58112"
           style="font-style:italic;font-variant:normal;font-weight:normal;font-stretch:normal;font-size:14.1111px;font-family:sans-serif;-inkscape-font-specification:'sans-serif Italic';stroke-width:0.264583">P C Bhattacharya 1962-67</tspan></text>
    </g>
  </g>
</svg>
