<?xml version="1.0" encoding="UTF-8" standalone="no"?>
<svg
   xmlns:dc="http://purl.org/dc/elements/1.1/"
   xmlns:cc="http://creativecommons.org/ns#"
   xmlns:rdf="http://www.w3.org/1999/02/22-rdf-syntax-ns#"
   xmlns:svg="http://www.w3.org/2000/svg"
   xmlns="http://www.w3.org/2000/svg"
   xmlns:sodipodi="http://sodipodi.sourceforge.net/DTD/sodipodi-0.dtd"
   xmlns:inkscape="http://www.inkscape.org/namespaces/inkscape"
   width="400mm"
   height="400mm"
   viewBox="0 0 400 400"
   version="1.1"
   id="svg8"
   inkscape:version="1.0.2 (e86c870879, 2021-01-15, custom)"
   sodipodi:docname="rnmalhotra.svg">
  <defs
     id="defs2" />
  <sodipodi:namedview
     id="base"
     pagecolor="#ffffff"
     bordercolor="#666666"
     borderopacity="1.0"
     inkscape:pageopacity="0.0"
     inkscape:pageshadow="2"
     inkscape:zoom="0.1172874"
     inkscape:cx="1902.1562"
     inkscape:cy="822.86268"
     inkscape:document-units="mm"
     inkscape:current-layer="layer1"
     inkscape:document-rotation="0"
     showgrid="false"
     inkscape:window-width="1920"
     inkscape:window-height="1017"
     inkscape:window-x="-8"
     inkscape:window-y="-8"
     inkscape:window-maximized="1" />
  <metadata
     id="metadata5">
    <rdf:RDF>
      <cc:Work
         rdf:about="">
        <dc:format>image/svg+xml</dc:format>
        <dc:type
           rdf:resource="http://purl.org/dc/dcmitype/StillImage" />
        <dc:title />
      </cc:Work>
    </rdf:RDF>
  </metadata>
  <g
     inkscape:label="Layer 1"
     inkscape:groupmode="layer"
     id="layer1">
    <g
       id="g1127">
      <ellipse
         style="opacity:0.435484;fill:#ffdd55;stroke:#040404;stroke-width:1.165;stroke-linecap:round;stroke-linejoin:round;stroke-miterlimit:4;stroke-dasharray:none;paint-order:markers fill stroke"
         id="path1075"
         cx="182.28603"
         cy="188.87466"
         rx="154.83331"
         ry="155.93143" />
      <g
         id="g1073"
         transform="translate(424.96801,139.45979)">
        <path
           style="fill:none;stroke:#000000;stroke-width:1.2;stroke-linecap:butt;stroke-linejoin:miter;stroke-miterlimit:4;stroke-dasharray:none;stroke-opacity:1"
           d="m -322.23921,-19.02376 c 0,-1.294133 0,-2.588267 0,-3.8824 0,-1.994789 -0.67837,-13.494479 0,-15.529601 0.14756,-0.442661 0.60319,-0.731486 0.7765,-1.16472 0.50091,-1.252267 -0.0357,-2.998787 0.38822,-4.270639 0.32774,-0.983165 0.86408,-1.815743 1.16472,-2.717681 0.18952,-0.568576 -0.14549,-1.359223 0,-1.9412 0.89757,-3.590288 2.70198,-6.941196 3.88242,-10.48248 0.12941,-0.388239 -0.25884,-0.77648 0,-1.164719 0.16049,-0.240776 0.57184,-0.183621 0.77647,-0.388239 0.3225,-0.322496 0.17664,-1.623801 0.38825,-1.941201 0.1605,-0.240776 0.61595,-0.147465 0.77647,-0.388241 0.38823,-0.582359 -0.19412,-0.679418 0,-1.16472 1.0305,-2.576245 2.26058,-5.297649 3.49417,-7.764798 1.61036,-3.220755 3.97618,-6.493209 5.04711,-9.706002 0.38296,-1.1489 2.71767,-2.618949 2.71767,-3.8824"
           id="path847" />
        <path
           style="fill:none;stroke:#000000;stroke-width:1.2;stroke-linecap:butt;stroke-linejoin:miter;stroke-miterlimit:4;stroke-dasharray:none;stroke-opacity:1"
           d="m -200.72008,-84.248082 c -2.32944,-0.129413 -4.68857,0.0044 -6.98832,-0.388239 -22.43346,-3.830103 -3.74283,-0.698902 -10.48248,-3.105919 -3.64974,-1.303481 -5.42477,-1.355133 -9.31776,-2.717681 -3.06345,-1.072208 -5.91599,-2.676988 -8.92952,-3.882398 -3.42267,-1.369068 -6.94513,-2.123324 -10.48248,-3.105923 -7.19887,-1.999684 -13.76883,-3.882398 -21.3532,-3.882398 -1.68238,0 -3.37503,-0.18579 -5.04712,0 -1.16075,0.12897 -13.58841,3.177173 -13.58841,3.494159"
           id="path849" />
        <path
           style="fill:none;stroke:#000000;stroke-width:1.2;stroke-linecap:butt;stroke-linejoin:miter;stroke-miterlimit:4;stroke-dasharray:none;stroke-opacity:1"
           d="m -200.72008,-84.248082 c -5.38932,-6.255369 -12.01479,-7.754471 -19.02376,-11.25896 -6.49187,-3.245934 -12.60328,-6.841858 -19.412,-9.317758 -3.51915,-1.27969 0.82611,-0.44216 -4.27064,-1.9412 -4.10475,-1.20728 -8.22892,-1.27887 -12.42368,-1.9412 -1.83024,-0.28899 -3.58605,-1.04914 -5.43536,-1.16472 -4.5024,-0.2814 -9.07184,0 -13.58841,0"
           id="path851" />
        <path
           style="fill:none;stroke:#000000;stroke-width:1.2;stroke-linecap:butt;stroke-linejoin:miter;stroke-miterlimit:4;stroke-dasharray:none;stroke-opacity:1"
           d="m -205.37896,-99.777681 c -12.78256,-4.478509 -25.88357,-10.177529 -39.60048,-11.647199 -4.53111,-0.48548 -9.04603,-0.38824 -13.5884,-0.38824"
           id="path853" />
        <path
           style="fill:none;stroke:#000000;stroke-width:1.2;stroke-linecap:butt;stroke-linejoin:miter;stroke-miterlimit:4;stroke-dasharray:none;stroke-opacity:1"
           d="m -322.23921,-19.02376 c -1.55295,-1.811786 -3.16818,-3.572001 -4.65887,-5.43536 -0.68021,-0.85027 0.34341,-7.989012 0,-9.705999 -0.20558,-1.02788 -0.95173,-2.0409 -1.16472,-3.105922 -1.53918,-7.695949 -4.1275,-15.815863 -0.38825,-23.294398 0.41924,-0.838441 0.19984,-2.240934 0.77648,-3.10592 0.87608,-1.314127 6.37788,-5.379191 6.98833,-6.600082 1.32093,-2.641871 -0.85498,0.513845 1.16472,-2.717681 0.5357,-0.857112 1.48918,-1.425395 1.9412,-2.329439 0.93207,-1.864143 1.471,-4.04264 2.71769,-5.823601 0.41982,-0.599736 1.16496,-0.932161 1.55295,-1.552958 0.28281,-0.45248 0.14962,-1.075709 0.38825,-1.552962 1.197,-2.39401 2.9288,-5.213974 4.65886,-7.376559 0.96141,-1.201745 2.18564,-2.267127 3.10592,-3.494159 0.68185,-0.909127 0.93104,-2.235202 1.55297,-3.10592 0.63825,-0.893569 1.83835,-1.347263 2.32944,-2.32944 0.34185,-0.6838 -0.03,-0.74647 0.38825,-1.16472 2.72902,-2.72902 7.49128,-4.57242 10.8707,-6.60008 1.86563,-1.11937 3.1047,-2.3287 5.04714,-3.49416 3.1724,-1.90345 7.32798,-2.43134 10.87072,-3.49416 1.96173,-0.58852 3.80071,-1.95015 5.82359,-2.32944 11.14281,-2.08928 22.50564,-1.46806 33.77688,-1.55296 1.90029,1.86005 4.41177,2.56941 6.60008,3.8824 2.91897,1.75138 5.37394,3.68969 8.54128,5.04712 8.00818,3.43207 21.47194,7.36056 26.40032,14.753118 0.57519,0.862786 1.48363,0.866604 1.9412,1.55296 3.3838,5.075701 7.42116,9.784059 10.48248,15.141361 0.25299,0.442734 0.26009,1.428618 0.38824,1.9412 0.27859,1.114354 0.95958,1.827609 1.55296,2.71768 0.98728,1.480921 0.62598,4.2074 1.16472,5.8236 1.80428,5.412837 3.12569,10.410591 3.49416,16.30608 0.13999,2.239892 -0.56268,5.514081 0,7.7648 1.19668,4.786746 1.16472,9.997483 1.16472,15.14136 0,0.474409 -0.27904,2.050406 0,2.329441 0.51765,0.517653 0.38824,-0.647067 0.38824,0.38824"
           id="path855" />
        <path
           style="fill:none;stroke:#000000;stroke-width:1.2;stroke-linecap:butt;stroke-linejoin:miter;stroke-miterlimit:4;stroke-dasharray:none;stroke-opacity:1"
           d="m -201.8848,-71.047921 c 2.19387,2.624441 2.96045,5.872408 4.27064,8.92952 2.45404,5.726086 2.51676,7.696788 3.10592,13.5884 0.28786,2.878634 -0.16737,5.76322 0.38824,8.541281 0.15999,0.799973 -0.22403,1.933591 0,2.717679 0.95721,3.350236 2.58406,6.288307 3.8824,9.317762 1.32893,3.100839 1.73807,6.841716 2.32944,10.094239 0.35409,1.947506 0.96715,3.847949 1.16472,5.8236 0.1619,1.618977 0.14631,7.3765599 2.32944,7.3765599"
           id="path857" />
        <path
           style="fill:none;stroke:#000000;stroke-width:1.2;stroke-linecap:butt;stroke-linejoin:miter;stroke-miterlimit:4;stroke-dasharray:none;stroke-opacity:1"
           d="m -180.5316,-19.02376 c 0.42057,-2.651479 2.45113,-5.107963 4.65888,-6.21184 0.5835,-0.291748 1.27923,-1.416096 1.55296,-1.552959 0.34725,-0.173628 0.89019,0.274526 1.16472,0 1.02593,-1.025936 5.41303,-0.41057 6.60008,0.776479 0.57056,0.570555 1.71943,1.719433 2.32944,2.32944 0.89624,0.896244 0.99345,2.763371 1.55296,3.8824 1.66264,3.325286 1.11109,12.9191846 -0.38824,15.91784 -0.2086,0.4171939 0.14973,1.1037726 0,1.55296 -0.52315,1.56944076 -1.33765,3.04940701 -1.9412,4.65888 -1.07057,2.8548648 -1.01531,6.1518482 -1.9412,8.92952 -0.73976,2.219268 -0.0741,-2.3470328 -0.77648,1.16472 -0.87688,4.384408 -1.03577,9.061243 -1.9412,13.5884 -0.27376,1.368794 0.27376,2.901846 0,4.270641 -0.40953,2.047645 -0.51089,3.862099 -1.16472,5.823598 -1.57658,4.729729 -8.92952,11.147851 -8.92952,2.717681"
           id="path859" />
        <path
           style="fill:none;stroke:#000000;stroke-width:1.2;stroke-linecap:butt;stroke-linejoin:miter;stroke-miterlimit:4;stroke-dasharray:none;stroke-opacity:1"
           d="m -322.23921,-19.02376 c 0.25598,1.033729 0.61515,2.047252 0.76792,3.101186 0.48096,3.317804 -0.41595,6.829748 0,10.1575041 0.87255,6.980342 -0.50064,14.1619701 0.27454,21.1385899 0.15888,1.429982 0.62288,2.713056 0.82359,4.117907 0.15309,1.071763 -0.17798,2.226462 0,3.294326 0.27498,1.649948 0.34084,3.275802 0.54904,4.941487 0.0718,0.574286 0.45392,1.076286 0.54906,1.647164 0.10531,0.631849 -0.1053,1.289841 0,1.92169 0.0336,0.201837 0.18301,0.366035 0.27453,0.549055 0.0915,0.274526 0.2336,0.537112 0.27453,0.823579 0.10354,0.724715 -0.0908,1.4698 0,2.196219 0.0945,0.756105 0.64665,2.126041 0.82357,2.745272 0.12571,0.439941 -0.0505,0.917887 0,1.372634 0.18802,1.692085 0.8903,3.278987 1.0981,4.941488 0.14947,1.195605 0.142,2.375985 0.27453,3.568854 0.15918,1.432478 0.82524,2.753489 1.09813,4.117906 0.2272,1.136004 -0.16375,2.422699 0,3.568853 0.52578,3.680632 1.00589,7.410135 2.1962,10.981087 0.17804,0.534114 2.35437,5.374174 2.74527,5.765069 0.1447,0.144688 0.43555,0.104273 0.54906,0.274527 0.10152,0.152281 -0.1098,0.40264 0,0.549055 0.77764,1.036863 3.00146,2.72083 3.84339,3.84338 0.59097,0.787969 2.24615,3.876672 3.01979,4.392433 0.15227,0.10152 0.41963,-0.129413 0.54904,0 0.12944,0.129415 -0.068,0.379126 0,0.549055 0.12256,0.306342 0.33785,0.570113 0.54906,0.823582 0.81976,0.983705 1.5943,1.868823 2.47076,2.745271 1.1035,1.103503 1.6986,2.896804 2.74527,4.117906 1.6927,1.974827 3.66535,3.697531 5.21602,5.76507 0.44759,0.596818 1.2642,1.008925 1.64716,1.647164 0.9515,1.585846 2.18104,3.395037 3.84337,4.392437 1.04105,0.62463 2.67874,1.1397 3.84339,1.37263 0.70392,0.14078 1.4923,-0.14078 2.1962,0 1.02108,0.20422 0.75205,0.45159 1.92169,0.54906 1.36192,0.11349 3.00773,-0.23079 4.39246,0 5.49137,0.91523 10.75127,1.37263 16.47161,1.37263 0.88396,0 2.64314,0.30857 3.56885,0 2.2758,-0.7586 5.14682,-1.33803 7.41224,-2.47074 0.40924,-0.20462 0.68886,-0.61896 1.0981,-0.82358 0.67494,-0.33747 1.52129,-0.21159 2.19622,-0.54906 0.2315,-0.11575 0.36604,-0.36603 0.54906,-0.549053 0.45754,-0.274526 0.87302,-0.636225 1.37263,-0.823579 0.25705,-0.09639 0.56869,0.101954 0.82358,0 0.24032,-0.09613 0.31756,-0.433306 0.54906,-0.549055 0.51765,-0.258826 1.14124,-0.267986 1.64716,-0.549056 0.89399,-0.49666 1.40132,-1.290688 2.47074,-1.647161 2.27805,-0.759349 4.79659,-1.779839 6.86318,-3.019798 0.94169,-0.565015 1.73579,-1.371063 2.74528,-1.921692 1.6086,-0.877419 3.37067,-1.528255 4.94148,-2.470743 1.35279,-0.811673 2.66006,-1.822812 4.11791,-2.470745 2.79057,-1.240253 5.66492,-2.071325 8.51034,-3.019798 2.00805,-0.669348 0.2274,-0.533345 1.92169,-1.098108 0.52807,-0.176022 1.12598,-0.07908 1.64717,-0.274527 0.24234,-0.09088 0.33369,-0.405484 0.54905,-0.549055 1.38638,-0.924256 2.90902,-1.536922 4.39243,-2.196216 1.60085,-0.711489 0.0558,-0.378029 1.64717,-1.372638 1.83734,-1.148339 3.91766,-2.062718 5.76507,-3.294324 0.67045,-0.446968 0.97033,-1.35767 1.64716,-1.92169 1.37643,-1.147029 2.59378,-2.319255 3.84338,-3.568853 0.51248,-0.512477 0.74766,-1.85746 1.09811,-2.470746 0.68287,-1.19503 1.85678,-2.211101 2.19621,-3.56885 0.52472,-2.098874 0.82359,-4.762651 0.82359,-6.863181"
           id="path861" />
        <path
           style="fill:none;stroke:#000000;stroke-width:1.2;stroke-linecap:butt;stroke-linejoin:miter;stroke-miterlimit:4;stroke-dasharray:none;stroke-opacity:1"
           d="m -322.23921,-19.02376 c -2.04547,4.060007 -0.60164,3.821436 -3.6245,4.199295 -1.08527,0.135659 -1.29223,0.649449 -2.19623,1.372635 -0.99478,0.795841 -2.55106,2.122522 -3.0198,3.294326 -0.412,1.0300094 -0.27453,6.0061122 -0.27453,7.4122326 0,1.3343071 -0.14663,2.79813867 0,4.1179071 0.45773,4.1195319 2.31497,8.4362528 3.29433,12.3537213 0.08,0.320089 0.46905,0.503492 0.54906,0.823581 0.32359,1.294314 0.78082,2.574237 1.0981,3.84338 0.0993,0.397084 0.6998,0.602953 0.8236,1.098109 0.18036,0.721454 0.22503,1.548193 0.54904,2.196217 0.57126,1.142516 -0.019,-0.293479 0.54906,0.274527 0.12941,0.129413 -0.0818,0.385358 0,0.549054 0.52424,1.048487 2.23052,1.887393 3.01979,1.098109 0.29337,-0.293367 0.54907,0.390259 0.54907,-0.274527"
           id="path865" />
        <path
           style="fill:none;stroke:#000000;stroke-width:1.2;stroke-linecap:butt;stroke-linejoin:miter;stroke-miterlimit:4;stroke-dasharray:none;stroke-opacity:1"
           d="m -289.62614,99.927877 c -0.30999,2.144163 0.31623,4.218553 0.54906,6.314123 0.0606,0.5457 -0.24553,1.15608 0,1.64717 1.26008,2.52015 3.14,3.41453 4.94149,5.21601 0.97081,0.9708 1.70654,2.40398 2.74527,3.29433 0.31072,0.26633 0.78372,0.28706 1.09812,0.54905 1.61674,1.3473 3.06443,3.55603 4.39243,5.21602 1.10411,1.38015 2.00739,2.94616 3.01979,4.39243 1.39539,1.9934 3.07986,3.79621 4.39243,5.76507 0.98735,1.481 0.0855,-0.18908 1.09813,0.82358 0.51684,0.51686 0.85577,1.40483 1.37263,1.92169 0.77772,0.77773 1.94791,1.39886 2.74526,2.19622 0.65243,0.65242 1.59568,1.69177 2.74528,1.92169 2.17746,0.43549 4.77947,-0.25138 6.86317,-0.54906 0.56262,0.11746 0.88655,-0.46804 1.37264,-0.54905 0.36106,-0.0602 0.77072,0.1637 1.09811,0 0.393,-0.1965 1.76032,-1.8693 2.19622,-2.19622 0.99677,-0.74758 2.25887,-1.36785 3.29432,-2.19621 1.20476,-0.96381 2.12248,-2.28989 3.29433,-3.29433 1.51755,-1.30076 3.41578,-1.95933 4.94148,-3.29433 2.7451,-2.40195 5.04417,-5.47306 7.41224,-8.23581 1.35243,-1.57784 0.2239,-0.15993 1.92169,-1.37263 1.62559,-1.16114 2.91549,-3.06319 4.39243,-4.39244 2.10004,-1.89004 4.31314,-3.76408 6.31413,-5.76507 1.04766,-0.50837 1.22371,-1.69522 1.92169,-2.47074 3.16482,-3.51648 6.21412,-7.141072 9.33392,-10.706563 1.62283,-1.85466 3.64029,-2.850557 5.49054,-4.392432 2.17808,-1.815068 4.31858,-3.787987 6.58865,-5.490543 0.74886,-0.561645 1.72032,-0.772298 2.47075,-1.372635 3.18844,-2.550755 4.55833,-6.262775 5.76507,-9.882978 0.29707,-0.891215 1.92169,-4.308266 1.92169,-4.666962"
           id="path867" />
        <path
           style="fill:none;stroke:#000000;stroke-width:1.2;stroke-linecap:butt;stroke-linejoin:miter;stroke-miterlimit:4;stroke-dasharray:none;stroke-opacity:1"
           d="m -289.07708,110.90896 c 0,1.53109 0.0351,3.61455 -0.27453,4.94149 -0.37486,1.60655 -1.20049,3.07888 -1.64716,4.66696 -0.61151,2.17427 -1.23712,7.00912 -1.64717,9.0594 -0.33525,1.67633 -0.98822,3.27574 -1.37263,4.94149 -1.89645,8.21797 -0.1301,0.78055 -1.0981,6.58865 -0.39153,2.34913 -1.3363,6.17884 -1.64716,8.51034 -0.59079,4.4308 -0.83564,7.87316 -3.0198,11.80467 -1.00663,1.81192 -1.90677,3.7415 -3.01979,5.49054 -0.54978,0.86392 -1.73564,2.25799 -2.19623,3.29433 -1.27077,2.85921 -1.35133,5.82779 -2.19623,8.78486 -0.52689,1.84419 -1.14313,3.64245 -1.64716,5.49055 -0.4848,1.77762 -1.64716,3.37653 -1.64716,5.21601 0,0.54906 -0.54904,1.64717 0,1.64717 1.04317,0 6.83918,-5.15349 7.68678,-6.0396 2.99452,-3.13065 2.76553,-3.41746 5.21599,-6.58865 0.17547,-0.22705 4.3951,-5.33784 4.66696,-5.76507 0.65916,-1.03578 1.05095,-2.2211 1.64716,-3.29433 1.12205,-2.01964 1.07916,-1.38088 2.47076,-3.29432 1.35292,-1.86027 2.49852,-3.88227 3.84339,-5.76507 1.1479,-1.60707 0.63246,-1.58843 2.1962,-3.29433 0.48295,-0.52685 1.14179,-0.86726 1.64717,-1.37263 1.77347,-1.77347 3.43971,-3.71426 5.21602,-5.49055 1.0863,-1.08631 2.21173,-2.21173 3.29433,-3.29432 0.82698,-0.82698 0.99361,-2.04923 1.92169,-2.74528 0.99706,-0.7478 2.22594,-1.55519 3.29433,-2.19621 0.92109,-0.55266 3.80782,-1.26928 4.94148,-1.64717 0.26044,-0.0868 0.57803,0.12278 0.82358,0 0.25882,-0.12941 0.61896,-0.0699 0.82358,-0.27452 0.15991,-0.15991 0.16676,-1.26146 0.82358,-0.82358 2.08094,1.38729 5.1424,5.05535 6.58865,6.86317 2.51663,3.14579 3.88473,7.36801 5.49054,10.98109 0.89922,2.02324 1.99937,3.92622 2.74527,6.0396 0.88594,2.51014 1.38649,5.24716 2.47075,7.68676 1.34111,3.01749 2.91356,6.10164 4.39243,9.05939 0.23863,0.47726 0.65485,0.86644 0.82358,1.37264 0.11576,0.34725 -0.14418,0.76167 0,1.09811 0.15294,0.35685 0.6794,0.46311 0.82359,0.82358 0.24031,0.60078 0.10427,1.29742 0.27452,1.92169 0.42005,1.54018 1.46964,3.21379 2.19622,4.66696 0.89432,1.78864 1.30612,4.19288 1.92169,6.0396 0.47785,1.43355 1.01065,2.66997 1.37264,4.1179 0.16157,0.64631 -0.11715,1.92169 0.54905,1.92169 0.0915,0 -0.0222,-0.18575 0,-0.27452 0.16158,-0.64631 0.39925,-1.27256 0.54905,-1.92169 0.39953,-1.73129 0.72067,-3.47979 1.09811,-5.21602 0.68013,-3.12858 1.64672,-6.17426 2.19622,-9.33392 0.14198,-0.8164 0.0847,-1.66412 0.27453,-2.47075 0.81229,-3.45222 1.6692,-5.27204 1.92169,-9.05939 0.14734,-2.2102 0.74379,-4.1882 1.09811,-6.31413 0.0903,-0.54158 -0.0777,-1.10362 0,-1.64716 0.30329,-2.12303 1.03276,-4.26613 1.64716,-6.31412 2.26987,-7.56625 4.71865,-15.01075 8.51034,-21.96217 0.98677,-1.80908 2.49902,-3.43296 3.56885,-5.21602 3.88871,-6.48118 7.92837,-12.88818 11.53014,-19.49143 0.82538,-1.51318 1.91806,-2.90344 2.74527,-4.39243 1.11511,-2.0072 1.92111,-4.1713 2.74528,-6.31412 0.27452,-0.64057 0.54905,-1.28113 0.82358,-1.92169 0.18302,-0.274533 0.41505,-0.522082 0.54905,-0.823586 1.81017,-4.072882 3.25557,-8.394073 4.66696,-12.628247 1.55771,-4.673124 2.81395,-9.643023 3.56886,-14.54994 0.75865,-4.931246 -0.28444,0.304249 0.82358,-3.019798 0.17362,-0.520877 -0.0681,-1.10235 0,-1.647164 0.12723,-1.017844 0.68912,-2.336284 0.27452,-1.92169 -0.82864,0.828652 -1.46414,1.830181 -2.19621,2.745272"
           id="path869" />
        <path
           style="fill:none;stroke:#000000;stroke-width:1.2;stroke-linecap:butt;stroke-linejoin:miter;stroke-miterlimit:4;stroke-dasharray:none;stroke-opacity:1"
           d="m -292.64594,105.96748 c -1.51431,3.42456 -3.33322,6.81293 -5.49052,9.88297 -1.36412,1.94123 -8.29342,11.03271 -9.88299,12.90278 -4.02222,4.73202 -8.67359,8.92426 -12.62824,13.72635 -6.15458,7.4734 -12.05934,15.77938 -20.04049,21.41312 -2.36837,1.67179 -4.99473,3.05529 -7.41223,4.66696 -1.68894,1.12596 -3.25445,2.44416 -4.94149,3.56886 -0.44397,0.29598 -0.90934,0.55884 -1.37263,0.82358 -0.25125,0.14357 -0.82359,-0.0148 -0.82359,0.27452 0,0.84368 1.29114,1.08666 1.92169,1.64717 1.1607,1.03173 2.19623,2.19621 3.29433,3.29432 4.36882,4.36882 8.6452,8.91974 12.90277,13.17731"
           id="path871" />
        <path
           style="fill:none;stroke:#000000;stroke-width:1.2;stroke-linecap:butt;stroke-linejoin:miter;stroke-miterlimit:4;stroke-dasharray:none;stroke-opacity:1"
           d="m -319.00053,183.1096 c -8.05944,3.15495 -15.9123,6.80105 -23.88386,10.15751 -0.72059,0.3034 -1.46415,0.54905 -2.19622,0.82358 -1.18962,0.36603 -2.41686,0.62684 -3.56886,1.09811 -8.73154,3.57199 1.95826,-0.1037 -4.1179,1.92169 -1.50238,0.50079 -3.68257,1.42809 -5.21602,1.64716 -0.45294,0.0647 -0.93858,-0.14469 -1.37263,0 -0.12277,0.0409 -0.24315,0.14897 -0.27453,0.27452 -0.22193,0.88777 0,1.83019 0,2.74528 0,2.871 0.36152,6.16726 0,9.05939 -0.16846,1.34772 -1.0981,2.33922 -1.0981,3.84338"
           id="path873" />
        <path
           style="fill:none;stroke:#000000;stroke-width:1.2;stroke-linecap:butt;stroke-linejoin:miter;stroke-miterlimit:4;stroke-dasharray:none;stroke-opacity:1"
           d="m -376.65122,148.79371 c 5.91222,-4.06451 12.41993,-7.63719 18.94236,-10.70656 3.84585,-1.80981 7.7719,-3.50088 11.53015,-5.49054 1.90754,-1.00988 3.77322,-2.14837 5.76506,-3.0198 2.28698,-1.00055 4.86148,-1.48108 7.13771,-2.47075 1.23905,-0.53872 2.3421,-1.35549 3.56884,-1.92169 2.23718,-1.03254 4.56985,-1.84432 6.86318,-2.74527 8.92088,-3.50462 1.94181,-0.21244 5.49056,-2.47074 3.58793,-2.28323 7.68408,-3.74234 11.53014,-5.49054 1.29963,-0.59076 2.52624,-1.37289 3.84336,-1.92169 2.50114,-1.04214 5.06323,-1.64955 7.41225,-3.0198 0.0711,-0.0415 4.27678,-2.66583 3.56884,-3.0198 -0.51766,-0.25882 -1.0981,-0.36603 -1.64717,-0.54905"
           id="path875" />
        <path
           style="fill:none;stroke:#000000;stroke-width:1.2;stroke-linecap:butt;stroke-linejoin:miter;stroke-miterlimit:4;stroke-dasharray:none;stroke-opacity:1"
           d="m -183.93318,68.357257 c 2.0132,-0.183018 4.08635,-1.069919 6.03959,-0.549053 1.2163,0.324345 6.0614,8.995651 7.68676,10.706558 5.1855,5.458412 0.90362,-0.194495 5.49055,4.392435 1.31148,1.311481 2.25737,3.080949 3.56885,4.392433 1.20395,1.203952 0.52281,-0.201454 1.64716,1.372637 1.19043,1.6666 1.48483,3.715885 2.47075,5.49054 0.31888,0.573993 2.71451,4.269402 2.74527,4.392436 1.2689,5.075607 -0.13126,10.903237 -0.82358,15.922577 -0.57462,4.166 -0.69483,14.3304 -0.27453,18.39331 0.1553,1.5012 0.82813,2.90758 1.09811,4.39244 0.26395,1.45174 0.27713,2.94217 0.54905,4.39243 0.55845,2.97837 1.51988,6.04577 1.92169,9.0594 0.0968,0.72565 -0.0487,1.46576 0,2.19621 0.1605,2.40746 0.87968,4.73496 1.09811,7.13771 0.0828,0.91134 -0.15044,1.84263 0,2.74527 0.32072,1.92433 0.79851,3.81769 1.09811,5.76507 0.93319,6.06576 -0.68891,-5.04509 1.09811,3.29433 0.13422,0.62634 0,1.28113 0,1.92169 0.27453,0.91509 0.56112,1.82665 0.82358,2.74527 0.27249,0.95373 0.73413,1.82915 0.54905,1.92169 -4.28124,2.14062 -9.09491,3.26784 -12.90277,6.31412 -2.00248,1.60199 -0.63839,1.051 -2.47075,2.19622 -2.33135,1.4571 -5.16591,2.9697 -7.1377,4.94149 -0.8256,0.8256 -2.61951,2.74527 -3.84338,2.74527"
           id="path877" />
        <path
           style="fill:none;stroke:#000000;stroke-width:1.2;stroke-linecap:butt;stroke-linejoin:miter;stroke-miterlimit:4;stroke-dasharray:none;stroke-opacity:1"
           d="m -189.1492,171.57946 c 3.65961,5.90363 8.69811,10.85656 12.35372,16.74616 2.72225,4.38583 3.99297,7.13751 7.13771,10.98108 0.48813,0.59661 2.32411,2.87316 3.0198,3.56885 1.18851,1.18852 2.95587,2.1323 4.1179,3.29433 0.12942,0.12941 0.12488,0.41526 0,0.54905 -2.07554,2.2238 -4.11374,4.4883 -6.31412,6.58866 -1.12724,1.076 -2.46694,1.91788 -3.56885,3.01979 -1.27464,1.27464 -3.8111,4.74504 -4.66696,6.31413 -0.47195,0.86524 -0.63431,1.87564 -1.09811,2.74527 -0.59025,1.10672 -1.39368,1.68924 -1.92169,2.74527"
           id="path879" />
        <path
           style="fill:none;stroke:#000000;stroke-width:1.2;stroke-linecap:butt;stroke-linejoin:miter;stroke-miterlimit:4;stroke-dasharray:none;stroke-opacity:1"
           d="m -153.18614,101.57504 c 4.0506,1.1417 8.11947,2.42919 12.07919,3.84338 6.63268,2.36881 12.89463,5.73973 19.49143,8.23582 2.93875,1.11196 6.16527,1.58762 9.05939,2.74527 3.50374,1.40149 6.92857,2.94983 10.43203,4.39243 2.983774,1.22861 6.404408,1.66771 9.333927,3.0198 0.599146,0.27653 1.056947,0.803 1.647164,1.09811 2.964338,1.48217 8.235812,3.05061 8.235812,7.1377"
           id="path881" />
        <path
           style="fill:none;stroke:#000000;stroke-width:1.2;stroke-linecap:butt;stroke-linejoin:miter;stroke-miterlimit:4;stroke-dasharray:none;stroke-opacity:1"
           d="m -313.11556,-12.81192 c 0.3565,-1.047977 1.06005,-1.38047 1.9412,-1.9412 2.84781,-1.812253 3.7003,-1.231432 6.7942,-1.74708 2.69775,-0.449626 0.11565,-0.38824 1.74707,-0.38824"
           id="path883" />
        <path
           style="fill:none;stroke:#000000;stroke-width:1.2;stroke-linecap:butt;stroke-linejoin:miter;stroke-miterlimit:4;stroke-dasharray:none;stroke-opacity:1"
           d="m -302.63309,-16.88844 c 0.84119,-0.38824 1.6223,-0.950133 2.52357,-1.16472 0.12965,-0.03087 2.68304,0.367444 2.9118,0.38824 2.29039,0.208218 4.68812,0 6.98833,0 1.03783,0 2.73267,0.179106 3.49414,-0.58236"
           id="path885" />
        <path
           style="fill:none;stroke:#000000;stroke-width:1.2;stroke-linecap:butt;stroke-linejoin:miter;stroke-miterlimit:4;stroke-dasharray:none;stroke-opacity:1"
           d="m -286.71525,-18.24728 c -0.58235,-0.323533 -1.42354,-1.552958 -1.74707,-0.9706 -0.32353,0.582358 1.14337,0.688876 1.74707,0.9706 2.15966,1.007837 4.08363,1.16472 6.40596,1.16472"
           id="path887" />
        <path
           style="fill:none;stroke:#000000;stroke-width:1.2;stroke-linecap:butt;stroke-linejoin:miter;stroke-miterlimit:4;stroke-dasharray:none;stroke-opacity:1"
           d="m -280.30929,-17.08256 c -0.51766,-0.905893 -0.8659,-1.932469 -1.55295,-2.71768 -0.53752,-0.614319 -1.81938,-0.300691 -2.52356,-0.58236 -1.89688,-0.758755 -3.88999,-1.263679 -5.82359,-1.74708 -0.66646,-0.166614 -1.48225,-0.03085 -2.13532,-0.19412 -0.22635,-0.05658 -0.36793,-0.296337 -0.58237,-0.38824 -0.52316,-0.224213 -6.03581,-1.543913 -6.40596,-1.35884 -2.2011,1.100555 -4.52067,2.131547 -6.79421,3.10592 -0.64971,0.278457 -1.50389,0.266657 -2.13532,0.58236 -0.1637,0.08185 -0.22453,0.306392 -0.38822,0.38824 -0.28187,0.140921 -1.52244,0.306551 -1.7471,0.38824 -0.9311,0.338583 -2.30645,0.825862 -3.10592,1.35884 -0.40441,0.269611 -0.52573,0.72795 -0.9706,0.9706 -1.10931,0.60508 -1.05912,0.58236 -1.74707,0.58236"
           id="path889" />
        <path
           style="fill:none;stroke:#000000;stroke-width:1.2;stroke-linecap:butt;stroke-linejoin:miter;stroke-miterlimit:4;stroke-dasharray:none;stroke-opacity:1"
           d="m -304.57428,-3.49416 c 3.95801,-1.6938556 7.2979,-4.2160827 11.45307,-5.0471201 1.89791,-0.3795818 4.06382,0.1424104 5.82361,0.5823601 0.28073,0.070184 0.49271,0.3314885 0.77648,0.38824 0.9979,0.1995795 2.13129,0.063368 3.10591,0.3882401 0.22133,0.073777 0.3737,0.2839034 0.58238,0.3882398 0.38822,0.19412 0,-0.3882398 0.58235,0 0.12038,0.080259 0.0701,0.3137984 0.19412,0.38824 0.548,0.3287982 1.51162,0.374464 2.13532,0.5823601 1.29466,0.4315518 2.46817,0.8180657 3.88239,0.5823601 0.34372,-0.057286 0.6269,-0.3309544 0.9706,-0.3882401 0.34015,-0.05669 0.97062,0.2248871 0.97062,-0.19412"
           id="path891" />
        <path
           style="fill:none;stroke:#000000;stroke-width:1.2;stroke-linecap:butt;stroke-linejoin:miter;stroke-miterlimit:4;stroke-dasharray:none;stroke-opacity:1"
           d="m -302.43896,0.38824 c 1.81996,1.3824431 4.1098,2.4306602 6.40596,2.7176799 1.27423,0.1592781 2.60818,-0.1592778 3.88239,0 1.25539,0.1569244 2.8027,0.4257267 4.07654,0.19412 1.55736,-0.2831608 3.00207,-1.308275 4.46474,-1.7470799 0.62434,-0.1872959 1.5417,-0.1507863 2.13532,-0.38824 0.89675,-0.35869879 3.88241,-2.2307004 3.88241,-3.30004"
           id="path893" />
        <path
           style="fill:#333333;stroke:#000000;stroke-width:1.2;stroke-linecap:butt;stroke-linejoin:miter;stroke-miterlimit:4;stroke-dasharray:none;stroke-opacity:1"
           d="m -296.42125,-7.1824399 c -0.26284,1.3943994 0.38825,2.572786 0.38825,3.8824 0,0.8893971 0.86807,2.0669635 1.55297,2.5235599 0.58343,0.38896594 0.94642,1.05557869 1.55295,1.35884 0.1566,0.078308 1.03677,0.26029078 1.16472,0.38824 0.0457,0.0457545 -0.0628,0.1784263 0,0.19412 2.7087,0.6771771 4.61714,-0.92886148 6.21183,-2.52356 0.29544,-0.2954378 0.66207,-2.0659295 0.77648,-2.52356 0.11324,-0.4528831 0.59078,-3.0046475 0,-3.3000399 -1.05101,-0.5255128 -2.34241,-0.3580485 -3.68827,-0.5823601 -1.03539,-0.1725652 -0.83156,-0.3418919 -1.55297,-0.5823601 -0.34941,-0.116472 -0.81529,0.116472 -1.16472,0 -2.02991,-0.6766398 -3.67126,-0.012766 -5.24124,1.1647202 z"
           id="path895" />
        <path
           style="fill:none;stroke:#000000;stroke-width:1.2;stroke-linecap:butt;stroke-linejoin:miter;stroke-miterlimit:4;stroke-dasharray:none;stroke-opacity:1"
           d="m -276.81512,3.1059199 c -3.66551,3.7864375 -7.45985,7.1732511 -11.84132,10.0942401 -1.02503,0.683341 -1.958,1.364441 -3.10592,1.74708 -1.98467,0.661557 -4.52319,0.19412 -6.60009,0.19412"
           id="path901" />
        <path
           style="fill:none;stroke:#000000;stroke-width:1.2;stroke-linecap:butt;stroke-linejoin:miter;stroke-miterlimit:4;stroke-dasharray:none;stroke-opacity:1"
           d="m -280.30929,-17.08256 c 1.92712,-0.89051 3.25612,0.77648 5.04714,0.77648"
           id="path903" />
        <path
           style="fill:none;stroke:#000000;stroke-width:1.2;stroke-linecap:butt;stroke-linejoin:miter;stroke-miterlimit:4;stroke-dasharray:none;stroke-opacity:1"
           d="m -283.02696,-20.18848 c 1.57105,0.750751 2.70899,3.080568 4.46477,3.30004 1.51042,0.188803 1.83279,-0.151254 3.30004,0.58236"
           id="path905" />
        <path
           style="fill:none;stroke:#000000;stroke-width:1.2;stroke-linecap:butt;stroke-linejoin:miter;stroke-miterlimit:4;stroke-dasharray:none;stroke-opacity:1"
           d="m -258.37372,-28.72976 c 0.63262,1.789809 0.4707,7.7648 2.52356,7.7648"
           id="path909" />
        <path
           style="fill:none;stroke:#000000;stroke-width:1.2;stroke-linecap:butt;stroke-linejoin:miter;stroke-miterlimit:4;stroke-dasharray:none;stroke-opacity:1"
           d="m -228.091,-26.40032 c -0.38824,0.647067 -1.08139,1.191212 -1.16472,1.9412 -0.0299,0.268673 0.9681,-0.261899 2.71768,-0.77648 1.60193,-0.471157 3.72642,-0.924147 5.43536,-0.58236 1.30213,0.260426 2.62749,0.612053 3.8824,0.9706 0.27824,0.0795 0.49272,0.331488 0.77648,0.38824 0.3807,0.07614 0.78038,-0.05491 1.16472,0 2.08258,0.297511 4.41364,1.056397 6.21184,2.13532 0.51155,0.306931 0.85295,0.848541 1.35884,1.16472 0.27473,0.171707 1.11495,0.283716 1.35884,0.38824 1.361,0.583287 1.565,2.025502 1.74708,3.30004 0.0618,0.432332 0.38824,0.741698 0.38824,1.16472"
           id="path915" />
        <path
           style="fill:none;stroke:#000000;stroke-width:1.2;stroke-linecap:butt;stroke-linejoin:miter;stroke-miterlimit:4;stroke-dasharray:none;stroke-opacity:1"
           d="m -249.83244,-15.33548 c 0.96396,1.453273 1.28575,1.813882 3.10592,1.35884 1.37994,-0.344986 1.85186,-0.534442 2.9118,-1.35884 0.6376,-0.495912 0.89535,-1.199075 1.55296,-1.74708 0.75632,-0.630267 1.61395,-1.031586 2.32944,-1.74708"
           id="path917" />
        <path
           style="fill:none;stroke:#000000;stroke-width:1.2;stroke-linecap:butt;stroke-linejoin:miter;stroke-miterlimit:4;stroke-dasharray:none;stroke-opacity:1"
           d="m -239.93232,-18.82964 c -0.0647,-0.06471 -0.28471,-0.181179 -0.19412,-0.19412 0.96298,-0.137569 1.94797,-0.06269 2.9118,-0.19412 1.542,-0.210273 3.0703,-0.77648 4.65888,-0.77648"
           id="path919" />
        <path
           style="fill:none;stroke:#000000;stroke-width:1.2;stroke-linecap:butt;stroke-linejoin:miter;stroke-miterlimit:4;stroke-dasharray:none;stroke-opacity:1"
           d="m -239.93232,-18.82964 c 1.55296,0.517653 3.0609,1.197853 4.65888,1.55296 0.29014,0.06447 5.44793,-3.015144 6.40596,-3.49416 1.39266,-0.69633 9.17906,-0.576202 10.87072,-0.38824 2.09829,0.233143 4.20062,-0.02801 6.21184,0.77648 1.67417,0.669669 5.74568,4.68485 7.57068,4.07652"
           id="path921" />
        <path
           style="fill:none;stroke:#000000;stroke-width:1.2;stroke-linecap:butt;stroke-linejoin:miter;stroke-miterlimit:4;stroke-dasharray:none;stroke-opacity:1"
           d="m -247.30888,-6.01772 c 7.49956,-3.1387471 13.70729,-6.133587 21.93556,-4.07652 0.4263,0.1065757 0.93254,-0.106576 1.35884,0 1.09957,0.2748928 3.56261,1.0116745 4.46476,1.5529599 1.09138,0.6548318 2.06659,1.0541965 3.10592,1.74708 0.77094,0.5139602 2.25533,3.1059201 2.9118,3.1059201"
           id="path923" />
        <path
           style="fill:none;stroke:#000000;stroke-width:1.2;stroke-linecap:butt;stroke-linejoin:miter;stroke-miterlimit:4;stroke-dasharray:none;stroke-opacity:1"
           d="m -244.00884,-3.49416 c 4.63552,1.9231381 11.18633,3.83731325 16.30608,3.10592 0.75385,-0.10769301 2.06291,-0.38361694 2.71768,-0.77648 0.53729,-0.3223747 0.85847,-0.854852 1.55296,-0.9706 1.08791,-0.1813185 4.24887,-1.1429516 5.04712,-1.9412"
           id="path925" />
        <path
           style="fill:none;stroke:#000000;stroke-width:1.2;stroke-linecap:butt;stroke-linejoin:miter;stroke-miterlimit:4;stroke-dasharray:none;stroke-opacity:1"
           d="m -245.95004,1.16472 c 5.30697,3.0578286 6.36878,9.706 13.5884,9.706"
           id="path927" />
        <path
           style="fill:none;stroke:#000000;stroke-width:1.2;stroke-linecap:butt;stroke-linejoin:miter;stroke-miterlimit:4;stroke-dasharray:none;stroke-opacity:1"
           d="m -287.49172,35.9122 c -1.77805,3.838932 -4.31782,7.754011 -4.85299,12.03544 -0.0551,0.440727 -0.16132,3.30004 0.38822,3.30004"
           id="path931" />
        <path
           style="fill:none;stroke:#000000;stroke-width:1.2;stroke-linecap:butt;stroke-linejoin:miter;stroke-miterlimit:4;stroke-dasharray:none;stroke-opacity:1"
           d="m -178.00804,-14.94724 c 1.11817,-1.47292 2.492,-2.690631 3.8824,-3.8824 0.78892,-0.676222 3.03504,-3.053103 4.27064,-2.52356 4.95584,2.123933 4.27064,11.459241 4.27064,15.91784 0,1.6936202 0.19412,3.3975994 0.19412,5.04712"
           id="path933" />
        <path
           style="fill:none;stroke:#000000;stroke-width:1.2;stroke-linecap:butt;stroke-linejoin:miter;stroke-miterlimit:4;stroke-dasharray:none;stroke-opacity:1"
           d="m -180.14336,0.9706 c -0.0434,1.2399295 -0.4879,2.4603431 -0.58236,3.6882801 -0.15215,1.977961 0,4.03435 0,6.0177199 0,1.453263 -0.20867,3.198196 0,4.65888 0.0811,0.567422 0.51932,1.684042 0.77648,1.9412 0.25156,0.25156 1.35884,-0.07826 1.35884,-0.38824"
           id="path935" />
        <path
           style="fill:#333333;stroke:#000000;stroke-width:1.2;stroke-linecap:butt;stroke-linejoin:miter;stroke-miterlimit:4;stroke-dasharray:none;stroke-opacity:1"
           d="m -234.30284,-10.38542 c -0.0889,0.466337 -0.25435,0.8769833 -0.19412,1.3588398 0.14226,1.138128 1.46076,4.3418207 2.13532,5.2412402 0.2972,0.3962752 0.8346,0.9206201 1.26178,1.16472 0.89572,0.5118385 3.38134,1.516251 4.3677,0.77648 0.0579,-0.043407 0.0459,-0.1429649 0.0971,-0.19412 0.14559,-0.14559 0.43677,-0.14559 0.58236,-0.29118 0.2623,-0.2622965 0.38648,-0.5470692 0.58236,-0.8735399 0.29286,-0.4880967 0.8437,-0.8773181 1.16472,-1.3588402 0.0886,-0.1328415 0.12015,-0.3743394 0.19412,-0.4852998 0.0508,-0.07614 0.16013,-0.1091562 0.19412,-0.19412 0.0848,-0.2120191 0.14576,-1.7967915 0.19412,-2.1353201 0.0878,-0.6145569 0.0647,0.09706 0.19412,-0.29118 0.14181,-0.4254402 0,-1.1082329 0,-1.5529599 0,-0.046931 0.0455,-0.7537112 0,-0.7764802 -0.85609,-0.4280469 -2.81026,-0.3069839 -3.78534,-0.3882399 -0.30378,0.172986 -0.44846,-0.147928 -0.67942,-0.19412 -0.8121,-0.16242 -4.03484,-0.06937 -4.75594,0.29118 -0.26789,0.133945 -2.03826,0.231517 -2.03826,0.58236"
           id="path937" />
        <path
           style="fill:#000000;stroke:#000000;stroke-width:1.2;stroke-linecap:butt;stroke-linejoin:miter;stroke-miterlimit:4;stroke-dasharray:none;stroke-opacity:1"
           d="m -289.72409,-5.72654 c -0.64707,0 -1.29416,0 -1.94122,0 -0.25194,0 -0.29118,0.7960458 -0.29118,1.0676599 0,0.5764432 -0.0309,0.4234537 0.19413,0.8735401 0.0289,0.057876 -0.0404,0.1435926 0,0.19412 0.16348,0.2043713 1.97726,0.7404158 2.23237,0.4853001 0.0458,-0.045755 -0.0289,-0.1362448 0,-0.19412 0.0546,-0.1091406 0.25286,-0.1762078 0.2912,-0.2911801 0.0321,-0.09627 0.073,-1.1887718 0,-1.2617801 -0.28525,-0.2852463 -0.4853,-0.4128998 -0.4853,-0.8735399 z"
           id="path939" />
        <path
           style="fill:#ffffff;stroke:#000000;stroke-width:0.2;stroke-linecap:butt;stroke-linejoin:miter;stroke-miterlimit:4;stroke-dasharray:none;stroke-opacity:1"
           d="m -292.15061,-6.7942001 c -0.34039,0.1571699 -1.04929,-0.2063658 -1.35882,0 -0.26967,0.1797632 -0.10155,1.316043 0,1.5529602 0.0483,0.1127043 0.3965,0.3965191 0.4853,0.4852998 0.26138,0.2613887 1.03052,0.09706 1.35882,0.09706 0.0682,0 0.43717,0.048129 0.4853,0 0.0686,-0.068632 -0.0307,-0.1991008 0,-0.2911801 0.061,-0.1829823 0.19952,-0.3262473 0.0971,-0.5823598 -0.0633,-0.1583049 -0.91305,-0.7962373 -1.06767,-0.8735401 -0.0289,-0.014467 -0.0971,0.032353 -0.0971,0 0,-0.133396 0.0647,-0.2588265 0.0971,-0.38824 z"
           id="path941" />
        <path
           style="fill:#000000;stroke:#000000;stroke-width:1.2;stroke-linecap:butt;stroke-linejoin:miter;stroke-miterlimit:4;stroke-dasharray:none;stroke-opacity:1"
           d="m -228.38218,-8.2501001 c -1.77309,-0.7300772 -2.09207,1.8657655 -0.77648,2.5235601 0.35173,0.1758683 1.77384,0.2109041 1.9412,-0.29118 0.0686,-0.2058422 0,-0.5616335 0,-0.7764801 0,-0.1045737 0.0639,-0.4864346 0,-0.5823599 -0.024,-0.035912 -0.97236,-0.6811769 -1.16472,-0.8735401 z"
           id="path943" />
        <path
           style="fill:#ffffff;stroke:#000000;stroke-width:0.2;stroke-linecap:butt;stroke-linejoin:miter;stroke-miterlimit:4;stroke-dasharray:none;stroke-opacity:1"
           d="m -228.38218,-8.2501001 c -0.77648,-0.3558865 -1.53081,-0.764731 -2.32944,-1.0676599 -1.15049,-0.4363934 -1.08026,1.54036 -0.58236,2.0382601 0.19625,0.1962486 1.71353,0.2276702 1.9412,0 0.10686,-0.1068626 0.4853,-0.5369936 0.4853,-0.6794201 0,-0.1617668 -0.15863,-0.517025 0,-0.4853001 0.17084,0.034169 0.32353,0.1294135 0.4853,0.19412"
           id="path945" />
        <path
           style="fill:none;stroke:#000000;stroke-width:1.2;stroke-linecap:butt;stroke-linejoin:miter;stroke-miterlimit:4;stroke-dasharray:none;stroke-opacity:1"
           d="m -284.13559,58.611544 c 1.41838,0 2.83678,0 4.25516,0"
           id="path947" />
        <path
           style="fill:none;stroke:#000000;stroke-width:1.2;stroke-linecap:butt;stroke-linejoin:miter;stroke-miterlimit:4;stroke-dasharray:none;stroke-opacity:1"
           d="m -275.62524,61.082287 c 0.7126,0.03985 1.20531,0.430641 1.64716,0.960848 1.37385,1.648618 3.08912,3.893547 5.216,4.666958 2.66486,0.96904 5.61305,0.978345 8.37309,1.372638 2.16201,0.308858 4.25549,0.549052 6.45139,0.549052 0.35074,0 1.01619,0.118817 1.37263,0 0.21391,-0.0713 0.49095,-0.355967 0.68632,-0.411789 0.21997,-0.06285 0.46929,0.07234 0.68632,0 0.0971,-0.03235 0.0521,-0.217776 0.13726,-0.274527 0.0761,-0.05076 0.18957,0.03399 0.27453,0 0.63537,-0.254148 1.08477,-0.897937 1.64716,-1.235374 0.12407,-0.07444 0.29881,-0.04688 0.41179,-0.137263 0.12882,-0.103055 0.15788,-0.295137 0.27453,-0.411789 1.07473,-1.074735 0.31653,-0.256778 0.96085,-0.686319 0.31534,-0.21023 -0.0589,-0.0784 0.27452,-0.411789 0.36652,-0.366517 0.94083,-0.947502 1.37264,-1.235374 0.51004,-0.340027 1.14114,-0.623499 1.64716,-0.960845 0.16152,-0.107678 0.24325,-0.315479 0.41179,-0.41179 1.25636,-0.71792 -0.0647,0.340821 0.96085,-0.274526 1.5221,-0.913265 3.5303,-1.314032 5.35327,-1.92169 0.41011,-0.136702 0.7283,-0.08962 1.09811,-0.274529"
           id="path949" />
        <path
           style="fill:none;stroke:#000000;stroke-width:1.2;stroke-linecap:butt;stroke-linejoin:miter;stroke-miterlimit:4;stroke-dasharray:none;stroke-opacity:1"
           d="m -270.68375,59.435126 c 0.36603,0 -1.46415,0 -1.09813,0 2.08198,0 4.98274,0.45642 7.00046,0.960845 1.48237,0.370594 3.15348,0.243626 4.66696,0.41179 2.47672,0.275193 5.0961,-0.276456 7.54949,-0.549053 0.22738,-0.02527 0.45755,0 0.68632,0 0.59481,-0.04575 1.19211,-0.06619 1.78443,-0.137266 1.57736,-0.189283 3.26599,-0.686316 4.80422,-0.686316"
           id="path951" />
        <path
           style="fill:none;stroke:#000000;stroke-width:1.2;stroke-linecap:butt;stroke-linejoin:miter;stroke-miterlimit:4;stroke-dasharray:none;stroke-opacity:1"
           d="m -273.29177,55.454483 c 2.76061,-0.742659 5.40676,-1.607352 8.23581,-1.92169 0.36381,-0.04042 0.73919,0.07178 1.09812,0 0.48937,-0.09788 0.97938,-0.190317 1.5099,-0.137266 0.97419,0.09742 2.18127,0.518475 3.15706,0.274529 0.79314,-0.198284 1.56066,-0.565975 2.33348,-0.823581 0.36668,-0.122227 0.85129,0.06401 1.23537,0 0.9639,-0.160653 2.33402,-0.59463 3.29432,-0.274527 0.97406,0.324684 2.24796,0.377579 3.01981,0.686316 1.2827,0.513086 2.68359,0.853816 3.98064,1.372637 1.12088,0.44835 2.18652,0.929511 3.29432,1.372635 0.12745,0.05098 0.29409,-0.07062 0.4118,0 0.19617,0.117702 0.33202,0.339447 0.54905,0.411792 0.34995,0.11665 0.74222,0.0402 1.09811,0.137263 0.27868,0.076 0.82358,0.353841 0.82358,0.549053"
           id="path953" />
        <path
           style="fill:none;stroke:#000000;stroke-width:1.2;stroke-linecap:butt;stroke-linejoin:miter;stroke-miterlimit:4;stroke-dasharray:none;stroke-opacity:1"
           d="m -274.38987,41.17907 c -1.44299,0.857726 -2.97209,1.573175 -4.5297,2.196218 -1.78982,0.715931 -3.7288,1.250487 -5.35328,2.33348 -0.89046,0.59364 -1.4309,1.907855 -2.05897,2.745272 -0.40629,0.541737 -1.0161,1.347747 -1.0981,1.921689 -0.0763,0.534247 -0.63338,4.392436 0,4.392436"
           id="path955" />
        <path
           style="fill:none;stroke:#000000;stroke-width:1.2;stroke-linecap:butt;stroke-linejoin:miter;stroke-miterlimit:4;stroke-dasharray:none;stroke-opacity:1"
           d="m -248.58432,40.492754 c 2.69121,2.081717 6.01214,2.750761 9.19665,3.706116 0.876,0.262798 1.72859,0.690253 2.60801,0.960845 0.91811,0.282493 1.86342,0.245388 2.74527,0.686316 1.12613,0.563065 2.12197,1.556512 3.29433,2.058956 0.78114,0.334772 1.88491,0.649533 2.47074,1.235371 0.15785,0.157843 0.16732,0.525502 0.27453,0.686319 0.10768,0.161517 0.31192,0.245332 0.41179,0.411789 0.61371,1.022848 0.54906,3.827539 0.54906,5.216017"
           id="path957" />
        <path
           style="fill:none;stroke:#000000;stroke-width:1.2;stroke-linecap:butt;stroke-linejoin:miter;stroke-miterlimit:4;stroke-dasharray:none;stroke-opacity:1"
           d="m -282.62569,49.826677 c -1.21941,0.724667 -1.24698,5.765069 -0.13727,5.765069"
           id="path959" />
        <path
           style="fill:none;stroke:#000000;stroke-width:1.2;stroke-linecap:butt;stroke-linejoin:miter;stroke-miterlimit:4;stroke-dasharray:none;stroke-opacity:1"
           d="m -279.46863,50.787522 c -0.81179,0.297751 -1.69034,3.639402 -1.23537,3.980643 0.19781,0.148359 0.45636,0.137263 0.68631,0.137263"
           id="path961" />
        <path
           style="fill:none;stroke:#000000;stroke-width:1.2;stroke-linecap:butt;stroke-linejoin:miter;stroke-miterlimit:4;stroke-dasharray:none;stroke-opacity:1"
           d="m -279.46863,50.787522 c 0.68633,0.137263 1.51241,-0.02545 2.05896,0.411789 0.0424,0.03389 -0.0332,1.905942 0,2.470745 0.18434,3.133712 1.74892,2.310866 4.1179,1.784427"
           id="path963" />
        <path
           style="fill:none;stroke:#000000;stroke-width:1.2;stroke-linecap:butt;stroke-linejoin:miter;stroke-miterlimit:4;stroke-dasharray:none;stroke-opacity:1"
           d="m -274.6644,50.375729 c -0.0683,1.08189 -0.0249,2.13078 0.68632,3.019798 0.12782,0.159782 0.50618,0.07445 0.54904,0.274529 0.12502,0.583325 0.0915,1.189617 0.13727,1.784427"
           id="path965" />
        <path
           style="fill:none;stroke:#000000;stroke-width:1.2;stroke-linecap:butt;stroke-linejoin:miter;stroke-miterlimit:4;stroke-dasharray:none;stroke-opacity:1"
           d="m -270.68375,49.277621 c 0.9117,0.1513 1.52035,3.84338 1.78443,3.84338"
           id="path967" />
        <path
           style="fill:none;stroke:#000000;stroke-width:1.2;stroke-linecap:butt;stroke-linejoin:miter;stroke-miterlimit:4;stroke-dasharray:none;stroke-opacity:1"
           d="m -266.70312,48.591303 c 1.51302,1.883381 1.64716,2.243418 1.64716,4.392435"
           id="path969" />
        <path
           style="fill:none;stroke:#000000;stroke-width:1.2;stroke-linecap:butt;stroke-linejoin:miter;stroke-miterlimit:4;stroke-dasharray:none;stroke-opacity:1"
           d="m -262.72247,48.179513 c 0.8723,1.691108 1.92169,3.255375 1.92169,5.216014"
           id="path971" />
        <path
           style="fill:none;stroke:#000000;stroke-width:1.2;stroke-linecap:butt;stroke-linejoin:miter;stroke-miterlimit:4;stroke-dasharray:none;stroke-opacity:1"
           d="m -258.4673,48.316776 c 1.03798,1.413484 1.35687,2.3773 1.78443,3.980643 0.14772,0.553966 0.41179,1.075436 0.41179,1.647164"
           id="path973" />
        <path
           style="fill:none;stroke:#000000;stroke-width:1.2;stroke-linecap:butt;stroke-linejoin:miter;stroke-miterlimit:4;stroke-dasharray:none;stroke-opacity:1"
           d="m -254.34939,47.904987 c 1.12385,1.566013 1.5099,3.724338 1.5099,5.627806"
           id="path975" />
        <path
           style="fill:none;stroke:#000000;stroke-width:1.2;stroke-linecap:butt;stroke-linejoin:miter;stroke-miterlimit:4;stroke-dasharray:none;stroke-opacity:1"
           d="m -249.95696,48.728566 c 0.0236,0.384159 -0.0283,5.078754 0.41179,5.078754"
           id="path977" />
        <path
           style="fill:none;stroke:#000000;stroke-width:1.2;stroke-linecap:butt;stroke-linejoin:miter;stroke-miterlimit:4;stroke-dasharray:none;stroke-opacity:1"
           d="m -249.95696,48.728566 c 2.72275,1.300358 3.0198,1.620848 3.0198,3.980646 0,0.137263 0.12651,0.358523 0,0.411789 -0.82849,0.348837 -1.73867,0.457547 -2.60801,0.686319"
           id="path979" />
        <path
           style="fill:none;stroke:#000000;stroke-width:1.2;stroke-linecap:butt;stroke-linejoin:miter;stroke-miterlimit:4;stroke-dasharray:none;stroke-opacity:1"
           d="m -243.23105,48.591303 c 0.68444,1.197557 0.50763,2.579547 0.82359,3.843379"
           id="path981" />
        <path
           style="fill:none;stroke:#000000;stroke-width:1.2;stroke-linecap:butt;stroke-linejoin:miter;stroke-miterlimit:4;stroke-dasharray:none;stroke-opacity:1"
           d="m -240.21125,49.277621 c 0.2964,1.260716 0.68632,2.53804 0.68632,3.84338"
           id="path983" />
        <path
           style="fill:none;stroke:#000000;stroke-width:1.2;stroke-linecap:butt;stroke-linejoin:miter;stroke-miterlimit:4;stroke-dasharray:none;stroke-opacity:1"
           d="m -240.21125,49.277621 c 0.77783,0.503299 1.64485,0.89013 2.33348,1.509901 0.80774,0.726963 1.04851,3.537627 1.09811,4.529695 4e-5,7.94e-4 0.0526,1.721131 -0.13726,1.784427 -0.73791,0.24597 -1.55565,0 -2.33348,0"
           id="path985" />
        <path
           style="fill:none;stroke:#000000;stroke-width:1.2;stroke-linecap:butt;stroke-linejoin:miter;stroke-miterlimit:4;stroke-dasharray:none;stroke-opacity:1"
           d="m -233.2108,50.924785 c 0.56482,1.89897 0.68632,3.940511 0.68632,5.902333"
           id="path987" />
        <path
           style="fill:none;stroke:#000000;stroke-width:1.2;stroke-linecap:butt;stroke-linejoin:miter;stroke-miterlimit:4;stroke-dasharray:none;stroke-opacity:1"
           d="m -233.2108,50.924785 c 0.91509,0.869336 2.03737,1.563013 2.74527,2.608008 0.309,0.456147 0.085,1.098685 0.13726,1.647161 0.0393,0.412459 0.1097,0.821965 0.13726,1.235374 0.0183,0.273918 0,0.549053 0,0.823579 0,0.137266 0.13169,0.450522 0,0.411792 -0.79133,-0.232746 -1.55564,-0.549055 -2.33347,-0.823581"
           id="path989" />
        <path
           style="fill:none;stroke:#000000;stroke-width:1.2;stroke-linecap:butt;stroke-linejoin:miter;stroke-miterlimit:4;stroke-dasharray:none;stroke-opacity:1"
           d="m -268.07575,88.123211 c -0.89141,3.714925 -0.12491,7.886245 2.19623,10.981087 0.40809,0.54415 0.91127,1.010092 1.37262,1.509902 0.30688,0.33245 0.27453,0.13607 0.27453,0.41179"
           id="path991" />
        <path
           style="fill:none;stroke:#000000;stroke-width:1.365;stroke-linecap:butt;stroke-linejoin:miter;stroke-miterlimit:4;stroke-dasharray:none;stroke-opacity:1"
           d="m -279.33136,23.883861 c -1.21254,0.176214 -1.8183,1.131978 -2.608,1.92169 -0.41003,0.410028 -1.00915,0.920141 -1.23539,1.372637 -0.33396,0.667959 -0.1279,1.463174 -0.27451,2.196216 -0.2826,1.412954 -0.0404,2.527191 0.54904,3.706116 0.64939,1.29875 4.31202,2.058953 5.62782,2.058953"
           id="path995" />
        <path
           style="fill:none;stroke:#000000;stroke-width:1.365;stroke-linecap:butt;stroke-linejoin:miter;stroke-miterlimit:4;stroke-dasharray:none;stroke-opacity:1"
           d="m -246.52537,25.256497 c 0.2376,0.475197 0.52218,1.017504 0.68632,1.509898 0.12825,0.384749 0.56768,4.217906 0.27453,4.804225 -0.20101,0.402019 -0.61031,0.972471 -0.96085,1.235374 -0.0732,0.0549 -0.18956,-0.03399 -0.27453,0 -0.28819,0.115276 -1.1378,0.451485 -1.23537,0.549053 -0.0915,0.09151 -0.45754,-0.09151 -0.54905,0 -0.0324,0.03235 0.0451,0.129741 0,0.137263 -0.66527,0.110879 -1.39817,-0.132157 -2.05896,0 -0.19873,0.03975 -0.48758,0.234781 -0.68631,0.274529 -0.1346,0.02692 -0.28435,-0.05098 -0.4118,0 -0.38569,0.154278 -0.54533,0.545333 -0.82358,0.823582 -0.40457,0.404566 -1.39715,0.661106 -1.92169,0.960845 -0.42082,0.240469 -1.57761,1.235371 -1.92169,1.235371"
           id="path997" />
        <path
           style="fill:none;stroke:#000000;stroke-width:1.365;stroke-linecap:butt;stroke-linejoin:miter;stroke-miterlimit:4;stroke-dasharray:none;stroke-opacity:1"
           d="m -277.2724,35.139473 c 1.15535,1.212578 2.67586,1.14562 3.98063,2.058954 2.81776,1.972429 5.91158,2.608008 9.33393,2.608008 1.35468,0 2.56632,0.01389 3.84338,-0.41179 0.4275,-0.142501 0.80208,-0.425256 1.23537,-0.549055 0.76324,-0.21807 2.10706,-0.32263 2.74527,-0.960845 0.51824,-0.518242 1.40797,-1.559581 0.96085,-1.5099 -0.43142,0.04793 -0.82359,0.274529 -1.23538,0.411792"
           id="path999" />
        <path
           style="fill:none;stroke:#000000;stroke-width:1.165;stroke-linecap:butt;stroke-linejoin:miter;stroke-miterlimit:4;stroke-dasharray:none;stroke-opacity:1"
           d="m -236.36787,28.413559 c 1.14569,2.291366 0.0273,0.124843 0.96085,1.784427 1.29706,2.305886 2.93332,4.16869 4.80422,6.039596 0.22878,0.228774 0.45755,0.457546 0.68632,0.686318 0.27453,0.183018 0.57945,0.327112 0.82358,0.549056 1.34328,1.22116 3.29433,4.029011 3.29433,5.902332"
           id="path1001" />
      </g>
      <text
         xml:space="preserve"
         style="font-size:14.1111px;line-height:1.25;font-family:sans-serif;letter-spacing:0px;word-spacing:0px;stroke-width:0.264583"
         x="105.41842"
         y="379.94553"
         id="text1153"><tspan
           sodipodi:role="line"
           id="tspan1151"
           x="105.41842"
           y="379.94553"
           style="font-style:italic;font-variant:normal;font-weight:normal;font-stretch:normal;font-size:14.1111px;font-family:sans-serif;-inkscape-font-specification:'sans-serif Italic';stroke-width:0.264583">R N Malhotra 1985-90</tspan></text>
    </g>
  </g>
</svg>
