<?xml version="1.0" encoding="UTF-8" standalone="no"?>
<svg
   xmlns:dc="http://purl.org/dc/elements/1.1/"
   xmlns:cc="http://creativecommons.org/ns#"
   xmlns:rdf="http://www.w3.org/1999/02/22-rdf-syntax-ns#"
   xmlns:svg="http://www.w3.org/2000/svg"
   xmlns="http://www.w3.org/2000/svg"
   xmlns:sodipodi="http://sodipodi.sourceforge.net/DTD/sodipodi-0.dtd"
   xmlns:inkscape="http://www.inkscape.org/namespaces/inkscape"
   width="400mm"
   height="400mm"
   viewBox="0 0 400 400"
   version="1.1"
   id="svg8"
   inkscape:version="1.0.2 (e86c870879, 2021-01-15, custom)"
   sodipodi:docname="yvreddy.svg">
  <defs
     id="defs2" />
  <sodipodi:namedview
     id="base"
     pagecolor="#ffffff"
     bordercolor="#666666"
     borderopacity="1.0"
     inkscape:pageopacity="0.0"
     inkscape:pageshadow="2"
     inkscape:zoom="0.2409446"
     inkscape:cx="381.19212"
     inkscape:cy="75.645965"
     inkscape:document-units="mm"
     inkscape:current-layer="layer1"
     inkscape:document-rotation="0"
     showgrid="false"
     inkscape:window-width="1920"
     inkscape:window-height="1017"
     inkscape:window-x="-8"
     inkscape:window-y="-8"
     inkscape:window-maximized="1" />
  <metadata
     id="metadata5">
    <rdf:RDF>
      <cc:Work
         rdf:about="">
        <dc:format>image/svg+xml</dc:format>
        <dc:type
           rdf:resource="http://purl.org/dc/dcmitype/StillImage" />
        <dc:title></dc:title>
      </cc:Work>
    </rdf:RDF>
  </metadata>
  <g
     inkscape:label="Layer 1"
     inkscape:groupmode="layer"
     id="layer1">
    <g
       id="g1537">
      <g
         id="g1406"
         transform="matrix(1.2346938,0,0,1.1967634,-47.745598,-40.862433)">
        <ellipse
           style="opacity:0.483871;fill:#ff8080;stroke:#040404;stroke-width:0;stroke-linecap:round;stroke-linejoin:round;stroke-miterlimit:4;stroke-dasharray:none;paint-order:markers fill stroke"
           id="path1282"
           cx="203.43776"
           cy="188.68463"
           rx="152.19008"
           ry="146.75471" />
        <g
           id="g1280"
           transform="translate(372.7104,60.565441)">
          <path
             style="fill:none;stroke:#000000;stroke-width:1.2;stroke-linecap:butt;stroke-linejoin:miter;stroke-miterlimit:4;stroke-dasharray:none;stroke-opacity:1"
             d="m -165.53987,8.7848685 c -0.36603,-0.1830181 -0.75107,-0.3321571 -1.0981,-0.5490543 -1.08728,-0.6795466 -1.74881,-1.7233995 -2.74527,-2.4707443 -1.05219,-0.7891377 -2.26493,-1.1496375 -3.29433,-1.9216899 -1.05131,-0.7884853 -2.51345,-2.2047589 -3.84338,-2.4707443 -10.71088,-2.14217581 -24.09605,-0.61227152 -34.86495,0.8235814 -2.58689,0.3449193 -5.11055,0.059843 -7.68676,0.2745271 -1.85041,0.1542017 -5.69016,0.9583372 -7.41223,1.6471628 -1.46585,0.5863412 -2.90476,1.4258001 -4.39243,1.9216901 -0.17363,0.057875 -0.39212,-0.094162 -0.54906,0 -1.76056,1.0563365 -3.34649,2.476242 -4.94149,3.8433798 -1.60273,1.3737761 -3.35214,2.4129691 -4.94149,3.8433801 -4.5727,4.115433 -8.54057,10.492506 -11.25561,15.922573 -1.25692,2.513838 -3.15639,4.665631 -4.39243,7.137707 -0.43059,0.861176 -1.21658,1.33504 -1.64716,2.196216 -0.91761,1.835219 -1.07896,4.05089 -1.64717,6.039599 -0.68991,2.414704 -1.57591,5.266296 -1.92169,7.68676 -0.26063,1.824405 0,3.917611 0,5.765069 0,3.751871 0,7.503742 0,11.255613 0,0.520481 0.87712,5.216014 1.37264,5.216014"
             id="path847" />
          <path
             style="fill:none;stroke:#000000;stroke-width:1.2;stroke-linecap:butt;stroke-linejoin:miter;stroke-miterlimit:4;stroke-dasharray:none;stroke-opacity:1"
             d="m -247.34895,71.102529 c -0.0915,-0.183018 -0.11475,-0.42123 -0.27453,-0.549056 -0.25042,-0.200332 -3.18233,-0.274526 -3.70611,-0.274526"
             id="path849" />
          <path
             style="fill:none;stroke:#000000;stroke-width:1.2;stroke-linecap:butt;stroke-linejoin:miter;stroke-miterlimit:4;stroke-dasharray:none;stroke-opacity:1"
             d="m -251.32959,70.278947 c 0.0915,0.594807 0.38218,1.192329 0.27452,1.784427 -0.0366,0.201318 -0.35675,-0.2046 -0.54905,-0.274527 -0.31305,-0.113834 -0.63769,-0.193738 -0.96085,-0.274526 -0.76966,-0.192416 -1.54382,-0.274529 -2.33348,-0.274529"
             id="path851" />
          <path
             style="fill:none;stroke:#000000;stroke-width:1.2;stroke-linecap:butt;stroke-linejoin:miter;stroke-miterlimit:4;stroke-dasharray:none;stroke-opacity:1"
             d="m -263.27153,78.926551 c 1.08438,-1.321342 2.22222,-2.634006 3.43159,-3.843379 0.38762,-0.387612 1.49877,-0.630299 0.68632,-0.549053 -0.56314,0.05631 -1.09811,0.274526 -1.64716,0.411787"
             id="path853" />
          <path
             style="fill:none;stroke:#000000;stroke-width:1.2;stroke-linecap:butt;stroke-linejoin:miter;stroke-miterlimit:4;stroke-dasharray:none;stroke-opacity:1"
             d="m -260.80078,74.945906 c 3.18565,0.753401 2.52793,-0.04956 4.5297,-1.784424 0.36755,-0.318543 0.709,-0.669018 1.09811,-0.960845 0.52161,-0.391208 0.88472,-0.258932 0.82358,-0.41179 -0.0961,-0.240316 -0.36604,-0.366038 -0.54906,-0.549055"
             id="path855" />
          <path
             style="fill:none;stroke:#000000;stroke-width:1.2;stroke-linecap:butt;stroke-linejoin:miter;stroke-miterlimit:4;stroke-dasharray:none;stroke-opacity:1"
             d="m -263.40879,82.083615 c -0.10972,-0.683323 0.66835,-1.707171 0.54905,-2.333482 -0.0574,-0.301511 -0.27452,-0.549055 -0.41179,-0.823584"
             id="path857" />
          <path
             style="fill:none;stroke:#000000;stroke-width:1.2;stroke-linecap:butt;stroke-linejoin:miter;stroke-miterlimit:4;stroke-dasharray:none;stroke-opacity:1"
             d="m -262.58521,80.710978 c 0.31917,-1.105792 0.78799,-2.193666 1.30401,-3.225694"
             id="path859" />
          <path
             style="fill:none;stroke:#000000;stroke-width:1.2;stroke-linecap:butt;stroke-linejoin:miter;stroke-miterlimit:4;stroke-dasharray:none;stroke-opacity:1"
             d="m -261.34984,79.818766 c 0.5158,-1.127257 0.88673,-2.322512 1.44127,-3.43159"
             id="path861" />
          <path
             style="fill:none;stroke:#000000;stroke-width:1.2;stroke-linecap:butt;stroke-linejoin:miter;stroke-miterlimit:4;stroke-dasharray:none;stroke-opacity:1"
             d="m -259.83994,78.446129 c 0.88269,-1.293638 1.14132,-3.109267 2.40212,-4.117906"
             id="path863" />
          <path
             style="fill:none;stroke:#000000;stroke-width:1.2;stroke-linecap:butt;stroke-linejoin:miter;stroke-miterlimit:4;stroke-dasharray:none;stroke-opacity:1"
             d="m -258.4673,77.622547 c 0.95695,-1.355611 1.64972,-3.460062 3.29433,-4.117906"
             id="path865" />
          <path
             style="fill:none;stroke:#000000;stroke-width:1.2;stroke-linecap:butt;stroke-linejoin:miter;stroke-miterlimit:4;stroke-dasharray:none;stroke-opacity:1"
             d="m -255.99656,75.838123 c 0.77518,-1.724639 2.45426,-2.198955 4.04928,-2.882535"
             id="path867" />
          <path
             style="fill:none;stroke:#000000;stroke-width:1.2;stroke-linecap:butt;stroke-linejoin:miter;stroke-miterlimit:4;stroke-dasharray:none;stroke-opacity:1"
             d="m -252.90813,74.877278 c 0.80106,-0.503679 1.6937,-0.549055 2.60801,-0.549055"
             id="path869" />
          <path
             style="fill:none;stroke:#000000;stroke-width:1.2;stroke-linecap:butt;stroke-linejoin:miter;stroke-miterlimit:4;stroke-dasharray:none;stroke-opacity:1"
             d="m -251.53549,75.76949 c 0.77717,-0.128929 1.60686,-0.274526 2.40211,-0.274526"
             id="path871" />
          <path
             style="fill:none;stroke:#000000;stroke-width:1.2;stroke-linecap:butt;stroke-linejoin:miter;stroke-miterlimit:4;stroke-dasharray:none;stroke-opacity:1"
             d="m -261.34984,79.818766 c 0.20793,1.214305 -0.52291,1.563841 -0.75494,2.608009 -0.0846,0.380605 0,0.840636 0,1.235371"
             id="path873" />
          <path
             style="fill:none;stroke:#000000;stroke-width:1.2;stroke-linecap:butt;stroke-linejoin:miter;stroke-miterlimit:4;stroke-dasharray:none;stroke-opacity:1"
             d="m -242.81935,148.72508 c -0.0686,0.18302 -0.25322,0.35944 -0.2058,0.54905 0.059,0.23592 0.33661,0.35295 0.48042,0.54906 0.41585,0.56705 0.85702,1.18987 1.23537,1.78442 0.32206,0.50609 0.53961,1.0937 0.89222,1.57853 0.0761,0.10467 0.20031,0.16851 0.27453,0.27453 0.23959,0.34228 0.36274,0.75818 0.61768,1.09811 0.51816,0.69088 1.54318,1.91817 2.19622,2.47074 1.22529,1.03679 2.71657,1.93609 3.77475,3.15706 0.82766,0.955 1.66273,1.91293 2.47074,2.88254 0.25929,0.31114 0.46807,0.67397 0.75495,0.96084 0.42108,0.42108 0.82075,0.91656 1.23537,1.37264 0.23682,0.2605 0.53506,0.48008 0.75495,0.75495 0.13474,0.16842 0.21785,0.37361 0.34316,0.54906 0.30778,0.43088 0.75445,0.7658 1.09811,1.16673 0.29177,0.3404 0.48263,0.72642 0.82358,1.02948 0.71894,0.63906 1.46844,1.22925 2.19622,1.85306 0.35979,0.30839 0.63651,0.68577 1.02947,0.96084 1.7241,1.20687 3.52311,2.32586 5.28465,3.50023 0.074,0.0493 0.26916,0.0879 0.34316,0.13726 0.33552,0.22368 0.57276,0.58399 0.89222,0.82358 0.26138,0.19604 0.39066,0.18477 0.61768,0.41179 0.44917,0.44917 0.82112,0.95304 1.37264,1.30401 0.10394,0.0661 0.23546,0.0774 0.34316,0.13726 0.33825,0.18792 0.54336,0.49604 0.89221,0.68632 0.71521,0.39011 -0.053,-0.16181 0.75495,0.34316 0.18947,0.11842 0.3402,0.30736 0.54905,0.41179 0.3323,0.16614 0.76959,0.29269 1.09811,0.48042 0.23521,0.1344 1.26452,0.75495 1.5099,0.75495"
             id="path877" />
          <path
             style="fill:none;stroke:#000000;stroke-width:1.2;stroke-linecap:butt;stroke-linejoin:miter;stroke-miterlimit:4;stroke-dasharray:none;stroke-opacity:1"
             d="m -224.49978,165.29318 c 1.06422,1.11438 1.81668,2.51409 2.81474,3.68828 1.20889,1.42222 2.56884,2.51431 4.07652,3.59122 0.53897,0.38498 0.87748,1.02268 1.35884,1.4559 0.34178,0.30761 0.6998,0.59765 1.06766,0.87354 0.36408,0.27306 1.07469,0.55865 1.4559,0.77648 1.02143,0.58368 1.98472,1.15724 3.10592,1.55296 2.67676,0.94474 6.84746,1.08956 9.41482,-0.19412 1.65517,-0.82759 3.30588,-1.75175 4.75594,-2.9118 0.70059,-0.56047 1.24104,-1.3298 1.74708,-2.03826 0.71001,-0.99401 -0.18407,0.11266 0.29118,-0.67942 0.26133,-0.43555 0.66775,-0.85798 0.9706,-1.26178 0.39857,-0.53143 1.0017,-0.80758 1.4559,-1.26178 0.95838,-0.95838 1.84871,-2.04284 2.81474,-3.00886 0.53871,-0.53871 1.06797,-1.14072 1.65002,-1.65002 0.27761,-0.24291 0.6127,-0.41858 0.87354,-0.67942 0.51974,-0.51974 0.92536,-1.21654 1.4559,-1.74708 0.55768,-0.55768 1.90351,-1.76876 2.23238,-2.4265 0.15291,-0.30583 0.38824,-2.21104 0.38824,-2.62062"
             id="path879" />
          <path
             style="fill:none;stroke:#000000;stroke-width:1.2;stroke-linecap:butt;stroke-linejoin:miter;stroke-miterlimit:4;stroke-dasharray:none;stroke-opacity:1"
             d="m -224.22004,60.258708 c 2.22046,-2.093 2.37415,-7.837583 5.42191,-8.853501"
             id="path881" />
          <path
             style="fill:none;stroke:#000000;stroke-width:1.2;stroke-linecap:butt;stroke-linejoin:miter;stroke-miterlimit:4;stroke-dasharray:none;stroke-opacity:1"
             d="m -219.82761,55.111324 c 0.42221,-1.081294 1.14663,-2.084041 2.05896,-2.813905 0.19323,-0.154583 0.42563,-0.255746 0.61768,-0.411789 0.23888,-0.194085 0.37854,-0.617686 0.68632,-0.617686"
             id="path883" />
          <path
             style="fill:none;stroke:#000000;stroke-width:1.2;stroke-linecap:butt;stroke-linejoin:miter;stroke-miterlimit:4;stroke-dasharray:none;stroke-opacity:1"
             d="m -217.42549,54.768165 c 1.09751,-0.707369 2.02665,-1.630392 3.0198,-2.470746"
             id="path885" />
          <path
             style="fill:none;stroke:#000000;stroke-width:1.2;stroke-linecap:butt;stroke-linejoin:miter;stroke-miterlimit:4;stroke-dasharray:none;stroke-opacity:1"
             d="m -214.40569,52.297419 c 0.25165,0.388914 0.35406,0.934646 0.75494,1.166741 0.19799,0.114623 0.39707,-0.240805 0.54906,-0.411789 0.53808,-0.605338 0.67657,-1.500151 1.23537,-2.058956"
             id="path887" />
          <path
             style="fill:none;stroke:#000000;stroke-width:1.2;stroke-linecap:butt;stroke-linejoin:miter;stroke-miterlimit:4;stroke-dasharray:none;stroke-opacity:1"
             d="m -211.79769,52.434682 c 1.37646,-0.393295 2.2924,-1.441934 3.29433,-2.402112 0.2907,-0.27859 0.27453,-0.147254 0.27453,-0.343159"
             id="path889" />
          <path
             style="fill:none;stroke:#000000;stroke-width:1.2;stroke-linecap:butt;stroke-linejoin:miter;stroke-miterlimit:4;stroke-dasharray:none;stroke-opacity:1"
             d="m -208.91515,52.022893 c 0.96297,-0.685197 1.7119,-1.574633 2.53937,-2.402112"
             id="path891" />
          <path
             style="fill:none;stroke:#000000;stroke-width:1.2;stroke-linecap:butt;stroke-linejoin:miter;stroke-miterlimit:4;stroke-dasharray:none;stroke-opacity:1"
             d="m -206.37578,49.620781 c 0.25165,0.25165 0.403,0.702156 0.75495,0.754948 0.0185,0.0028 2.08792,-1.895239 2.33348,-2.058953"
             id="path893" />
          <path
             style="fill:none;stroke:#000000;stroke-width:1.2;stroke-linecap:butt;stroke-linejoin:miter;stroke-miterlimit:4;stroke-dasharray:none;stroke-opacity:1"
             d="m -204.0423,50.238466 c 0.88935,-0.452551 2.02456,-0.78918 2.74528,-1.5099"
             id="path895" />
          <path
             style="fill:none;stroke:#000000;stroke-width:1.2;stroke-linecap:butt;stroke-linejoin:miter;stroke-miterlimit:4;stroke-dasharray:none;stroke-opacity:1"
             d="m -201.64018,50.238466 c 1.16139,-0.420134 1.96772,-1.296614 2.88253,-2.058953"
             id="path897" />
          <path
             style="fill:none;stroke:#000000;stroke-width:1.2;stroke-linecap:butt;stroke-linejoin:miter;stroke-miterlimit:4;stroke-dasharray:none;stroke-opacity:1"
             d="m -199.37533,51.405207 c 0.73409,-0.260032 1.52276,-0.754951 2.33348,-0.754951"
             id="path899" />
          <path
             style="fill:none;stroke:#000000;stroke-width:1.2;stroke-linecap:butt;stroke-linejoin:miter;stroke-miterlimit:4;stroke-dasharray:none;stroke-opacity:1"
             d="m -221.47477,59.091967 c 0.044,-0.65881 0.47206,-1.188506 0.82358,-1.715794"
             id="path901" />
          <path
             style="fill:none;stroke:#000000;stroke-width:1.2;stroke-linecap:butt;stroke-linejoin:miter;stroke-miterlimit:4;stroke-dasharray:none;stroke-opacity:1"
             d="m -221.47477,59.091967 c 1.10803,-0.760659 2.00957,-1.735037 2.95117,-2.676639"
             id="path903" />
          <path
             style="fill:none;stroke:#000000;stroke-width:1.2;stroke-linecap:butt;stroke-linejoin:miter;stroke-miterlimit:4;stroke-dasharray:none;stroke-opacity:1"
             d="m -218.79813,58.062489 c 0.25529,-0.680781 0.3829,-1.079325 0.82358,-1.784427 0.049,-0.07842 0.73773,-0.6858 0.75495,-0.823579 0.0296,-0.237 -0.13726,-0.457546 -0.20589,-0.686318"
             id="path905" />
          <path
             style="fill:none;stroke:#000000;stroke-width:1.2;stroke-linecap:butt;stroke-linejoin:miter;stroke-miterlimit:4;stroke-dasharray:none;stroke-opacity:1"
             d="m -218.5236,56.415328 c 2.17749,-0.05444 2.127,-0.445566 3.56885,-1.784427"
             id="path907" />
          <path
             style="fill:none;stroke:#000000;stroke-width:1.2;stroke-linecap:butt;stroke-linejoin:miter;stroke-miterlimit:4;stroke-dasharray:none;stroke-opacity:1"
             d="m -215.09201,56.209432 c 0.8214,-1.186471 0.63987,-1.021874 1.92169,-2.264849 0.30283,-0.293659 0.67708,-0.511448 0.96084,-0.823582 0.17947,-0.197411 0.27453,-0.457547 0.41179,-0.686319"
             id="path909" />
          <path
             style="fill:none;stroke:#000000;stroke-width:1.2;stroke-linecap:butt;stroke-linejoin:miter;stroke-miterlimit:4;stroke-dasharray:none;stroke-opacity:1"
             d="m -212.82716,55.042691 c 0.81261,-0.917739 1.91195,-1.354487 2.8139,-2.127586"
             id="path911" />
          <path
             style="fill:none;stroke:#000000;stroke-width:1.2;stroke-linecap:butt;stroke-linejoin:miter;stroke-miterlimit:4;stroke-dasharray:none;stroke-opacity:1"
             d="m -210.76821,54.630901 c 0.79953,-0.978209 1.99268,-1.55589 3.08843,-2.127586 0.7042,-0.367408 0.30857,-0.343159 0.68632,-0.343159"
             id="path913" />
          <path
             style="fill:none;stroke:#000000;stroke-width:1.2;stroke-linecap:butt;stroke-linejoin:miter;stroke-miterlimit:4;stroke-dasharray:none;stroke-opacity:1"
             d="m -208.09157,54.081846 c 1.12783,-0.765104 2.24849,-1.824728 3.56885,-2.264849"
             id="path915" />
          <path
             style="fill:none;stroke:#000000;stroke-width:1.2;stroke-linecap:butt;stroke-linejoin:miter;stroke-miterlimit:4;stroke-dasharray:none;stroke-opacity:1"
             d="m -204.72861,53.395527 c 1.05903,-0.715089 2.31272,-1.258673 3.56885,-1.509897"
             id="path917" />
          <path
             style="fill:none;stroke:#000000;stroke-width:1.2;stroke-linecap:butt;stroke-linejoin:miter;stroke-miterlimit:4;stroke-dasharray:none;stroke-opacity:1"
             d="m -201.15976,51.88563 c 0.25165,0.274526 0.42477,0.651314 0.75495,0.823582 0.24339,0.126986 0.54939,0.01371 0.82358,0 0.18421,-0.0092 0.52029,0.113551 0.54906,-0.06863 0.0667,-0.422151 -0.22877,-0.823582 -0.34316,-1.235372"
             id="path919" />
          <path
             style="fill:none;stroke:#000000;stroke-width:1.2;stroke-linecap:butt;stroke-linejoin:miter;stroke-miterlimit:4;stroke-dasharray:none;stroke-opacity:1"
             d="m -199.64986,53.944583 c 1.29164,0.09307 2.62157,-0.229936 3.91201,-0.06863 1.16608,0.145762 0.0711,0.137266 0.41179,0.137266"
             id="path921" />
          <path
             style="fill:none;stroke:#000000;stroke-width:1.2;stroke-linecap:butt;stroke-linejoin:miter;stroke-miterlimit:4;stroke-dasharray:none;stroke-opacity:1"
             d="m -253.25128,112.69339 c 0,1.83018 0,3.66036 0,5.49054 0,0.46331 -0.0917,1.05165 0,1.5099 0.16617,0.83088 0.42154,1.67642 0.68631,2.47075 0.149,0.447 0.10877,1.0955 0.27453,1.5099 0.48541,1.21352 0.83718,2.40148 1.09811,3.70611 0.23215,1.16075 0.86492,2.26564 1.09811,3.43159 0.16106,0.8053 0.24757,1.66679 0.54905,2.47075 0.78138,2.08366 1.43405,4.01586 2.33348,6.03959 0.19824,0.44603 0.23516,0.96049 0.41179,1.37264 0.75926,1.7716 1.33609,3.73375 1.92169,5.49054 0.0574,0.17228 0.68867,1.24007 0.82358,1.5099 0.28387,0.56773 0.57112,0.77456 0.68632,1.23537 0.04,0.16005 0.16718,0.53706 0.27453,0.41179 0.1466,-0.17108 0.18295,-0.41179 0.27443,-0.61768"
             id="path992" />
          <path
             style="fill:none;stroke:#000000;stroke-width:1.2;stroke-linecap:butt;stroke-linejoin:miter;stroke-miterlimit:4;stroke-dasharray:none;stroke-opacity:1"
             d="m -267.88559,94.536441 c 0.254,-1.568516 0.59084,-2.945799 0.97059,-4.464761 0.0304,-0.121508 0.11745,-1.47628 0.19413,-1.552959 0.48712,-0.487122 0.92929,-1.22048 1.45589,-1.747081 0.39146,-0.391459 0.90141,-0.714261 1.26178,-1.164719 0.24315,-0.303946 0.76473,-0.937522 1.06766,-1.16472 0.22953,-0.172154 0.46894,-0.274825 0.67942,-0.485301 0.24125,-0.241253 0.42492,-0.218578 0.67942,-0.388239 1.32472,-0.88315 2.62173,-1.391687 4.07652,-2.03826 0.30439,-0.135284 0.56737,-0.354087 0.87354,-0.485302 0.42548,-0.182351 0.94477,-0.278262 1.35884,-0.485298 0.0819,-0.04092 0.11227,-0.153197 0.19412,-0.19412 0.32072,-0.160361 0.72969,-0.243398 1.06766,-0.388242 0.61227,-0.262403 1.18933,-0.635952 1.74708,-0.9706 0.81987,-0.491921 -0.10668,0.139735 0.4853,-0.09706 0.73649,-0.294597 1.56233,-0.488815 2.32944,-0.776478 0.52024,-0.195093 1.05115,-0.512151 1.55296,-0.67942 0.21238,-0.07079 0.76829,-0.619546 1.06766,-0.679421 0.22207,-0.04442 0.45734,0.04442 0.67942,0 0.27106,-0.05421 0.50979,-0.218446 0.77648,-0.29118 0.76708,-0.209206 1.73704,0.06136 2.4265,0.29118 0.39244,0.130815 0.54881,0.629991 0.87354,0.87354 0.96573,0.724302 1.20884,1.129443 1.65002,2.23238 0.12356,0.308914 0.37616,0.546126 0.4853,0.87354 0.0781,0.234254 0.0565,0.532818 0.0971,0.776481 0.0455,0.273015 0.2056,0.519755 0.29118,0.77648 0.0273,0.08185 -0.0383,0.214532 0,0.29118 0.55507,1.110141 1.14436,2.59553 1.35884,3.8824 0.20101,1.206053 0.25113,2.420377 0.4853,3.591219 0.14353,0.71765 -0.0231,1.511363 0.0971,2.232382 0.18573,1.11439 0.38783,2.52599 0.19412,3.688278 -0.13407,0.804397 -0.52113,1.537962 -0.67942,2.32944 -0.26119,1.305933 -0.42933,3.36168 -1.16472,4.46476 -0.16487,0.24731 -0.4712,0.65827 -0.67942,0.9706 -0.0254,0.0381 -0.0647,0.0647 -0.0971,0.0971 -0.0647,0.0323 -0.15072,0.0392 -0.19412,0.0971 -0.0614,0.0818 -0.0647,0.19412 -0.0971,0.29118 -0.0647,0.0971 -0.12125,0.20009 -0.19412,0.29118 -0.4283,0.53537 -1.23564,1.63695 -1.84414,1.9412 -0.11931,0.0597 -0.26893,0.0374 -0.38824,0.0971 -0.50178,0.25089 -0.90509,0.56993 -1.4559,0.77648 -0.44469,0.16676 -0.91735,0.19202 -1.35884,0.38824 -1.32125,0.58722 -2.61593,1.30797 -3.8824,1.9412 -0.17425,0.0871 -0.48197,0.0954 -0.67942,0.19412 -0.14469,0.0723 -0.24355,0.21884 -0.38824,0.29118 -0.37776,0.18888 -0.24405,0.008 -0.67942,0.19412 -0.0106,0.005 -0.87993,0.52796 -0.9706,0.58236 -0.26335,0.15801 -0.49629,0.44227 -0.77648,0.58236 -0.53671,0.26835 -1.16167,0.21801 -1.74708,0.29118 -0.26473,0.0331 -0.51237,0.15639 -0.77648,0.19412 -0.6184,0.0883 -1.31693,0 -1.9412,0 -0.48153,0 -1.7234,0.0805 -2.13532,-0.19412 -0.84966,-0.56644 -1.09821,-1.44653 -1.65002,-2.32944 -0.23839,-0.38142 -0.47916,-0.57622 -0.77648,-0.87354 -0.14625,-0.14624 -0.24375,-0.58383 -0.38824,-0.77648 -0.42264,-0.56352 -1.25825,-1.44884 -1.55296,-2.03826 -0.41856,-0.83711 -0.88002,-1.82688 -1.26179,-2.71768 -0.1171,-0.27323 -0.1357,-0.51736 -0.29117,-0.77648 -0.57134,-0.95223 -1.36644,-2.27799 -1.55297,-3.397099 -0.1178,-0.706843 -0.12629,-1.475801 -0.29118,-2.13532 -0.17962,-0.718537 -0.58234,-1.416505 -0.58234,-2.23238 z"
             id="path994" />
          <path
             style="fill:none;stroke:#000000;stroke-width:1.2;stroke-linecap:butt;stroke-linejoin:miter;stroke-miterlimit:4;stroke-dasharray:none;stroke-opacity:1"
             d="m -267.88559,94.536439 c -0.0691,0.814903 -1.03199,0.717026 -1.35885,1.261782 -0.10271,0.17119 -0.30806,1.033899 -0.19413,1.261779 0.0727,0.145296 1.1261,0.22333 1.4559,0.388242"
             id="path996" />
          <path
             style="fill:none;stroke:#000000;stroke-width:1.2;stroke-linecap:butt;stroke-linejoin:miter;stroke-miterlimit:4;stroke-dasharray:none;stroke-opacity:1"
             d="m -267.98267,97.448242 c 3.1936,1.330658 -0.24032,0.01386 1.84415,0.582358 0.44354,0.12097 0.80189,0.480161 1.26177,0.582361 0.8727,0.193929 1.73952,0.427676 2.62063,0.679419 1.19413,0.341182 2.62475,0.44813 3.68828,0.87354 0.27286,0.10915 2.03826,0.51626 2.03826,0.58236"
             id="path998" />
          <path
             style="fill:none;stroke:#000000;stroke-width:1.2;stroke-linecap:butt;stroke-linejoin:miter;stroke-miterlimit:4;stroke-dasharray:none;stroke-opacity:1"
             d="m -267.88559,94.536439 c 0.35589,0.420595 0.65587,0.895747 1.06764,1.261782 0.47908,0.425844 3.22744,1.330563 3.97947,1.455899 0.43924,0.07321 0.1844,0.149746 0.67942,0.291182 0.72255,0.206441 1.49859,0.338539 2.23238,0.485298 0.14188,0.02838 0.25097,0.148365 0.38824,0.19412 0.48417,0.161393 1.61732,0.388241 2.03826,0.388241"
             id="path1000" />
          <path
             style="fill:none;stroke:#000000;stroke-width:1.2;stroke-linecap:butt;stroke-linejoin:miter;stroke-miterlimit:4;stroke-dasharray:none;stroke-opacity:1"
             d="m -260.31492,84.442201 c 0.0264,1.357426 -0.0712,2.730116 0.0971,4.07652 0.0559,0.447146 0.28371,0.843664 0.38824,1.261779 0.0609,0.243449 0.0756,0.539491 0.19412,0.776481 0.18294,0.365874 0.41218,0.767625 0.58236,1.16472 0.151,0.35234 0.19212,0.720947 0.29118,1.06766 0.13173,0.461063 0.51235,0.816263 0.67942,1.261779 0.20297,0.54125 -0.0356,0.285305 0.29118,0.87354 0.46823,0.842825 0.9927,1.67884 1.26178,2.620622 0.11896,0.416374 0.12471,0.845333 0.19412,1.261779 0.0903,0.541745 0.30092,1.029044 0.38824,1.552959 0.0922,0.55302 0.16424,1.14227 0.29118,1.65002 0.11255,0.45019 -0.0658,0.99504 0,1.4559 0.1295,0.90649 0.27635,1.81226 0.4853,2.71768 0.12677,0.54934 0.68364,2.33507 0.9706,2.71768 0.0434,0.0579 0.14296,0.0459 0.19412,0.0971 0.15231,0.15231 0.3885,0.58289 0.4853,0.77648 0.35304,0.7061 0.27904,2.22992 0.26944,2.91853"
             id="path1002" />
          <path
             style="fill:none;stroke:#000000;stroke-width:1.2;stroke-linecap:butt;stroke-linejoin:miter;stroke-miterlimit:4;stroke-dasharray:none;stroke-opacity:1"
             d="m -239.93232,106.37776 c -0.81833,0.64412 -0.67942,1.46264 -0.67942,2.4265 0,2.06219 0.30939,3.22119 1.74708,4.65888 0.2852,0.2852 0.4822,0.58081 0.87354,0.77648 0.11931,0.0597 0.26892,0.0374 0.38824,0.0971 0.67916,0.33958 1.13831,0.98473 2.03826,1.16472 0.28279,0.0566 1.81713,0.31819 2.13532,0"
             id="path1004" />
          <path
             style="fill:none;stroke:#000000;stroke-width:1.2;stroke-linecap:butt;stroke-linejoin:miter;stroke-miterlimit:4;stroke-dasharray:none;stroke-opacity:1"
             d="m -235.07932,110.93958 c 1.25956,-0.40349 2.30669,-0.65819 3.59122,-0.29118 0.25571,0.0731 0.34545,0.22349 0.58236,0.29118 0.87956,0.25131 1.72021,0.29118 2.62062,0.29118"
             id="path1006" />
          <path
             style="fill:none;stroke:#000000;stroke-width:1.2;stroke-linecap:butt;stroke-linejoin:miter;stroke-miterlimit:4;stroke-dasharray:none;stroke-opacity:1"
             d="m -224.98508,108.7072 c 0.15356,-0.58159 0.41207,-1.11532 0.67942,-1.65002 0.67598,-1.35196 1.44796,-2.13135 2.81474,-2.81474 0.72332,-0.36166 3.8669,-0.69492 4.46476,-0.0971 0.19742,0.19742 0.15144,0.5204 0.19412,0.77648 0.0764,0.45811 0.13458,0.79849 -0.0971,1.26178"
             id="path1008" />
          <path
             style="fill:none;stroke:#000000;stroke-width:1.2;stroke-linecap:butt;stroke-linejoin:miter;stroke-miterlimit:4;stroke-dasharray:none;stroke-opacity:1"
             d="m -211.88198,94.439382 c -0.0115,0.320563 1.12066,1.226671 1.16472,1.358839 0.14997,0.449916 0.23813,1.005573 0.38824,1.455899 0.26105,0.783156 0.75913,1.58062 0.9706,2.426501 0.23725,0.949019 0.1881,2.359539 0,3.300039 -0.0741,0.3703 -0.88283,1.71569 -1.16472,1.9412 -0.27673,0.22138 -0.30941,-0.0606 -0.4853,0.29118 -0.0631,0.12627 0.0904,0.2287 -0.0971,0.29118 -0.0614,0.0204 -0.13625,-0.0289 -0.19412,0 -0.0579,0.0289 0,0.12942 0,0.19412"
             id="path1010" />
          <path
             style="fill:none;stroke:#000000;stroke-width:1.2;stroke-linecap:butt;stroke-linejoin:miter;stroke-miterlimit:4;stroke-dasharray:none;stroke-opacity:1"
             d="m -230.80868,134.23398 c 0.0614,-0.81814 0.4736,-1.54732 0.67942,-2.32944 0.19456,-0.73933 0.32557,-1.51359 0.4853,-2.23238 0.14697,-0.66138 0.56227,-1.29856 0.77648,-1.9412 0.15137,-0.45412 0.28007,-1.04544 0.4853,-1.4559 0.0409,-0.0819 0.16013,-0.10916 0.19412,-0.19412 0.036,-0.0901 -0.0236,-0.19702 0,-0.29118 0.13293,-0.53172 0.53641,-1.47294 1.06766,-1.65002 1.26606,-0.42202 4.17442,0.87298 5.3383,0.0971 0.92253,-0.61502 1.21061,-1.21061 1.9412,-1.9412 0.16763,-0.16764 0.44204,-0.3099 0.58236,-0.4853 0.0904,-0.11298 0.11002,-0.2705 0.19412,-0.38824 0.0689,-0.0965 1.13734,-1.16845 1.26178,-1.26178 0.22114,-0.16586 0.5083,-0.22414 0.77648,-0.29118 0.2511,-0.0628 0.51765,0 0.77648,0 2.12772,0 3.54544,0.95916 5.53242,1.4559 0.12555,0.0314 0.26091,-0.0232 0.38824,0 0.51999,0.0945 1.02818,0.30078 1.55296,0.38824 0.77704,0.12951 1.55851,0.25975 2.32944,0.38824 0.2553,0.0426 0.52268,-0.0508 0.77648,0 0.25917,0.0518 0.49596,0.15906 0.77648,0.19412 0.84374,0.10547 1.77049,0 2.62062,0"
             id="path1012" />
          <path
             style="fill:none;stroke:#000000;stroke-width:1.2;stroke-linecap:butt;stroke-linejoin:miter;stroke-miterlimit:4;stroke-dasharray:none;stroke-opacity:1"
             d="m -228.67336,132.77808 c 0.19412,-0.0971 0.42104,-0.14599 0.58236,-0.29118 0.17341,-0.15607 0.2313,-0.40973 0.38824,-0.58236 0.3875,-0.32292 0.64665,-0.50909 0.9706,-0.87354 1.08501,-1.22064 1.89035,-2.57524 3.3971,-3.3971 1.05226,-0.57396 2.44482,-0.53511 3.49416,-1.16472 0.89617,-0.5377 1.84802,-0.65335 2.81474,-1.06766 1.34167,-0.575 2.63764,-1.11903 4.07652,-1.35884 0.8581,-0.14302 1.85165,0 2.71768,0 1.97355,0 3.94711,0 5.92066,0 0.77461,0 1.19856,-0.14265 1.9412,-0.29118 1.20965,-0.24193 2.43166,-0.2156 3.59122,-0.67942 0.23816,-0.0953 1.35884,-0.15798 1.35884,-0.29118"
             id="path1014" />
          <path
             style="fill:none;stroke:#000000;stroke-width:1.2;stroke-linecap:butt;stroke-linejoin:miter;stroke-miterlimit:4;stroke-dasharray:none;stroke-opacity:1"
             d="m -196.25532,124.52798 c -1.26479,0.72755 -2.45903,1.67713 -3.59122,2.62062 -1.29603,1.08003 -2.70767,2.12531 -3.8824,3.30004 -1.82615,1.82615 0.4547,-0.55559 -1.06766,0.77648 -0.12174,0.10653 -0.19412,0.25883 -0.29118,0.38824 -0.12941,0.12941 -0.24928,0.26913 -0.38824,0.38824 -1.14956,0.98534 -2.27741,1.70448 -3.78534,2.13532 -0.79053,0.22586 -1.6268,0.35202 -2.4265,0.4853 -0.69652,0.11609 -1.38945,0.41989 -2.03826,0.67942 -0.84497,0.33799 -1.7486,0.4416 -2.62062,0.67942 -0.39482,0.10768 -0.76523,0.29946 -1.16472,0.38824 -0.43292,0.0962 -4.25316,0.66194 -4.27064,0.67942 -0.48748,0.48748 -1.39281,1.12007 -2.23238,1.4559 -0.61571,0.24628 -1.35728,0.38746 -1.9412,0.67942 -0.13852,0.0693 -0.11763,0.19412 -0.29118,0.19412"
             id="path1016" />
          <path
             style="fill:none;stroke:#000000;stroke-width:1.2;stroke-linecap:butt;stroke-linejoin:miter;stroke-miterlimit:4;stroke-dasharray:none;stroke-opacity:1"
             d="m -224.40272,142.48408 c 1.1271,0.21635 2.02694,0.87643 3.10592,1.26178 0.0465,0.0166 0.68452,0.14941 0.87354,0.29118 0.39586,0.2969 0.96112,0.63511 1.4559,0.77648 0.55692,0.15912 1.10898,0.20789 1.65002,0.38824 0.24643,0.0821 0.70096,0 0.9706,0 0.94372,0 1.91299,0.0367 2.81474,-0.29118 0.17729,-0.0645 0.31014,-0.22112 0.4853,-0.29118 0.54826,-0.2193 1.19547,-0.2489 1.74708,-0.4853 0.42447,-0.18191 0.75848,-0.6414 1.16472,-0.87354 0.64867,-0.37067 1.47556,-0.65829 2.03826,-1.16472 0.27419,-0.24677 0.39137,-0.6431 0.67942,-0.87354 0.2462,-0.19696 0.78683,-0.36049 1.06766,-0.4853 0.5491,-0.24405 1.1788,-0.63441 1.74708,-0.77648 0.21355,-0.0534 0.60681,-0.0669 0.77648,-0.19412 0.21293,-0.1597 1.04297,-1.01828 1.16472,-1.26178 0.0597,-0.11931 0.0309,-0.27242 0.0971,-0.38824 0.0681,-0.11918 0.21504,-0.17697 0.29118,-0.29118 0.23797,-0.35696 0.362,-0.77909 0.58236,-1.16472 0.22712,-0.39746 0.54562,-0.65212 0.77648,-1.06766 0.10763,-0.19374 0.40606,-1.02407 0.4853,-1.26178 0.11325,-0.33975 0.12257,-0.80696 0.19412,-1.16472 0.0597,-0.2987 0.22508,-0.5761 0.29118,-0.87354 0.44603,-2.00715 1.19696,-4.20582 2.71768,-5.72654"
             id="path1018" />
          <path
             style="fill:none;stroke:#000000;stroke-width:1.2;stroke-linecap:butt;stroke-linejoin:miter;stroke-miterlimit:4;stroke-dasharray:none;stroke-opacity:1"
             d="m -240.9662,79.406974 c 0.4292,-0.396743 0.93938,-0.708171 1.37264,-1.098108 0.14429,-0.12986 0.2485,-0.306819 0.41179,-0.41179 0.16442,-0.105698 0.37423,-0.118483 0.54906,-0.205896 0.30195,-0.150976 0.65678,-0.366617 0.96084,-0.549055 0.18415,-0.11049 0.34769,-0.262612 0.54905,-0.343157 0.69799,-0.279194 1.54194,-0.384342 2.12759,-0.823582 0.14691,-0.110188 0.2254,-0.05738 0.41179,-0.137263 0.10622,-0.04552 0.41011,-0.302982 0.48042,-0.343159 0.13356,-0.07632 0.34671,-0.07996 0.48042,-0.137263 0.32634,-0.139856 0.60142,-0.321935 0.96085,-0.411793 0.42601,-0.106502 0.88043,-0.09038 1.304,-0.205896 0.59166,-0.161358 0.0896,-0.131307 0.68632,-0.205893 0.45873,-0.05734 0.95449,-0.06651 1.37264,-0.205896 0.0662,-0.02207 0.58918,-0.06863 0.41179,-0.06863 -0.12672,0 0.14221,0.459557 -0.0686,0.617688 -0.11575,0.08681 -0.28617,0.06548 -0.41179,0.137263 -0.82012,0.468638 -1.6908,0.594278 -2.60801,0.823582 -0.0993,0.02482 -0.17747,0.10491 -0.27453,0.137263 -0.33808,0.112694 -0.71155,0.126413 -1.02948,0.205894 -0.57981,0.144954 -1.14118,0.376671 -1.71579,0.549055 -0.78709,0.236128 -1.79815,0.356881 -2.40211,0.960845 -0.25673,0.256731 -0.52477,0.418476 -0.82358,0.617686 -0.12881,0.08587 -0.19558,0.26421 -0.27453,0.343159 -0.3641,0.364096 -0.78356,0.899366 -1.304,1.029478 -0.2662,0.06655 -0.22515,0.345876 -0.68632,0 -0.19037,-0.142772 -0.2059,-0.222726 -0.2059,-0.480423"
             id="path1020" />
          <path
             style="fill:none;stroke:#000000;stroke-width:1.2;stroke-linecap:butt;stroke-linejoin:miter;stroke-miterlimit:4;stroke-dasharray:none;stroke-opacity:1"
             d="m -229.29879,73.367378 c 0.0686,-0.137263 0.16373,-0.264232 0.20589,-0.41179 0.24843,-0.869487 0.1003,-1.805508 0.27453,-2.676641 0.0849,-0.42459 0.33018,-0.758698 0.41179,-1.166741 0.0551,-0.275371 1.01916,-1.320713 1.23537,-1.509898 0.33997,-0.297468 0.6179,-0.66689 0.96085,-0.960845 0.33638,-0.288329 0.73175,-0.510709 1.09811,-0.754949 0.69977,-0.466513 1.33106,-1.036886 2.05895,-1.441267 1.27859,-0.71033 2.54325,-1.434187 3.84338,-2.127586 0.45864,-0.24461 0.99884,-0.615572 1.5099,-0.754949 0.64146,-0.174945 1.21838,-0.40613 1.85306,-0.617688 0.44283,-0.147609 0.93726,-0.169008 1.37263,-0.343159 0.98507,-0.394026 1.92807,-0.859812 2.95117,-1.166739 0.2438,-0.07314 0.57048,-0.307004 0.82358,-0.343159 0.11324,-0.01617 0.23219,0.02774 0.34316,0 1.08025,-0.270063 -0.78424,-0.02521 0.48042,-0.205896 1.02599,-0.146569 2.06077,-0.240393 3.08843,-0.34316 0.65693,-0.06569 1.3315,0.04706 1.99033,0 0.79788,-0.05699 1.73255,-0.18389 2.53937,-0.06863 0.55103,0.07872 1.10102,0.252135 1.64716,0.343159 0.12152,0.02024 0.22164,0.11701 0.34316,0.137264 0.30132,0.05022 0.59531,0.09456 0.89222,0.205893 0.18009,0.06753 0.33565,0.227349 0.48042,0.343159 0.153,0.122405 0.32244,0.169204 0.48042,0.274529 0.15767,0.105114 -0.0294,0.0392 0.13726,0.205894 0.30444,0.304435 0.54942,0.618135 0.82359,0.960845 0.44617,0.557715 0.94312,1.074483 1.37263,1.647163 0.0899,0.119939 0.0681,0.204746 0.13727,0.34316 0.0738,0.147552 0.20075,0.264236 0.27452,0.411789 0.53922,1.078431 0.9269,2.3704 1.09811,3.568854 0.0226,0.158533 -0.0199,0.321519 0,0.480422 0.1062,0.849633 0.001,-0.236892 0.2059,0.480423 0.0819,0.286816 0.0944,0.66086 0.13726,0.960844 0.0728,0.509485 0.27937,0.999557 0.34316,1.509901 0.11662,0.93295 0.20589,1.860113 0.20589,2.813902 0,1.042125 -0.0799,2.118421 0,3.157064 0.11697,1.520555 0.72764,3.28032 0,4.735591 -0.45509,0.910196 -0.9376,1.818196 -1.5099,2.676639 -0.0568,0.08513 -0.0649,0.202184 -0.13726,0.274529 -0.30032,0.300323 -0.69232,0.502084 -1.02948,0.754949 -0.67945,0.509593 -1.23967,0.886979 -1.99032,1.304004 -0.46637,0.259099 -0.81038,0.663353 -1.23537,0.960845 -0.1511,0.10577 -0.32877,0.16954 -0.48042,0.274527 -0.14691,0.101705 -0.27453,0.228772 -0.41179,0.343159 -0.22877,0.160142 -0.45397,0.325522 -0.68632,0.480422 -0.37599,0.250659 -0.81124,0.478446 -1.16674,0.754949 -0.65895,0.512517 -1.27323,1.079643 -1.99032,1.509901 -1.01356,0.608136 0.4283,-0.282782 -0.54906,0.205896 -0.10231,0.05115 -0.17,0.159438 -0.27452,0.205893 -0.24448,0.108659 -0.69378,0.254138 -0.96085,0.343159 -0.23494,0.07831 -0.3436,0.03454 -0.54905,0.137264 -0.31072,0.155358 -0.68382,0.403608 -1.02948,0.480422 -0.11166,0.02482 -0.23099,-0.02244 -0.34316,0 -0.32941,0.06588 -0.69975,0.180321 -1.02948,0.274529 -0.33176,0.09479 -0.69011,0.226047 -1.02947,0.274526 -0.47444,0.06778 -0.96571,-0.01064 -1.44127,0.06863 -0.80149,0.133581 -1.77223,0.32529 -2.60801,0.205894 -0.0902,-0.01288 -0.53477,-0.203039 -0.54905,-0.205894 -0.17947,-0.03589 -0.36959,0.03589 -0.54906,0 -0.20871,-0.04174 -0.31956,-0.104481 -0.54905,-0.137266 -0.45149,-0.0645 -0.52067,-0.548536 -0.89221,-0.754948 -0.33281,-0.184896 -0.68854,-0.328891 -1.02948,-0.480423 -0.19722,-0.08765 -0.35068,-0.258141 -0.54905,-0.343159 -0.41397,-0.177414 -0.83454,-0.239919 -1.23538,-0.480423 -0.42569,-0.255412 -0.83535,-0.698092 -1.16674,-1.029475 -0.36053,-0.360534 -0.16849,-0.07133 -0.54905,-0.343159 -0.13345,-0.09532 -0.21607,-0.241483 -0.34316,-0.343159 -0.48479,-0.387829 -0.79642,-0.659152 -1.23537,-1.098109 -0.0809,-0.08088 -0.2013,-0.118022 -0.27453,-0.205896 -0.15667,-0.188005 -0.458,-0.789945 -0.61769,-1.029477 -0.12236,-0.183537 -0.30758,-0.272005 -0.41179,-0.480423 -0.14329,-0.286594 -0.37387,-0.423542 -0.54905,-0.686316 -0.24813,-0.372187 -0.39582,-0.8471 -0.61769,-1.235374 -0.54665,-0.956646 -1.12828,-1.938112 -1.57853,-2.951165 -0.41441,-0.932431 -0.37495,-1.911585 -0.61768,-2.882535 -0.14977,-0.599043 -0.77239,-1.01314 -0.96085,-1.57853 -0.0473,-0.141981 -0.0388,-0.331492 -0.0686,-0.480423 -0.0242,-0.120806 -0.1131,-0.222356 -0.13726,-0.343159 -0.15297,-0.764839 -0.27771,-1.446572 -0.68632,-2.127586 z"
             id="path1022" />
          <path
             style="fill:none;stroke:#000000;stroke-width:1.2;stroke-linecap:butt;stroke-linejoin:miter;stroke-miterlimit:4;stroke-dasharray:none;stroke-opacity:1"
             d="m -251.67275,94.780496 c 0.73184,0.183848 1.42573,-0.09907 2.12758,-0.274529 0.17225,-0.04306 0.3768,0.04306 0.54906,0 0.17913,-0.04478 0.37227,-0.09307 0.54905,-0.137264 0.47182,-0.117956 0.90885,-0.323252 1.304,-0.549052 0.29576,-0.169006 0.71063,-0.223589 1.02948,-0.34316 1.02381,-0.383926 3.02062,-1.716619 3.77475,-2.470745 0.12253,-0.122534 0.23683,-0.338656 0.34316,-0.480422 0.1375,-0.183333 -0.002,0.08369 0.27453,-0.137263 0.14853,-0.118833 0.29181,-0.399093 0.41178,-0.549056 0.27515,-0.343932 0.70215,-0.63746 0.96085,-0.960845 0.16491,-0.206131 0.32398,-0.46124 0.48042,-0.617685 0.32937,-0.32937 0.74756,-0.476727 1.16674,-0.686319 0.2403,-0.120147 0.35117,-0.04758 0.54906,-0.205894 0.31883,-0.255063 0.18599,-0.803679 0.27452,-0.892214 0.0156,-0.01558 0.25463,-0.363059 0.13727,-0.480423 -0.11711,-0.117112 -0.82397,-0.161856 -1.02948,-0.205893 -0.0457,-0.0098 -0.94603,-0.191077 -0.96084,-0.205896 -0.0162,-0.01617 0.0222,-0.06309 0,-0.06863 -0.17756,-0.04439 -0.36745,0.0227 -0.54906,0 -0.18082,-0.0226 -0.33632,-0.101238 -0.48042,-0.137263 -0.26306,-0.06576 -0.62751,0.02207 -0.89221,0 -0.7731,-0.06442 -1.49763,-0.257911 -2.26485,-0.34316 -0.69077,-0.07675 -1.37617,0.02891 -2.05896,-0.06863 -0.50262,-0.0718 -1.21,-0.305861 -1.71579,-0.137263 -1.46606,0.488683 -3.28351,2.285645 -4.25517,3.50022 -0.12658,0.158229 -0.13995,0.414473 -0.27453,0.549053 -0.0362,0.03617 -0.10889,0.02606 -0.13726,0.06863 -0.0449,0.0674 -0.042,0.263171 -0.0686,0.343159 -0.0792,0.237554 -0.34791,0.487567 -0.48042,0.686319 -0.25557,0.38336 0.18235,0.02747 -0.20589,0.480422 -0.17339,0.202288 -0.55832,0.361691 -0.68632,0.617686 -0.0613,0.122544 -0.0659,0.373327 -0.13726,0.480423 -0.0359,0.05384 -0.10833,0.07939 -0.13727,0.137263 -0.24783,0.495675 0.25374,1.157057 0.41179,1.57853 0.10137,0.270312 0.19058,0.571717 0.27453,0.823582 0.0359,0.107659 0.14334,0.04342 0.2059,0.137263 0.0401,0.0602 0.0175,0.154742 0.0686,0.205896 0.38914,0.389144 0.90298,0.746869 1.44127,0.34316 z"
             id="path1024" />
          <path
             style="fill:none;stroke:#000000;stroke-width:1.2;stroke-linecap:butt;stroke-linejoin:miter;stroke-miterlimit:4;stroke-dasharray:none;stroke-opacity:1"
             d="m -245.49589,83.38762 c -0.25165,0.04575 -0.50598,0.07868 -0.75495,0.137263 -0.86005,0.202364 -1.75053,0.21391 -2.60801,0.411789 -0.58632,0.135306 -1.35534,0.539168 -1.85306,0.823582 -0.68585,0.391917 -1.06557,1.011388 -1.64716,1.5099 -0.1737,0.148881 -0.38181,0.255694 -0.54906,0.41179 -0.74244,0.692944 -1.33883,1.544727 -2.05895,2.264849 -0.52791,0.527913 -0.89673,1.160571 -1.37264,1.715794 -0.10784,0.125822 -0.54905,0.282443 -0.54905,0.411792"
             id="path1026" />
          <path
             style="fill:#333333;stroke:#000000;stroke-width:1.2;stroke-linecap:butt;stroke-linejoin:miter;stroke-miterlimit:4;stroke-dasharray:none;stroke-opacity:1"
             d="m -247.00579,85.172044 c -1.1813,0.740449 -1.74831,1.385292 -2.26485,2.676641 -0.054,0.134996 -0.16494,0.288912 -0.2059,0.41179 -0.0548,0.164483 0,0.450627 0,0.617685 0,0.969068 0.1313,2.034344 0.75495,2.813905 0.21119,0.263985 0.54939,0.549389 0.75495,0.754949 0.1232,0.123198 0.32459,0.127979 0.48043,0.205896 0.6869,0.343453 0.66205,0.131199 1.23537,0.274526 0.12113,0.03028 0.82814,0.269965 0.96084,0.137263 0.10199,-0.101991 0.29427,-0.127545 0.41179,-0.205893 0.0426,-0.02838 0.0325,-0.101092 0.0686,-0.137266 0.35962,-0.359616 0.77263,-0.732761 1.09811,-1.166738 0.13492,-0.179896 0.38333,-0.24606 0.54906,-0.411793 0.0883,-0.08831 0.19305,-0.268107 0.34316,-0.343159 0.39449,-0.197247 1.03647,-0.350152 1.37263,-0.686316 0.34294,-0.342937 0.12782,-0.941948 0.27453,-1.235374 0.13037,-0.260739 0.20216,-0.63637 0.13726,-0.960845 0.1335,-0.190677 -0.11245,-0.17527 -0.13726,-0.274526 -0.0667,-0.2667 -0.13925,-0.735386 -0.27453,-0.960845 -0.40419,-0.673661 -1.56408,-1.266076 -2.26485,-1.441268 -0.26736,-0.06684 -0.54934,-7.1e-5 -0.82358,-0.06863 -0.44807,-0.112017 0.25931,-0.03685 -0.34316,-0.137264 -0.35614,-0.05936 -0.74196,0.05936 -1.09811,0 -0.164,-0.02733 -0.50393,-0.137025 -0.68631,-0.06863 -0.12491,0.04684 -0.22878,0.137263 -0.34316,0.205894 z"
             id="path1030" />
          <path
             style="fill:#000000;stroke:#000000;stroke-width:1.2;stroke-linecap:butt;stroke-linejoin:miter;stroke-miterlimit:4;stroke-dasharray:none;stroke-opacity:1"
             d="m -246.25084,87.093733 c -0.46438,-0.158197 -0.82358,0.102402 -0.82358,0.549056 0,0.310832 -0.21955,0.933545 -0.0686,1.235371 0.0737,0.1474 0.24715,0.466736 0.41179,0.549056 0.16574,0.08287 0.91121,0.04672 1.09811,0 0.11272,-0.02818 0.4312,-0.381971 0.48042,-0.480423 0.0613,-0.122513 0,-0.418759 0,-0.549055 0,-0.785239 -0.28825,-1.304005 -1.0981,-1.304005 z"
             id="path1032" />
          <path
             style="fill:#ffffff;stroke:#000000;stroke-width:0;stroke-linecap:butt;stroke-linejoin:miter;stroke-miterlimit:4;stroke-dasharray:none;stroke-opacity:1"
             d="m -245.39294,88.294789 c 1.634,-1.278618 0.34316,-0.278448 0.34316,0.411795 0,0.02826 -0.0182,0.187727 0,0.205896 0.0809,0.08088 0.18767,0.131453 0.27452,0.205893 0.0737,0.06317 0.11669,0.167661 0.2059,0.205896 0.0841,0.03605 0.18302,0 0.27452,0 0.13727,0 0.29759,0.07614 0.4118,0 0.31196,-0.207978 0.58724,-1.284909 0.13726,-1.5099 -0.12906,-0.06453 -0.48122,0 -0.61769,0 -0.55021,0 -0.41225,2.65e-4 -1.02947,0.48042"
             id="path1034" />
          <path
             style="fill:none;stroke:#000000;stroke-width:1.2;stroke-linecap:butt;stroke-linejoin:miter;stroke-miterlimit:4;stroke-dasharray:none;stroke-opacity:1"
             d="m -219.07266,73.985064 c 0.10681,-1.584185 0.24623,-3.263914 0.68632,-4.804225 0.16685,-0.583986 0.18518,-0.418261 0.34316,-0.892212 0.0527,-0.158004 0.0628,-0.331457 0.13726,-0.480423 0.27418,-0.548359 0.76526,-1.050083 1.02948,-1.578533"
             id="path1036" />
          <path
             style="fill:none;stroke:#000000;stroke-width:1.2;stroke-linecap:butt;stroke-linejoin:miter;stroke-miterlimit:4;stroke-dasharray:none;stroke-opacity:1"
             d="m -217.83728,77.004862 c 0.0945,-0.09516 -0.0627,-0.423569 0,-0.549053 0.16075,-0.321511 0.51623,-0.58487 0.75494,-0.823582 0.2365,-0.236495 0.29896,-0.688644 0.48043,-0.960845 0.1612,-0.241797 0.39201,-0.450752 0.54905,-0.686318 0.26,-0.389996 0.44685,-0.883256 0.75495,-1.235372 0.36409,-0.416102 0.35603,-0.277871 0.68632,-0.754949 0.37514,-0.541869 0.71789,-1.114853 1.09811,-1.647163 0.44063,-0.616882 1.03783,-1.125712 1.5099,-1.715797 0.55824,-0.697798 1.12296,-1.511382 1.85306,-2.058953 0.12969,-0.09727 0.29328,-0.156019 0.41179,-0.274526 0.0362,-0.03617 0.0277,-0.106572 0.0686,-0.137263 0.22154,-0.166159 1.48505,-0.605261 1.78442,-0.754949 0.85736,-0.428678 2.07158,-1.031282 3.0198,-1.166741 0.75308,-0.107582 1.57221,-0.0052 2.33348,-0.06863 0.84119,-0.0701 2.31624,-0.20877 3.15707,-0.06863 0.24362,0.0406 0.47242,0.203229 0.68631,0.274526 0.16103,0.05368 0.38725,0.01468 0.54906,0.06863 0.12837,0.04279 0.23056,0.157639 0.34316,0.205893 0.46468,0.19915 1.00216,0.329505 1.44126,0.549056 0.37191,0.185952 0.74539,0.580977 1.16674,0.686318 0.1293,0.03232 0.82748,0.139211 0.96085,0.205894 0.0579,0.02894 0.0759,0.116803 0.13726,0.137263 0.16862,0.05621 0.36321,0.0067 0.54906,0.06863 0.11383,0.03795 0.23308,0.137263 0.34315,0.137263"
             id="path1038" />
          <path
             style="fill:none;stroke:#000000;stroke-width:1.2;stroke-linecap:butt;stroke-linejoin:miter;stroke-miterlimit:4;stroke-dasharray:none;stroke-opacity:1"
             d="m -217.2196,78.789288 c -0.0606,1.124424 0.68592,0.938234 1.37264,0.480423 0.22268,-0.148453 0.38806,-0.494964 0.61768,-0.686319 0.4129,-0.34408 0.82382,-0.686514 1.23538,-1.029475 0.0746,-0.06214 0.13726,-0.137263 0.20589,-0.205896 0.0686,-0.09151 0.11981,-0.199202 0.20589,-0.274527 0.1004,-0.08784 0.23645,-0.125857 0.34316,-0.205896 0.26207,-0.196545 0.4484,-0.478136 0.68632,-0.686318 0.56468,-0.494096 1.37857,-0.6799 1.99033,-1.029475 0.0993,-0.05675 0.17221,-0.154742 0.27452,-0.205897 1.15576,-0.577876 2.99099,-0.986141 4.25517,-1.166741 0.72422,-0.103457 -0.12722,-0.0033 0.48042,-0.205893 0.54451,-0.181504 1.17931,-0.113236 1.7158,-0.343159 0.0758,-0.03249 0.12866,-0.108302 0.20589,-0.137264 0.3741,-0.140287 0.78015,-0.173677 1.16674,-0.274529 1.14394,-0.298415 2.3128,-0.616656 3.36296,-1.166738 0.40548,-0.212394 2.12767,-1.132544 2.47075,-1.647163 0.31695,-0.475428 0.636,-0.854319 1.02947,-1.304005 0.16288,-0.186145 0.39893,-0.348885 0.54906,-0.549055 0.16281,-0.21708 0.5064,-0.913053 0.68632,-1.029475 0.37881,-0.245124 0.7778,-0.45755 1.1667,-0.686322"
             id="path1040" />
          <path
             style="fill:#333333;stroke:#000000;stroke-width:1.2;stroke-linecap:butt;stroke-linejoin:miter;stroke-miterlimit:4;stroke-dasharray:none;stroke-opacity:1"
             d="m -207.47389,67.533675 c -0.0951,0.882304 -0.52363,1.77427 -0.34315,2.676642 0.0668,0.334015 0.48106,0.757531 0.54905,1.029475 0.0911,0.364561 0.51498,1.184018 0.89221,1.372637 0.2469,0.123449 0.54537,0.204973 0.82358,0.274526 0.20692,0.05173 0.57789,0.117362 0.75496,0.205896 0.0579,0.02894 0.0772,0.113232 0.13726,0.137264 0.12744,0.05098 0.27452,0 0.41179,0 0.31844,0 0.71651,0.05216 1.02948,0 0.6011,-0.100185 1.46421,-0.472845 1.99032,-0.823582 0.0869,-0.05793 1.22944,-1.217586 1.23537,-1.235371 0.0553,-0.165849 0.12938,-0.190125 0.2059,-0.34316 0.0579,-0.115885 -0.0301,-0.211561 0.0686,-0.343159 0.11516,-0.153551 0.51108,-0.771006 0.54905,-0.960845 0.10497,-0.524851 0.0461,-1.277186 0,-1.784427 -0.026,-0.286326 -0.15343,-0.423984 -0.20589,-0.686318 -0.44833,-2.241627 -2.66416,-2.798305 -4.7356,-2.539376 -0.30272,0.03784 -0.60528,-0.02701 -0.89221,0.06863 -0.20107,0.06702 -0.36698,0.320752 -0.54906,0.41179 -0.0409,0.02045 -0.0939,-0.01447 -0.13726,0 -0.10852,0.03617 -0.12501,0.193643 -0.20589,0.274526 -0.25748,0.257474 -0.12653,0.04342 -0.34316,0.205896 -0.17272,0.129538 -0.66992,0.722157 -0.75495,0.892215 -0.11002,0.220038 -0.1461,0.356409 -0.27453,0.549053 -0.0889,0.133381 -0.13149,0.468884 -0.2059,0.617685 z"
             id="path1042" />
          <path
             style="fill:#000000;stroke:#000000;stroke-width:1.2;stroke-linecap:butt;stroke-linejoin:miter;stroke-miterlimit:4;stroke-dasharray:none;stroke-opacity:1"
             d="m -204.31682,67.190516 c -0.17231,0.08615 -0.65316,0.285657 -0.82358,0.480422 -0.4177,0.477367 -0.6388,1.077 -0.13727,1.578534 0.061,0.06097 0.50592,0 0.54906,0 0.0288,0 0.57206,0.04562 0.61768,0 0.20918,-0.209177 0.6489,-0.611474 0.82358,-0.960845 0.0307,-0.06139 -0.0217,-0.140788 0,-0.205896 0.26834,-0.805006 -0.24841,-1.08748 -1.02947,-0.892215 z"
             id="path1044" />
          <path
             style="fill:#ffffff;stroke:#000000;stroke-width:0;stroke-linecap:butt;stroke-linejoin:miter;stroke-miterlimit:4;stroke-dasharray:none;stroke-opacity:1"
             d="m -202.94419,68.082731 c -0.37051,0.741029 -0.146,0.138538 -0.20589,0.617685 -0.0407,0.325612 -0.13727,0.629412 -0.13727,0.960845 0,0.159454 0.14364,0.212265 0.2059,0.274527 0.62708,0.627083 1.39781,-1.347454 1.16674,-1.578531 -0.21621,-0.216212 -0.68374,-0.188092 -1.02948,-0.274526 z"
             id="path1046" />
          <path
             style="fill:none;stroke:#000000;stroke-width:1.2;stroke-linecap:butt;stroke-linejoin:miter;stroke-miterlimit:4;stroke-dasharray:none;stroke-opacity:1"
             d="m -205.3463,99.92788 c 3.0269,1.03233 5.08832,3.85294 7.27497,6.0396 1.95289,1.95288 -0.14098,-0.47735 1.37263,1.37263 1.09443,1.33764 2.31781,3.15706 4.25518,3.15706"
             id="path1048" />
          <path
             style="fill:none;stroke:#000000;stroke-width:1.2;stroke-linecap:butt;stroke-linejoin:miter;stroke-miterlimit:4;stroke-dasharray:none;stroke-opacity:1"
             d="m -236.77966,117.77214 c -0.0499,1.88631 0.18844,3.77596 -0.27452,5.62781 -0.37674,1.50695 -0.6708,1.96651 -1.09811,3.43159 -0.15847,0.54331 -0.22483,1.11298 -0.41179,1.64716 -0.43484,1.24239 -1.3399,2.26801 -1.92169,3.43159"
             id="path1050" />
          <path
             style="fill:none;stroke:#000000;stroke-width:1.2;stroke-linecap:butt;stroke-linejoin:miter;stroke-miterlimit:4;stroke-dasharray:none;stroke-opacity:1"
             d="m -151.02536,59.012481 c 1.89734,-1.173142 3.69994,-2.299949 5.43536,-3.688281 0.68864,-0.550913 -0.37583,0.272558 0.19412,-0.582359 0.62841,-0.942618 3.75183,-2.340033 4.853,-2.523561 2.63502,-0.439169 5.27075,1.454197 7.37656,2.717681 0.5462,0.327718 0.68854,0.847264 1.16472,1.164719 2.80861,1.872406 4.98662,6.418575 6.01772,9.51188 0.54176,1.625277 -0.41241,12.496183 -0.9706,14.17076 -0.27806,0.834176 -0.10827,2.053259 -0.19412,2.9118 -0.18057,1.805713 -0.0501,3.838475 -0.58236,5.435359 -0.15223,0.45669 -0.0172,1.110549 -0.19412,1.552962 -0.068,0.169928 -0.28672,0.23596 -0.38824,0.388239 -0.32299,0.484478 -0.4911,1.267584 -0.9706,1.74708 -0.62847,0.628471 -1.59769,1.433391 -2.13532,2.32944 -0.0666,0.110971 0.0409,0.265469 0,0.388241 -0.0855,0.256601 -0.45864,0.52904 -0.58236,0.776478 -0.46437,0.928735 -0.80425,1.793367 -1.35884,2.717681 -0.33549,0.559142 -1.04104,0.823442 -1.55296,1.16472 -0.50317,0.335449 -1.78975,1.60344 -2.52356,1.35884 -0.49428,-0.16476 -1.07666,-0.635387 -1.35884,-0.776479 -0.31448,-0.157239 -1.0683,-5.29e-4 -1.35884,-0.194119 -0.30456,-0.203042 -0.44909,-0.612786 -0.77648,-0.776481 -0.61507,-0.307539 -0.18065,0.401711 -0.77648,-0.19412 -1.03386,-1.033864 -1.35884,-2.385142 -1.35884,-3.8824 0,-0.748954 -0.16845,-1.772753 0.38824,-2.329439"
             id="path1052" />
          <path
             style="fill:none;stroke:#000000;stroke-width:1.2;stroke-linecap:butt;stroke-linejoin:miter;stroke-miterlimit:4;stroke-dasharray:none;stroke-opacity:1"
             d="m -139.7664,104.24244 c 0.57171,3.23668 0.1811,6.39975 -0.77648,9.51188 -0.016,0.0518 -0.77648,1.53809 -0.77648,1.74708"
             id="path1054" />
          <path
             style="fill:none;stroke:#000000;stroke-width:1.2;stroke-linecap:butt;stroke-linejoin:miter;stroke-miterlimit:4;stroke-dasharray:none;stroke-opacity:1"
             d="m -222.07328,5.0471199 c -4.27738,0.022029 -10.14526,-4.16860323 -12.81192,1.1647202"
             id="path1056" />
          <path
             style="fill:none;stroke:#000000;stroke-width:1.2;stroke-linecap:butt;stroke-linejoin:miter;stroke-miterlimit:4;stroke-dasharray:none;stroke-opacity:1"
             d="m -227.50864,7.57068 c -3.15813,0.4637468 -6.69474,-0.1258213 -9.706,1.1647201 -0.56972,0.2441668 -2.1641,3.1346929 -2.71768,3.6882799"
             id="path1058" />
          <path
             style="fill:none;stroke:#000000;stroke-width:1.2;stroke-linecap:butt;stroke-linejoin:miter;stroke-miterlimit:4;stroke-dasharray:none;stroke-opacity:1"
             d="m -233.52636,12.03544 c -2.27338,0.885267 -5.71994,-0.85941 -7.7648,0.77648 -0.32492,0.259938 -0.56154,1.072248 -0.77648,1.35884 -0.36941,0.492552 -0.9706,0.700513 -0.9706,1.35884"
             id="path1060" />
          <path
             style="fill:none;stroke:#000000;stroke-width:1.2;stroke-linecap:butt;stroke-linejoin:miter;stroke-miterlimit:4;stroke-dasharray:none;stroke-opacity:1"
             d="m -236.63228,14.75312 c -2.77568,0.595977 -5.78862,0.282434 -8.54128,0.9706 -0.61826,0.154565 -1.33879,2.046979 -0.77648,1.74708 1.02928,-0.548949 1.9412,-1.294133 2.9118,-1.9412"
             id="path1062" />
          <path
             style="fill:none;stroke:#000000;stroke-width:1.2;stroke-linecap:butt;stroke-linejoin:miter;stroke-miterlimit:4;stroke-dasharray:none;stroke-opacity:1"
             d="m -211.00844,2.13532 c -1.76217,-0.074723 -3.4936,0.4369101 -5.24124,0 -4.26021,-1.0650527 1.91624,-0.05581 -3.8824,-1.74708 -0.93124,-0.27161087 -4.88683,-0.62451302 -5.8236,0 -0.19412,0.12941334 -0.25883,0.38824 -0.38824,0.58236"
             id="path1064" />
          <path
             style="fill:none;stroke:#000000;stroke-width:1.2;stroke-linecap:butt;stroke-linejoin:miter;stroke-miterlimit:4;stroke-dasharray:none;stroke-opacity:1"
             d="m -218.19088,4.4647601 c -2.6758,-1.3939091 -5.52755,-2.1814137 -8.15304,-3.49416013"
             id="path1066" />
          <path
             style="fill:none;stroke:#000000;stroke-width:1.2;stroke-linecap:butt;stroke-linejoin:miter;stroke-miterlimit:4;stroke-dasharray:none;stroke-opacity:1"
             d="m -203.826,1.9412 c -3.49616,-0.8048885 -6.67815,-2.70478495 -10.28836,-3.10592 -0.2701,-0.030011 -0.9706,-0.1433575 -0.9706,0.19412"
             id="path1068" />
          <path
             style="fill:none;stroke:#000000;stroke-width:1.2;stroke-linecap:butt;stroke-linejoin:miter;stroke-miterlimit:4;stroke-dasharray:none;stroke-opacity:1"
             d="m -197.61416,0.38824 c -1.31924,-0.37749355 -3.16754,-0.5170347 -4.46476,-0.77648 -5.51699,-1.1033974 2.50942,0.37152696 -2.52356,-0.9706 -0.0358,-0.00955 -3.10592,-0.5650845 -3.10592,0"
             id="path1070" />
          <path
             style="fill:none;stroke:#000000;stroke-width:1.2;stroke-linecap:butt;stroke-linejoin:miter;stroke-miterlimit:4;stroke-dasharray:none;stroke-opacity:1"
             d="m -197.61416,0.38824 c 0.71177,-0.12941334 1.58604,0.0825701 2.13532,-0.38824 1.08748,-0.93212517 -4.78892,-2.1036513 -4.46476,-1.74708 0.70856,0.77941455 1.55296,1.42354666 2.32944,2.13532"
             id="path1072" />
          <path
             style="fill:none;stroke:#000000;stroke-width:1.2;stroke-linecap:butt;stroke-linejoin:miter;stroke-miterlimit:4;stroke-dasharray:none;stroke-opacity:1"
             d="m -165.53987,8.7848685 c 2.14109,0.1972376 3.88804,-1.6024286 5.97323,-1.6024286"
             id="path1074" />
          <path
             style="fill:none;stroke:#000000;stroke-width:1.2;stroke-linecap:butt;stroke-linejoin:miter;stroke-miterlimit:4;stroke-dasharray:none;stroke-opacity:1"
             d="m -159.56664,7.1824399 c -1.00841,5.7502691 0.32035,2.1013751 3.10592,3.4941601"
             id="path1076" />
          <path
             style="fill:none;stroke:#000000;stroke-width:1.2;stroke-linecap:butt;stroke-linejoin:miter;stroke-miterlimit:4;stroke-dasharray:none;stroke-opacity:1"
             d="m -156.7519,13.87958 c 3.79178,-0.576692 5.77761,0.646451 7.95892,3.59122 0.0849,0.114645 1.84414,2.616347 1.84414,2.71768"
             id="path1078" />
          <path
             style="fill:none;stroke:#000000;stroke-width:1.2;stroke-linecap:butt;stroke-linejoin:miter;stroke-miterlimit:4;stroke-dasharray:none;stroke-opacity:1"
             d="m -152.09302,19.02376 c 1.10755,0 0.38283,-0.05098 2.4265,0.87354 0.68563,0.310165 1.40731,0.560486 2.03826,0.9706 2.57354,1.672802 3.82149,4.476151 4.75594,7.279501"
             id="path1080" />
          <path
             style="fill:none;stroke:#000000;stroke-width:1.2;stroke-linecap:butt;stroke-linejoin:miter;stroke-miterlimit:4;stroke-dasharray:none;stroke-opacity:1"
             d="m -145.78412,26.49738 c 2.00425,1.12689 3.75086,2.637565 5.53242,4.07652 0.82998,0.67037 1.58013,1.552962 2.71768,1.552962"
             id="path1082" />
          <path
             style="fill:none;stroke:#000000;stroke-width:1.2;stroke-linecap:butt;stroke-linejoin:miter;stroke-miterlimit:4;stroke-dasharray:none;stroke-opacity:1"
             d="m -172.86386,35.71808 c 1.19754,1.786747 0.82958,3.845806 0.58236,5.823601"
             id="path1084" />
          <path
             style="fill:none;stroke:#000000;stroke-width:1.2;stroke-linecap:butt;stroke-linejoin:miter;stroke-miterlimit:4;stroke-dasharray:none;stroke-opacity:1"
             d="m -172.2815,41.541681 c 0.45295,-0.19412 0.88848,-0.729348 1.35884,-0.582361 0.25595,0.07998 0.19412,2.919748 0.19412,3.397099"
             id="path1086" />
          <path
             style="fill:none;stroke:#000000;stroke-width:1.2;stroke-linecap:butt;stroke-linejoin:miter;stroke-miterlimit:4;stroke-dasharray:none;stroke-opacity:1"
             d="m -170.72854,44.356419 c 0.58236,0 1.34657,-0.422765 1.74708,0 0.1148,0.121174 -0.0903,3.728934 -0.0971,3.785341 -0.033,0.27519 -0.35478,0.753059 -0.4853,0.9706"
             id="path1088" />
          <path
             style="fill:none;stroke:#000000;stroke-width:1.2;stroke-linecap:butt;stroke-linejoin:miter;stroke-miterlimit:4;stroke-dasharray:none;stroke-opacity:1"
             d="m -167.4285,46.87998 c 0.077,1.386422 0.0208,2.609112 -0.58236,3.882401 -0.16152,0.340982 -0.41363,0.633132 -0.58236,0.9706"
             id="path1090" />
          <path
             style="fill:none;stroke:#000000;stroke-width:1.2;stroke-linecap:butt;stroke-linejoin:miter;stroke-miterlimit:4;stroke-dasharray:none;stroke-opacity:1"
             d="m -166.26378,49.888841 c -0.0324,0.129413 -0.0475,0.264384 -0.0971,0.388239 -0.28447,0.711178 -0.68032,1.476835 -1.06766,2.135319 -0.11829,0.201094 -0.27249,0.379796 -0.38824,0.582361 -0.0161,0.02809 0.017,0.124614 0,0.09706 -0.27341,-0.444293 -0.51765,-0.905893 -0.77648,-1.358839"
             id="path1092" />
          <path
             style="fill:none;stroke:#000000;stroke-width:1.2;stroke-linecap:butt;stroke-linejoin:miter;stroke-miterlimit:4;stroke-dasharray:none;stroke-opacity:1"
             d="m -164.12846,61.34192 c 0.84232,1.999207 1.30478,4.049347 1.35884,6.21184 0.0284,1.137078 -0.55324,2.846284 0.87354,3.202979"
             id="path1094" />
          <path
             style="fill:none;stroke:#000000;stroke-width:1.2;stroke-linecap:butt;stroke-linejoin:miter;stroke-miterlimit:4;stroke-dasharray:none;stroke-opacity:1"
             d="m -161.31372,67.165521 c 0.71689,2.703055 0.18092,6.194237 1.9412,8.541279"
             id="path1096" />
          <path
             style="fill:none;stroke:#000000;stroke-width:1.2;stroke-linecap:butt;stroke-linejoin:miter;stroke-miterlimit:4;stroke-dasharray:none;stroke-opacity:1"
             d="m -158.98428,69.883202 c 0.35069,0.860967 0.68447,2.014672 0.77648,2.911797 0.13301,1.296872 -0.48865,3.102573 0.58236,4.17358 0.13726,0.137266 0.38824,0 0.58236,0"
             id="path1098" />
          <path
             style="fill:none;stroke:#000000;stroke-width:1.2;stroke-linecap:butt;stroke-linejoin:miter;stroke-miterlimit:4;stroke-dasharray:none;stroke-opacity:1"
             d="m -156.7519,70.56262 c 1.05285,1.669515 0.23401,3.653718 0.67942,5.435362 0.0526,0.210552 0.13771,0.428892 0.29118,0.582358 0.1232,0.123198 0.65182,0.142883 0.4853,0.19412 -0.56003,0.172318 -1.16472,0.129413 -1.74708,0.194119"
             id="path1100" />
          <path
             style="fill:none;stroke:#000000;stroke-width:1.2;stroke-linecap:butt;stroke-linejoin:miter;stroke-miterlimit:4;stroke-dasharray:none;stroke-opacity:1"
             d="m -154.51952,65.903741 c 0.45911,2.58553 -0.19953,5.479749 0.29118,8.055981 0.0612,0.321463 0.44154,1.164719 0.87354,1.164719"
             id="path1102" />
          <path
             style="fill:none;stroke:#000000;stroke-width:1.2;stroke-linecap:butt;stroke-linejoin:miter;stroke-miterlimit:4;stroke-dasharray:none;stroke-opacity:1"
             d="m -153.45186,62.40958 c 0.46528,2.990104 0.51633,6.025999 0.87354,9.02658 0.0736,0.617966 0.15124,1.237748 0.29118,1.844141 0.0554,0.240085 0.14797,0.478919 0.29118,0.679421 0.0376,0.05265 0.24325,-0.04211 0.19412,0 -0.49129,0.421103 -1.03531,0.776478 -1.55296,1.164719"
             id="path1104" />
          <path
             style="fill:none;stroke:#000000;stroke-width:1.2;stroke-linecap:butt;stroke-linejoin:miter;stroke-miterlimit:4;stroke-dasharray:none;stroke-opacity:1"
             d="m -144.52234,57.750701 c 0.31605,-0.535773 0.85313,-0.48978 1.35884,-0.679421 0.52598,-0.197241 1.17551,-0.345109 1.65002,-0.582361 0.0818,-0.04092 0.10916,-0.160133 0.19412,-0.194119 0.18023,-0.07209 0.38824,0 0.58236,0 1.66139,0 3.16949,0.05354 4.75594,0.582361 1.61307,0.537689 -0.81162,-0.299963 0.77648,0.09706 0.51395,0.128487 1.83114,0.678039 2.13532,1.164719 0.10845,0.173519 0.0926,0.404699 0.19412,0.582361 0.16052,0.280906 0.43767,0.487104 0.58236,0.776478 0.15106,0.30212 0.16875,0.655789 0.29118,0.970601 0.41026,1.054967 0.96867,2.065472 1.35884,3.105919 0.14498,0.386623 0.17644,0.860185 0.29118,1.261783 0.12736,0.445775 0.33664,0.894408 0.38824,1.358839 0.0888,0.799483 0.22432,1.6242 0.29118,2.426499 0.0561,0.673708 -0.0673,1.365636 0,2.03826 0.0984,0.984324 0.17988,2.015048 0.0971,3.00886 -0.10249,1.229923 -0.73463,2.3143 -0.9706,3.494161 -0.0317,0.158626 0.0289,0.326142 0,0.485299 -0.21589,1.187387 -0.83073,2.830002 -1.26178,3.97946 -0.26506,0.706819 -0.73241,1.270696 -1.06766,1.941201 -0.17369,0.347384 -0.25443,0.85689 -0.4853,1.164719 -0.19136,0.255143 -0.4853,0.553715 -0.4853,0.873541"
             id="path1106" />
          <path
             style="fill:none;stroke:#000000;stroke-width:1.2;stroke-linecap:butt;stroke-linejoin:miter;stroke-miterlimit:4;stroke-dasharray:none;stroke-opacity:1"
             d="m -160.73136,27.953279 c 0.77561,0.596628 3.12854,2.383314 3.49416,2.814741 2.83618,3.346698 4.27064,6.740006 4.27064,11.06484"
             id="path1108" />
          <path
             style="fill:none;stroke:#000000;stroke-width:1.2;stroke-linecap:butt;stroke-linejoin:miter;stroke-miterlimit:4;stroke-dasharray:none;stroke-opacity:1"
             d="m -156.36366,25.7209 c 3.07576,1.90169 5.64202,4.578913 7.37656,7.764801 0.85927,1.578242 1.45492,3.286857 2.13532,4.95006 0.52897,1.293029 0.45686,1.199933 0.58236,2.329439"
             id="path1110" />
          <path
             style="fill:none;stroke:#000000;stroke-width:1.2;stroke-linecap:butt;stroke-linejoin:miter;stroke-miterlimit:4;stroke-dasharray:none;stroke-opacity:1"
             d="m -153.3548,24.36206 c 5.18227,4.297985 7.94233,10.55528 9.706,16.888439 0.1777,0.638117 0.9706,3.434858 0.9706,4.561821"
             id="path1112" />
          <path
             style="fill:none;stroke:#000000;stroke-width:1.2;stroke-linecap:butt;stroke-linejoin:miter;stroke-miterlimit:4;stroke-dasharray:none;stroke-opacity:1"
             d="m -143.1635,36.009259 c 1.3458,2.832899 2.80449,5.443228 3.10592,8.638342 0.10552,1.118526 -0.28317,3.032884 0.0971,4.17358"
             id="path1114" />
          <path
             style="fill:none;stroke:#000000;stroke-width:1.2;stroke-linecap:butt;stroke-linejoin:miter;stroke-miterlimit:4;stroke-dasharray:none;stroke-opacity:1"
             d="m -136.27224,37.8534 c 2.31126,2.564463 1.83352,6.223968 2.23238,9.414819"
             id="path1116" />
          <path
             style="fill:none;stroke:#000000;stroke-width:1.2;stroke-linecap:butt;stroke-linejoin:miter;stroke-miterlimit:4;stroke-dasharray:none;stroke-opacity:1"
             d="m -136.66048,43.677001 c 0.95183,2.688079 1.74708,5.300046 1.74708,8.15304"
             id="path1118" />
          <path
             style="fill:none;stroke:#000000;stroke-width:1.2;stroke-linecap:butt;stroke-linejoin:miter;stroke-miterlimit:4;stroke-dasharray:none;stroke-opacity:1"
             d="m -159.85782,47.94764 c -0.59502,1.990871 -1.94251,3.471532 -3.20298,5.04712"
             id="path1120" />
          <path
             style="fill:none;stroke:#000000;stroke-width:1.2;stroke-linecap:butt;stroke-linejoin:miter;stroke-miterlimit:4;stroke-dasharray:none;stroke-opacity:1"
             d="m -158.11074,49.11236 c -0.35235,0.431874 -0.62755,0.920493 -0.9706,1.358839 -0.33956,0.433882 -0.71178,0.841187 -1.06766,1.261782 -0.38824,0.517652 -0.77257,1.038262 -1.16472,1.552959 -0.12555,0.164785 -0.1839,0.519358 -0.38824,0.485301 -0.51458,-0.08577 -0.90589,-0.517655 -1.35884,-0.776481"
             id="path1122" />
          <path
             style="fill:none;stroke:#000000;stroke-width:1.2;stroke-linecap:butt;stroke-linejoin:miter;stroke-miterlimit:4;stroke-dasharray:none;stroke-opacity:1"
             d="m -156.46072,50.27708 c -0.17609,1.561435 -1.47561,2.892829 -2.32944,4.173579"
             id="path1124" />
          <path
             style="fill:none;stroke:#000000;stroke-width:1.2;stroke-linecap:butt;stroke-linejoin:miter;stroke-miterlimit:4;stroke-dasharray:none;stroke-opacity:1"
             d="m -154.51952,51.24768 c -0.66855,0.689758 -1.39362,1.325761 -2.03826,2.03826 -1.06396,1.175959 0.91534,0.170704 -2.23238,1.164719"
             id="path1126" />
          <path
             style="fill:none;stroke:#000000;stroke-width:1.2;stroke-linecap:butt;stroke-linejoin:miter;stroke-miterlimit:4;stroke-dasharray:none;stroke-opacity:1"
             d="m -195.86708,62.991941 c 0.65042,-0.66774 1.36501,-1.52472 2.13532,-2.03826 0.3352,-0.223467 0.90311,-0.188703 1.26178,-0.291182 0.11216,-0.03205 0.18287,-0.150797 0.29118,-0.194119 0.76083,-0.304332 1.71108,-0.369232 2.52356,-0.485299 0.33161,-0.04737 0.63153,-0.248796 0.9706,-0.291179 0.37999,-0.0475 0.78723,0.06292 1.16472,0 0.39474,-0.06579 0.76555,-0.262668 1.16472,-0.291182 0.71765,-0.05126 1.41997,-0.04203 2.13532,-0.09706 0.58951,-0.04535 1.15508,-0.248894 1.74708,-0.291179 0.45179,-0.03227 0.9069,0.03013 1.35884,0 1.57832,-0.105222 3.18213,-0.319635 4.75594,-0.485302 1.86316,-0.196119 3.66453,-0.89785 5.53242,-1.06766 1.03623,-0.0942 2.06969,-0.09992 3.10592,-0.194119 0.77931,-0.07084 1.55601,-0.172191 2.32944,-0.291179 0.48766,-0.07503 0.95843,-0.258017 1.4559,-0.29118 1.33961,-0.08931 2.64586,-0.254881 3.97946,-0.388241 0.3843,-0.03843 0.7801,0.03496 1.16472,0 2.03816,-0.185288 4.06333,-0.19412 6.11478,-0.19412 0.98568,0 2.02683,0.0982 3.00886,0 0.70075,-0.07007 1.41966,-0.194119 2.13532,-0.194119"
             id="path1128" />
          <path
             style="fill:none;stroke:#000000;stroke-width:1.2;stroke-linecap:butt;stroke-linejoin:miter;stroke-miterlimit:4;stroke-dasharray:none;stroke-opacity:1"
             d="m -195.86708,62.991941 c 0.58236,0.323532 1.10556,0.790972 1.74708,0.9706 0.22176,0.06209 1.01838,-0.592492 1.26178,-0.679421 1.6507,-0.589536 3.13814,-1.202944 4.853,-1.358839 0.63964,-0.05815 1.30074,0.04003 1.9412,0 2.32733,-0.14546 4.65576,-0.09271 6.98832,-0.194119 2.55682,-0.111168 -0.27623,-0.03031 1.9412,-0.291182 0.0907,-0.01066 1.31591,0.0093 1.4559,0 1.03766,-0.06918 2.07053,-0.308594 3.10592,-0.388239 0.8475,-0.06519 1.67434,0.03359 2.52356,-0.09706 1.62118,-0.249412 3.21614,-0.583909 4.853,-0.776481 1.20493,-0.141755 1.1018,-0.01855 2.03826,-0.194119 1.83028,-0.343178 3.88418,-0.373719 5.62948,-0.776481 1.10809,-0.255714 2.17721,-0.519017 3.30004,-0.679421 0.61147,-0.08735 1.36288,-0.05985 1.9412,-0.291179 0.10831,-0.04332 0.17801,-0.165828 0.29118,-0.194119 0.15694,-0.03923 0.32738,0.03509 0.4853,0 0.323,-0.07178 0.64813,-0.210561 0.9706,-0.29118 0.0993,-0.02482 0.33968,-0.187142 0.29118,-0.09706 -0.24733,0.459324 -0.51765,0.905891 -0.77648,1.358839"
             id="path1130" />
          <path
             style="fill:none;stroke:#000000;stroke-width:1.2;stroke-linecap:butt;stroke-linejoin:miter;stroke-miterlimit:4;stroke-dasharray:none;stroke-opacity:1"
             d="m -129.43955,93.613755 c 2.67842,2.557698 3.62242,6.143363 4.39244,9.608445 0.27514,1.23812 0.75577,2.47568 0.96084,3.70612 0.27634,1.658 0.27453,3.36333 0.27453,5.07875"
             id="path1132" />
          <path
             style="fill:none;stroke:#000000;stroke-width:1.2;stroke-linecap:butt;stroke-linejoin:miter;stroke-miterlimit:4;stroke-dasharray:none;stroke-opacity:1"
             d="m -209.18968,180.70749 c 0.22877,0.38891 0.33969,0.87788 0.68632,1.16674 0.67414,0.56179 4.73411,1.62164 5.76507,1.78443 0.95796,0.15125 2.09222,0.14677 3.0198,0.41179 0.53547,0.15299 0.94089,0.44559 1.5099,0.54905 0.68122,0.12386 1.38723,0.1066 2.05895,0.27453 0.0444,0.0111 -0.0434,0.12279 0,0.13726 0.34995,0.11665 0.72986,0.1156 1.09811,0.13726 0.86783,0.0511 1.74167,-0.0722 2.60801,0 1.03763,0.0865 1.96895,0.24251 3.01979,0 1.11706,-0.25778 2.27552,-0.77527 3.15707,-1.50989 0.53979,-0.44984 0.94283,-1.09749 1.5099,-1.5099 0.89471,-0.65071 1.98864,-1.11401 2.88253,-1.78443 0.55964,-0.41973 0.96329,-1.23863 1.37264,-1.78443 0.62903,-0.83871 1.36611,-1.67893 2.05895,-2.47074 1.89967,-2.17105 3.81569,-4.38113 5.49054,-6.72592 2.0177,-2.82477 3.56713,-6.21749 5.62781,-8.92213 0.779,-1.02244 1.80599,-1.88001 2.60801,-2.88253 0.96756,-1.20946 1.77348,-2.54523 2.60801,-3.84338 0.60921,-0.94767 1.40987,-1.6993 2.05895,-2.60801 1.18152,-1.65413 2.18791,-3.46197 3.43159,-5.07875 1.98129,-2.57569 -0.70325,1.00861 1.5099,-1.64717 0.93559,-1.12271 1.79275,-2.32031 2.74527,-3.43158 0.89913,-1.04899 1.95699,-1.99142 2.88253,-3.0198 1.86952,-2.07724 3.58462,-4.26137 5.62781,-6.17686 0.70831,-0.78189 1.70162,-1.21667 2.47074,-1.92169 0.21597,-0.19797 0.3419,-0.47916 0.54906,-0.68632 0.62766,-0.62766 1.39021,-1.0813 2.05895,-1.64716 0.86336,-0.73054 1.60233,-1.59867 2.47075,-2.33349 1.36731,-1.15695 2.79552,-2.2194 4.1179,-3.43158 1.49378,-1.3693 2.62426,-3.17494 3.98065,-4.66696 0.49934,-0.39948 0.82289,-0.61689 1.23537,-1.09812 0.35313,-0.41199 0.23727,-0.63044 0.54905,-1.0981 0.17598,-0.26397 0.51034,-0.42235 0.68632,-0.68632 0.1641,-0.24615 1.09087,-2.08351 1.37264,-2.19622 0.16992,-0.068 0.36603,0 0.54905,0"
             id="path1134" />
          <path
             style="fill:none;stroke:#000000;stroke-width:1.2;stroke-linecap:butt;stroke-linejoin:miter;stroke-miterlimit:4;stroke-dasharray:none;stroke-opacity:1"
             d="m -209.18968,180.70749 c 0.15849,2.40828 -0.57009,4.70313 -0.82358,7.06907 -0.24851,2.31941 -0.13726,4.67164 -0.13726,7.00045 0,1.46223 -0.59361,5.65871 1.37263,6.31412 0.92236,0.30745 2.80182,-2.47987 3.29433,-3.15706 0.77328,-1.06327 1.65228,-2.65089 2.74527,-3.43159 1.12505,-0.80361 2.34496,-1.60144 3.43159,-2.47075 0.43494,-0.34795 1.17658,-1.38051 1.5099,-1.64716 0.20833,-0.16666 0.47983,-0.24285 0.68631,-0.41179 0.65649,-0.53712 4.56605,-4.53878 5.07876,-4.66696 0.21,-0.0525 -0.21247,0.73522 0,1.37263 0.4605,1.38151 1.20589,2.69221 1.92169,3.98065 1.20728,2.17312 2.96062,4.03506 4.39243,6.0396 0.44934,0.62906 0.70695,1.40703 1.09811,2.05895 0.569,0.94833 1.42174,1.74537 1.92169,2.74527 0.25883,0.51765 0.32107,1.1152 0.54905,1.64716 0.39529,0.92234 0.88303,1.80569 1.23538,2.74527 0.37121,0.98991 0.41179,2.11776 0.41179,3.15707 0,0.74125 -0.0743,1.44313 0.13726,1.37263 0.41791,-0.1393 2.00485,-2.36611 2.33348,-2.88253 0.69428,-1.09101 1.44006,-2.11734 2.19622,-3.15706 0.82883,-1.13964 1.24564,-2.53135 2.05895,-3.70612 0.66573,-0.96161 1.10859,-1.98111 1.64716,-3.0198 1.05513,-2.03489 2.12903,-4.06127 3.0198,-6.17686 0.30503,-0.72445 0.34316,-1.31544 0.68632,-2.05895 0.0959,-0.20772 0.30948,-0.34444 0.41179,-0.54906 0.85165,-1.70329 1.1752,-2.90811 2.33348,-4.5297 1.62066,-2.26891 3.49087,-4.38204 5.35328,-6.45138 0.58854,-0.65394 1.37383,-1.0996 1.92169,-1.78443 2.18719,-2.73399 3.83568,-5.75352 5.76507,-8.64761 0.45595,-0.68392 3.70612,-4.55079 3.70612,-5.21601"
             id="path1136" />
          <path
             style="fill:none;stroke:#000000;stroke-width:1.2;stroke-linecap:butt;stroke-linejoin:miter;stroke-miterlimit:4;stroke-dasharray:none;stroke-opacity:1"
             d="m -123.81174,112.00707 c 0.94872,0.0543 1.18859,0.91345 1.64716,1.64717 0.51626,0.826 0.76155,2.18301 0.27453,3.15706 -0.29986,0.59972 -0.89166,1.04566 -1.23537,1.64716 -0.41606,0.7281 -0.75632,1.38828 -1.23537,2.05895 -0.38918,0.54485 -0.34511,1.21575 -0.68632,1.78443 -0.15073,0.25122 -0.38654,0.44255 -0.54906,0.68632 -1.13111,1.69667 -1.73767,3.75441 -2.47074,5.6278 -0.63767,1.62961 -1.61154,3.0787 -2.33348,4.66697 -0.79443,1.74774 -1.67812,3.55103 -2.33348,5.35327 -0.35908,0.98747 -0.45422,2.03482 -0.82358,3.0198 -0.23824,0.6353 -0.68355,1.17438 -0.96085,1.78443 -0.78996,1.73792 -1.85861,3.63603 -3.15706,5.07875 -0.19599,0.21777 -0.47915,0.34189 -0.68632,0.54906 -1.02968,1.02967 -1.77716,2.38193 -2.60801,3.56885 -0.66332,0.9476 -1.47268,1.84085 -2.19621,2.74527 -1.01439,1.26799 -1.81757,2.65535 -2.74527,3.98064 -0.45776,0.65394 -0.91446,1.26716 -1.37264,1.92169 -0.37579,0.53685 -0.6256,1.31192 -1.09811,1.78443 -0.26488,0.26488 -0.80876,0.67891 -1.09811,0.82358 -0.14755,0.0738 -0.47101,0.4285 -0.41179,0.27453 0.25709,-0.66844 0.64057,-1.28113 0.96085,-1.92169"
             id="path1138" />
          <path
             style="fill:none;stroke:#000000;stroke-width:1.2;stroke-linecap:butt;stroke-linejoin:miter;stroke-miterlimit:4;stroke-dasharray:none;stroke-opacity:1"
             d="m -204.38546,196.83596 c -1.2689,2.10549 -1.89432,4.40645 -2.608,6.72591 -0.16951,0.55091 -0.54906,1.29201 -0.54906,1.92169 0,0.2239 -0.38909,1.86441 -0.27452,1.92169 1.00254,0.50127 3.78748,-0.35247 5.07875,-0.13726 0.71986,0.11998 3.08807,0.3428 3.43159,0.68632 0.0723,0.0723 0.0554,0.21314 0.13726,0.27452 0.42031,0.31523 1.07377,0.19373 1.5099,0.41179 0.14755,0.0738 0.25003,0.24218 0.41179,0.27453 0.0111,0.002 1.72238,-2.09431 1.92169,-2.33348 0.67815,-0.81377 1.2249,-1.94076 2.05895,-2.60801 0.37409,-0.29926 0.86003,-0.51079 1.23538,-0.82358 0.53354,-0.44462 0.897,-1.03427 1.37263,-1.5099 1.36611,-1.36611 3.43159,-3.13587 3.43159,-5.21601"
             id="path1140" />
          <path
             style="fill:none;stroke:#000000;stroke-width:1.2;stroke-linecap:butt;stroke-linejoin:miter;stroke-miterlimit:4;stroke-dasharray:none;stroke-opacity:1"
             d="m -207.90252,207.32016 c -3.27338,2.11939 -5.68276,5.24331 -7.95892,8.34716 -1.77328,2.41811 -3.90862,4.52995 -5.62948,6.98832 -0.97334,1.39049 -1.37239,3.32713 -2.13532,4.853 -0.25965,0.5193 -0.87902,1.1244 -1.16472,1.55296 -0.91841,1.37762 0.10476,0.1438 -0.58236,1.74708 -0.0721,0.16822 -0.31615,0.22002 -0.38824,0.38824 -1.09999,2.56664 -1.12757,5.50873 -1.9412,8.15304 -0.54442,1.76937 -1.39364,3.46165 -1.9412,5.24124 -0.50551,1.6429 -0.62543,3.42924 -1.16472,5.04712 -0.8325,2.49749 -2.01751,4.87256 -2.9118,7.37656 -0.61816,1.73085 -0.11403,0.89412 -0.77648,2.32944 -1.20573,2.61242 -2.48587,5.25102 -3.8824,7.7648 -0.92466,1.66439 -2.30908,3.43308 -2.9118,5.24124 -0.0614,0.18415 0,0.38825 0,0.58237 -0.19412,0.45294 -0.40933,0.89742 -0.58236,1.35882 -0.49026,1.30736 -1.14113,2.64692 -1.55296,3.88242 -0.2205,0.66149 -0.85764,1.20528 -0.77648,1.16472 0.16369,-0.0819 0.25883,-0.25884 0.38824,-0.38825"
             id="path1142" />
          <path
             style="fill:none;stroke:#000000;stroke-width:1.2;stroke-linecap:butt;stroke-linejoin:miter;stroke-miterlimit:4;stroke-dasharray:none;stroke-opacity:1"
             d="m -196.64356,208.679 c -1.53226,3.5485 -2.73749,7.19635 -3.10592,11.06484 -0.20515,2.15406 -0.51958,4.26513 -0.77648,6.40596 -0.39569,3.29744 -0.3374,6.60703 -0.77648,9.90012 -0.2299,1.72427 -0.77729,3.36825 -1.16472,5.04712 -1.05477,4.57066 -2.39559,8.99801 -4.07652,13.39428 -1.16976,3.05938 -2.31271,6.33736 -3.68828,9.31776 -0.53992,1.16983 -1.25117,2.30396 -1.74708,3.49417 -0.32418,0.778 -0.39301,1.75662 -0.77648,2.52354 -0.56954,1.13908 -1.50065,2.18937 -2.13532,3.30004 -0.27158,0.47527 -0.20554,1.09622 -0.38824,1.55297 -0.50479,1.26199 -0.81767,2.61967 -1.35884,3.88239 -0.26918,0.6281 -1.16472,2.14146 -1.16472,2.7177"
             id="path1144" />
          <path
             style="fill:none;stroke:#000000;stroke-width:1.2;stroke-linecap:butt;stroke-linejoin:miter;stroke-miterlimit:4;stroke-dasharray:none;stroke-opacity:1"
             d="m -211.00844,184.414 c -1.72572,1.78211 -3.22289,3.76649 -4.853,5.62948 -2.68813,3.07215 -5.7425,6.11079 -7.7648,9.706 -0.72253,1.2845 -1.05772,2.90872 -1.55296,4.27064 -0.64721,1.77983 -1.33875,3.70946 -2.13532,5.43536 -0.21862,0.47367 -0.60102,0.86755 -0.77648,1.35884 -0.15389,0.43089 -0.0831,0.91496 -0.19412,1.35884 -0.43709,1.74834 -0.92309,3.49824 -1.35884,5.24124 -0.16903,0.67611 -0.57153,1.27511 -0.77648,1.9412 -0.65305,2.12242 -1.34165,4.14828 -2.13532,6.21184 -0.90457,2.35188 -1.35718,4.84901 -2.32944,7.18244 -0.527,1.2648 -1.36443,2.19876 -2.13532,3.30004 -1.27411,1.82016 -2.35523,3.81587 -3.30004,5.8236 -0.86297,1.83381 -1.23337,3.74193 -1.9412,5.62948 -0.45764,1.22038 -0.74359,1.43127 -0.9706,2.71768 -0.11301,0.6404 -0.0579,1.30534 -0.19412,1.9412 -0.0606,0.28295 -0.28663,0.50553 -0.38824,0.77648 -0.57728,1.53941 -1.09091,3.43955 -1.35884,5.04712 -0.29118,1.74708 0.14559,0.58236 0,1.74708 -0.25813,2.06502 -0.77917,4.27738 -1.55296,6.21184 -0.1404,0.351 -0.24215,0.48429 -0.38824,0.77647 -0.0976,0.19519 0.32905,0.7765 -0.19412,0.7765 -0.19412,0 0,-0.38825 0,-0.58237"
             id="path1146" />
          <path
             style="fill:none;stroke:#000000;stroke-width:1.2;stroke-linecap:butt;stroke-linejoin:miter;stroke-miterlimit:4;stroke-dasharray:none;stroke-opacity:1"
             d="m -228.28512,210.03784 c -2.9139,1.08164 -4.80249,3.7962 -6.7942,6.01772 -3.69732,4.12393 -6.9396,8.56046 -10.48248,12.81192 -1.9845,2.3814 -4.18655,4.62549 -6.21184,6.98832 -1.32626,1.5473 -2.04425,3.47739 -3.30004,5.04712 -5.84681,7.30851 -8.64895,13.5876 -10.67659,22.71204 -0.48586,2.18627 -0.87715,4.35731 -0.9706,6.60008 -0.0817,1.96061 -0.006,3.71578 -0.38825,5.62949 -0.2961,1.48047 -1.48423,2.64895 -2.52357,3.68826 -0.16375,0.16378 -0.9706,1.11019 -0.9706,0.58238"
             id="path1148" />
          <path
             style="fill:none;stroke:#000000;stroke-width:1.2;stroke-linecap:butt;stroke-linejoin:miter;stroke-miterlimit:4;stroke-dasharray:none;stroke-opacity:1"
             d="m -209.45548,203.24364 c -3.18939,3.92222 -5.92824,8.169 -8.92952,12.22956 -1.50732,2.03932 -3.26697,3.92986 -4.65888,6.01772 -0.62464,0.93696 -1.43479,2.03614 -2.13532,2.9118 -0.63682,0.79602 -0.76761,0.56461 -1.16472,1.35884 -0.47182,0.94364 -0.73474,1.96583 -1.16472,2.9118 -0.21587,0.47492 -0.57584,0.87729 -0.77648,1.35884 -0.63698,1.52874 -0.93002,3.29565 -1.55296,4.853 -1.54585,3.86462 -3.82158,7.47008 -5.04712,11.45308 -0.78673,2.55687 -1.36411,5.16789 -1.9412,7.7648 -0.17934,0.80702 0.0915,1.47244 -0.19412,2.32944 -0.0738,0.22133 -0.30632,0.36391 -0.38824,0.58236 -0.21714,0.57903 -0.32088,2.35844 -0.38824,2.71768 -0.27736,1.47923 -0.94932,2.8373 -1.35884,4.27064 -0.25072,0.8775 -0.16453,1.88201 -0.58236,2.71767 -1.38,2.76 -0.29307,-0.0926 -1.16472,1.94122 -1.18876,2.77374 -1.61998,3.75529 -3.8824,6.01771 -0.26909,0.26908 -2.76399,2.79866 -2.52356,2.9118 1.13075,0.53213 2.32944,0.9059 3.49416,1.35884"
             id="path1150" />
          <path
             style="fill:none;stroke:#000000;stroke-width:1.2;stroke-linecap:butt;stroke-linejoin:miter;stroke-miterlimit:4;stroke-dasharray:none;stroke-opacity:1"
             d="m -123.81174,112.00707 c 4.7652,1.3776 8.39128,4.54587 11.8045,7.95909 0.85617,0.85617 1.51731,1.99893 2.52356,2.71768 1.88833,1.34881 3.69515,2.91661 5.62948,4.27064 1.28861,0.90203 2.70994,1.06379 4.076519,1.74708 1.400776,0.70039 -0.342779,0.0958 1.358842,0.77648 0.300773,0.12031 0.927814,0.15133 1.164719,0.38824 0.205216,0.20522 -0.80781,1.89113 -0.9706,2.13532 -0.917472,1.37621 -1.613215,2.83819 -2.32944,4.27064 -1.155,2.31 -2.97952,4.4467 -4.65888,6.40596 -1.16773,1.36235 -2.52415,2.76173 -3.49416,4.27064 -0.31297,0.48684 -0.45544,1.07141 -0.77648,1.55296 -0.59673,0.8951 -1.54817,1.58412 -2.13532,2.52356 -1.74825,2.7972 -3.30491,5.75666 -4.65888,8.7354 -1.44346,3.17561 -2.321,6.61526 -3.49416,9.90012 -0.2263,0.63365 -0.63097,2.59648 -0.9706,3.10592 -0.0803,0.12039 -0.30798,0.0737 -0.38824,0.19412 -0.13738,0.20608 -0.0534,0.75946 -0.19412,0.9706 -0.72816,1.09224 -6.02751,3.22631 -7.18244,3.68828 -2.2502,0.90008 -6.15864,3.77336 -8.15304,5.43536 -1.09101,0.90917 -2.01378,1.73863 -2.71768,2.9118 -0.22326,0.3721 -0.77692,0.58324 -0.9706,0.9706 -0.13739,0.27478 -0.47798,1.79195 -0.77648,1.9412 -0.10392,0.052 -2.93336,-5.37873 -3.68828,-6.7942 -1.19696,-2.24429 -2.87532,-3.92473 -4.27064,-6.01772 -1.03184,-1.54776 -1.56947,-4.32016 -2.13532,-6.01772 -0.2052,-0.61559 -0.9706,-1.07519 -0.9706,-1.55296"
             id="path1152" />
          <path
             style="fill:none;stroke:#000000;stroke-width:1.2;stroke-linecap:butt;stroke-linejoin:miter;stroke-miterlimit:4;stroke-dasharray:none;stroke-opacity:1"
             d="m -141.31936,188.10228 c 2.1273,2.57469 3.48455,5.6648 5.43536,8.34716 0.21569,0.29657 0.80883,0.68751 0.9706,0.9706 0.23372,0.40901 0.21329,0.92146 0.38824,1.35884 0.53459,1.33648 2.53203,4.41656 3.49416,5.24124 0.32574,0.27921 2.52356,1.47873 2.52356,1.55296 0,1.46801 -1.70107,3.09245 -2.32944,4.27064 -1.97022,3.69416 -3.96653,7.402 -6.01772,11.06484 -1.82227,3.25405 -3.75718,6.41225 -5.8236,9.51188 -0.76449,1.14673 -1.29629,1.57669 -1.9412,2.71768 -1.7538,3.10288 -3.31935,7.40552 -5.24124,10.28836 -0.84133,1.262 -2.07047,2.23217 -2.9118,3.49416 -1.42452,2.13678 -2.71619,4.13464 -4.46476,6.01772 -2.082,2.24215 -3.78946,4.99796 -5.04712,7.7648 -0.58682,1.291 -0.71743,2.79371 -1.35884,4.07652 -0.46076,0.92151 -0.82035,1.21219 -1.35884,2.13532 -1.10285,1.8906 -2.07564,3.89183 -3.10592,5.82361 -0.75389,1.41353 -2.40628,2.75407 -2.9118,4.27064 -0.16805,0.50414 -0.12993,0.84219 -0.38824,1.35882 -0.12066,0.24133 -1.05947,2.24057 -1.16472,2.13534 -0.27453,-0.27453 0,-0.77649 0,-1.16472"
             id="path1154" />
          <path
             style="fill:none;stroke:#000000;stroke-width:1.2;stroke-linecap:butt;stroke-linejoin:miter;stroke-miterlimit:4;stroke-dasharray:none;stroke-opacity:1"
             d="m -152.19008,168.49616 c 0.12942,0.77648 0.55901,1.56099 0.38824,2.32944 -0.20977,0.94394 -2.59985,4.52444 -3.10592,5.43536 -2.79322,5.02779 0.3077,0.41199 -3.68828,6.40596 -2.66796,4.00193 -1.36214,1.63755 -4.46476,6.01772 -0.46864,0.66161 -0.63708,1.51974 -1.16472,2.13532 -0.21055,0.24565 -0.51766,0.38824 -0.77648,0.58236 -0.25883,0.45295 -0.46964,0.93694 -0.77648,1.35884 -2.29636,3.15749 -5.67305,5.64465 -7.57068,9.12364 -2.44973,4.49116 -4.3878,9.33086 -6.60008,13.97664 -3.40443,7.1493 -6.94207,14.27238 -10.48248,21.3532 -0.59657,1.19313 -0.97742,2.48487 -1.55296,3.68828 -0.34981,0.73143 -0.84144,1.39179 -1.16472,2.13532 -0.32635,0.75061 -0.45406,1.57714 -0.77648,2.32944 -0.52485,1.22466 -1.37387,2.28859 -1.9412,3.49416 -0.76655,1.62892 -1.17197,3.4125 -1.9412,5.04712 -1.18701,2.52239 -2.44729,5.09996 -3.30004,7.7648 -0.24394,0.7623 -0.29743,1.5815 -0.58236,2.32944 -0.23716,0.62254 -0.64707,1.16473 -0.9706,1.74707 -0.32353,0.71179 -0.70764,1.39902 -0.9706,2.13532 -0.0653,0.18283 0.0471,0.39405 0,0.58238 -0.13409,0.53634 -0.44828,1.01661 -0.58236,1.55294 -0.39136,1.56544 -0.49436,3.42427 -0.9706,4.85302 -0.36974,1.10921 0.1635,2.73788 0,3.88239 -0.12238,0.85667 -0.19412,1.63748 -0.19412,2.52357"
             id="path1156" />
          <path
             style="fill:none;stroke:#000000;stroke-width:1.2;stroke-linecap:butt;stroke-linejoin:miter;stroke-miterlimit:4;stroke-dasharray:none;stroke-opacity:1"
             d="m -97.448242,130.25452 c 2.672115,0.12836 5.315387,-0.28863 7.958921,-0.58236 2.064432,-0.22938 4.157361,-0.26628 6.21184,-0.58236 2.331325,-0.35866 5.821836,-0.81209 8.15304,-0.38824 3.805473,0.6919 7.593308,1.81367 11.453082,2.13532 0.581144,0.0484 3.856172,0.16789 3.882398,0.19412 0.04575,0.0458 -0.05788,0.16518 0,0.19412 0.696912,0.34846 1.568823,0.0251 2.329442,0.19412 0.460279,0.10229 0.841451,0.38824 1.358839,0.38824"
             id="path1158" />
        </g>
      </g>
      <text
         xml:space="preserve"
         style="font-size:14.1111px;line-height:1.25;font-family:sans-serif;letter-spacing:0px;word-spacing:0px;stroke-width:0.264583"
         x="107.54248"
         y="386.68704"
         id="text1410"><tspan
           sodipodi:role="line"
           id="tspan1408"
           x="107.54248"
           y="386.68704"
           style="font-style:italic;font-variant:normal;font-weight:normal;font-stretch:normal;font-size:14.1111px;font-family:sans-serif;-inkscape-font-specification:'sans-serif Italic';stroke-width:0.264583">Y V Reddy 2003-08</tspan></text>
    </g>
  </g>
</svg>
